<svg width="20" height="20" viewBox="0 0 20 20" fill="none" xmlns="http://www.w3.org/2000/svg">
<path d="M9.5 16.9375C7.52745 16.9375 5.63569 16.1539 4.24089 14.7591C2.84609 13.3643 2.0625 11.4725 2.0625 9.5C2.0625 7.52745 2.84609 5.63569 4.24089 4.24089C5.63569 2.84609 7.52745 2.0625 9.5 2.0625C11.4725 2.0625 13.3643 2.84609 14.7591 4.24089C16.1539 5.63569 16.9375 7.52745 16.9375 9.5C16.9375 11.4725 16.1539 13.3643 14.7591 14.7591C13.3643 16.1539 11.4725 16.9375 9.5 16.9375ZM9.5 18C11.7543 18 13.9163 17.1045 15.5104 15.5104C17.1045 13.9163 18 11.7543 18 9.5C18 7.24566 17.1045 5.08365 15.5104 3.48959C13.9163 1.89553 11.7543 1 9.5 1C7.24566 1 5.08365 1.89553 3.48959 3.48959C1.89553 5.08365 1 7.24566 1 9.5C1 11.7543 1.89553 13.9163 3.48959 15.5104C5.08365 17.1045 7.24566 18 9.5 18Z" fill="#A4A4A4"/>
<path d="M10.4881 7.99975L8.05498 8.30469L7.96785 8.70844L8.44598 8.79662C8.75835 8.871 8.81998 8.98362 8.75198 9.29494L7.96785 12.9797C7.76173 13.9327 8.07942 14.3811 8.82636 14.3811C9.40542 14.3811 10.078 14.1134 10.3829 13.7457L10.4764 13.3037C10.2639 13.4907 9.95367 13.5651 9.74754 13.5651C9.45535 13.5651 9.3491 13.3601 9.42454 12.9988L10.4881 7.99975ZM10.5625 5.78125C10.5625 6.06304 10.4505 6.33329 10.2513 6.53255C10.052 6.73181 9.78177 6.84375 9.49998 6.84375C9.21819 6.84375 8.94794 6.73181 8.74868 6.53255C8.54942 6.33329 8.43748 6.06304 8.43748 5.78125C8.43748 5.49946 8.54942 5.22921 8.74868 5.02995C8.94794 4.83069 9.21819 4.71875 9.49998 4.71875C9.78177 4.71875 10.052 4.83069 10.2513 5.02995C10.4505 5.22921 10.5625 5.49946 10.5625 5.78125Z" fill="#A4A4A4"/>
</svg>
