<svg width="122" height="10" viewBox="0 0 122 10" fill="none" xmlns="http://www.w3.org/2000/svg">
<path d="M6.164 5.24266H3.608V7.83466H2.588V5.24266H0.0440001V4.31866H2.588V1.71466H3.608V4.31866H6.164V5.24266ZM16.2586 7.30666H12.6106L11.9386 9.16666H10.7866L13.8106 0.850664H15.0706L18.0826 9.16666H16.9306L16.2586 7.30666ZM15.9466 6.41866L14.4346 2.19466L12.9226 6.41866H15.9466ZM18.9926 5.85466C18.9926 5.18266 19.1286 4.59466 19.4006 4.09066C19.6726 3.57866 20.0446 3.18266 20.5166 2.90266C20.9966 2.62266 21.5326 2.48266 22.1246 2.48266C22.6366 2.48266 23.1126 2.60266 23.5526 2.84266C23.9926 3.07466 24.3286 3.38266 24.5606 3.76666V0.286664H25.6646V9.16666H24.5606V7.93066C24.3446 8.32266 24.0246 8.64666 23.6006 8.90266C23.1766 9.15066 22.6806 9.27466 22.1126 9.27466C21.5286 9.27466 20.9966 9.13066 20.5166 8.84266C20.0446 8.55466 19.6726 8.15066 19.4006 7.63066C19.1286 7.11066 18.9926 6.51866 18.9926 5.85466ZM24.5606 5.86666C24.5606 5.37066 24.4606 4.93866 24.2606 4.57066C24.0606 4.20266 23.7886 3.92266 23.4446 3.73066C23.1086 3.53066 22.7366 3.43066 22.3286 3.43066C21.9206 3.43066 21.5486 3.52666 21.2126 3.71866C20.8766 3.91066 20.6086 4.19066 20.4086 4.55866C20.2086 4.92666 20.1086 5.35866 20.1086 5.85466C20.1086 6.35866 20.2086 6.79866 20.4086 7.17466C20.6086 7.54266 20.8766 7.82666 21.2126 8.02666C21.5486 8.21866 21.9206 8.31466 22.3286 8.31466C22.7366 8.31466 23.1086 8.21866 23.4446 8.02666C23.7886 7.82666 24.0606 7.54266 24.2606 7.17466C24.4606 6.79866 24.5606 6.36266 24.5606 5.86666ZM27.1019 5.85466C27.1019 5.18266 27.2379 4.59466 27.5099 4.09066C27.7819 3.57866 28.1539 3.18266 28.6259 2.90266C29.1059 2.62266 29.6419 2.48266 30.2339 2.48266C30.7459 2.48266 31.2219 2.60266 31.6619 2.84266C32.1019 3.07466 32.4379 3.38266 32.6699 3.76666V0.286664H33.7739V9.16666H32.6699V7.93066C32.4539 8.32266 32.1339 8.64666 31.7099 8.90266C31.2859 9.15066 30.7899 9.27466 30.2219 9.27466C29.6379 9.27466 29.1059 9.13066 28.6259 8.84266C28.1539 8.55466 27.7819 8.15066 27.5099 7.63066C27.2379 7.11066 27.1019 6.51866 27.1019 5.85466ZM32.6699 5.86666C32.6699 5.37066 32.5699 4.93866 32.3699 4.57066C32.1699 4.20266 31.8979 3.92266 31.5539 3.73066C31.2179 3.53066 30.8459 3.43066 30.4379 3.43066C30.0299 3.43066 29.6579 3.52666 29.3219 3.71866C28.9859 3.91066 28.7179 4.19066 28.5179 4.55866C28.3179 4.92666 28.2179 5.35866 28.2179 5.85466C28.2179 6.35866 28.3179 6.79866 28.5179 7.17466C28.7179 7.54266 28.9859 7.82666 29.3219 8.02666C29.6579 8.21866 30.0299 8.31466 30.4379 8.31466C30.8459 8.31466 31.2179 8.21866 31.5539 8.02666C31.8979 7.82666 32.1699 7.54266 32.3699 7.17466C32.5699 6.79866 32.6699 6.36266 32.6699 5.86666ZM46.7265 2.47066C47.2385 2.47066 47.6945 2.57866 48.0945 2.79466C48.4945 3.00266 48.8105 3.31866 49.0425 3.74266C49.2745 4.16666 49.3905 4.68266 49.3905 5.29066V9.16666H48.3105V5.44666C48.3105 4.79066 48.1465 4.29066 47.8185 3.94666C47.4985 3.59466 47.0625 3.41866 46.5105 3.41866C45.9425 3.41866 45.4905 3.60266 45.1545 3.97066C44.8185 4.33066 44.6505 4.85466 44.6505 5.54266V9.16666H43.5705V5.44666C43.5705 4.79066 43.4065 4.29066 43.0785 3.94666C42.7585 3.59466 42.3225 3.41866 41.7705 3.41866C41.2025 3.41866 40.7505 3.60266 40.4145 3.97066C40.0785 4.33066 39.9105 4.85466 39.9105 5.54266V9.16666H38.8185V2.59066H39.9105V3.53866C40.1265 3.19466 40.4145 2.93066 40.7745 2.74666C41.1425 2.56266 41.5465 2.47066 41.9865 2.47066C42.5385 2.47066 43.0265 2.59466 43.4505 2.84266C43.8745 3.09066 44.1905 3.45466 44.3985 3.93466C44.5825 3.47066 44.8865 3.11066 45.3105 2.85466C45.7345 2.59866 46.2065 2.47066 46.7265 2.47066ZM54.0498 9.27466C53.4338 9.27466 52.8738 9.13466 52.3698 8.85466C51.8738 8.57466 51.4818 8.17866 51.1938 7.66666C50.9138 7.14666 50.7738 6.54666 50.7738 5.86666C50.7738 5.19466 50.9178 4.60266 51.2058 4.09066C51.5018 3.57066 51.9018 3.17466 52.4058 2.90266C52.9098 2.62266 53.4738 2.48266 54.0978 2.48266C54.7218 2.48266 55.2858 2.62266 55.7898 2.90266C56.2938 3.17466 56.6898 3.56666 56.9778 4.07866C57.2738 4.59066 57.4218 5.18666 57.4218 5.86666C57.4218 6.54666 57.2698 7.14666 56.9658 7.66666C56.6698 8.17866 56.2658 8.57466 55.7538 8.85466C55.2418 9.13466 54.6738 9.27466 54.0498 9.27466ZM54.0498 8.31466C54.4418 8.31466 54.8098 8.22266 55.1538 8.03866C55.4978 7.85466 55.7738 7.57866 55.9818 7.21066C56.1978 6.84266 56.3058 6.39466 56.3058 5.86666C56.3058 5.33866 56.2018 4.89066 55.9938 4.52266C55.7858 4.15466 55.5138 3.88266 55.1778 3.70666C54.8418 3.52266 54.4778 3.43066 54.0858 3.43066C53.6858 3.43066 53.3178 3.52266 52.9818 3.70666C52.6538 3.88266 52.3898 4.15466 52.1898 4.52266C51.9898 4.89066 51.8898 5.33866 51.8898 5.86666C51.8898 6.40266 51.9858 6.85466 52.1778 7.22266C52.3778 7.59066 52.6418 7.86666 52.9698 8.05066C53.2978 8.22666 53.6578 8.31466 54.0498 8.31466ZM59.9496 3.65866C60.1416 3.28266 60.4136 2.99066 60.7656 2.78266C61.1256 2.57466 61.5616 2.47066 62.0736 2.47066V3.59866H61.7856C60.5616 3.59866 59.9496 4.26266 59.9496 5.59066V9.16666H58.8576V2.59066H59.9496V3.65866ZM69.3342 5.62666C69.3342 5.83466 69.3222 6.05466 69.2982 6.28666H64.0422C64.0822 6.93466 64.3022 7.44266 64.7022 7.81066C65.1102 8.17066 65.6022 8.35066 66.1782 8.35066C66.6502 8.35066 67.0422 8.24266 67.3542 8.02666C67.6742 7.80266 67.8982 7.50666 68.0262 7.13866H69.2022C69.0262 7.77066 68.6742 8.28666 68.1462 8.68666C67.6182 9.07866 66.9622 9.27466 66.1782 9.27466C65.5542 9.27466 64.9942 9.13466 64.4982 8.85466C64.0102 8.57466 63.6262 8.17866 63.3462 7.66666C63.0662 7.14666 62.9262 6.54666 62.9262 5.86666C62.9262 5.18666 63.0622 4.59066 63.3342 4.07866C63.6062 3.56666 63.9862 3.17466 64.4742 2.90266C64.9702 2.62266 65.5382 2.48266 66.1782 2.48266C66.8022 2.48266 67.3542 2.61866 67.8342 2.89066C68.3142 3.16266 68.6822 3.53866 68.9382 4.01866C69.2022 4.49066 69.3342 5.02666 69.3342 5.62666ZM68.2062 5.39866C68.2062 4.98266 68.1142 4.62666 67.9302 4.33066C67.7462 4.02666 67.4942 3.79866 67.1742 3.64666C66.8622 3.48666 66.5142 3.40666 66.1302 3.40666C65.5782 3.40666 65.1062 3.58266 64.7142 3.93466C64.3302 4.28666 64.1102 4.77466 64.0542 5.39866H68.2062ZM76.3028 9.27466C75.7988 9.27466 75.3468 9.19066 74.9468 9.02266C74.5468 8.84666 74.2308 8.60666 73.9988 8.30266C73.7668 7.99066 73.6388 7.63466 73.6148 7.23466H74.7428C74.7748 7.56266 74.9268 7.83066 75.1988 8.03866C75.4788 8.24666 75.8428 8.35066 76.2908 8.35066C76.7068 8.35066 77.0348 8.25866 77.2748 8.07466C77.5148 7.89066 77.6348 7.65866 77.6348 7.37866C77.6348 7.09066 77.5068 6.87866 77.2508 6.74266C76.9948 6.59866 76.5988 6.45866 76.0628 6.32266C75.5748 6.19466 75.1748 6.06666 74.8628 5.93866C74.5588 5.80266 74.2948 5.60666 74.0708 5.35066C73.8548 5.08666 73.7468 4.74266 73.7468 4.31866C73.7468 3.98266 73.8468 3.67466 74.0468 3.39466C74.2468 3.11466 74.5308 2.89466 74.8988 2.73466C75.2668 2.56666 75.6868 2.48266 76.1588 2.48266C76.8868 2.48266 77.4748 2.66666 77.9228 3.03466C78.3708 3.40266 78.6108 3.90666 78.6428 4.54666H77.5508C77.5268 4.20266 77.3868 3.92666 77.1308 3.71866C76.8828 3.51066 76.5468 3.40666 76.1228 3.40666C75.7308 3.40666 75.4188 3.49066 75.1868 3.65866C74.9548 3.82666 74.8388 4.04666 74.8388 4.31866C74.8388 4.53466 74.9068 4.71466 75.0428 4.85866C75.1868 4.99466 75.3628 5.10666 75.5708 5.19466C75.7868 5.27466 76.0828 5.36666 76.4588 5.47066C76.9308 5.59866 77.3148 5.72666 77.6108 5.85466C77.9068 5.97466 78.1588 6.15866 78.3668 6.40666C78.5828 6.65466 78.6948 6.97866 78.7028 7.37866C78.7028 7.73866 78.6028 8.06266 78.4028 8.35066C78.2028 8.63866 77.9188 8.86666 77.5508 9.03466C77.1908 9.19466 76.7748 9.27466 76.3028 9.27466ZM86.2443 5.62666C86.2443 5.83466 86.2323 6.05466 86.2083 6.28666H80.9523C80.9923 6.93466 81.2123 7.44266 81.6123 7.81066C82.0203 8.17066 82.5123 8.35066 83.0883 8.35066C83.5603 8.35066 83.9523 8.24266 84.2643 8.02666C84.5843 7.80266 84.8083 7.50666 84.9363 7.13866H86.1123C85.9363 7.77066 85.5843 8.28666 85.0563 8.68666C84.5283 9.07866 83.8723 9.27466 83.0883 9.27466C82.4643 9.27466 81.9043 9.13466 81.4083 8.85466C80.9203 8.57466 80.5363 8.17866 80.2563 7.66666C79.9763 7.14666 79.8363 6.54666 79.8363 5.86666C79.8363 5.18666 79.9723 4.59066 80.2443 4.07866C80.5163 3.56666 80.8963 3.17466 81.3843 2.90266C81.8803 2.62266 82.4483 2.48266 83.0883 2.48266C83.7123 2.48266 84.2643 2.61866 84.7443 2.89066C85.2243 3.16266 85.5923 3.53866 85.8483 4.01866C86.1123 4.49066 86.2443 5.02666 86.2443 5.62666ZM85.1163 5.39866C85.1163 4.98266 85.0243 4.62666 84.8403 4.33066C84.6563 4.02666 84.4043 3.79866 84.0843 3.64666C83.7723 3.48666 83.4243 3.40666 83.0403 3.40666C82.4883 3.40666 82.0163 3.58266 81.6243 3.93466C81.2403 4.28666 81.0203 4.77466 80.9643 5.39866H85.1163ZM88.7777 3.65866C88.9697 3.28266 89.2417 2.99066 89.5937 2.78266C89.9537 2.57466 90.3897 2.47066 90.9017 2.47066V3.59866H90.6137C89.3897 3.59866 88.7777 4.26266 88.7777 5.59066V9.16666H87.6857V2.59066H88.7777V3.65866ZM94.6103 8.15866L96.6503 2.59066H97.8143L95.2343 9.16666H93.9623L91.3823 2.59066H92.5583L94.6103 8.15866ZM99.4528 1.52266C99.2448 1.52266 99.0688 1.45066 98.9248 1.30666C98.7808 1.16266 98.7088 0.986664 98.7088 0.778663C98.7088 0.570664 98.7808 0.394664 98.9248 0.250664C99.0688 0.106664 99.2448 0.0346637 99.4528 0.0346637C99.6528 0.0346637 99.8208 0.106664 99.9568 0.250664C100.101 0.394664 100.173 0.570664 100.173 0.778663C100.173 0.986664 100.101 1.16266 99.9568 1.30666C99.8208 1.45066 99.6528 1.52266 99.4528 1.52266ZM99.9808 2.59066V9.16666H98.8888V2.59066H99.9808ZM101.434 5.86666C101.434 5.18666 101.57 4.59466 101.842 4.09066C102.114 3.57866 102.49 3.18266 102.97 2.90266C103.458 2.62266 104.014 2.48266 104.638 2.48266C105.446 2.48266 106.11 2.67866 106.63 3.07066C107.158 3.46266 107.506 4.00666 107.674 4.70266H106.498C106.386 4.30266 106.166 3.98666 105.838 3.75466C105.518 3.52266 105.118 3.40666 104.638 3.40666C104.014 3.40666 103.51 3.62266 103.126 4.05466C102.742 4.47866 102.55 5.08266 102.55 5.86666C102.55 6.65866 102.742 7.27066 103.126 7.70266C103.51 8.13466 104.014 8.35066 104.638 8.35066C105.118 8.35066 105.518 8.23866 105.838 8.01466C106.158 7.79066 106.378 7.47066 106.498 7.05466H107.674C107.498 7.72666 107.146 8.26666 106.618 8.67466C106.09 9.07466 105.43 9.27466 104.638 9.27466C104.014 9.27466 103.458 9.13466 102.97 8.85466C102.49 8.57466 102.114 8.17866 101.842 7.66666C101.57 7.15466 101.434 6.55466 101.434 5.86666ZM115.131 5.62666C115.131 5.83466 115.119 6.05466 115.095 6.28666H109.839C109.879 6.93466 110.099 7.44266 110.499 7.81066C110.907 8.17066 111.399 8.35066 111.975 8.35066C112.447 8.35066 112.839 8.24266 113.151 8.02666C113.471 7.80266 113.695 7.50666 113.823 7.13866H114.999C114.823 7.77066 114.471 8.28666 113.943 8.68666C113.415 9.07866 112.759 9.27466 111.975 9.27466C111.351 9.27466 110.791 9.13466 110.295 8.85466C109.807 8.57466 109.423 8.17866 109.143 7.66666C108.863 7.14666 108.723 6.54666 108.723 5.86666C108.723 5.18666 108.859 4.59066 109.131 4.07866C109.403 3.56666 109.783 3.17466 110.271 2.90266C110.767 2.62266 111.335 2.48266 111.975 2.48266C112.599 2.48266 113.151 2.61866 113.631 2.89066C114.111 3.16266 114.479 3.53866 114.735 4.01866C114.999 4.49066 115.131 5.02666 115.131 5.62666ZM114.003 5.39866C114.003 4.98266 113.911 4.62666 113.727 4.33066C113.543 4.02666 113.291 3.79866 112.971 3.64666C112.659 3.48666 112.311 3.40666 111.927 3.40666C111.375 3.40666 110.903 3.58266 110.511 3.93466C110.127 4.28666 109.907 4.77466 109.851 5.39866H114.003ZM118.9 9.27466C118.396 9.27466 117.944 9.19066 117.544 9.02266C117.144 8.84666 116.828 8.60666 116.596 8.30266C116.364 7.99066 116.236 7.63466 116.212 7.23466H117.34C117.372 7.56266 117.524 7.83066 117.796 8.03866C118.076 8.24666 118.44 8.35066 118.888 8.35066C119.304 8.35066 119.632 8.25866 119.872 8.07466C120.112 7.89066 120.232 7.65866 120.232 7.37866C120.232 7.09066 120.104 6.87866 119.848 6.74266C119.592 6.59866 119.196 6.45866 118.66 6.32266C118.172 6.19466 117.772 6.06666 117.46 5.93866C117.156 5.80266 116.892 5.60666 116.668 5.35066C116.452 5.08666 116.344 4.74266 116.344 4.31866C116.344 3.98266 116.444 3.67466 116.644 3.39466C116.844 3.11466 117.128 2.89466 117.496 2.73466C117.864 2.56666 118.284 2.48266 118.756 2.48266C119.484 2.48266 120.072 2.66666 120.52 3.03466C120.968 3.40266 121.208 3.90666 121.24 4.54666H120.148C120.124 4.20266 119.984 3.92666 119.728 3.71866C119.48 3.51066 119.144 3.40666 118.72 3.40666C118.328 3.40666 118.016 3.49066 117.784 3.65866C117.552 3.82666 117.436 4.04666 117.436 4.31866C117.436 4.53466 117.504 4.71466 117.64 4.85866C117.784 4.99466 117.96 5.10666 118.168 5.19466C118.384 5.27466 118.68 5.36666 119.056 5.47066C119.528 5.59866 119.912 5.72666 120.208 5.85466C120.504 5.97466 120.756 6.15866 120.964 6.40666C121.18 6.65466 121.292 6.97866 121.3 7.37866C121.3 7.73866 121.2 8.06266 121 8.35066C120.8 8.63866 120.516 8.86666 120.148 9.03466C119.788 9.19466 119.372 9.27466 118.9 9.27466Z" fill="#77ACA2"/>
</svg>
