<svg width="160" height="160" viewBox="0 0 160 160" fill="none" xmlns="http://www.w3.org/2000/svg">
<path d="M80.0002 0.833344C37.0839 0.833344 0.833496 37.0838 0.833496 80C0.833496 122.916 37.0839 159.167 80.0002 159.167C122.916 159.167 159.167 122.916 159.167 80C159.167 37.0838 122.916 0.833344 80.0002 0.833344ZM80.0002 40.4167C93.6722 40.4167 103.75 50.4867 103.75 64.1667C103.75 77.8467 93.6722 87.9167 80.0002 87.9167C66.336 87.9167 56.2502 77.8467 56.2502 64.1667C56.2502 50.4867 66.336 40.4167 80.0002 40.4167ZM39.5777 117.778C46.6789 107.328 58.5222 100.362 72.0835 100.362H87.9168C101.486 100.362 113.321 107.328 120.423 117.778C110.305 128.608 95.9523 135.417 80.0002 135.417C64.0481 135.417 49.6952 128.608 39.5777 117.778Z" fill="#46D0D9"/>
</svg>
