<svg width="97" height="69" viewBox="0 0 97 69" fill="none" xmlns="http://www.w3.org/2000/svg">
<g filter="url(#filter0_i_506_12178)">
<path d="M88.5798 68.9587C92.7545 62.2999 97.06 57.621 96.6065 48.1802C96.2212 40.0908 87.0893 37.7539 84.6641 34.3121C81.6969 30.0996 85.1775 22.1135 79.9133 14.9227C74.1476 7.04715 64.9106 7.22132 57.3134 11.1988C51.7653 14.1033 46.0678 15.1033 40.492 13.3814C31.066 10.4714 18.1493 9.65749 16.8652 21.2165C15.9721 29.2524 11.6001 31.746 4.66656 37.1393C-4.68663 44.4139 2.43127 58.8008 6.03631 68.9605H88.5798" fill="#F5F5F5"/>
<path d="M58.5771 62.0805L38.1323 62.0935C36.5839 62.0942 35.0987 61.4799 34.0031 60.3857C32.9075 59.2916 32.2914 57.807 32.2902 56.2586L32.2588 6.22778C32.2582 5.46098 32.4086 4.70154 32.7016 3.9929C32.9945 3.28425 33.4241 2.6403 33.966 2.09771C34.5078 1.55512 35.1512 1.12453 35.8594 0.830617C36.5676 0.5367 37.3268 0.385181 38.0936 0.384697L58.5384 0.371758C59.9618 0.373367 61.3361 0.892262 62.4053 1.83182C63.0286 2.37711 63.5275 3.04993 63.8685 3.80465C64.2094 4.55937 64.3844 5.37848 64.3815 6.20663L64.4129 56.2383C64.4134 57.0051 64.2628 57.7644 63.9699 58.4729C63.6769 59.1814 63.2473 59.8254 62.7055 60.3679C62.1636 60.9103 61.5202 61.3409 60.8121 61.6347C60.1039 61.9286 59.3448 62.08 58.5781 62.0805" fill="#0058A3"/>
<path d="M58.7874 60.5947L37.9204 60.6075C37.3834 60.6101 36.8512 60.5069 36.3541 60.3037C35.8571 60.1006 35.4049 59.8016 35.0234 59.4237C34.6419 59.0458 34.3386 58.5964 34.1307 58.1013C33.9229 57.6061 33.8146 57.075 33.8121 56.538L33.7798 5.8315C33.7817 5.29453 33.8894 4.76316 34.0967 4.2678C34.304 3.77245 34.6068 3.32278 34.9879 2.94445C35.3689 2.56612 35.8208 2.26655 36.3176 2.06285C36.8145 1.85915 37.3466 1.7553 37.8835 1.75724L58.7514 1.7443C59.2884 1.74176 59.8206 1.84508 60.3177 2.04822C60.8148 2.25136 61.2669 2.55035 61.6484 2.92825C62.0299 3.30615 62.3333 3.75557 62.5411 4.2507C62.749 4.74583 62.8572 5.27698 62.8598 5.81395L62.892 56.5196C62.8881 57.6039 62.4537 58.6422 61.6843 59.4063C60.9149 60.1703 59.8735 60.5975 58.7892 60.5938" fill="#46D0D9"/>
<path d="M32.337 16.747C32.0954 16.747 31.8638 16.651 31.693 16.4802C31.5222 16.3094 31.4263 16.0778 31.4263 15.8363V11.1132C31.4263 10.8717 31.5222 10.6399 31.693 10.4692C31.8638 10.2984 32.0954 10.2025 32.337 10.2025C32.5785 10.2025 32.8101 10.2984 32.9809 10.4692C33.1517 10.6399 33.2477 10.8717 33.2477 11.1132V15.8363C33.2477 16.0778 33.1517 16.3094 32.9809 16.4802C32.8101 16.651 32.5785 16.747 32.337 16.747Z" fill="#0058A3"/>
<path d="M21.9825 22.7071C21.9825 22.7071 17.6807 26.9409 17.4844 28.5374C17.288 30.1339 19.4348 32.631 19.4348 32.631L21.9825 22.7071Z" fill="#46D0D9"/>
<path d="M23.5356 66.6792C23.5356 66.6792 23.6758 68.9302 24.1108 68.9625C24.1689 68.9625 26.3232 68.9625 26.3232 68.9625L29.0692 68.9468C29.0487 68.7379 28.9551 68.543 28.805 68.3963C28.6549 68.2496 28.4579 68.1605 28.2487 68.1448C27.7072 68.0625 27.1906 67.8616 26.7357 67.5567C26.2808 67.2517 25.8989 66.8501 25.6171 66.3806C25.1055 65.2652 23.5404 66.6746 23.5404 66.6746" fill="black"/>
<path d="M17.4219 66.6792C17.4219 66.6792 17.5611 68.9302 17.9971 68.9625C18.0552 68.9625 20.2092 68.9625 20.2092 68.9625L22.9552 68.9468C22.9347 68.7379 22.8413 68.543 22.6912 68.3963C22.5411 68.2496 22.3442 68.1605 22.1349 68.1448C21.5935 68.0624 21.0768 67.8616 20.622 67.5566C20.1671 67.2517 19.7852 66.8501 19.5033 66.3806C18.9917 65.2652 17.4275 66.6746 17.4275 66.6746" fill="black"/>
<path d="M26.5767 42.4902C25.7557 46.8152 24.6206 51.0746 23.1802 55.2345C20.5015 63.3866 20.1383 66.9162 20.1383 66.9162L17.2652 66.8359C17.2652 66.8359 17.2403 57.927 18.4754 53.8279C19.7106 49.7288 18.7417 39.0501 18.7417 39.0501L26.5767 42.4911" fill="black"/>
<path d="M26.5767 42.4902C25.7557 46.8152 24.6206 51.0746 23.1802 55.2345C20.5015 63.3866 20.1383 66.9162 20.1383 66.9162L17.2652 66.8359C17.2652 66.8359 17.2403 57.927 18.4754 53.8279C19.7106 49.7288 18.7417 39.0501 18.7417 39.0501L26.5767 42.4911" stroke="black" stroke-width="0.122595"/>
<path d="M27.9741 39.3008C27.9662 44.4588 27.6003 49.6102 26.879 54.7175C25.6807 63.2134 26.0882 66.8202 26.0882 66.8202L23.2205 66.9125C23.2205 66.9125 21.507 58.4128 21.9974 54.1597C22.4878 49.9067 19.6514 39.5664 19.6514 39.5664L27.975 39.2972" fill="#212121"/>
<path d="M22.4233 23.1072L23.7754 24.1092L25.7305 23.6971C25.7029 23.5192 25.5738 22.7754 25.454 22.1108C25.4475 22.0712 25.4411 22.0315 25.4337 21.9928C25.3332 21.4231 25.2494 20.9346 25.2494 20.9346L23.4234 20.0248L22.7431 19.6847C22.7431 19.6967 22.7965 20.317 22.8039 20.4073C22.8921 21.3243 22.7624 22.2491 22.4251 23.1063" fill="#FFB27D"/>
<path d="M25.5949 22.603C24.6344 22.2913 23.6502 22.0585 22.6518 21.907C22.3679 21.9992 22.1992 22.5523 22.1992 22.5523L26.4779 23.5201C26.2837 23.1324 25.9756 22.8134 25.5949 22.6058" fill="#46D0D9"/>
<path d="M18.5494 40.1553C18.9928 42.1776 26.3734 42.4182 28.275 40.5821C28.4916 40.3728 28.5027 39.3994 28.4206 38.0859C28.2602 35.5206 27.7478 31.6613 27.7284 29.6905C27.709 28.7461 27.6039 27.8053 27.4142 26.88C27.1884 25.7365 26.8752 24.6121 26.4776 23.5165C26.4776 23.5165 22.8725 22.3514 22.1987 22.5486C18.9485 23.5036 18.106 38.132 18.5494 40.1544" fill="#46D0D9"/>
<path d="M28.4209 38.085C28.2605 35.5198 27.7481 31.6612 27.7287 29.6895C27.7087 28.7451 27.6032 27.8045 27.4134 26.8791L25.2445 26.4966C25.2445 26.4966 23.1254 35.1557 28.4209 38.085Z" fill="#46D0D9"/>
<path d="M27.2469 34.5096C27.2065 34.6124 27.2004 34.7256 27.2298 34.8322C27.2593 34.9387 27.3226 35.0328 27.4101 35.1004C27.5574 35.1978 27.6758 35.3328 27.7533 35.4915C27.8308 35.6502 27.8645 35.8268 27.8507 36.0028C27.7798 36.284 27.0985 36.7402 26.8626 36.6683C26.6266 36.5964 26.1453 36.224 26.1969 36.0765C26.2485 35.929 25.8744 34.7759 26.4496 34.3335C26.5039 34.2691 26.5746 34.2209 26.6544 34.1941C26.7342 34.1672 26.82 34.1626 26.9022 34.1809C26.9844 34.1992 27.0599 34.2398 27.1207 34.298C27.1815 34.3563 27.2251 34.43 27.2469 34.5114" fill="#FFB27D"/>
<path d="M24.8261 23.0676C26.4102 23.471 27.7732 24.4793 28.6221 25.8762C30.3071 28.3595 31.4159 30.2085 31.1052 31.1008C30.7946 31.9931 27.9659 35.0994 27.4773 35.0994C27.1538 35.1045 26.8397 34.9894 26.5961 34.7764C26.3524 34.5634 26.1964 34.2677 26.1581 33.9463C26.1581 33.9463 28.1502 30.9607 27.7584 30.5137C27.5906 30.3219 25.172 28.3586 24.8272 29.2462C24.2557 30.7137 24.8272 23.0703 24.8272 23.0703" fill="#46D0D9"/>
<path d="M22.94 20.434C23.341 21.201 24.8342 21.8647 25.4573 22.108C25.4509 22.0684 25.4435 22.0287 25.4371 21.9909C25.3366 21.4222 25.2525 20.9327 25.2525 20.9327L23.4275 20.0229C23.0246 20.0164 22.7823 20.1151 22.9445 20.435" fill="#FCA56B"/>
<path d="M26.135 20.8286C26.135 20.8286 22.8416 21.8564 22.2332 19.7953C21.6248 17.7342 20.7906 16.4769 22.8674 15.7395C24.9441 15.0021 25.5875 15.6621 25.9581 16.3C26.3286 16.9378 26.9765 20.5115 26.1359 20.8323" fill="#FFB27D"/>
<path d="M25.4457 16.1764C25.4457 16.1764 25.2551 18.6505 24.7573 18.5389C24.2596 18.4274 23.8078 18.3435 23.8871 19.092C23.9664 19.8404 24.6622 20.7069 23.1312 20.8258C21.6001 20.9447 19.3639 16.8567 19.7796 16.0889C20.9779 13.8767 27.1786 13.4803 25.4457 16.1811" fill="black"/>
<path d="M59.3808 13.483H37.0252C36.007 13.483 35.1816 14.3084 35.1816 15.3266V16.2032C35.1816 17.2213 36.007 18.0467 37.0252 18.0467H59.3808C60.399 18.0467 61.2244 17.2213 61.2244 16.2032V15.3266C61.2244 14.3084 60.399 13.483 59.3808 13.483Z" fill="white"/>
<path d="M59.3808 21.5375H37.0252C36.007 21.5375 35.1816 22.3628 35.1816 23.381V24.2576C35.1816 25.2757 36.007 26.1011 37.0252 26.1011H59.3808C60.399 26.1011 61.2244 25.2757 61.2244 24.2576V23.381C61.2244 22.3628 60.399 21.5375 59.3808 21.5375Z" fill="white"/>
<path d="M59.3808 29.5919H37.0252C36.007 29.5919 35.1816 30.4172 35.1816 31.4354V32.312C35.1816 33.3302 36.007 34.1555 37.0252 34.1555H59.3808C60.399 34.1555 61.2244 33.3302 61.2244 32.312V31.4354C61.2244 30.4172 60.399 29.5919 59.3808 29.5919Z" fill="white"/>
<path d="M59.3808 37.6463H37.0252C36.007 37.6463 35.1816 38.4717 35.1816 39.4898V40.3664C35.1816 41.3846 36.007 42.21 37.0252 42.21H59.3808C60.399 42.21 61.2244 41.3846 61.2244 40.3664V39.4898C61.2244 38.4717 60.399 37.6463 59.3808 37.6463Z" fill="white"/>
<path d="M59.3808 45.7007H37.0252C36.007 45.7007 35.1816 46.5261 35.1816 47.5442V48.4208C35.1816 49.439 36.007 50.2644 37.0252 50.2644H59.3808C60.399 50.2644 61.2244 49.439 61.2244 48.4208V47.5442C61.2244 46.5261 60.399 45.7007 59.3808 45.7007Z" fill="white"/>
<path d="M59.3808 53.7551H37.0252C36.007 53.7551 35.1816 54.5805 35.1816 55.5987V56.4753C35.1816 57.4934 36.007 58.3188 37.0252 58.3188H59.3808C60.399 58.3188 61.2244 57.4934 61.2244 56.4753V55.5987C61.2244 54.5805 60.399 53.7551 59.3808 53.7551Z" fill="white"/>
<path d="M54.795 7.03988H48.621C47.7311 7.03988 47.0098 7.76105 47.0098 8.65067C47.0098 9.54028 47.7311 10.2615 48.621 10.2615H54.795C55.6849 10.2615 56.4063 9.54028 56.4063 8.65067C56.4063 7.76105 55.6849 7.03988 54.795 7.03988Z" fill="white"/>
<path d="M54.7951 7.50076H48.6211C47.9857 7.50076 47.4707 8.01559 47.4707 8.65067C47.4707 9.28574 47.9857 9.80057 48.6211 9.80057H54.7951C55.4304 9.80057 55.9454 9.28574 55.9454 8.65067C55.9454 8.01559 55.4304 7.50076 54.7951 7.50076Z" stroke="white" stroke-width="0.921769"/>
<path d="M43.5191 7.03987H37.3451C36.4553 7.03987 35.7339 7.76105 35.7339 8.65066C35.7339 9.54028 36.4553 10.2615 37.3451 10.2615H43.5191C44.409 10.2615 45.1304 9.54028 45.1304 8.65066C45.1304 7.76105 44.409 7.03987 43.5191 7.03987Z" fill="white"/>
<path d="M43.5192 7.50076H37.3452C36.7099 7.50076 36.1948 8.01559 36.1948 8.65066C36.1948 9.28574 36.7099 9.80057 37.3452 9.80057H43.5192C44.1545 9.80057 44.6696 9.28574 44.6696 8.65066C44.6696 8.01559 44.1545 7.50076 43.5192 7.50076Z" stroke="white" stroke-width="0.921769"/>
<path d="M57.623 7.30258H60.687L59.4556 8.94148V10.3951L59.0435 10.0319V8.94148L57.623 7.30258Z" fill="white" stroke="white" stroke-width="0.921769" stroke-linejoin="round"/>
<path d="M36.7931 5.42862C37.3862 5.42862 37.867 4.94784 37.867 4.35476C37.867 3.76168 37.3862 3.2809 36.7931 3.2809C36.2 3.2809 35.7192 3.76168 35.7192 4.35476C35.7192 4.94784 36.2 5.42862 36.7931 5.42862Z" fill="#0058A3"/>
<path d="M71.8166 40.466C71.8858 40.4042 72.0563 40.4263 72.0563 40.4263H82.9627C82.9627 40.4263 83.1471 40.4116 83.219 40.4853C83.2909 40.5591 83.2447 40.7222 83.2447 40.7222L81.5478 47.7738L69.7676 47.7848L71.7291 40.6614C71.7391 40.5892 71.7695 40.5215 71.8166 40.466Z" fill="#46D0D9"/>
<path d="M76.4459 44.7236C76.8166 44.7236 77.117 44.4232 77.117 44.0526C77.117 43.682 76.8166 43.3815 76.4459 43.3815C76.0753 43.3815 75.7749 43.682 75.7749 44.0526C75.7749 44.4232 76.0753 44.7236 76.4459 44.7236Z" fill="#0058A3"/>
<path d="M54.3773 14.2887H36.6582C36.4357 14.2887 36.2554 14.469 36.2554 14.6915C36.2554 14.9139 36.4357 15.0943 36.6582 15.0943H54.3773C54.5998 15.0943 54.7802 14.9139 54.7802 14.6915C54.7802 14.469 54.5998 14.2887 54.3773 14.2887Z" fill="#9FD3FF"/>
<path d="M53.8412 22.6113H36.1221C35.8996 22.6113 35.7192 22.7917 35.7192 23.0141C35.7192 23.2366 35.8996 23.4169 36.1221 23.4169H53.8412C54.0637 23.4169 54.244 23.2366 54.244 23.0141C54.244 22.7917 54.0637 22.6113 53.8412 22.6113Z" fill="#9FD3FF"/>
<path d="M53.8412 30.6657H36.1221C35.8996 30.6657 35.7192 30.8461 35.7192 31.0685C35.7192 31.291 35.8996 31.4714 36.1221 31.4714H53.8412C54.0637 31.4714 54.244 31.291 54.244 31.0685C54.244 30.8461 54.0637 30.6657 53.8412 30.6657Z" fill="#9FD3FF"/>
<path d="M53.8412 38.7201H36.1221C35.8996 38.7201 35.7192 38.9005 35.7192 39.123C35.7192 39.3454 35.8996 39.5258 36.1221 39.5258H53.8412C54.0637 39.5258 54.244 39.3454 54.244 39.123C54.244 38.9005 54.0637 38.7201 53.8412 38.7201Z" fill="#9FD3FF"/>
<path d="M53.8412 46.7746H36.1221C35.8996 46.7746 35.7192 46.9549 35.7192 47.1774C35.7192 47.3998 35.8996 47.5802 36.1221 47.5802H53.8412C54.0637 47.5802 54.244 47.3998 54.244 47.1774C54.244 46.9549 54.0637 46.7746 53.8412 46.7746Z" fill="#9FD3FF"/>
<path d="M53.8412 54.829H36.1221C35.8996 54.829 35.7192 55.0093 35.7192 55.2318C35.7192 55.4542 35.8996 55.6346 36.1221 55.6346H53.8412C54.0637 55.6346 54.244 55.4542 54.244 55.2318C54.244 55.0093 54.0637 54.829 53.8412 54.829Z" fill="#9FD3FF"/>
<path d="M47.9342 15.899H36.6582C36.4357 15.899 36.2554 16.0793 36.2554 16.3018C36.2554 16.5243 36.4357 16.7046 36.6582 16.7046H47.9342C48.1566 16.7046 48.337 16.5243 48.337 16.3018C48.337 16.0793 48.1566 15.899 47.9342 15.899Z" fill="#9FD3FF"/>
<path d="M47.398 24.2226H36.1221C35.8996 24.2226 35.7192 24.4029 35.7192 24.6254C35.7192 24.8478 35.8996 25.0282 36.1221 25.0282H47.398C47.6205 25.0282 47.8009 24.8478 47.8009 24.6254C47.8009 24.4029 47.6205 24.2226 47.398 24.2226Z" fill="#9FD3FF"/>
<path d="M47.398 32.277H36.1221C35.8996 32.277 35.7192 32.4573 35.7192 32.6798C35.7192 32.9023 35.8996 33.0826 36.1221 33.0826H47.398C47.6205 33.0826 47.8009 32.9023 47.8009 32.6798C47.8009 32.4573 47.6205 32.277 47.398 32.277Z" fill="#9FD3FF"/>
<path d="M47.398 40.3305H36.1221C35.8996 40.3305 35.7192 40.5108 35.7192 40.7333C35.7192 40.9558 35.8996 41.1361 36.1221 41.1361H47.398C47.6205 41.1361 47.8009 40.9558 47.8009 40.7333C47.8009 40.5108 47.6205 40.3305 47.398 40.3305Z" fill="#9FD3FF"/>
<path d="M47.398 48.3849H36.1221C35.8996 48.3849 35.7192 48.5652 35.7192 48.7877C35.7192 49.0102 35.8996 49.1905 36.1221 49.1905H47.398C47.6205 49.1905 47.8009 49.0102 47.8009 48.7877C47.8009 48.5652 47.6205 48.3849 47.398 48.3849Z" fill="#9FD3FF"/>
<path d="M47.398 56.4393H36.1221C35.8996 56.4393 35.7192 56.6196 35.7192 56.8421C35.7192 57.0646 35.8996 57.2449 36.1221 57.2449H47.398C47.6205 57.2449 47.8009 57.0646 47.8009 56.8421C47.8009 56.6196 47.6205 56.4393 47.398 56.4393Z" fill="#9FD3FF"/>
<path d="M84.7719 46.8713H41.0091C40.4904 46.8713 40.0698 47.2919 40.0698 47.8106V47.8115C40.0698 48.3303 40.4904 48.7508 41.0091 48.7508H84.7719C85.2907 48.7508 85.7112 48.3303 85.7112 47.8115V47.8106C85.7112 47.2919 85.2907 46.8713 84.7719 46.8713Z" fill="#0058A3"/>
<path d="M79.6807 48.5554H77.5044L80.4734 68.9661H81.3352L79.6807 48.5554Z" fill="#0058A3"/>
<path d="M46.0859 48.5554H48.2613L45.2969 68.9661H44.4351L46.0859 48.5554Z" fill="#0058A3"/>
</g>
<defs>
<filter id="filter0_i_506_12178" x="0.0361328" y="0.371758" width="96.6035" height="72.5944" filterUnits="userSpaceOnUse" color-interpolation-filters="sRGB">
<feFlood flood-opacity="0" result="BackgroundImageFix"/>
<feBlend mode="normal" in="SourceGraphic" in2="BackgroundImageFix" result="shape"/>
<feColorMatrix in="SourceAlpha" type="matrix" values="0 0 0 0 0 0 0 0 0 0 0 0 0 0 0 0 0 0 127 0" result="hardAlpha"/>
<feOffset dy="4"/>
<feGaussianBlur stdDeviation="2"/>
<feComposite in2="hardAlpha" operator="arithmetic" k2="-1" k3="1"/>
<feColorMatrix type="matrix" values="0 0 0 0 0 0 0 0 0 0 0 0 0 0 0 0 0 0 0.25 0"/>
<feBlend mode="normal" in2="shape" result="effect1_innerShadow_506_12178"/>
</filter>
</defs>
</svg>
