<svg width="70" height="24" viewBox="0 0 70 24" fill="none" xmlns="http://www.w3.org/2000/svg">
<rect x="0.5" y="0.5" width="69" height="23" rx="4.5" fill="#77ACA2" fill-opacity="0.2" stroke="#77ACA2"/>
<path d="M18.43 11.51C18.43 10.83 18.5833 10.22 18.89 9.68C19.1967 9.13333 19.6133 8.70667 20.14 8.4C20.6733 8.09333 21.2633 7.94 21.91 7.94C22.67 7.94 23.3333 8.12333 23.9 8.49C24.4667 8.85667 24.88 9.37667 25.14 10.05H24.05C23.8567 9.63 23.5767 9.30667 23.21 9.08C22.85 8.85333 22.4167 8.74 21.91 8.74C21.4233 8.74 20.9867 8.85333 20.6 9.08C20.2133 9.30667 19.91 9.63 19.69 10.05C19.47 10.4633 19.36 10.95 19.36 11.51C19.36 12.0633 19.47 12.55 19.69 12.97C19.91 13.3833 20.2133 13.7033 20.6 13.93C20.9867 14.1567 21.4233 14.27 21.91 14.27C22.4167 14.27 22.85 14.16 23.21 13.94C23.5767 13.7133 23.8567 13.39 24.05 12.97H25.14C24.88 13.6367 24.4667 14.1533 23.9 14.52C23.3333 14.88 22.67 15.06 21.91 15.06C21.2633 15.06 20.6733 14.91 20.14 14.61C19.6133 14.3033 19.1967 13.88 18.89 13.34C18.5833 12.8 18.43 12.19 18.43 11.51ZM28.8846 15.09C28.3713 15.09 27.9046 14.9733 27.4846 14.74C27.0713 14.5067 26.7446 14.1767 26.5046 13.75C26.2713 13.3167 26.1546 12.8167 26.1546 12.25C26.1546 11.69 26.2746 11.1967 26.5146 10.77C26.7613 10.3367 27.0946 10.0067 27.5146 9.78C27.9346 9.54667 28.4046 9.43 28.9246 9.43C29.4446 9.43 29.9146 9.54667 30.3346 9.78C30.7546 10.0067 31.0846 10.3333 31.3246 10.76C31.5713 11.1867 31.6946 11.6833 31.6946 12.25C31.6946 12.8167 31.5679 13.3167 31.3146 13.75C31.0679 14.1767 30.7313 14.5067 30.3046 14.74C29.8779 14.9733 29.4046 15.09 28.8846 15.09ZM28.8846 14.29C29.2113 14.29 29.5179 14.2133 29.8046 14.06C30.0913 13.9067 30.3213 13.6767 30.4946 13.37C30.6746 13.0633 30.7646 12.69 30.7646 12.25C30.7646 11.81 30.6779 11.4367 30.5046 11.13C30.3313 10.8233 30.1046 10.5967 29.8246 10.45C29.5446 10.2967 29.2413 10.22 28.9146 10.22C28.5813 10.22 28.2746 10.2967 27.9946 10.45C27.7213 10.5967 27.5013 10.8233 27.3346 11.13C27.1679 11.4367 27.0846 11.81 27.0846 12.25C27.0846 12.6967 27.1646 13.0733 27.3246 13.38C27.4913 13.6867 27.7113 13.9167 27.9846 14.07C28.2579 14.2167 28.5579 14.29 28.8846 14.29ZM37.7511 9.52V15H36.8411V14.19C36.6678 14.47 36.4244 14.69 36.1111 14.85C35.8044 15.0033 35.4644 15.08 35.0911 15.08C34.6644 15.08 34.2811 14.9933 33.9411 14.82C33.6011 14.64 33.3311 14.3733 33.1311 14.02C32.9378 13.6667 32.8411 13.2367 32.8411 12.73V9.52H33.7411V12.61C33.7411 13.15 33.8778 13.5667 34.1511 13.86C34.4244 14.1467 34.7978 14.29 35.2711 14.29C35.7578 14.29 36.1411 14.14 36.4211 13.84C36.7011 13.54 36.8411 13.1033 36.8411 12.53V9.52H37.7511ZM40.1976 10.53C40.3776 10.2167 40.6442 9.95667 40.9976 9.75C41.3576 9.53667 41.7742 9.43 42.2476 9.43C42.7342 9.43 43.1742 9.54667 43.5676 9.78C43.9676 10.0133 44.2809 10.3433 44.5076 10.77C44.7342 11.19 44.8476 11.68 44.8476 12.24C44.8476 12.7933 44.7342 13.2867 44.5076 13.72C44.2809 14.1533 43.9676 14.49 43.5676 14.73C43.1742 14.97 42.7342 15.09 42.2476 15.09C41.7809 15.09 41.3676 14.9867 41.0076 14.78C40.6542 14.5667 40.3842 14.3033 40.1976 13.99V17.6H39.2876V9.52H40.1976V10.53ZM43.9176 12.24C43.9176 11.8267 43.8342 11.4667 43.6676 11.16C43.5009 10.8533 43.2742 10.62 42.9876 10.46C42.7076 10.3 42.3976 10.22 42.0576 10.22C41.7242 10.22 41.4142 10.3033 41.1276 10.47C40.8476 10.63 40.6209 10.8667 40.4476 11.18C40.2809 11.4867 40.1976 11.8433 40.1976 12.25C40.1976 12.6633 40.2809 13.0267 40.4476 13.34C40.6209 13.6467 40.8476 13.8833 41.1276 14.05C41.4142 14.21 41.7242 14.29 42.0576 14.29C42.3976 14.29 42.7076 14.21 42.9876 14.05C43.2742 13.8833 43.5009 13.6467 43.6676 13.34C43.8342 13.0267 43.9176 12.66 43.9176 12.24ZM48.4354 15.09C47.9221 15.09 47.4554 14.9733 47.0354 14.74C46.6221 14.5067 46.2954 14.1767 46.0554 13.75C45.8221 13.3167 45.7054 12.8167 45.7054 12.25C45.7054 11.69 45.8254 11.1967 46.0654 10.77C46.3121 10.3367 46.6454 10.0067 47.0654 9.78C47.4854 9.54667 47.9554 9.43 48.4754 9.43C48.9954 9.43 49.4654 9.54667 49.8854 9.78C50.3054 10.0067 50.6354 10.3333 50.8754 10.76C51.1221 11.1867 51.2454 11.6833 51.2454 12.25C51.2454 12.8167 51.1187 13.3167 50.8654 13.75C50.6187 14.1767 50.2821 14.5067 49.8554 14.74C49.4287 14.9733 48.9554 15.09 48.4354 15.09ZM48.4354 14.29C48.7621 14.29 49.0687 14.2133 49.3554 14.06C49.6421 13.9067 49.8721 13.6767 50.0454 13.37C50.2254 13.0633 50.3154 12.69 50.3154 12.25C50.3154 11.81 50.2287 11.4367 50.0554 11.13C49.8821 10.8233 49.6554 10.5967 49.3754 10.45C49.0954 10.2967 48.7921 10.22 48.4654 10.22C48.1321 10.22 47.8254 10.2967 47.5454 10.45C47.2721 10.5967 47.0521 10.8233 46.8854 11.13C46.7187 11.4367 46.6354 11.81 46.6354 12.25C46.6354 12.6967 46.7154 13.0733 46.8754 13.38C47.0421 13.6867 47.2621 13.9167 47.5354 14.07C47.8087 14.2167 48.1087 14.29 48.4354 14.29ZM55.1119 9.42C55.7785 9.42 56.3185 9.62333 56.7319 10.03C57.1452 10.43 57.3519 11.01 57.3519 11.77V15H56.4519V11.9C56.4519 11.3533 56.3152 10.9367 56.0419 10.65C55.7685 10.3567 55.3952 10.21 54.9219 10.21C54.4419 10.21 54.0585 10.36 53.7719 10.66C53.4919 10.96 53.3519 11.3967 53.3519 11.97V15H52.4419V9.52H53.3519V10.3C53.5319 10.02 53.7752 9.80333 54.0819 9.65C54.3952 9.49667 54.7385 9.42 55.1119 9.42ZM60.7784 15.09C60.3584 15.09 59.9817 15.02 59.6484 14.88C59.315 14.7333 59.0517 14.5333 58.8584 14.28C58.665 14.02 58.5584 13.7233 58.5384 13.39H59.4784C59.505 13.6633 59.6317 13.8867 59.8584 14.06C60.0917 14.2333 60.395 14.32 60.7684 14.32C61.115 14.32 61.3884 14.2433 61.5884 14.09C61.7884 13.9367 61.8884 13.7433 61.8884 13.51C61.8884 13.27 61.7817 13.0933 61.5684 12.98C61.355 12.86 61.025 12.7433 60.5784 12.63C60.1717 12.5233 59.8384 12.4167 59.5784 12.31C59.325 12.1967 59.105 12.0333 58.9184 11.82C58.7384 11.6 58.6484 11.3133 58.6484 10.96C58.6484 10.68 58.7317 10.4233 58.8984 10.19C59.065 9.95667 59.3017 9.77333 59.6084 9.64C59.915 9.5 60.265 9.43 60.6584 9.43C61.265 9.43 61.755 9.58333 62.1284 9.89C62.5017 10.1967 62.7017 10.6167 62.7284 11.15H61.8184C61.7984 10.8633 61.6817 10.6333 61.4684 10.46C61.2617 10.2867 60.9817 10.2 60.6284 10.2C60.3017 10.2 60.0417 10.27 59.8484 10.41C59.655 10.55 59.5584 10.7333 59.5584 10.96C59.5584 11.14 59.615 11.29 59.7284 11.41C59.8484 11.5233 59.995 11.6167 60.1684 11.69C60.3484 11.7567 60.595 11.8333 60.9084 11.92C61.3017 12.0267 61.6217 12.1333 61.8684 12.24C62.115 12.34 62.325 12.4933 62.4984 12.7C62.6784 12.9067 62.7717 13.1767 62.7784 13.51C62.7784 13.81 62.695 14.08 62.5284 14.32C62.3617 14.56 62.125 14.75 61.8184 14.89C61.5184 15.0233 61.1717 15.09 60.7784 15.09Z" fill="#77ACA2"/>
<path d="M10.6619 13.329L13.3289 10.662" stroke="#77ACA2" stroke-width="0.5" stroke-linecap="round" stroke-linejoin="round"/>
<path d="M10.8841 11.1065C11.0069 11.1065 11.1064 11.007 11.1064 10.8842C11.1064 10.7615 11.0069 10.662 10.8841 10.662C10.7614 10.662 10.6619 10.7615 10.6619 10.8842C10.6619 11.007 10.7614 11.1065 10.8841 11.1065Z" fill="#77ACA2" stroke="#77ACA2" stroke-width="0.5" stroke-linecap="round" stroke-linejoin="round"/>
<path d="M13.1065 13.3291C13.2293 13.3291 13.3288 13.2296 13.3288 13.1069C13.3288 12.9841 13.2293 12.8846 13.1065 12.8846C12.9838 12.8846 12.8843 12.9841 12.8843 13.1069C12.8843 13.2296 12.9838 13.3291 13.1065 13.3291Z" fill="#77ACA2" stroke="#77ACA2" stroke-width="0.5" stroke-linecap="round" stroke-linejoin="round"/>
<path d="M8.88401 9.86192C8.88401 9.60256 8.98704 9.35383 9.17043 9.17043C9.35383 8.98704 9.60256 8.88401 9.86192 8.88401H10.3064C10.5646 8.88386 10.8123 8.7816 10.9954 8.59952L11.3066 8.28837C11.3974 8.19698 11.5055 8.12445 11.6245 8.07497C11.7435 8.02548 11.8711 8 12 8C12.1289 8 12.2565 8.02548 12.3755 8.07497C12.4945 8.12445 12.6026 8.19698 12.6934 8.28837L13.0046 8.59952C13.1877 8.7816 13.4354 8.88386 13.6936 8.88401H14.1381C14.3974 8.88401 14.6462 8.98704 14.8296 9.17043C15.013 9.35383 15.116 9.60256 15.116 9.86192V10.3064C15.1161 10.5646 15.2184 10.8123 15.4005 10.9954L15.7116 11.3066C15.803 11.3974 15.8755 11.5055 15.925 11.6245C15.9745 11.7435 16 11.8711 16 12C16 12.1289 15.9745 12.2565 15.925 12.3755C15.8755 12.4945 15.803 12.6026 15.7116 12.6934L15.4005 13.0046C15.2184 13.1877 15.1161 13.4354 15.116 13.6936V14.1381C15.116 14.3974 15.013 14.6462 14.8296 14.8296C14.6462 15.013 14.3974 15.116 14.1381 15.116H13.6936C13.4354 15.1161 13.1877 15.2184 13.0046 15.4005L12.6934 15.7116C12.6026 15.803 12.4945 15.8755 12.3755 15.925C12.2565 15.9745 12.1289 16 12 16C11.8711 16 11.7435 15.9745 11.6245 15.925C11.5055 15.8755 11.3974 15.803 11.3066 15.7116L10.9954 15.4005C10.8123 15.2184 10.5646 15.1161 10.3064 15.116H9.86192C9.60256 15.116 9.35383 15.013 9.17043 14.8296C8.98704 14.6462 8.88401 14.3974 8.88401 14.1381V13.6936C8.88386 13.4354 8.7816 13.1877 8.59952 13.0046L8.28837 12.6934C8.19698 12.6026 8.12445 12.4945 8.07497 12.3755C8.02548 12.2565 8 12.1289 8 12C8 11.8711 8.02548 11.7435 8.07497 11.6245C8.12445 11.5055 8.19698 11.3974 8.28837 11.3066L8.59952 10.9954C8.7816 10.8123 8.88386 10.5646 8.88401 10.3064V9.86192" stroke="#77ACA2" stroke-width="0.5" stroke-linecap="round" stroke-linejoin="round"/>
</svg>
