<svg width="35" height="34" viewBox="0 0 35 34" fill="none" xmlns="http://www.w3.org/2000/svg">
<circle cx="17.0603" cy="17" r="16" fill="white"/>
<path d="M26.7609 17L27.9797 14.8987C28.1262 14.6458 28.166 14.3453 28.0904 14.0632C28.0149 13.7811 27.8301 13.5405 27.5767 13.3943L25.4682 12.1784V9.75548C25.4682 9.46339 25.3519 9.18327 25.1449 8.97673C24.9378 8.77019 24.657 8.65416 24.3642 8.65416H21.9367L20.719 6.55173C20.5719 6.29944 20.3312 6.11506 20.0489 6.03852C19.9089 6.00065 19.7627 5.99088 19.6189 6.00979C19.4751 6.02869 19.3364 6.07589 19.211 6.14865L17.1025 7.36451L14.9939 6.14755C14.7404 6.00151 14.4391 5.96193 14.1563 6.03753C13.8735 6.11312 13.6323 6.29769 13.4859 6.55063L12.2672 8.65416H9.8396C9.54682 8.65416 9.26602 8.77019 9.05899 8.97673C8.85196 9.18327 8.73565 9.46339 8.73565 9.75548V12.1773L6.62711 13.3932C6.5013 13.4653 6.39102 13.5616 6.30262 13.6765C6.21422 13.7913 6.14944 13.9225 6.112 14.0624C6.07456 14.2023 6.06519 14.3482 6.08444 14.4917C6.10369 14.6352 6.15118 14.7735 6.22417 14.8987L7.44293 17L6.22417 19.1013C6.07844 19.3544 6.0389 19.6546 6.11417 19.9367C6.18945 20.2187 6.37343 20.4596 6.62601 20.6068L8.73455 21.8227V24.2445C8.73455 24.5366 8.85086 24.8167 9.05789 25.0232C9.26492 25.2298 9.54571 25.3458 9.8385 25.3458H12.2672L13.4859 27.4493C13.5837 27.616 13.7232 27.7544 13.8908 27.851C14.0585 27.9475 14.2484 27.9989 14.442 28C14.634 28 14.825 27.9493 14.995 27.8513L17.1014 26.6355L19.2099 27.8513C19.4634 27.9972 19.7645 28.0367 20.0472 27.9614C20.3299 27.886 20.5711 27.7019 20.7179 27.4493L21.9356 25.3458H24.3631C24.6559 25.3458 24.9367 25.2298 25.1438 25.0232C25.3508 24.8167 25.4671 24.5366 25.4671 24.2445V21.8227L27.5756 20.6068C27.7012 20.5344 27.8113 20.438 27.8995 20.3231C27.9878 20.2083 28.0524 20.0772 28.0899 19.9374C28.1273 19.7976 28.1367 19.6517 28.1176 19.5083C28.0985 19.3648 28.0513 19.2265 27.9786 19.1013L26.7609 17ZM14.3415 11.4824C14.7808 11.4825 15.2021 11.6567 15.5126 11.9668C15.8232 12.2768 15.9976 12.6972 15.9974 13.1354C15.9973 13.5737 15.8226 13.994 15.5119 14.3038C15.2011 14.6136 14.7797 14.7876 14.3404 14.7874C13.9011 14.7873 13.4798 14.613 13.1693 14.303C12.8587 13.993 12.6843 13.5726 12.6845 13.1343C12.6846 12.6961 12.8593 12.2758 13.17 11.966C13.4808 11.6562 13.9022 11.4822 14.3415 11.4824ZM14.6727 22.0551L12.9064 20.7346L19.5301 11.924L21.2964 13.2445L14.6727 22.0551ZM19.8612 22.4956C19.6437 22.4955 19.4283 22.4527 19.2274 22.3696C19.0264 22.2865 18.8439 22.1647 18.6901 22.0112C18.5363 21.8577 18.4144 21.6755 18.3312 21.4749C18.248 21.2744 18.2052 21.0595 18.2053 20.8425C18.2054 20.6255 18.2483 20.4106 18.3316 20.2101C18.4149 20.0097 18.537 19.8275 18.6909 19.6741C18.8447 19.5207 19.0274 19.3991 19.2284 19.3161C19.4294 19.2331 19.6448 19.1904 19.8623 19.1905C20.3017 19.1907 20.7229 19.3649 21.0335 19.6749C21.344 19.9849 21.5184 20.4053 21.5183 20.8436C21.5181 21.2819 21.3435 21.7022 21.0327 22.012C20.722 22.3218 20.3006 22.4957 19.8612 22.4956Z" fill="#77ACA2"/>
</svg>
