<svg width="20" height="20" viewBox="0 0 20 20" fill="none" xmlns="http://www.w3.org/2000/svg">
<path d="M16.875 3.28125H3.125C2.83492 3.28125 2.55672 3.39648 2.3516 3.6016C2.14648 3.80672 2.03125 4.08492 2.03125 4.375V15.625C2.03125 15.9151 2.14648 16.1933 2.3516 16.3984C2.55672 16.6035 2.83492 16.7188 3.125 16.7188H16.875C17.1651 16.7188 17.4433 16.6035 17.6484 16.3984C17.8535 16.1933 17.9688 15.9151 17.9688 15.625V4.375C17.9688 4.08492 17.8535 3.80672 17.6484 3.6016C17.4433 3.39648 17.1651 3.28125 16.875 3.28125ZM17.0312 15.625C17.0312 15.6664 17.0148 15.7062 16.9855 15.7355C16.9562 15.7648 16.9164 15.7812 16.875 15.7812H3.125C3.08356 15.7812 3.04382 15.7648 3.01451 15.7355C2.98521 15.7062 2.96875 15.6664 2.96875 15.625V4.375C2.96875 4.33356 2.98521 4.29382 3.01451 4.26451C3.04382 4.23521 3.08356 4.21875 3.125 4.21875H16.875C16.9164 4.21875 16.9562 4.23521 16.9855 4.26451C17.0148 4.29382 17.0312 4.33356 17.0312 4.375V15.625ZM14.5312 7.5C14.5312 7.62432 14.4819 7.74355 14.394 7.83146C14.306 7.91936 14.1868 7.96875 14.0625 7.96875H5.9375C5.81318 7.96875 5.69395 7.91936 5.60604 7.83146C5.51814 7.74355 5.46875 7.62432 5.46875 7.5C5.46875 7.37568 5.51814 7.25645 5.60604 7.16854C5.69395 7.08064 5.81318 7.03125 5.9375 7.03125H14.0625C14.1868 7.03125 14.306 7.08064 14.394 7.16854C14.4819 7.25645 14.5312 7.37568 14.5312 7.5ZM14.5312 10C14.5312 10.1243 14.4819 10.2435 14.394 10.3315C14.306 10.4194 14.1868 10.4688 14.0625 10.4688H5.9375C5.81318 10.4688 5.69395 10.4194 5.60604 10.3315C5.51814 10.2435 5.46875 10.1243 5.46875 10C5.46875 9.87568 5.51814 9.75645 5.60604 9.66854C5.69395 9.58064 5.81318 9.53125 5.9375 9.53125H14.0625C14.1868 9.53125 14.306 9.58064 14.394 9.66854C14.4819 9.75645 14.5312 9.87568 14.5312 10ZM14.5312 12.5C14.5312 12.6243 14.4819 12.7435 14.394 12.8315C14.306 12.9194 14.1868 12.9688 14.0625 12.9688H5.9375C5.81318 12.9688 5.69395 12.9194 5.60604 12.8315C5.51814 12.7435 5.46875 12.6243 5.46875 12.5C5.46875 12.3757 5.51814 12.2565 5.60604 12.1685C5.69395 12.0806 5.81318 12.0312 5.9375 12.0312H14.0625C14.1868 12.0312 14.306 12.0806 14.394 12.1685C14.4819 12.2565 14.5312 12.3757 14.5312 12.5Z" fill="#A4A4A4"/>
</svg>
