<svg width="24" height="24" viewBox="0 0 24 24" fill="none" xmlns="http://www.w3.org/2000/svg">
<path d="M19 4.00003H17V3.00003C17 2.73481 16.8946 2.48046 16.7071 2.29292C16.5196 2.10539 16.2652 2.00003 16 2.00003C15.7348 2.00003 15.4804 2.10539 15.2929 2.29292C15.1054 2.48046 15 2.73481 15 3.00003V4.00003H9V3.00003C9 2.73481 8.89464 2.48046 8.70711 2.29292C8.51957 2.10539 8.26522 2.00003 8 2.00003C7.73478 2.00003 7.48043 2.10539 7.29289 2.29292C7.10536 2.48046 7 2.73481 7 3.00003V4.00003H5C4.20435 4.00003 3.44129 4.3161 2.87868 4.87871C2.31607 5.44132 2 6.20438 2 7.00003V19C2 19.7957 2.31607 20.5587 2.87868 21.1214C3.44129 21.684 4.20435 22 5 22H19C19.7957 22 20.5587 21.684 21.1213 21.1214C21.6839 20.5587 22 19.7957 22 19V7.00003C22 6.20438 21.6839 5.44132 21.1213 4.87871C20.5587 4.3161 19.7957 4.00003 19 4.00003ZM20 19C20 19.2652 19.8946 19.5196 19.7071 19.7071C19.5196 19.8947 19.2652 20 19 20H5C4.73478 20 4.48043 19.8947 4.29289 19.7071C4.10536 19.5196 4 19.2652 4 19V12H20V19ZM20 10H4V7.00003C4 6.73481 4.10536 6.48046 4.29289 6.29292C4.48043 6.10539 4.73478 6.00003 5 6.00003H7V7.00003C7 7.26525 7.10536 7.5196 7.29289 7.70714C7.48043 7.89467 7.73478 8.00003 8 8.00003C8.26522 8.00003 8.51957 7.89467 8.70711 7.70714C8.89464 7.5196 9 7.26525 9 7.00003V6.00003H15V7.00003C15 7.26525 15.1054 7.5196 15.2929 7.70714C15.4804 7.89467 15.7348 8.00003 16 8.00003C16.2652 8.00003 16.5196 7.89467 16.7071 7.70714C16.8946 7.5196 17 7.26525 17 7.00003V6.00003H19C19.2652 6.00003 19.5196 6.10539 19.7071 6.29292C19.8946 6.48046 20 6.73481 20 7.00003V10Z" fill="#A3A2A2"/>
</svg>
