<svg width="24" height="24" viewBox="0 0 24 24" fill="none" xmlns="http://www.w3.org/2000/svg">
<path d="M16.281 10.281C16.4218 10.1402 16.5009 9.94916 16.5009 9.75C16.5009 9.55084 16.4218 9.35983 16.281 9.219C16.1402 9.07817 15.9492 8.99905 15.75 8.99905C15.5508 8.99905 15.3598 9.07817 15.219 9.219L10.5 13.9395L8.781 12.219C8.64017 12.0782 8.44916 11.9991 8.25 11.9991C8.05084 11.9991 7.85983 12.0782 7.719 12.219C7.57817 12.3598 7.49905 12.5508 7.49905 12.75C7.49905 12.9492 7.57817 13.1402 7.719 13.281L9.969 15.531C10.0387 15.6008 10.1214 15.6563 10.2125 15.6941C10.3037 15.7319 10.4013 15.7513 10.5 15.7513C10.5987 15.7513 10.6963 15.7319 10.7875 15.6941C10.8786 15.6563 10.9613 15.6008 11.031 15.531L16.281 10.281ZM4.5 6.75C4.5 6.15326 4.73705 5.58097 5.15901 5.15901C5.58097 4.73705 6.15326 4.5 6.75 4.5H17.25C17.8467 4.5 18.419 4.73705 18.841 5.15901C19.2629 5.58097 19.5 6.15326 19.5 6.75V17.25C19.5 17.8467 19.2629 18.419 18.841 18.841C18.419 19.2629 17.8467 19.5 17.25 19.5H6.75C6.15326 19.5 5.58097 19.2629 5.15901 18.841C4.73705 18.419 4.5 17.8467 4.5 17.25V6.75ZM17.25 6H6.75C6.55109 6 6.36032 6.07902 6.21967 6.21967C6.07902 6.36032 6 6.55109 6 6.75V17.25C6 17.4489 6.07902 17.6397 6.21967 17.7803C6.36032 17.921 6.55109 18 6.75 18H17.25C17.4489 18 17.6397 17.921 17.7803 17.7803C17.921 17.6397 18 17.4489 18 17.25V6.75C18 6.55109 17.921 6.36032 17.7803 6.21967C17.6397 6.07902 17.4489 6 17.25 6Z" fill="#46D0D9"/>
</svg>
