<svg width="20" height="20" viewBox="0 0 20 20" fill="none" xmlns="http://www.w3.org/2000/svg">
<path d="M9.99984 13.3333C11.8408 13.3333 13.3332 11.841 13.3332 10C13.3332 8.15906 11.8408 6.66667 9.99984 6.66667C8.15889 6.66667 6.6665 8.15906 6.6665 10C6.6665 11.841 8.15889 13.3333 9.99984 13.3333Z" fill="black"/>
<path d="M10.8332 3.39084V1.66667H9.1665V3.39084C7.70009 3.57807 6.33731 4.24681 5.29198 5.29215C4.24665 6.33748 3.57791 7.70025 3.39067 9.16667H1.6665V10.8333H3.39067C3.57763 12.2999 4.24628 13.6628 5.29167 14.7082C6.33705 15.7536 7.69998 16.4222 9.1665 16.6092V18.3333H10.8332V16.6092C12.2998 16.4223 13.6628 15.7537 14.7082 14.7083C15.7536 13.6629 16.4222 12.2999 16.609 10.8333H18.3332V9.16667H16.609C16.422 7.70015 15.7534 6.33722 14.708 5.29184C13.6626 4.24645 12.2997 3.5778 10.8332 3.39084ZM9.99984 15C7.24234 15 4.99984 12.7575 4.99984 10C4.99984 7.24251 7.24234 5.00001 9.99984 5.00001C12.7573 5.00001 14.9998 7.24251 14.9998 10C14.9998 12.7575 12.7573 15 9.99984 15Z" fill="black"/>
</svg>
