<svg width="131" height="38" viewBox="0 0 131 38" fill="none" xmlns="http://www.w3.org/2000/svg">
<rect x="0.5" y="0.5" width="130" height="37" rx="18.5" stroke="white"/>
<path d="M20.3902 14.624C21.2702 14.624 22.0422 14.796 22.7062 15.14C23.3782 15.484 23.8942 15.976 24.2542 16.616C24.6222 17.248 24.8062 17.984 24.8062 18.824C24.8062 19.664 24.6222 20.4 24.2542 21.032C23.8942 21.656 23.3782 22.14 22.7062 22.484C22.0422 22.828 21.2702 23 20.3902 23H17.4622V14.624H20.3902ZM20.3302 21.572C21.2102 21.572 21.8902 21.332 22.3702 20.852C22.8502 20.372 23.0902 19.696 23.0902 18.824C23.0902 17.952 22.8502 17.272 22.3702 16.784C21.8902 16.288 21.2102 16.04 20.3302 16.04H19.1422V21.572H20.3302ZM26.9158 15.56C26.6198 15.56 26.3718 15.468 26.1718 15.284C25.9798 15.092 25.8838 14.856 25.8838 14.576C25.8838 14.296 25.9798 14.064 26.1718 13.88C26.3718 13.688 26.6198 13.592 26.9158 13.592C27.2118 13.592 27.4558 13.688 27.6478 13.88C27.8478 14.064 27.9478 14.296 27.9478 14.576C27.9478 14.856 27.8478 15.092 27.6478 15.284C27.4558 15.468 27.2118 15.56 26.9158 15.56ZM27.7438 16.352V23H26.0638V16.352H27.7438ZM31.9477 23.108C31.4037 23.108 30.9157 23.012 30.4837 22.82C30.0517 22.62 29.7077 22.352 29.4517 22.016C29.2037 21.68 29.0677 21.308 29.0437 20.9H30.7357C30.7677 21.156 30.8917 21.368 31.1077 21.536C31.3317 21.704 31.6077 21.788 31.9357 21.788C32.2557 21.788 32.5037 21.724 32.6797 21.596C32.8637 21.468 32.9557 21.304 32.9557 21.104C32.9557 20.888 32.8437 20.728 32.6197 20.624C32.4037 20.512 32.0557 20.392 31.5757 20.264C31.0797 20.144 30.6717 20.02 30.3517 19.892C30.0397 19.764 29.7677 19.568 29.5357 19.304C29.3117 19.04 29.1997 18.684 29.1997 18.236C29.1997 17.868 29.3037 17.532 29.5117 17.228C29.7277 16.924 30.0317 16.684 30.4237 16.508C30.8237 16.332 31.2917 16.244 31.8277 16.244C32.6197 16.244 33.2517 16.444 33.7237 16.844C34.1957 17.236 34.4557 17.768 34.5037 18.44H32.8957C32.8717 18.176 32.7597 17.968 32.5597 17.816C32.3677 17.656 32.1077 17.576 31.7797 17.576C31.4757 17.576 31.2397 17.632 31.0717 17.744C30.9117 17.856 30.8317 18.012 30.8317 18.212C30.8317 18.436 30.9437 18.608 31.1677 18.728C31.3917 18.84 31.7397 18.956 32.2117 19.076C32.6917 19.196 33.0877 19.32 33.3997 19.448C33.7117 19.576 33.9797 19.776 34.2037 20.048C34.4357 20.312 34.5557 20.664 34.5637 21.104C34.5637 21.488 34.4557 21.832 34.2397 22.136C34.0317 22.44 33.7277 22.68 33.3277 22.856C32.9357 23.024 32.4757 23.108 31.9477 23.108ZM35.5107 19.652C35.5107 18.98 35.6427 18.384 35.9067 17.864C36.1787 17.344 36.5427 16.944 36.9987 16.664C37.4627 16.384 37.9787 16.244 38.5467 16.244C39.0427 16.244 39.4747 16.344 39.8427 16.544C40.2187 16.744 40.5187 16.996 40.7427 17.3V16.352H42.4347V23H40.7427V22.028C40.5267 22.34 40.2267 22.6 39.8427 22.808C39.4667 23.008 39.0307 23.108 38.5347 23.108C37.9747 23.108 37.4627 22.964 36.9987 22.676C36.5427 22.388 36.1787 21.984 35.9067 21.464C35.6427 20.936 35.5107 20.332 35.5107 19.652ZM40.7427 19.676C40.7427 19.268 40.6627 18.92 40.5027 18.632C40.3427 18.336 40.1267 18.112 39.8547 17.96C39.5827 17.8 39.2907 17.72 38.9787 17.72C38.6667 17.72 38.3787 17.796 38.1147 17.948C37.8507 18.1 37.6347 18.324 37.4667 18.62C37.3067 18.908 37.2267 19.252 37.2267 19.652C37.2267 20.052 37.3067 20.404 37.4667 20.708C37.6347 21.004 37.8507 21.232 38.1147 21.392C38.3867 21.552 38.6747 21.632 38.9787 21.632C39.2907 21.632 39.5827 21.556 39.8547 21.404C40.1267 21.244 40.3427 21.02 40.5027 20.732C40.6627 20.436 40.7427 20.084 40.7427 19.676ZM45.7555 17.324C45.9715 17.004 46.2675 16.744 46.6435 16.544C47.0275 16.344 47.4635 16.244 47.9515 16.244C48.5195 16.244 49.0315 16.384 49.4875 16.664C49.9515 16.944 50.3155 17.344 50.5795 17.864C50.8515 18.376 50.9875 18.972 50.9875 19.652C50.9875 20.332 50.8515 20.936 50.5795 21.464C50.3155 21.984 49.9515 22.388 49.4875 22.676C49.0315 22.964 48.5195 23.108 47.9515 23.108C47.4555 23.108 47.0195 23.012 46.6435 22.82C46.2755 22.62 45.9795 22.364 45.7555 22.052V23H44.0755V14.12H45.7555V17.324ZM49.2715 19.652C49.2715 19.252 49.1875 18.908 49.0195 18.62C48.8595 18.324 48.6435 18.1 48.3715 17.948C48.1075 17.796 47.8195 17.72 47.5075 17.72C47.2035 17.72 46.9155 17.8 46.6435 17.96C46.3795 18.112 46.1635 18.336 45.9955 18.632C45.8355 18.928 45.7555 19.276 45.7555 19.676C45.7555 20.076 45.8355 20.424 45.9955 20.72C46.1635 21.016 46.3795 21.244 46.6435 21.404C46.9155 21.556 47.2035 21.632 47.5075 21.632C47.8195 21.632 48.1075 21.552 48.3715 21.392C48.6435 21.232 48.8595 21.004 49.0195 20.708C49.1875 20.412 49.2715 20.06 49.2715 19.652ZM53.8883 14.12V23H52.2083V14.12H53.8883ZM61.7282 19.532C61.7282 19.772 61.7122 19.988 61.6802 20.18H56.8202C56.8602 20.66 57.0282 21.036 57.3242 21.308C57.6202 21.58 57.9842 21.716 58.4162 21.716C59.0402 21.716 59.4842 21.448 59.7482 20.912H61.5602C61.3682 21.552 61.0002 22.08 60.4562 22.496C59.9122 22.904 59.2442 23.108 58.4522 23.108C57.8122 23.108 57.2362 22.968 56.7242 22.688C56.2202 22.4 55.8242 21.996 55.5362 21.476C55.2562 20.956 55.1162 20.356 55.1162 19.676C55.1162 18.988 55.2562 18.384 55.5362 17.864C55.8162 17.344 56.2082 16.944 56.7122 16.664C57.2162 16.384 57.7962 16.244 58.4522 16.244C59.0842 16.244 59.6482 16.38 60.1442 16.652C60.6482 16.924 61.0362 17.312 61.3082 17.816C61.5882 18.312 61.7282 18.884 61.7282 19.532ZM59.9882 19.052C59.9802 18.62 59.8242 18.276 59.5202 18.02C59.2162 17.756 58.8442 17.624 58.4042 17.624C57.9882 17.624 57.6362 17.752 57.3482 18.008C57.0682 18.256 56.8962 18.604 56.8322 19.052H59.9882ZM70.9498 21.404H67.6138L67.0618 23H65.2978L68.3098 14.612H70.2658L73.2778 23H71.5018L70.9498 21.404ZM70.4938 20.06L69.2818 16.556L68.0698 20.06H70.4938ZM73.9717 19.676C73.9717 18.988 74.1117 18.388 74.3917 17.876C74.6717 17.356 75.0597 16.956 75.5557 16.676C76.0517 16.388 76.6197 16.244 77.2597 16.244C78.0837 16.244 78.7637 16.452 79.2997 16.868C79.8437 17.276 80.2077 17.852 80.3917 18.596H78.5797C78.4837 18.308 78.3197 18.084 78.0877 17.924C77.8637 17.756 77.5837 17.672 77.2477 17.672C76.7677 17.672 76.3877 17.848 76.1077 18.2C75.8277 18.544 75.6877 19.036 75.6877 19.676C75.6877 20.308 75.8277 20.8 76.1077 21.152C76.3877 21.496 76.7677 21.668 77.2477 21.668C77.9277 21.668 78.3717 21.364 78.5797 20.756H80.3917C80.2077 21.476 79.8437 22.048 79.2997 22.472C78.7557 22.896 78.0757 23.108 77.2597 23.108C76.6197 23.108 76.0517 22.968 75.5557 22.688C75.0597 22.4 74.6717 22 74.3917 21.488C74.1117 20.968 73.9717 20.364 73.9717 19.676ZM81.1904 19.676C81.1904 18.988 81.3304 18.388 81.6104 17.876C81.8904 17.356 82.2784 16.956 82.7744 16.676C83.2704 16.388 83.8384 16.244 84.4784 16.244C85.3024 16.244 85.9824 16.452 86.5184 16.868C87.0624 17.276 87.4264 17.852 87.6104 18.596H85.7984C85.7024 18.308 85.5384 18.084 85.3064 17.924C85.0824 17.756 84.8024 17.672 84.4664 17.672C83.9864 17.672 83.6064 17.848 83.3264 18.2C83.0464 18.544 82.9064 19.036 82.9064 19.676C82.9064 20.308 83.0464 20.8 83.3264 21.152C83.6064 21.496 83.9864 21.668 84.4664 21.668C85.1464 21.668 85.5904 21.364 85.7984 20.756H87.6104C87.4264 21.476 87.0624 22.048 86.5184 22.472C85.9744 22.896 85.2944 23.108 84.4784 23.108C83.8384 23.108 83.2704 22.968 82.7744 22.688C82.2784 22.4 81.8904 22 81.6104 21.488C81.3304 20.968 81.1904 20.364 81.1904 19.676ZM91.7932 23.108C91.1532 23.108 90.5772 22.968 90.0652 22.688C89.5532 22.4 89.1492 21.996 88.8532 21.476C88.5652 20.956 88.4212 20.356 88.4212 19.676C88.4212 18.996 88.5692 18.396 88.8652 17.876C89.1692 17.356 89.5812 16.956 90.1012 16.676C90.6212 16.388 91.2012 16.244 91.8412 16.244C92.4812 16.244 93.0612 16.388 93.5812 16.676C94.1012 16.956 94.5092 17.356 94.8052 17.876C95.1092 18.396 95.2612 18.996 95.2612 19.676C95.2612 20.356 95.1052 20.956 94.7932 21.476C94.4892 21.996 94.0732 22.4 93.5452 22.688C93.0252 22.968 92.4412 23.108 91.7932 23.108ZM91.7932 21.644C92.0972 21.644 92.3812 21.572 92.6452 21.428C92.9172 21.276 93.1332 21.052 93.2932 20.756C93.4532 20.46 93.5332 20.1 93.5332 19.676C93.5332 19.044 93.3652 18.56 93.0292 18.224C92.7012 17.88 92.2972 17.708 91.8172 17.708C91.3372 17.708 90.9332 17.88 90.6052 18.224C90.2852 18.56 90.1252 19.044 90.1252 19.676C90.1252 20.308 90.2812 20.796 90.5932 21.14C90.9132 21.476 91.3132 21.644 91.7932 21.644ZM102.769 16.352V23H101.077V22.16C100.861 22.448 100.577 22.676 100.225 22.844C99.8815 23.004 99.5055 23.084 99.0975 23.084C98.5775 23.084 98.1175 22.976 97.7175 22.76C97.3175 22.536 97.0015 22.212 96.7695 21.788C96.5455 21.356 96.4335 20.844 96.4335 20.252V16.352H98.1135V20.012C98.1135 20.54 98.2455 20.948 98.5095 21.236C98.7735 21.516 99.1335 21.656 99.5895 21.656C100.053 21.656 100.417 21.516 100.681 21.236C100.945 20.948 101.077 20.54 101.077 20.012V16.352H102.769ZM108.111 16.256C108.903 16.256 109.543 16.508 110.031 17.012C110.519 17.508 110.763 18.204 110.763 19.1V23H109.083V19.328C109.083 18.8 108.951 18.396 108.687 18.116C108.423 17.828 108.063 17.684 107.607 17.684C107.143 17.684 106.775 17.828 106.503 18.116C106.239 18.396 106.107 18.8 106.107 19.328V23H104.427V16.352H106.107V17.18C106.331 16.892 106.615 16.668 106.959 16.508C107.311 16.34 107.695 16.256 108.111 16.256ZM114.317 17.732V20.948C114.317 21.172 114.369 21.336 114.473 21.44C114.585 21.536 114.769 21.584 115.025 21.584H115.805V23H114.749C113.333 23 112.625 22.312 112.625 20.936V17.732H111.833V16.352H112.625V14.708H114.317V16.352H115.805V17.732H114.317Z" fill="white"/>
</svg>
