<svg width="18" height="16" viewBox="0 0 18 16" fill="none" xmlns="http://www.w3.org/2000/svg">
<path d="M9.28446 14.8376V13.3098C10.401 12.9866 11.2236 11.9582 11.2236 10.7536C11.2236 9.54896 10.401 8.52061 9.28446 8.19741V0.734535C9.28446 0.323195 8.96127 0 8.54993 0C8.13859 0 7.81539 0.323195 7.81539 0.734535V8.19741C6.6989 8.52061 5.87622 9.54896 5.87622 10.7536C5.87622 11.9582 6.6989 12.9866 7.81539 13.3098V14.8376C7.81539 15.2489 8.13859 15.5721 8.54993 15.5721C8.96127 15.5721 9.28446 15.2489 9.28446 14.8376ZM7.34529 10.7536C7.34529 10.1072 7.87416 9.54896 8.54993 9.54896C9.2257 9.54896 9.75457 10.0778 9.75457 10.7536C9.75457 11.4294 9.2257 11.9582 8.54993 11.9582C7.87416 11.9582 7.34529 11.4 7.34529 10.7536Z" fill="#143656"/>
<path d="M13.6917 0.734535V2.32113C12.5752 2.64433 11.7526 3.67267 11.7526 4.87731C11.7526 6.08195 12.5752 7.1103 13.6917 7.4335V14.8376C13.6917 15.2489 14.0149 15.5721 14.4263 15.5721C14.8376 15.5721 15.1608 15.2489 15.1608 14.8376V7.4335C16.2773 7.1103 17.1 6.08195 17.1 4.87731C17.1 3.67267 16.2773 2.64433 15.1608 2.32113V0.734535C15.1608 0.323195 14.8376 0 14.4263 0C14.0149 0 13.6917 0.323195 13.6917 0.734535ZM15.6309 4.87731C15.6309 5.5237 15.102 6.08195 14.4263 6.08195C13.7505 6.08195 13.2216 5.55308 13.2216 4.87731C13.2216 4.20154 13.7799 3.67268 14.4263 3.67268C15.0727 3.67268 15.6309 4.23092 15.6309 4.87731Z" fill="#143656"/>
<path d="M3.40824 14.8376V7.4335C4.52474 7.1103 5.34741 6.08195 5.34741 4.87731C5.34741 3.67267 4.52474 2.64433 3.40824 2.32113V0.734535C3.40824 0.323195 3.08505 0 2.67371 0C2.26237 0 1.93917 0.323195 1.93917 0.734535V2.32113C0.822679 2.64433 0 3.67267 0 4.87731C0 6.08195 0.822679 7.1103 1.93917 7.4335V14.8376C1.93917 15.2489 2.26237 15.5721 2.67371 15.5721C3.08505 15.5721 3.40824 15.2489 3.40824 14.8376ZM1.46907 4.87731C1.46907 4.23092 1.99794 3.67268 2.67371 3.67268C3.34948 3.67268 3.87835 4.20154 3.87835 4.87731C3.87835 5.55308 3.34948 6.08195 2.67371 6.08195C1.99794 6.08195 1.46907 5.5237 1.46907 4.87731Z" fill="#143656"/>
</svg>
