<svg width="17" height="17" viewBox="0 0 17 17" fill="none" xmlns="http://www.w3.org/2000/svg">
<path d="M11.75 0.875V2.125H13.9769L11.8675 4.25375C11.1135 3.68444 10.1948 3.37599 9.24999 3.375C8.08124 3.375 6.98999 3.8375 6.16374 4.66438C5.75532 5.06786 5.43107 5.54842 5.20979 6.07817C4.98851 6.60792 4.87459 7.17633 4.87465 7.75044C4.87471 8.32456 4.98874 8.89294 5.21013 9.42265C5.43152 9.95236 5.75587 10.4328 6.16436 10.8363C6.70811 11.38 7.35561 11.7706 8.07811 11.9688C8.14936 11.9144 8.22936 11.8575 8.29311 11.7938C8.55508 11.5273 8.74332 11.1974 8.83936 10.8363C8.15894 10.7523 7.52629 10.4426 7.04249 9.95688C6.45249 9.3675 6.12499 8.585 6.12499 7.75C6.12499 6.915 6.45311 6.13375 7.04374 5.54375C7.63249 4.95188 8.41499 4.625 9.24999 4.625C10.085 4.625 10.8669 4.95313 11.4562 5.54375C11.7479 5.83233 11.9792 6.17596 12.137 6.5547C12.2947 6.93344 12.3756 7.33974 12.375 7.75C12.375 8.29063 12.2219 8.79375 11.965 9.25375C12.025 9.57625 12.0625 9.915 12.0625 10.25C12.0625 10.5613 12.0362 10.8688 11.9844 11.1688C12.1094 11.0669 12.2206 10.9513 12.3362 10.8363C13.1625 10.0088 13.625 8.91875 13.625 7.75C13.625 6.79375 13.31 5.885 12.7462 5.1325L14.875 3.02375V5.25H16.125V0.875H11.75ZM7.92186 6.03125C7.85061 6.08563 7.77061 6.1425 7.70686 6.20625C7.43686 6.4775 7.26061 6.80625 7.16061 7.16438C7.84186 7.25188 8.46374 7.54938 8.95749 8.04313C9.54811 8.6325 9.87624 9.415 9.87624 10.2494C9.87624 11.0838 9.54811 11.8656 8.95749 12.4556C8.36749 13.0481 7.58499 13.375 6.74999 13.375C5.91499 13.375 5.13311 13.0469 4.54374 12.4563C4.25189 12.1678 4.02036 11.8242 3.86263 11.4455C3.70489 11.0667 3.62411 10.6603 3.62499 10.25C3.62499 9.70938 3.77811 9.20625 4.03499 8.74625C3.97224 8.41783 3.9396 8.08436 3.93749 7.75C3.93749 7.43875 3.96374 7.13125 4.01561 6.83125C3.89061 6.93313 3.77999 7.04875 3.66374 7.16438C2.83874 7.99 2.37499 9.08125 2.37499 10.25C2.37499 11.2063 2.68999 12.115 3.25374 12.8675L2.19999 13.9219L0.949988 12.6719L0.0499878 13.5506L1.29999 14.8006L0.0499878 16.0506L0.949988 16.9506L2.19999 15.7006L3.44999 16.9506L4.32811 16.0506L3.07811 14.8006L4.13311 13.7469C4.88634 14.3171 5.80529 14.6254 6.74999 14.625C7.91874 14.625 9.00999 14.1625 9.83624 13.3356C10.6625 12.51 11.125 11.4188 11.125 10.25C11.125 9.08125 10.6625 7.99125 9.83561 7.16375C9.29186 6.62 8.64436 6.22938 7.92186 6.03125Z" fill="#A4A4A4"/>
</svg>
