<svg width="20" height="20" viewBox="0 0 20 20" fill="none" xmlns="http://www.w3.org/2000/svg">
<g clip-path="url(#clip0_447_1277)">
<path d="M12.346 11.101C13.226 11.101 14.087 11.247 14.901 11.529C14.9868 11.5577 15.0659 11.6032 15.1339 11.6628C15.2019 11.7224 15.2574 11.7949 15.297 11.8762C15.3367 11.9575 15.3598 12.0458 15.3649 12.1361C15.37 12.2264 15.3572 12.3168 15.327 12.402C15.2634 12.5747 15.1343 12.7153 14.9677 12.7936C14.8012 12.8718 14.6105 12.8813 14.437 12.82C13.7648 12.5875 13.0583 12.4692 12.347 12.47C8.88 12.47 6.071 15.227 6.071 18.629C6.071 18.837 6.081 19.043 6.101 19.248C6.10939 19.3382 6.09989 19.4291 6.07304 19.5156C6.04619 19.6021 6.00253 19.6825 5.94455 19.7521C5.88657 19.8217 5.81543 19.8791 5.7352 19.9212C5.65496 19.9632 5.56722 19.989 5.477 19.997C5.29448 20.0164 5.11172 19.9626 4.96872 19.8475C4.82572 19.7325 4.73414 19.5654 4.714 19.383C4.68863 19.1325 4.67595 18.8808 4.676 18.629C4.676 14.472 8.11 11.101 12.346 11.101ZM16.492 12.47C16.6761 12.4718 16.8522 12.5453 16.9829 12.6749C17.1136 12.8045 17.1886 12.98 17.192 13.164V15.423L19.306 15.418C19.4726 15.421 19.6328 15.4827 19.7583 15.5923C19.8838 15.7019 19.9666 15.8523 19.992 16.017L20 16.119C20.0007 16.2092 19.9833 16.2986 19.9489 16.3819C19.9144 16.4652 19.8636 16.5408 19.7995 16.6042C19.7354 16.6676 19.6592 16.7175 19.5755 16.7509C19.4917 16.7844 19.4022 16.8007 19.312 16.799L17.192 16.804V19.174C17.1939 19.2642 17.1776 19.3538 17.1442 19.4376C17.1108 19.5214 17.0609 19.5977 16.9975 19.6618C16.9341 19.726 16.8585 19.7768 16.7751 19.8111C16.6917 19.8455 16.6022 19.8628 16.512 19.862C16.3279 19.8602 16.1518 19.7867 16.0211 19.6571C15.8904 19.5275 15.8154 19.352 15.812 19.168L15.811 16.807L13.301 16.814C13.1347 16.8108 12.9749 16.7491 12.8496 16.6397C12.7243 16.5304 12.6416 16.3803 12.616 16.216L12.608 16.113C12.6073 16.0229 12.6247 15.9336 12.659 15.8503C12.6934 15.7671 12.7441 15.6915 12.8081 15.6282C12.8722 15.5648 12.9482 15.5149 13.0318 15.4814C13.1155 15.4478 13.2049 15.4314 13.295 15.433L15.811 15.426V13.157C15.8094 13.0668 15.8259 12.9773 15.8594 12.8936C15.893 12.8099 15.943 12.7338 16.0065 12.6698C16.07 12.6057 16.1457 12.5551 16.229 12.5208C16.3124 12.4864 16.4018 12.4692 16.492 12.47ZM7.671 8.22C7.7617 8.21908 7.85169 8.23604 7.93582 8.26993C8.01995 8.30382 8.09658 8.35396 8.16131 8.41749C8.22605 8.48102 8.27763 8.55669 8.31309 8.64017C8.34856 8.72365 8.36722 8.8133 8.368 8.904C8.36735 8.99478 8.34879 9.08454 8.31338 9.16814C8.27797 9.25174 8.22642 9.32752 8.16167 9.39116C8.09692 9.45479 8.02025 9.50502 7.93605 9.53897C7.85185 9.57292 7.76178 9.58992 7.671 9.589C4.204 9.589 1.395 12.346 1.395 15.748C1.395 15.955 1.405 16.162 1.425 16.366C1.43353 16.4563 1.42413 16.5473 1.39735 16.6339C1.37056 16.7206 1.32692 16.801 1.26893 16.8707C1.21094 16.9404 1.13975 16.998 1.05945 17.0401C0.979142 17.0822 0.89131 17.108 0.801 17.116C0.618476 17.1354 0.435717 17.0816 0.29272 16.9665C0.149723 16.8515 0.0581349 16.6844 0.0380002 16.502C0.0126312 16.2515 -5.16213e-05 15.9998 1.57902e-07 15.748C1.57902e-07 11.59 3.434 8.22 7.67 8.22H7.671ZM12.609 2.966C14.792 2.966 16.561 4.703 16.561 6.844C16.561 8.986 14.791 10.722 12.609 10.722C10.427 10.722 8.658 8.986 8.658 6.844C8.658 4.703 10.427 2.966 12.609 2.966ZM12.609 4.335C11.197 4.335 10.052 5.458 10.052 6.845C10.052 8.23 11.197 9.353 12.609 9.353C14.021 9.353 15.166 8.23 15.166 6.844C15.166 5.458 14.021 4.335 12.609 4.335ZM8.025 0C9.27 0 10.42 0.57 11.163 1.52C11.397 1.82 11.339 2.25 11.033 2.48C10.8857 2.59034 10.7012 2.63881 10.5187 2.61509C10.3362 2.59137 10.1702 2.49733 10.056 2.353C9.81475 2.04515 9.50637 1.79647 9.15439 1.62593C8.8024 1.4554 8.41612 1.36752 8.025 1.369C6.613 1.369 5.468 2.492 5.468 3.878C5.468 5.09 6.35 6.123 7.549 6.344C7.927 6.414 8.177 6.771 8.106 7.143C8.06952 7.32304 7.96344 7.48141 7.81082 7.58365C7.6582 7.6859 7.47138 7.72376 7.291 7.689C5.436 7.347 4.073 5.751 4.073 3.878C4.073 1.736 5.843 0 8.025 0Z" fill="#A4A4A4"/>
</g>
<defs>
<clipPath id="clip0_447_1277">
<rect width="20" height="20" fill="white"/>
</clipPath>
</defs>
</svg>
