<svg width="12" height="14" viewBox="0 0 12 14" fill="none" xmlns="http://www.w3.org/2000/svg">
<path d="M3 3.0625C3 1.37102 4.34196 0 6 0C7.65804 0 9 1.37102 9 3.0625V4.375H10.7143C11.4241 4.375 12 4.96289 12 5.6875V11.375C12 12.8242 10.8482 14 9.42857 14H2.57143C1.15125 14 0 12.8242 0 11.375V5.6875C0 4.96289 0.575625 4.375 1.28571 4.375H3V3.0625ZM4.28571 4.375H7.71429V3.0625C7.71429 2.0959 6.94554 1.3125 6 1.3125C5.05446 1.3125 4.28571 2.0959 4.28571 3.0625V4.375ZM3.64286 7C3.99911 7 4.28571 6.70742 4.28571 6.34375C4.28571 5.98008 3.99911 5.6875 3.64286 5.6875C3.28661 5.6875 3 5.98008 3 6.34375C3 6.70742 3.28661 7 3.64286 7ZM8.35714 5.6875C8.00089 5.6875 7.71429 5.98008 7.71429 6.34375C7.71429 6.70742 8.00089 7 8.35714 7C8.71339 7 9 6.70742 9 6.34375C9 5.98008 8.71339 5.6875 8.35714 5.6875Z" fill="black"/>
</svg>
