<svg width="26" height="21" viewBox="0 0 26 21" fill="none" xmlns="http://www.w3.org/2000/svg">
<g clip-path="url(#clip0_16_2370)">
<path d="M5.90911 20.8966V10.1344L2.79368 7.08092L0 5.38644V18.9974C0 20.0483 0.794726 20.8966 1.77277 20.8966H5.90911Z" fill="#4285F4"/>
<path d="M20.0909 20.8966H24.2273C25.2083 20.8966 26.0001 20.0451 26.0001 18.9974V5.38657L22.8358 7.32738L20.0909 10.1344V20.8966Z" fill="#34A853"/>
<path d="M5.90915 10.1344L5.48523 5.92928L5.90915 1.90457L13 7.60221L20.0909 1.90457L20.5652 5.71199L20.0909 10.1344L13 15.832L5.90915 10.1344Z" fill="#EA4335"/>
<path d="M20.0909 1.90458V10.1344L26.0001 5.38644V2.85415C26.0001 0.505521 23.4976 -0.833366 21.7456 0.575158L20.0909 1.90458Z" fill="#FBBC04"/>
<path d="M0 5.3864L2.71771 7.57019L5.90911 10.1344V1.90454L4.25445 0.575116C2.49945 -0.833517 0 0.505479 0 2.854V5.38629V5.3864Z" fill="#C5221F"/>
</g>
<defs>
<clipPath id="clip0_16_2370">
<rect width="26" height="21" fill="white"/>
</clipPath>
</defs>
</svg>
