<svg width="91" height="28" viewBox="0 0 91 28" fill="none" xmlns="http://www.w3.org/2000/svg">
<g filter="url(#filter0_d_447_972)">
<path d="M25.397 16.5085V5.22854H26.709V15.3565H32.453V16.5085H25.397ZM37.0624 16.6525C36.305 16.6525 35.649 16.4872 35.0944 16.1565C34.5397 15.8259 34.1077 15.3619 33.7984 14.7645C33.4997 14.1565 33.3504 13.4419 33.3504 12.6205C33.3504 11.7992 33.4997 11.0899 33.7984 10.4925C34.1077 9.88454 34.5397 9.41521 35.0944 9.08454C35.649 8.75388 36.305 8.58854 37.0624 8.58854C37.809 8.58854 38.4597 8.75388 39.0144 9.08454C39.5797 9.41521 40.0117 9.88454 40.3104 10.4925C40.6197 11.0899 40.7744 11.7992 40.7744 12.6205C40.7744 13.4419 40.6197 14.1565 40.3104 14.7645C40.0117 15.3619 39.5797 15.8259 39.0144 16.1565C38.4597 16.4872 37.809 16.6525 37.0624 16.6525ZM37.0624 15.6125C37.7877 15.6125 38.369 15.3565 38.8064 14.8445C39.2437 14.3219 39.4624 13.5805 39.4624 12.6205C39.4624 11.6499 39.2437 10.9085 38.8064 10.3965C38.369 9.88454 37.7877 9.62854 37.0624 9.62854C36.3264 9.62854 35.7397 9.88454 35.3024 10.3965C34.8757 10.9085 34.6624 11.6499 34.6624 12.6205C34.6624 13.5805 34.8757 14.3219 35.3024 14.8445C35.7397 15.3565 36.3264 15.6125 37.0624 15.6125ZM46.161 19.5325C45.489 19.5325 44.8543 19.4419 44.257 19.2605C43.6703 19.0899 43.1477 18.8285 42.689 18.4765L43.121 17.5325C43.601 17.8739 44.0757 18.1192 44.545 18.2685C45.025 18.4179 45.5423 18.4925 46.097 18.4925C47.633 18.4925 48.401 17.7032 48.401 16.1245V14.7485C48.177 15.2392 47.825 15.6285 47.345 15.9165C46.8757 16.1939 46.337 16.3325 45.729 16.3325C45.0143 16.3325 44.3957 16.1672 43.873 15.8365C43.3503 15.5059 42.945 15.0525 42.657 14.4765C42.3797 13.8899 42.241 13.2125 42.241 12.4445C42.241 11.6765 42.3797 11.0045 42.657 10.4285C42.945 9.84188 43.3503 9.38854 43.873 9.06854C44.3957 8.74854 45.0143 8.58854 45.729 8.58854C46.337 8.58854 46.8757 8.72721 47.345 9.00454C47.825 9.28188 48.177 9.66054 48.401 10.1405V8.73254H49.665V15.9485C49.665 17.1432 49.3663 18.0392 48.769 18.6365C48.1823 19.2339 47.313 19.5325 46.161 19.5325ZM45.969 15.2765C46.7157 15.2765 47.3077 15.0205 47.745 14.5085C48.1823 13.9965 48.401 13.3085 48.401 12.4445C48.401 11.5805 48.1823 10.8979 47.745 10.3965C47.3077 9.88454 46.7157 9.62854 45.969 9.62854C45.233 9.62854 44.6463 9.88454 44.209 10.3965C43.7717 10.8979 43.553 11.5805 43.553 12.4445C43.553 13.3085 43.7717 13.9965 44.209 14.5085C44.6463 15.0205 45.233 15.2765 45.969 15.2765ZM61.1174 16.6525C60.072 16.6525 59.16 16.4179 58.3814 15.9485C57.6134 15.4685 57.016 14.7965 56.5894 13.9325C56.1734 13.0685 55.9654 12.0445 55.9654 10.8605C55.9654 9.67654 56.1734 8.65254 56.5894 7.78854C57.0054 6.92454 57.5974 6.25788 58.3654 5.78854C59.144 5.31921 60.0614 5.08454 61.1174 5.08454C62.184 5.08454 63.1014 5.31921 63.8694 5.78854C64.648 6.25788 65.2454 6.92454 65.6614 7.78854C66.088 8.64188 66.3014 9.66054 66.3014 10.8445C66.3014 12.0285 66.088 13.0579 65.6614 13.9325C65.2347 14.7965 64.632 15.4685 63.8534 15.9485C63.0854 16.4179 62.1734 16.6525 61.1174 16.6525ZM61.1174 15.4845C62.3227 15.4845 63.256 15.0792 63.9174 14.2685C64.5787 13.4579 64.9094 12.3219 64.9094 10.8605C64.9094 9.39921 64.5787 8.26854 63.9174 7.46854C63.256 6.65788 62.3227 6.25254 61.1174 6.25254C59.9334 6.25254 59.0107 6.65788 58.3494 7.46854C57.688 8.26854 57.3574 9.39921 57.3574 10.8605C57.3574 12.3112 57.688 13.4472 58.3494 14.2685C59.0107 15.0792 59.9334 15.4845 61.1174 15.4845ZM71.223 16.6525C69.3563 16.6525 68.423 15.6232 68.423 13.5645V8.73254H69.719V13.5485C69.719 14.2419 69.8577 14.7539 70.135 15.0845C70.423 15.4152 70.871 15.5805 71.479 15.5805C72.1403 15.5805 72.679 15.3619 73.095 14.9245C73.511 14.4765 73.719 13.8845 73.719 13.1485V8.73254H75.015V16.5085H73.751V15.1965C73.5057 15.6659 73.159 16.0285 72.711 16.2845C72.2737 16.5299 71.7777 16.6525 71.223 16.6525ZM80.5598 16.6525C79.6424 16.6525 78.9544 16.4125 78.4958 15.9325C78.0371 15.4419 77.8078 14.7379 77.8078 13.8205V9.74054H76.2878V8.73254H77.8078V6.34854H79.1038V8.73254H81.5678V9.74054H79.1038V13.6925C79.1038 14.3005 79.2318 14.7645 79.4878 15.0845C79.7438 15.3939 80.1598 15.5485 80.7358 15.5485C80.9064 15.5485 81.0771 15.5272 81.2478 15.4845C81.4184 15.4419 81.5731 15.3992 81.7118 15.3565L81.9358 16.3485C81.7971 16.4232 81.5944 16.4925 81.3278 16.5565C81.0611 16.6205 80.8051 16.6525 80.5598 16.6525Z" fill="#A4A4A4"/>
<path d="M9.40742 10.9621L11.4755 8.89405C11.5261 8.84344 11.5663 8.78334 11.5938 8.7172C11.6212 8.65105 11.6353 8.58014 11.6354 8.50853C11.6354 8.43692 11.6213 8.366 11.594 8.29982C11.5666 8.23365 11.5265 8.17351 11.4758 8.12285C11.4252 8.07219 11.3651 8.03199 11.299 8.00455C11.2328 7.97711 11.1619 7.96297 11.0903 7.96294C11.0187 7.9629 10.9478 7.97697 10.8816 8.00435C10.8154 8.03172 10.7553 8.07186 10.7046 8.12247L7.70529 11.1218C7.65457 11.1724 7.61433 11.2326 7.58688 11.2988C7.55943 11.365 7.5453 11.4359 7.5453 11.5076C7.5453 11.5793 7.55943 11.6502 7.58688 11.7164C7.61433 11.7826 7.65457 11.8428 7.70529 11.8934L10.7046 14.8927C10.7553 14.9434 10.8154 14.9836 10.8816 15.011C10.9478 15.0384 11.0188 15.0525 11.0904 15.0525C11.1621 15.0525 11.233 15.0384 11.2992 15.011C11.3654 14.9836 11.4256 14.9434 11.4762 14.8927C11.5269 14.8421 11.5671 14.7819 11.5945 14.7157C11.6219 14.6495 11.636 14.5786 11.636 14.507C11.636 14.4353 11.6219 14.3644 11.5945 14.2982C11.5671 14.232 11.5269 14.1718 11.4762 14.1212L9.40742 12.0524H15.4556C15.6003 12.0524 15.739 11.9949 15.8413 11.8926C15.9436 11.7903 16.0011 11.6515 16.0011 11.5069C16.0011 11.3622 15.9436 11.2234 15.8413 11.1211C15.739 11.0188 15.6003 10.9614 15.4556 10.9614L9.40742 10.9621ZM10.5449 6.59956C10.6896 6.59956 10.8283 6.54208 10.9306 6.43978C11.0329 6.33748 11.0904 6.19873 11.0904 6.05405C11.0904 5.90937 11.0329 5.77062 10.9306 5.66832C10.8283 5.56602 10.6896 5.50855 10.5449 5.50855H5.36655C5.18721 5.50845 5.00961 5.5437 4.8439 5.61228C4.67819 5.68087 4.52762 5.78144 4.40081 5.90826C4.274 6.03507 4.17342 6.18564 4.10484 6.35134C4.03625 6.51705 4.001 6.69466 4.0011 6.874V16.1405C4.0011 16.5026 4.14496 16.8499 4.40103 17.106C4.6571 17.3621 5.00441 17.5059 5.36655 17.5059H10.5449C10.6896 17.5059 10.8283 17.4484 10.9306 17.3461C11.0329 17.2438 11.0904 17.1051 11.0904 16.9604C11.0904 16.8157 11.0329 16.677 10.9306 16.5747C10.8283 16.4724 10.6896 16.4149 10.5449 16.4149H5.36655C5.33045 16.415 5.29468 16.408 5.2613 16.3942C5.22791 16.3805 5.19757 16.3603 5.17201 16.3348C5.14644 16.3093 5.12616 16.279 5.11232 16.2457C5.09848 16.2123 5.09136 16.1766 5.09136 16.1405V6.874C5.09136 6.83789 5.09848 6.80214 5.11232 6.7688C5.12616 6.73545 5.14644 6.70517 5.17201 6.67967C5.19757 6.65418 5.22791 6.63398 5.2613 6.62023C5.29468 6.60648 5.33045 6.59946 5.36655 6.59956H10.5449Z" fill="#A4A4A4"/>
</g>
<defs>
<filter id="filter0_d_447_972" x="0.00109863" y="5.08459" width="85.9347" height="22.448" filterUnits="userSpaceOnUse" color-interpolation-filters="sRGB">
<feFlood flood-opacity="0" result="BackgroundImageFix"/>
<feColorMatrix in="SourceAlpha" type="matrix" values="0 0 0 0 0 0 0 0 0 0 0 0 0 0 0 0 0 0 127 0" result="hardAlpha"/>
<feOffset dy="4"/>
<feGaussianBlur stdDeviation="2"/>
<feComposite in2="hardAlpha" operator="out"/>
<feColorMatrix type="matrix" values="0 0 0 0 0 0 0 0 0 0 0 0 0 0 0 0 0 0 0.25 0"/>
<feBlend mode="normal" in2="BackgroundImageFix" result="effect1_dropShadow_447_972"/>
<feBlend mode="normal" in="SourceGraphic" in2="effect1_dropShadow_447_972" result="shape"/>
</filter>
</defs>
</svg>
