<svg width="70" height="72" viewBox="0 0 70 72" fill="none" xmlns="http://www.w3.org/2000/svg">
<path d="M69.6446 67.7063C69.6446 67.7285 54.1065 67.747 34.9465 67.747C15.7865 67.747 0.244751 67.7313 0.244751 67.7063C0.244751 67.6814 15.7782 67.6648 34.9465 67.6648C54.1148 67.6648 69.6446 67.6842 69.6446 67.7063Z" fill="#263238"/>
<path d="M22.219 23.4357L22.7279 24.1747C22.7436 24.1974 22.7646 24.216 22.7891 24.2289C22.8135 24.2418 22.8407 24.2485 22.8684 24.2486H23.7653C23.7974 24.2486 23.8289 24.2576 23.8562 24.2746C23.8835 24.2916 23.9055 24.3159 23.9196 24.3448C23.9338 24.3736 23.9395 24.4059 23.9362 24.4379C23.933 24.4699 23.9208 24.5003 23.9011 24.5257L23.3542 25.237C23.3369 25.2589 23.3254 25.2849 23.3207 25.3125C23.316 25.3401 23.3183 25.3684 23.3275 25.3949L23.6046 26.2475C23.6145 26.278 23.6157 26.3107 23.6081 26.3419C23.6004 26.373 23.5841 26.4014 23.5612 26.4238C23.5382 26.4462 23.5094 26.4618 23.478 26.4686C23.4467 26.4755 23.414 26.4735 23.3838 26.4627L22.5386 26.1625C22.5124 26.1531 22.4844 26.1502 22.4569 26.154C22.4293 26.1579 22.4032 26.1684 22.3806 26.1847L21.6536 26.7103C21.6277 26.7305 21.5965 26.7428 21.5637 26.7458C21.531 26.7488 21.498 26.7423 21.4689 26.7271C21.4397 26.712 21.4155 26.6887 21.3991 26.6602C21.3827 26.6317 21.3749 26.599 21.3765 26.5662L21.4015 25.6702C21.4023 25.6422 21.3962 25.6144 21.3838 25.5893C21.3714 25.5642 21.353 25.5425 21.3303 25.5261L20.6052 24.9968C20.5795 24.9778 20.5596 24.952 20.5477 24.9223C20.5359 24.8926 20.5326 24.8602 20.5381 24.8287C20.5437 24.7972 20.558 24.7679 20.5793 24.7441C20.6006 24.7202 20.6281 24.7028 20.6588 24.6938L21.5151 24.4462C21.542 24.4387 21.5666 24.4247 21.5868 24.4053C21.6069 24.386 21.622 24.362 21.6306 24.3354L21.9077 23.4828C21.9167 23.4513 21.9344 23.4231 21.9589 23.4014C21.9834 23.3797 22.0136 23.3654 22.0459 23.3603C22.0782 23.3551 22.1113 23.3593 22.1413 23.3724C22.1713 23.3854 22.197 23.4067 22.2153 23.4338L22.219 23.4357Z" fill="#46D0D9"/>
<path d="M61.9081 41.4946L62.5399 41.8234C62.5595 41.8336 62.5812 41.8388 62.6032 41.8388C62.6252 41.8388 62.647 41.8336 62.6665 41.8234L63.2983 41.4872C63.321 41.4756 63.3463 41.4706 63.3717 41.4725C63.397 41.4745 63.4213 41.4834 63.4418 41.4983C63.4624 41.5133 63.4784 41.5336 63.4881 41.557C63.4979 41.5805 63.5009 41.6062 63.4969 41.6313L63.3796 42.3361C63.376 42.3582 63.3779 42.3808 63.3849 42.4021C63.392 42.4233 63.4041 42.4425 63.4203 42.458L63.9348 42.9541C63.9534 42.9718 63.9666 42.9944 63.973 43.0193C63.9794 43.0442 63.9788 43.0703 63.9711 43.0948C63.9634 43.1193 63.949 43.1412 63.9295 43.1579C63.91 43.1747 63.8863 43.1857 63.8609 43.1896L63.1533 43.2959C63.1313 43.2991 63.1105 43.3077 63.0926 43.3209C63.0747 43.3341 63.0604 43.3515 63.0508 43.3716L62.7348 44.0182C62.7238 44.0413 62.7064 44.0607 62.6848 44.0743C62.6631 44.088 62.6381 44.0952 62.6125 44.0952C62.5869 44.0952 62.5618 44.088 62.5402 44.0743C62.5185 44.0607 62.5012 44.0413 62.4901 44.0182L62.1741 43.3781C62.164 43.3583 62.1492 43.3412 62.131 43.3284C62.1128 43.3155 62.0918 43.3072 62.0698 43.3042L61.3622 43.2044C61.3369 43.2012 61.313 43.1908 61.2933 43.1746C61.2735 43.1584 61.2588 43.137 61.2507 43.1128C61.2426 43.0886 61.2415 43.0626 61.2475 43.0378C61.2535 43.013 61.2663 42.9904 61.2846 42.9725L61.7945 42.47C61.8101 42.4542 61.8216 42.4349 61.8282 42.4136C61.8348 42.3924 61.8362 42.37 61.8324 42.3481L61.7077 41.6433C61.7029 41.618 61.7055 41.592 61.715 41.5681C61.7245 41.5442 61.7406 41.5235 61.7614 41.5084C61.7822 41.4933 61.8068 41.4845 61.8325 41.4828C61.8581 41.4812 61.8837 41.4869 61.9063 41.4992L61.9081 41.4946Z" fill="#46D0D9"/>
<path d="M26.4597 20.4114L26.5937 20.8206C26.5984 20.8329 26.6059 20.8439 26.6155 20.8528C26.6251 20.8618 26.6366 20.8685 26.6491 20.8723L27.0611 20.9943C27.0757 20.9987 27.0889 21.0071 27.099 21.0185C27.1091 21.03 27.1159 21.044 27.1184 21.0591C27.121 21.0741 27.1194 21.0896 27.1137 21.1038C27.1079 21.118 27.0984 21.1303 27.086 21.1393L26.7396 21.3924C26.7287 21.4003 26.7198 21.4107 26.7137 21.4228C26.7076 21.4348 26.7045 21.4482 26.7045 21.4617L26.7175 21.8912C26.7184 21.9066 26.7148 21.9219 26.7073 21.9354C26.6997 21.9488 26.6884 21.9598 26.6748 21.967C26.6612 21.9742 26.6457 21.9773 26.6304 21.976C26.615 21.9747 26.6004 21.969 26.5881 21.9596L26.239 21.7083C26.228 21.7008 26.2155 21.6959 26.2024 21.694C26.1893 21.692 26.1759 21.6932 26.1632 21.6972L25.7586 21.8423C25.7442 21.8475 25.7285 21.8486 25.7135 21.8454C25.6985 21.8421 25.6846 21.8348 25.6736 21.8241C25.6625 21.8134 25.6546 21.7999 25.6509 21.7849C25.6472 21.77 25.6477 21.7544 25.6524 21.7397L25.7836 21.3305C25.7874 21.3177 25.7882 21.3043 25.7859 21.2911C25.7837 21.278 25.7785 21.2655 25.7706 21.2548L25.5083 20.9148C25.4988 20.9027 25.4928 20.8881 25.4912 20.8728C25.4895 20.8574 25.4923 20.8419 25.499 20.8281C25.5057 20.8142 25.5163 20.8025 25.5293 20.7943C25.5424 20.7861 25.5575 20.7818 25.573 20.7818H26.0025C26.0156 20.782 26.0286 20.7789 26.0402 20.7727C26.0519 20.7666 26.0617 20.7577 26.069 20.7467L26.3119 20.3911C26.3206 20.3786 26.3325 20.3688 26.3463 20.3627C26.3601 20.3566 26.3754 20.3544 26.3904 20.3565C26.4054 20.3585 26.4195 20.3646 26.4313 20.3741C26.443 20.3836 26.4519 20.3962 26.457 20.4105L26.4597 20.4114Z" fill="#46D0D9"/>
<path d="M38.2743 18.0392L43.6671 28.9679C43.8346 29.3067 44.0819 29.5998 44.3875 29.8222C44.6932 30.0445 45.0482 30.1894 45.4222 30.2445L57.4815 31.9996C57.9128 32.0623 58.318 32.2444 58.6511 32.5254C58.9843 32.8063 59.2322 33.175 59.3668 33.5895C59.5013 34.0041 59.5172 34.448 59.4126 34.8711C59.3079 35.2942 59.087 35.6796 58.7747 35.9836L50.0482 44.4884C49.7774 44.7528 49.5748 45.0789 49.4578 45.4388C49.3408 45.7988 49.313 46.1817 49.3767 46.5548L52.8619 59.3097C52.9543 60.965 50.3549 62.0919 48.0502 61.0269L37.2638 55.357C36.9291 55.1804 36.5564 55.0881 36.1779 55.0881C35.7995 55.0881 35.4268 55.1804 35.0921 55.357L24.3094 61.0259C23.9238 61.2284 23.4893 61.319 23.055 61.2874C22.6206 61.2559 22.2037 61.1036 21.8514 60.8476C21.4991 60.5917 21.2253 60.2423 21.0611 59.839C20.8969 59.4356 20.8487 58.9944 20.9221 58.5651L22.9755 46.5566C23.0405 46.1827 23.0135 45.7986 22.8968 45.4374C22.7802 45.0763 22.5773 44.749 22.3058 44.4838L13.584 35.9799C13.2717 35.6759 13.0507 35.2905 12.9461 34.8674C12.8415 34.4443 12.8573 34.0004 12.9919 33.5858C13.1265 33.1713 13.3743 32.8027 13.7075 32.5217C14.0407 32.2407 14.4459 32.0586 14.8772 31.9959L26.9365 30.2408C27.3106 30.1861 27.6658 30.0413 27.9715 29.819C28.2772 29.5966 28.5243 29.3032 28.6916 28.9642L33.9347 18.3413C34.5868 17.0194 35.3803 16.4938 37.8836 16.4938C38.7141 16.5021 37.8467 17.1719 38.2743 18.0392Z" fill="#46D0D9"/>
<path opacity="0.3" d="M38.2743 18.0392L43.6671 28.9679C43.8346 29.3067 44.0819 29.5998 44.3875 29.8222C44.6932 30.0445 45.0482 30.1894 45.4222 30.2445L57.4815 31.9996C57.9128 32.0623 58.318 32.2444 58.6511 32.5254C58.9843 32.8063 59.2322 33.175 59.3668 33.5895C59.5013 34.0041 59.5172 34.448 59.4126 34.8711C59.3079 35.2942 59.087 35.6796 58.7747 35.9836L50.0482 44.4884C49.7774 44.7528 49.5748 45.0789 49.4578 45.4388C49.3408 45.7988 49.313 46.1817 49.3767 46.5548L52.8619 59.3097C52.9543 60.965 50.3549 62.0919 48.0502 61.0269L37.2638 55.357C36.9291 55.1804 36.5564 55.0881 36.1779 55.0881C35.7995 55.0881 35.4268 55.1804 35.0921 55.357L24.3094 61.0259C23.9238 61.2284 23.4893 61.319 23.055 61.2874C22.6206 61.2559 22.2037 61.1036 21.8514 60.8476C21.4991 60.5917 21.2253 60.2423 21.0611 59.839C20.8969 59.4356 20.8487 58.9944 20.9221 58.5651L22.9755 46.5566C23.0405 46.1827 23.0135 45.7986 22.8968 45.4374C22.7802 45.0763 22.5773 44.749 22.3058 44.4838L13.584 35.9799C13.2717 35.6759 13.0507 35.2905 12.9461 34.8674C12.8415 34.4443 12.8573 34.0004 12.9919 33.5858C13.1265 33.1713 13.3743 32.8027 13.7075 32.5217C14.0407 32.2407 14.4459 32.0586 14.8772 31.9959L26.9365 30.2408C27.3106 30.1861 27.6658 30.0413 27.9715 29.819C28.2772 29.5966 28.5243 29.3032 28.6916 28.9642L33.9347 18.3413C34.5868 17.0194 35.3803 16.4938 37.8836 16.4938C38.7141 16.5021 37.8467 17.1719 38.2743 18.0392Z" fill="black"/>
<path d="M23.6922 44.2972C23.4369 44.3658 23.1754 44.4089 22.9116 44.4256C22.6507 44.4685 22.386 44.4843 22.1218 44.4727C22.3769 44.4032 22.6385 44.3599 22.9024 44.3434C23.1633 44.3003 23.428 44.2848 23.6922 44.2972Z" fill="#46D0D9"/>
<path d="M23.9371 45.3179C23.8027 45.3755 23.6584 45.4069 23.5122 45.4103C23.3692 45.4384 23.222 45.4384 23.079 45.4103C23.2138 45.3539 23.3578 45.3226 23.5039 45.3179C23.6471 45.2912 23.794 45.2912 23.9371 45.3179Z" fill="#46D0D9"/>
<path d="M22.9385 43.4178C22.3719 43.5361 21.7954 43.601 21.2167 43.6118C21.4968 43.5376 21.7837 43.4915 22.073 43.4741C22.3591 43.4282 22.6488 43.4091 22.9385 43.4169V43.4178Z" fill="#46D0D9"/>
<path d="M22.0887 42.5754C21.8085 42.6496 21.5217 42.6957 21.2324 42.713C20.9463 42.7589 20.6565 42.778 20.3668 42.7703C20.647 42.6961 20.9338 42.65 21.2231 42.6326C21.5092 42.5868 21.799 42.5676 22.0887 42.5754Z" fill="#46D0D9"/>
<path d="M21.2471 41.7338C20.9669 41.808 20.6801 41.8541 20.3908 41.8715C20.1047 41.9173 19.8149 41.9365 19.5253 41.9287C20.0919 41.8105 20.6684 41.7455 21.2471 41.7347V41.7338Z" fill="#46D0D9"/>
<path d="M20.3982 40.8914C20.118 40.9655 19.8312 41.0119 19.5419 41.0299C19.2557 41.0748 18.966 41.0933 18.6764 41.0854C19.243 40.9671 19.8195 40.9022 20.3982 40.8914Z" fill="#46D0D9"/>
<path d="M19.557 40.0499C19.2768 40.1239 18.99 40.1703 18.7007 40.1884C18.4145 40.2333 18.1248 40.2518 17.8352 40.2439C18.4018 40.1256 18.9783 40.0607 19.557 40.0499Z" fill="#46D0D9"/>
<path d="M18.7077 39.2084C18.4271 39.2807 18.1405 39.3268 17.8514 39.346C17.5653 39.3918 17.2755 39.4103 16.9858 39.4014C17.2664 39.3291 17.5531 39.283 17.8421 39.2638C18.1281 39.2171 18.418 39.1985 18.7077 39.2084Z" fill="#46D0D9"/>
<path d="M17.8665 38.3705C17.5859 38.4429 17.2993 38.4889 17.0102 38.5082C16.7241 38.554 16.4343 38.5725 16.1447 38.5636C16.4252 38.4912 16.7119 38.4451 17.001 38.426C17.287 38.3793 17.5769 38.3607 17.8665 38.3705Z" fill="#46D0D9"/>
<path d="M17.0176 37.5244C16.7371 37.5968 16.4504 37.6428 16.1613 37.662C15.8753 37.7087 15.5854 37.7273 15.2958 37.7175C15.5763 37.6451 15.863 37.599 16.1521 37.5798C16.4381 37.5331 16.728 37.5145 17.0176 37.5244Z" fill="#46D0D9"/>
<path d="M14.5401 33.8646C14.0088 33.9431 13.4708 33.9661 12.9347 33.9329C13.4662 33.8565 14.004 33.8336 14.5401 33.8646Z" fill="#46D0D9"/>
<path d="M14.7976 32.9676C14.5477 33.0033 14.2945 33.0107 14.0429 32.9898C13.7909 32.9964 13.5388 32.9763 13.291 32.9298C13.541 32.8942 13.7941 32.8867 14.0457 32.9076C14.2978 32.901 14.5498 32.9211 14.7976 32.9676Z" fill="#46D0D9"/>
<path d="M15.6199 32.1206C15.2227 32.1847 14.8185 32.1928 14.4191 32.1446C14.6148 32.1008 14.8155 32.0834 15.0158 32.0929C15.2163 32.0759 15.4182 32.0855 15.6162 32.1215L15.6199 32.1206Z" fill="#46D0D9"/>
<path d="M16.1761 36.6829C15.8955 36.7552 15.6088 36.8013 15.3198 36.8205C15.0337 36.8672 14.7439 36.8858 14.4542 36.876C14.7348 36.8036 15.0214 36.7575 15.3105 36.7383C15.5965 36.6916 15.8864 36.673 16.1761 36.6829Z" fill="#46D0D9"/>
<path d="M15.4296 35.7758C15.1487 35.8496 14.8613 35.896 14.5715 35.9143C14.2853 35.9592 13.9955 35.9777 13.7059 35.9698C14.2732 35.8514 14.8503 35.7864 15.4296 35.7758Z" fill="#46D0D9"/>
<path d="M14.7249 34.8742C14.4456 34.9466 14.1601 34.9926 13.8723 35.0118C13.5877 35.0576 13.2994 35.0762 13.0114 35.0673C13.2903 34.995 13.5755 34.9489 13.863 34.9296C14.148 34.8848 14.4365 34.8663 14.7249 34.8742Z" fill="#46D0D9"/>
<path d="M49.0045 59.9147C48.7855 60.0611 48.5521 60.1849 48.308 60.2842C48.0751 60.4084 47.8299 60.508 47.5764 60.5816C48.026 60.3105 48.5024 60.0867 48.998 59.9138L49.0045 59.9147Z" fill="#46D0D9"/>
<path d="M49.5605 60.8033C49.4518 60.8985 49.3266 60.973 49.191 61.0232C49.0655 61.0965 48.9273 61.1457 48.7837 61.1682C49.0173 60.9986 49.2808 60.8748 49.5605 60.8033Z" fill="#46D0D9"/>
<path d="M48.0042 59.3235C47.7614 59.482 47.5045 59.6174 47.2365 59.7281C46.9802 59.8636 46.7114 59.974 46.4338 60.0579C46.9328 59.7625 47.4586 59.5151 48.0042 59.3189V59.3235Z" fill="#46D0D9"/>
<path d="M46.9353 58.7961C46.4368 59.0922 45.9109 59.3397 45.365 59.5351C45.6075 59.3757 45.8645 59.2396 46.1326 59.1286C46.3893 58.9939 46.6581 58.8835 46.9353 58.7988V58.7961Z" fill="#46D0D9"/>
<path d="M45.8636 58.2695C45.6212 58.4287 45.3642 58.5641 45.096 58.6741C44.8395 58.8098 44.5707 58.9208 44.2932 59.0057C44.5355 58.846 44.7926 58.7099 45.0608 58.5993C45.3177 58.4649 45.5864 58.3545 45.8636 58.2695Z" fill="#46D0D9"/>
<path d="M44.7942 57.7421C44.2957 58.0382 43.7698 58.2857 43.2239 58.4811C43.7233 58.1866 44.249 57.9392 44.7942 57.7421Z" fill="#46D0D9"/>
<path d="M43.7234 57.2165C43.4809 57.3756 43.2239 57.5113 42.9558 57.622C42.6991 57.7567 42.4303 57.8671 42.1531 57.9518C42.3955 57.7924 42.6526 57.6563 42.9207 57.5454C43.1774 57.411 43.4462 57.3009 43.7234 57.2165Z" fill="#46D0D9"/>
<path d="M42.6521 56.69C42.1536 56.9861 41.6277 57.2336 41.0818 57.4289C41.3247 57.2709 41.5817 57.1355 41.8494 57.0244C42.1057 56.8876 42.3745 56.7756 42.6521 56.69Z" fill="#46D0D9"/>
<path d="M41.5796 56.1625C41.0811 56.4586 40.5552 56.7061 40.0093 56.9015C40.2516 56.7423 40.5087 56.6069 40.7769 56.4969C41.0333 56.3603 41.3021 56.2483 41.5796 56.1625Z" fill="#46D0D9"/>
<path d="M40.5115 55.636C40.2692 55.7951 40.0121 55.9306 39.7439 56.0406C39.4874 56.1762 39.2186 56.2873 38.9412 56.3722C39.4398 56.077 39.9657 55.8305 40.5115 55.636Z" fill="#46D0D9"/>
<path d="M39.4422 55.1104C38.9432 55.4057 38.4174 55.6531 37.8718 55.8494C38.1146 55.6909 38.3715 55.5555 38.6394 55.4448C38.8956 55.3077 39.1644 55.1957 39.4422 55.1104Z" fill="#46D0D9"/>
<path d="M38.439 54.4924C38.1965 54.6515 37.9395 54.7873 37.6714 54.8979C37.4147 55.0326 37.1459 55.143 36.8687 55.2277C37.3673 54.9328 37.8932 54.6866 38.439 54.4924Z" fill="#46D0D9"/>
<path d="M37.1243 54.0361C37.0145 54.1324 36.8876 54.2073 36.7502 54.2569C36.6233 54.3306 36.484 54.3804 36.3391 54.4037C36.4494 54.3071 36.577 54.2322 36.7151 54.183C36.8413 54.1093 36.98 54.0595 37.1243 54.0361Z" fill="#46D0D9"/>
<path d="M39.9742 17.8083L45.3706 28.7351C45.5376 29.0744 45.7846 29.368 46.0904 29.5904C46.3962 29.8128 46.7515 29.9574 47.1257 30.0117L59.185 31.7668C59.6162 31.8292 60.0212 32.0111 60.3543 32.2918C60.6875 32.5725 60.9353 32.9409 61.0699 33.3552C61.2045 33.7695 61.2204 34.2133 61.1158 34.6361C61.0113 35.059 60.7904 35.4442 60.4782 35.7481L51.7518 44.2547C51.4808 44.5189 51.278 44.8451 51.161 45.205C51.044 45.565 51.0163 45.948 51.0802 46.3211L53.1337 58.3296C53.2072 58.7585 53.1594 59.1995 52.9955 59.6027C52.8316 60.0058 52.5583 60.3552 52.2063 60.6111C51.8544 60.8671 51.4378 61.0196 51.0038 61.0512C50.5697 61.0829 50.1354 60.9926 49.75 60.7904L38.9636 55.1205C38.6289 54.9439 38.2562 54.8517 37.8778 54.8517C37.4994 54.8517 37.1267 54.9439 36.792 55.1205L26.0056 60.7904C25.6205 60.9927 25.1865 61.0833 24.7527 61.052C24.3188 61.0207 23.9024 60.8688 23.5503 60.6133C23.1982 60.3579 22.9246 60.0091 22.7602 59.6064C22.5958 59.2037 22.5473 58.763 22.6201 58.3342L24.6735 46.3257C24.7374 45.9526 24.7097 45.5696 24.5927 45.2097C24.4757 44.8497 24.273 44.5235 24.002 44.2593L15.2755 35.7527C14.9633 35.4488 14.7425 35.0637 14.6379 34.6408C14.5334 34.2179 14.5493 33.7742 14.6838 33.3598C14.8184 32.9455 15.0663 32.5771 15.3994 32.2964C15.7325 32.0157 16.1376 31.8338 16.5687 31.7714L28.628 30.0163C29.0022 29.962 29.3576 29.8174 29.6634 29.595C29.9692 29.3726 30.2162 29.079 30.3831 28.7397L35.7786 17.8083C35.9705 17.4161 36.2686 17.0856 36.6389 16.8542C37.0092 16.6229 37.437 16.5 37.8736 16.4995C38.3102 16.499 38.7383 16.621 39.1091 16.8515C39.4799 17.082 39.7787 17.4119 39.9714 17.8037L39.9742 17.8083Z" fill="#46D0D9"/>
<path d="M29.8472 29.391C29.7025 29.1703 29.5808 28.9354 29.4842 28.6898C29.3627 28.4543 29.2664 28.2066 29.1969 27.9509C29.3416 28.1715 29.4633 28.4064 29.5599 28.652C29.6814 28.8875 29.7777 29.1352 29.8472 29.391Z" fill="#46D0D9"/>
<path d="M28.9514 29.9397C28.8569 29.8288 28.784 29.7013 28.7361 29.5637C28.6634 29.4374 28.6152 29.2986 28.5939 29.1545C28.69 29.2643 28.7634 29.3921 28.81 29.5305C28.8821 29.6569 28.93 29.7957 28.9514 29.9397Z" fill="#46D0D9"/>
<path d="M30.4503 28.397C30.2946 28.1526 30.1622 27.894 30.0549 27.6248C29.923 27.3668 29.8172 27.0964 29.739 26.8174C30.028 27.319 30.2663 27.8482 30.4503 28.397Z" fill="#46D0D9"/>
<path d="M30.9952 27.3366C30.8387 27.0924 30.706 26.8338 30.5989 26.5643C30.4688 26.3062 30.363 26.0366 30.283 25.7589C30.5726 26.2596 30.8112 26.7881 30.9952 27.3366Z" fill="#46D0D9"/>
<path d="M31.5291 26.2743C31.2402 25.7727 31.0019 25.2435 30.8179 24.6947C31.1068 25.1963 31.3451 25.7254 31.5291 26.2743Z" fill="#46D0D9"/>
<path d="M32.0696 25.2111C31.9143 24.9662 31.7817 24.7077 31.6733 24.4388C31.5434 24.18 31.4376 23.9098 31.3574 23.6315C31.5139 23.8757 31.6466 24.1343 31.7537 24.4037C31.884 24.6624 31.9898 24.9327 32.0696 25.2111Z" fill="#46D0D9"/>
<path d="M32.6099 24.146C32.4527 23.9023 32.32 23.6436 32.2136 23.3738C32.0838 23.1155 31.9781 22.8459 31.8977 22.5683C32.0539 22.8125 32.1862 23.0711 32.2931 23.3405C32.4238 23.5985 32.5299 23.8681 32.6099 24.146Z" fill="#46D0D9"/>
<path d="M33.1484 23.0828C32.9926 22.8384 32.8603 22.5798 32.753 22.3106C32.6219 22.0523 32.5162 21.7819 32.4371 21.5032C32.7261 22.0048 32.9644 22.534 33.1484 23.0828Z" fill="#46D0D9"/>
<path d="M33.6888 22.0177C33.3991 21.517 33.1605 20.9885 32.9766 20.44C33.2662 20.9407 33.5048 21.4693 33.6888 22.0177Z" fill="#46D0D9"/>
<path d="M34.2276 20.9555C33.9442 20.452 33.7082 19.9231 33.5228 19.3759C33.6786 19.6203 33.8109 19.8788 33.9182 20.1481C34.047 20.4066 34.1507 20.677 34.2276 20.9555Z" fill="#46D0D9"/>
<path d="M34.7677 19.8904C34.4791 19.3892 34.2409 18.8607 34.0564 18.3127C34.2135 18.5564 34.3463 18.8151 34.4527 19.0849C34.5824 19.343 34.6879 19.6127 34.7677 19.8904Z" fill="#46D0D9"/>
<path d="M35.3968 18.8964C35.1079 18.3948 34.8696 17.8657 34.6855 17.3169C34.8413 17.5613 34.9737 17.8198 35.0809 18.0891C35.212 18.3474 35.3178 18.6178 35.3968 18.8964Z" fill="#46D0D9"/>
<path d="M35.8699 17.5875C35.7737 17.4767 35.6997 17.3485 35.6519 17.2097C35.5802 17.0822 35.5325 16.9425 35.5115 16.7977C35.6083 16.9113 35.6837 17.0415 35.7341 17.182C35.803 17.3081 35.849 17.4454 35.8699 17.5875Z" fill="#46D0D9"/>
<path d="M36.3281 18.5214C36.3484 18.5325 35.1152 20.9989 33.5735 24.0296C32.0318 27.0604 30.7663 29.5037 30.746 29.5037C30.7257 29.5037 31.9588 27.0281 33.5005 23.9955C35.0422 20.9629 36.3078 18.5122 36.3281 18.5214Z" fill="white"/>
<path d="M28.152 31.1036C28.152 31.1036 28.1058 31.1128 28.019 31.1257L27.6338 31.1765L26.2196 31.3437L21.5547 31.873L18.9895 32.1501C18.5942 32.1926 18.2182 32.2305 17.8727 32.2952C17.552 32.3503 17.2396 32.4466 16.9435 32.5815C16.5111 32.7771 16.1558 33.1104 15.9329 33.5293C15.859 33.6861 15.8059 33.852 15.775 34.0226C15.7729 34.0109 15.7729 33.9991 15.775 33.9874C15.7742 33.9535 15.7779 33.9197 15.786 33.8868C15.8093 33.7591 15.8487 33.635 15.9034 33.5173C16.1205 33.0835 16.4788 32.7365 16.9195 32.5335C17.2207 32.392 17.5394 32.291 17.8672 32.2333C18.2164 32.164 18.5942 32.1224 18.9886 32.0753L21.5584 31.7908L26.2316 31.2902L27.6532 31.1479L28.0384 31.1128C28.0759 31.1065 28.1139 31.1034 28.152 31.1036Z" fill="white"/>
<path d="M48.5841 59.5323C48.573 59.5517 47.034 58.7009 45.1469 57.6368C43.2597 56.5726 41.7392 55.6923 41.7503 55.672C41.7614 55.6517 43.3003 56.5033 45.1875 57.5675C47.0747 58.6316 48.5952 59.5175 48.5841 59.5323Z" fill="white"/>
<path d="M39.5675 54.4629C39.3126 54.354 39.0482 54.2689 38.7777 54.2088C38.1151 54.0923 37.4342 54.1357 36.7917 54.3354C36.1472 54.5437 35.5276 54.8225 34.9442 55.1667L34.4085 55.4697C34.3452 55.5104 34.278 55.5447 34.208 55.5722C34.2655 55.5231 34.3274 55.4792 34.3928 55.4411C34.5147 55.3616 34.6911 55.2498 34.9137 55.1168C35.4919 54.7574 36.1125 54.471 36.7612 54.2642C37.4149 54.0595 38.1098 54.023 38.7814 54.158C38.9831 54.2032 39.1792 54.2704 39.3661 54.3585C39.4176 54.3813 39.4673 54.4078 39.5148 54.4379C39.5329 54.4452 39.5504 54.4535 39.5675 54.4629Z" fill="white"/>
<path d="M60.6048 26.8821L62.3294 26.3482C63.2899 26.9819 64.4528 27.2335 65.5894 27.0534C66.726 26.8733 67.7541 26.2745 68.4716 25.3749C69.1892 24.4752 69.5442 23.3396 69.467 22.1914C69.3898 21.0433 68.8858 19.9655 68.0543 19.17C67.2227 18.3745 66.1237 17.9188 64.9732 17.8926C63.8227 17.8663 62.704 18.2713 61.837 19.028C60.97 19.7847 60.4174 20.8384 60.2879 21.9818C60.1583 23.1253 60.4611 24.2759 61.1369 25.2074L60.6048 26.8821Z" fill="white"/>
<path d="M60.6046 26.8775C60.6046 26.8775 60.613 26.8424 60.6342 26.7712L60.7266 26.4553L61.1118 25.1917C61.1133 25.1868 61.1166 25.1827 61.1211 25.1803C61.1256 25.1778 61.1309 25.1773 61.1358 25.1787L61.109 25.2037C60.6402 24.567 60.3443 23.8197 60.2499 23.0348C60.1243 21.9682 60.3721 20.891 60.951 19.9864C61.2876 19.4654 61.724 19.0162 62.235 18.6646C62.7858 18.2864 63.412 18.0321 64.0705 17.9191C64.7697 17.8048 65.4856 17.849 66.1655 18.0485C66.8751 18.2591 67.5242 18.6362 68.0586 19.1484C68.593 19.6607 68.9973 20.2932 69.2378 20.9933C69.4643 21.6609 69.5372 22.3711 69.4512 23.0708C69.37 23.7315 69.1445 24.3663 68.7907 24.9302C68.1632 25.9423 67.1713 26.675 66.0195 26.9772C65.5333 27.1016 65.0303 27.1474 64.5296 27.113C63.7394 27.0563 62.9775 26.7956 62.3182 26.3565H62.3339L61.0406 26.75L60.7118 26.8479L60.6046 26.8793L62.3246 26.3205C62.3269 26.3189 62.3297 26.318 62.3325 26.318C62.3353 26.318 62.338 26.3189 62.3403 26.3205C62.9973 26.7477 63.7524 27.0001 64.5342 27.0539C65.0281 27.0834 65.5235 27.036 66.0029 26.9135C66.539 26.77 67.0451 26.5319 67.4975 26.2105C67.992 25.8568 68.4115 25.4084 68.7316 24.8914C69.0782 24.3364 69.2989 23.712 69.3782 23.0625C69.4868 22.1739 69.3328 21.2729 68.9352 20.4709C68.5376 19.6688 67.9139 19.0007 67.1409 18.5491C66.828 18.3724 66.4961 18.2314 66.1516 18.1288C65.4855 17.9326 64.7839 17.8878 64.0982 17.9976C63.3322 18.1286 62.6121 18.4523 62.0057 18.9383C61.3993 19.4242 60.9266 20.0565 60.6319 20.7756C60.3373 21.4947 60.2305 22.2769 60.3215 23.0486C60.4126 23.8204 60.6985 24.5563 61.1524 25.187C61.1545 25.191 61.1552 25.1955 61.1545 25.1999C61.1537 25.2043 61.1516 25.2083 61.1483 25.2114C61.145 25.2144 61.1409 25.2163 61.1365 25.2168C61.132 25.2172 61.1276 25.2162 61.1238 25.2138L61.1543 25.2055C60.8069 26.2567 60.6444 26.7528 60.6046 26.8775Z" fill="#263238"/>
<path d="M65.7785 23.7913L65.8191 21.9272C65.4911 21.8128 65.2185 21.5785 65.0561 21.2713C64.8886 21.0122 64.7607 20.7295 64.6765 20.4326C64.6644 20.3844 64.6355 20.342 64.5951 20.3131C64.5546 20.2842 64.5052 20.2705 64.4557 20.2746C64.3941 20.2771 64.3345 20.297 64.2838 20.332C64.2331 20.367 64.1934 20.4156 64.1693 20.4723C64.1088 20.7969 64.124 21.131 64.2137 21.4487C64.2137 21.4487 64.2867 21.5891 64.0918 21.5845L63.4008 21.5743C63.3109 21.5722 63.2233 21.602 63.1533 21.6584C63.1166 21.6866 63.0876 21.7235 63.0689 21.7658C63.0502 21.8081 63.0423 21.8543 63.0461 21.9004C63.0618 22.1646 63.204 22.2856 63.1957 22.341C63.1521 22.4404 63.142 22.5513 63.1671 22.6569C63.2188 22.8149 63.2539 22.8057 63.2521 22.8814C63.2495 23.0133 63.2676 23.1449 63.3056 23.2712C63.3282 23.3354 63.3623 23.3949 63.4063 23.4467C63.3916 23.5801 63.4052 23.7152 63.4461 23.843C63.5126 23.9899 63.8017 24.0721 63.8978 24.0739C63.9938 24.0758 64.6876 23.9539 64.8871 23.916C65.0866 23.8781 65.59 23.6989 65.7785 23.7913Z" fill="#46D0D9"/>
<path d="M66.1307 21.8953L66.0879 23.8107L66.7999 23.8266L66.8427 21.9113L66.1307 21.8953Z" fill="#46D0D9"/>
<path d="M13.4765 42.0617H0.0491943V49.1625H9.92202C10.2139 49.6114 10.8319 50.633 10.8319 50.633L11.5432 49.1625H13.4765V42.0617Z" fill="#FAFAFA"/>
<path d="M13.4763 42.0618V43.9619C13.4763 45.1941 13.4855 46.9714 13.492 49.1625V49.193H11.5291L11.5586 49.1736C11.336 49.6354 11.0968 50.1324 10.8492 50.6441L10.8206 50.7023L10.7873 50.6469L9.87745 49.1791L9.90793 49.1948H0V42.0156H0.0378715L9.71672 42.0313L12.4879 42.0442H12.4796L9.7084 42.0571L0.0406429 42.0728L0.0785162 42.035V49.1357L0.0378715 49.095H9.93657L9.94765 49.1126C10.2636 49.6243 10.5795 50.1222 10.8557 50.585H10.7938C11.0413 50.0733 11.2815 49.5754 11.506 49.1144L11.5152 49.095H13.4689L13.4375 49.1264C13.4375 46.9437 13.4504 45.1775 13.4551 43.9434V42.1523C13.456 42.0664 13.4763 42.0618 13.4763 42.0618Z" fill="#263238"/>
<path d="M3.18136 45.5572C3.29347 45.5086 3.38908 45.4285 3.45663 45.3267C3.52418 45.2249 3.56075 45.1057 3.56193 44.9835C3.56844 44.9028 3.5583 44.8216 3.53214 44.745C3.50598 44.6683 3.46434 44.5979 3.40983 44.538C3.35532 44.4781 3.28908 44.4301 3.21524 44.3969C3.14139 44.3636 3.0615 44.3459 2.98053 44.3448C2.89956 44.3438 2.81923 44.3593 2.74452 44.3906C2.66982 44.4218 2.60232 44.4681 2.54624 44.5265C2.49015 44.5849 2.44666 44.6542 2.41847 44.7301C2.39027 44.8061 2.37797 44.8869 2.38233 44.9678C2.37913 45.0917 2.41246 45.2139 2.47816 45.319C2.54386 45.4241 2.63903 45.5076 2.75182 45.559C2.4953 45.6072 2.26509 45.7472 2.10413 45.9527C1.94317 46.1581 1.86246 46.4152 1.87705 46.6758L4.0238 46.7044C4.0238 46.7044 4.08015 45.6994 3.18136 45.5572Z" fill="#46D0D9"/>
<path d="M11.6029 44.554C11.6029 44.5669 10.233 44.578 8.54444 44.578C6.85586 44.578 5.48596 44.5669 5.48596 44.554C5.48596 44.5411 6.85586 44.529 8.54444 44.529C10.233 44.529 11.6029 44.5401 11.6029 44.554Z" fill="#263238"/>
<path d="M11.6029 45.2856C11.6029 45.2994 10.233 45.3105 8.54444 45.3105C6.85586 45.3105 5.48596 45.2994 5.48596 45.2856C5.48596 45.2717 6.85586 45.2616 8.54444 45.2616C10.233 45.2616 11.6029 45.2727 11.6029 45.2856Z" fill="#263238"/>
<path d="M11.6029 46.0181C11.6029 46.031 10.233 46.0421 8.54444 46.0421C6.85586 46.0421 5.48596 46.031 5.48596 46.0181C5.48596 46.0051 6.85586 45.9931 8.54444 45.9931C10.233 45.9931 11.6029 46.0024 11.6029 46.0181Z" fill="#263238"/>
<path d="M9.14301 46.9437C9.14301 46.9575 8.32459 46.9686 7.31495 46.9686C6.30531 46.9686 5.48596 46.9575 5.48596 46.9437C5.48596 46.9298 6.30439 46.9187 7.31495 46.9187C8.32551 46.9187 9.14301 46.9298 9.14301 46.9437Z" fill="#263238"/>
<g opacity="0.3">
<path opacity="0.3" d="M51.7862 37.686C51.6858 35.8758 51.1885 34.1098 50.3295 32.5131C49.366 30.9844 47.5259 29.862 45.7718 30.2962C45.4559 32.1649 45.1095 34.1491 46.1745 35.7194C46.4603 36.0508 46.6874 36.4285 46.8461 36.8362C46.9119 37.3067 46.8631 37.7862 46.7038 38.2338C45.8651 41.6747 47.0198 45.2542 48.1633 48.6045C49.4113 52.2643 50.7064 56.0119 53.1589 59.0011C53.1235 58.2379 53.0278 57.4787 52.8725 56.7306C52.6942 55.647 52.5095 54.6309 52.2656 53.2139C51.9885 51.59 51.3179 48.0549 51.0712 46.2241C51.012 45.7723 51.0832 45.313 51.2763 44.9004C51.4527 44.5724 51.6889 44.2804 51.9728 44.0394L52.2887 43.7374C52.0837 40.968 52.1234 40.4341 51.7862 37.686Z" fill="black"/>
</g>
<path d="M58.2726 64.0493L56.4547 66.7835C56.4547 66.7835 58.6144 69.5464 58.328 70.084L52.9141 66.7475L55.5725 62.3847L58.2726 64.0493Z" fill="#46D0D9"/>
<g opacity="0.3">
<path opacity="0.3" d="M58.2724 64.0493L56.4545 66.7836C56.4545 66.7836 58.6142 69.5464 58.3278 70.084L52.9138 66.7475L55.5723 62.3848L58.2724 64.0493Z" fill="black"/>
</g>
<path d="M54.9251 65.5088C54.8623 65.4906 54.7949 65.4968 54.7363 65.5261C54.6778 65.5553 54.6324 65.6056 54.6092 65.6668C54.5912 65.7285 54.5975 65.7948 54.6269 65.8521C54.6563 65.9093 54.7065 65.9531 54.7672 65.9744C54.8327 65.9906 54.9018 65.9824 54.9617 65.9513C55.0215 65.9201 55.068 65.8682 55.0923 65.8053C55.1051 65.7394 55.0918 65.6712 55.0553 65.6148C55.0188 65.5585 54.9619 65.5185 54.8965 65.5033" fill="#E0E0E0"/>
<g opacity="0.6">
<path opacity="0.6" d="M52.9138 66.7401L53.2002 66.3106L58.2807 69.6702C58.2807 69.6702 58.458 69.9233 58.3269 70.0767L52.9138 66.7401Z" fill="white"/>
</g>
<path d="M56.5583 66.802C56.5407 66.8288 56.4003 66.7595 56.2183 66.7641C56.0364 66.7688 55.9024 66.8371 55.8803 66.8112C55.8581 66.7854 55.9957 66.6533 56.2165 66.6533C56.4373 66.6533 56.5869 66.7844 56.5583 66.802Z" fill="#263238"/>
<path d="M56.9822 67.3868C56.9711 67.4154 56.8242 67.3868 56.6662 67.4468C56.5083 67.5068 56.4085 67.6047 56.3836 67.5872C56.3586 67.5696 56.4325 67.4098 56.6311 67.3442C56.8297 67.2787 56.9969 67.36 56.9822 67.3868Z" fill="#263238"/>
<path d="M56.8858 68.2661C56.8572 68.2569 56.9015 68.1082 57.0595 67.9992C57.2175 67.8902 57.3754 67.9142 57.3754 67.9437C57.3754 67.9733 57.247 68.0019 57.1214 68.0887C56.9958 68.1756 56.9126 68.2781 56.8858 68.2661Z" fill="#263238"/>
<path d="M56.9025 66.1305C56.8758 66.148 56.7778 66.0381 56.6254 65.955C56.473 65.8718 56.3234 65.8478 56.3252 65.8173C56.3271 65.7868 56.4942 65.7601 56.6771 65.8598C56.86 65.9596 56.9293 66.1222 56.9025 66.1305Z" fill="#263238"/>
<path d="M57.2603 65.579C57.1577 65.546 57.065 65.4879 56.9906 65.4099C56.9039 65.3321 56.827 65.244 56.7615 65.1476C56.722 65.0907 56.6865 65.0312 56.6553 64.9693C56.6358 64.9337 56.6215 64.8954 56.6128 64.8557C56.6071 64.826 56.6114 64.7953 56.6251 64.7683C56.6389 64.7414 56.6612 64.7198 56.6886 64.707C56.7139 64.696 56.7414 64.6913 56.7689 64.6933C56.7964 64.6952 56.823 64.7037 56.8465 64.7181C56.8812 64.7389 56.9124 64.7651 56.9389 64.7957C56.9886 64.8438 57.0335 64.8967 57.0728 64.9536C57.1385 65.0506 57.1886 65.1572 57.2216 65.2696C57.2606 65.3702 57.2689 65.4801 57.2456 65.5854C57.228 65.5854 57.2169 65.4672 57.1532 65.2917C57.1127 65.19 57.0596 65.0938 56.9952 65.0054C56.957 64.954 56.9147 64.9058 56.8687 64.8612C56.8216 64.8104 56.7763 64.7809 56.7421 64.7966C56.7079 64.8123 56.7283 64.8077 56.7292 64.8317C56.7353 64.8612 56.7459 64.8895 56.7606 64.9158C56.7893 64.9758 56.8207 65.0331 56.853 65.0867C56.9118 65.1793 56.9789 65.2665 57.0534 65.3471C57.1726 65.4931 57.2705 65.5605 57.2603 65.579Z" fill="#263238"/>
<path d="M57.2029 65.5947C57.2032 65.4862 57.2353 65.3803 57.2953 65.2899C57.3518 65.1854 57.4262 65.0916 57.5151 65.0128C57.5679 64.9666 57.6252 64.9258 57.686 64.8908C57.7226 64.8636 57.7656 64.8466 57.8109 64.8414C57.8561 64.8362 57.902 64.8431 57.9437 64.8613C57.9667 64.8774 57.9849 64.8993 57.9966 64.9248C58.0083 64.9503 58.013 64.9784 58.0102 65.0063C58.0046 65.0461 57.9934 65.085 57.977 65.1218C57.9485 65.1882 57.9109 65.2504 57.8652 65.3065C57.7876 65.399 57.6883 65.4707 57.5761 65.5153C57.383 65.591 57.2602 65.555 57.2602 65.5439C57.3578 65.5171 57.4537 65.4844 57.5474 65.446C57.6423 65.3972 57.7253 65.3282 57.7904 65.2437C57.8287 65.1958 57.8598 65.1426 57.8828 65.0857C57.9114 65.0238 57.9179 64.9638 57.892 64.9564C57.8664 64.9504 57.8398 64.9499 57.814 64.955C57.7882 64.9601 57.7638 64.9707 57.7424 64.986C57.6868 65.0169 57.6339 65.0524 57.5844 65.0922C57.4999 65.1605 57.4258 65.2408 57.3646 65.3305C57.2519 65.4839 57.2232 65.5993 57.2029 65.5947Z" fill="#263238"/>
<path d="M57.7718 64.6248L58.363 67.8477C58.363 67.8477 61.8381 68.3215 62.0062 68.9136L55.7978 70.2845L54.6699 65.2963L57.7718 64.6248Z" fill="#46D0D9"/>
<path d="M56.3835 68.0019C56.3279 68.0335 56.2858 68.0845 56.2654 68.1452C56.2449 68.2058 56.2475 68.2719 56.2727 68.3308C56.3018 68.3876 56.3518 68.4312 56.4121 68.4523C56.4724 68.4734 56.5386 68.4706 56.5969 68.4444C56.6558 68.4107 56.7003 68.3565 56.722 68.2921C56.7436 68.2277 56.7408 68.1577 56.7142 68.0952C56.677 68.0395 56.6199 68.0002 56.5547 67.9853C56.4894 67.9703 56.4209 67.9809 56.3632 68.0149" fill="#E0E0E0"/>
<g opacity="0.6">
<path opacity="0.6" d="M55.7953 70.2882L55.7029 69.781L61.6914 68.6559C61.6914 68.6559 61.9935 68.716 62.0074 68.9164L55.7953 70.2882Z" fill="white"/>
</g>
<path d="M58.4557 67.7941C58.4557 67.8236 58.3135 67.8717 58.186 68.0028C58.0585 68.134 58.0077 68.28 57.9772 68.2726C57.9468 68.2652 57.9523 68.0813 58.1103 67.9252C58.2682 67.7691 58.4576 67.7654 58.4557 67.7941Z" fill="#263238"/>
<path d="M59.1716 67.9197C59.1855 67.9465 59.0654 68.0269 58.9915 68.1784C58.9176 68.3299 58.9176 68.4703 58.8853 68.4767C58.8529 68.4832 58.7984 68.3188 58.8945 68.1294C58.9906 67.94 59.1605 67.8892 59.1716 67.9197Z" fill="#263238"/>
<path d="M59.709 68.6162C59.6841 68.6292 59.6083 68.4869 59.649 68.3003C59.6896 68.1137 59.818 68.0232 59.8337 68.0426C59.8494 68.062 59.7848 68.1719 59.7534 68.3197C59.722 68.4675 59.7469 68.607 59.709 68.6162Z" fill="#263238"/>
<path d="M58.2413 67.0745C58.233 67.105 58.0834 67.0939 57.9171 67.1429C57.7508 67.1918 57.6261 67.2759 57.6012 67.2537C57.5762 67.2316 57.6852 67.0958 57.8838 67.0385C58.0824 66.9812 58.2469 67.0468 58.2413 67.0745Z" fill="#263238"/>
<path d="M58.1091 66.4251C58.0123 66.477 57.9028 66.5007 57.7932 66.4935C57.677 66.4985 57.5606 66.4889 57.4468 66.4649C57.3788 66.4512 57.3118 66.4327 57.2464 66.4094C57.2078 66.3972 57.1712 66.3798 57.1374 66.3577C57.1129 66.3405 57.0946 66.3157 57.0855 66.2872C57.0763 66.2587 57.0767 66.228 57.0865 66.1997C57.097 66.175 57.1132 66.1531 57.1337 66.1357C57.1543 66.1184 57.1786 66.1061 57.2048 66.1C57.2441 66.0909 57.2846 66.0878 57.3249 66.0908C57.3945 66.0921 57.4638 66.1001 57.5318 66.1148C57.6473 66.1387 57.7583 66.1808 57.8606 66.2395C58.0343 66.3401 58.1082 66.4436 58.099 66.451C58.0897 66.4584 57.9964 66.3845 57.8218 66.3069C57.7208 66.263 57.6147 66.232 57.5059 66.2145C57.4427 66.2044 57.3788 66.1991 57.3147 66.1988C57.2454 66.1988 57.1882 66.2081 57.1789 66.2413C57.1697 66.2746 57.1789 66.2588 57.1928 66.2746C57.218 66.2902 57.245 66.303 57.2732 66.3124C57.3335 66.3354 57.3952 66.3545 57.4579 66.3697C57.5651 66.3966 57.6746 66.4129 57.7849 66.4187C57.893 66.4137 58.0013 66.4158 58.1091 66.4251Z" fill="#263238"/>
<path d="M58.0795 66.476C58.0684 66.4843 57.9871 66.3836 57.9308 66.1988C57.8998 66.0846 57.8886 65.9659 57.8975 65.8478C57.9027 65.7783 57.9154 65.7096 57.9354 65.6428C57.9425 65.5987 57.9607 65.5571 57.9883 65.522C58.016 65.4869 58.0521 65.4595 58.0933 65.4423C58.1211 65.4376 58.1496 65.4405 58.176 65.4506C58.2023 65.4606 58.2254 65.4776 58.243 65.4996C58.2669 65.5325 58.2862 65.5686 58.3002 65.6067C58.3259 65.674 58.3415 65.7446 58.3464 65.8164C58.3544 65.9361 58.3332 66.056 58.2845 66.1656C58.1996 66.3504 58.0804 66.4187 58.0758 66.4085C58.1319 66.3242 58.1781 66.2337 58.2134 66.1388C58.2473 66.0371 58.2586 65.9294 58.2467 65.8229C58.2401 65.7617 58.2252 65.7017 58.2023 65.6446C58.1774 65.5818 58.1404 65.5338 58.1173 65.5449C58.0752 65.5759 58.0452 65.6207 58.0324 65.6714C58.0127 65.7314 57.9993 65.7933 57.9926 65.8561C57.9799 65.9641 57.9827 66.0733 58.001 66.1804C58.037 66.3633 58.097 66.4677 58.0795 66.476Z" fill="#263238"/>
<path d="M56.5376 37.7636L64.0937 49.4202C64.8299 50.3921 65.1925 51.5962 65.1154 52.8131C65.0376 53.6186 64.7594 54.3919 64.3062 55.0623L58.1449 65.834L55.0689 62.6933L59.609 53.0994L55.2776 47.267L52.9775 37.7664L56.5376 37.7636Z" fill="#263238"/>
<path d="M58.7167 66.8962L54.9127 40.5939L54.7012 37.9262L48.1908 37.5743C47.6597 39.2424 47.2792 40.9548 47.0537 42.6908C46.9668 44.4367 50.9268 53.7137 50.9268 53.7137L51.8506 58.3545L54.4906 67.7691L58.7167 66.8962Z" fill="#263238"/>
<path d="M47.6915 37.032C47.5741 36.8408 48.4683 36.0843 49.9029 34.9185L51.0779 33.9569C51.5726 33.525 52.1341 33.1762 52.7406 32.9242C53.4854 32.6467 54.2948 32.5918 55.0702 32.7662C55.4872 32.8588 55.8863 33.0189 56.2517 33.2401C56.6575 33.4808 57.0038 33.8098 57.265 34.2026C57.3424 34.319 57.408 34.4428 57.4608 34.5721C57.5369 34.7562 57.5734 34.9541 57.568 35.1532C57.5585 35.4104 57.468 35.658 57.3093 35.8607C57.2148 35.979 57.0977 36.0773 56.9648 36.1499C56.8908 36.1897 56.8123 36.2207 56.7311 36.2422C56.6557 36.2625 56.5782 36.2743 56.5002 36.2773C56.2655 36.2841 56.0339 36.2239 55.8323 36.1037C55.7502 36.0565 55.6715 36.0037 55.5967 35.9457C55.5589 35.9162 55.5718 35.9319 55.5829 35.9365C55.596 35.9413 55.6096 35.9445 55.6235 35.9457C55.4951 35.969 55.3685 36.0018 55.2448 36.0436C55.1408 36.0728 55.0354 36.0965 54.9289 36.1148C54.8217 36.1305 54.7127 36.1452 54.613 36.1499C54.251 36.1621 53.8888 36.1392 53.5313 36.0815C53.2624 36.037 52.9914 36.0062 52.7193 35.9891C52.5063 35.9791 52.293 36.0031 52.0875 36.0603C51.656 36.2077 51.2439 36.4065 50.8599 36.6524C50.4797 36.891 50.0776 37.0927 49.659 37.2546C49.3218 37.3841 48.9635 37.4495 48.6023 37.4477C48.3695 37.4507 48.1395 37.3964 47.9326 37.2898C47.7949 37.2094 47.7432 37.1318 47.7607 37.081C47.7986 36.9655 48.0905 36.9942 48.5219 36.838C48.7868 36.7416 49.0392 36.6139 49.2738 36.4575C49.6035 36.2343 49.9199 35.9921 50.2216 35.7323C50.6484 35.3612 51.1274 35.0546 51.6432 34.8225C51.9757 34.6893 52.3282 34.6129 52.6861 34.5962C53.0165 34.585 53.3472 34.5951 53.6763 34.6266C53.9467 34.6552 54.2191 34.6589 54.4901 34.6377C54.5462 34.6343 54.6018 34.626 54.6564 34.6128C54.7101 34.6028 54.7629 34.5886 54.8143 34.5703C55.0046 34.5018 55.2002 34.449 55.3991 34.4123C55.5669 34.3837 55.7384 34.3837 55.9062 34.4123C56.0038 34.4297 56.0993 34.4579 56.1907 34.4964C56.2644 34.5264 56.3357 34.5619 56.4041 34.6026C56.5131 34.6691 56.5842 34.7162 56.6064 34.7255V34.7412L56.5685 34.8215C56.5376 34.8844 56.5107 34.9492 56.4881 35.0155C56.4751 35.0538 56.4652 35.093 56.4586 35.1328C56.4571 35.147 56.4571 35.1612 56.4586 35.1753C56.4494 35.1393 56.4715 35.2224 56.4697 35.2132C56.4678 35.204 56.4697 35.2132 56.4697 35.2003C56.4561 35.1768 56.4379 35.1563 56.4161 35.1402C56.4006 35.1271 56.3831 35.1165 56.3644 35.1088H56.2914C56.2463 35.1074 56.2013 35.1121 56.1574 35.1227C56.119 35.1305 56.081 35.1407 56.0438 35.1532L56.0087 35.1643C55.9933 35.13 55.9747 35.0972 55.9533 35.0663C55.6537 34.6669 55.2219 34.3869 54.7349 34.2765C54.2443 34.149 53.7283 34.1573 53.2421 34.3006C52.7554 34.473 52.2954 34.7134 51.8759 35.0146C51.4196 35.3148 50.9735 35.5956 50.5661 35.8349C48.9099 36.8057 47.8023 37.2168 47.6915 37.032Z" fill="#F5F5F5"/>
<path d="M54.1748 24.3723C54.3088 24.3963 55.6057 24.9413 56.1941 25.1889C56.3799 25.2682 56.5315 25.4109 56.6218 25.5916L59.5131 31.4268L57.2776 32.9778C57.2776 32.9778 57.54 37.5355 56.9617 37.7655C56.7456 37.8505 48.9308 37.8366 48.9308 37.8366C48.9308 37.8366 48.0856 38.1368 47.7835 37.8366C47.713 37.7396 47.6638 37.6289 47.639 37.5116C47.6141 37.3943 47.6143 37.2731 47.6394 37.1558V27.6414L47.2173 25.0226C47.2173 25.0226 51.2512 23.856 54.1748 24.3723Z" fill="#455A64"/>
<path d="M48.7563 27.0474L48.8792 31.7788L44.848 32.164C44.848 32.139 44.4139 26.0313 47.2174 25.0217L48.7563 27.0474Z" fill="#455A64"/>
<path d="M57.1098 32.164C57.0857 32.006 57.0589 31.8324 57.0174 31.5432C56.9555 31.1165 56.877 30.5622 56.7883 29.9507C56.6996 29.3392 56.6303 28.7868 56.5638 28.3582C56.5386 28.1685 56.5164 28.0075 56.4973 27.8751C56.4853 27.8165 56.4807 27.7566 56.4835 27.6968C56.5066 27.7518 56.5224 27.8096 56.5306 27.8686C56.5546 27.9822 56.5878 28.1457 56.6229 28.3425C56.6959 28.7489 56.7809 29.3106 56.8723 29.9332C56.9638 30.5558 57.0303 31.1192 57.0765 31.5303C57.1005 31.7344 57.1143 31.8998 57.1227 32.0153V32.1704C57.1227 32.1704 57.1227 32.1843 57.1088 32.1704C57.1088 32.1704 57.1079 32.164 57.1098 32.164Z" fill="#263238"/>
<g opacity="0.3">
<path opacity="0.3" d="M56.8528 34.865C56.7552 34.6015 56.6046 34.3609 56.4103 34.158C56.2159 33.9551 55.9821 33.7942 55.7231 33.6854C55.2035 33.4709 54.6432 33.3728 54.0816 33.3981C53.0995 33.3933 52.1351 33.6589 51.2938 34.1657C50.0569 34.9555 49.2293 36.3346 47.8686 36.8768L47.7014 37.1152C48.7608 37.1683 49.8132 36.9167 50.734 36.3901C51.2967 35.9925 51.8962 35.6498 52.5242 35.3666C53.112 35.2046 53.7227 35.1422 54.331 35.1818C54.9069 35.1305 55.4851 35.2497 55.9937 35.5245C56.1201 35.6391 56.2743 35.7187 56.4408 35.7555C56.5369 35.7544 56.6303 35.7234 56.708 35.6668C56.7856 35.6102 56.8437 35.5307 56.8741 35.4395C56.9315 35.251 56.9241 35.0487 56.8528 34.865Z" fill="black"/>
</g>
<path d="M55.1042 31.583L55.5873 30.3618C55.6101 30.3009 55.6512 30.2485 55.705 30.2118C55.7587 30.175 55.8224 30.1558 55.8875 30.1567H58.1811C58.219 30.1564 58.2564 30.1654 58.29 30.1828C58.3236 30.2003 58.3524 30.2257 58.3739 30.2569C58.3954 30.2881 58.4089 30.324 58.4133 30.3616C58.4177 30.3992 58.4129 30.4374 58.3991 30.4726L56.9267 34.4632C56.9184 34.4862 56.9032 34.5062 56.8833 34.5204C56.8633 34.5346 56.8394 34.5424 56.8149 34.5426H54.0992C54.0804 34.5421 54.062 34.5372 54.0455 34.5284C54.029 34.5195 54.0147 34.5069 54.004 34.4915C53.9932 34.4762 53.9862 34.4585 53.9834 34.44C53.9807 34.4214 53.9824 34.4024 53.9883 34.3846L55.1042 31.583Z" fill="#263238"/>
<path d="M57.9834 34.1177L58.255 32.6323L58.0306 31.4629L57.6721 32.4356V32.8291C57.5391 32.794 56.3087 31.752 55.9789 31.9765C55.5419 32.4236 55.1485 32.9114 54.804 33.4332C55.3517 33.9831 55.9273 34.5045 56.5286 34.9952C56.5286 34.9952 56.608 35.9134 56.6209 36.3873C56.6302 36.79 56.7059 36.9415 57.2287 37.1189C57.7516 37.2962 58.4148 36.3799 58.4148 35.5688C58.345 35.0661 58.1996 34.5769 57.9834 34.1177Z" fill="#FFBE9D"/>
<path d="M48.405 31.8721L48.5343 33.4332L52.292 32.0605L53.9649 31.2864L54.6965 31.4712C55.4777 31.503 56.2547 31.6025 57.0187 31.7686C57.0391 31.9072 57.1434 32.0402 57.0187 32.0624C56.894 32.0845 55.0743 32.1667 55.0743 32.1667C55.7501 32.1877 56.4218 32.2787 57.0788 32.4383C57.1213 32.5852 57.0594 32.8143 56.9559 32.8143H54.8231C55.504 32.8436 56.1826 32.9136 56.8552 33.024C56.8756 33.108 57.0224 33.2531 56.8349 33.3159C56.6474 33.3787 54.8027 33.4406 54.8027 33.4406L56.5402 33.7565C56.5402 33.7565 56.6031 34.0281 56.458 34.0281C56.313 34.0281 52.5248 34.2793 52.5248 34.2793C50.8301 35.3942 49.0704 36.4069 47.2549 37.3119C46.418 37.517 45.6846 36.5489 45.5821 35.8654C45.4241 34.8335 45.2837 32.1483 45.2837 32.1483L48.405 31.8721Z" fill="#FFBE9D"/>
<path d="M52.5257 34.2738L52.6033 34.2646L52.8297 34.2452L53.697 34.1823L55.0679 34.09L55.9223 34.0318L56.3962 34.0004C56.4697 34.0049 56.5427 33.9861 56.6049 33.9468C56.641 33.9089 56.5846 33.8267 56.5292 33.7777L56.5449 33.7861L54.8074 33.4701C54.7989 33.4688 54.7912 33.4645 54.7857 33.4579C54.7801 33.4514 54.7771 33.4431 54.7771 33.4346C54.7771 33.426 54.7801 33.4177 54.7857 33.4112C54.7912 33.4047 54.7989 33.4004 54.8074 33.399L55.8355 33.3528L56.3712 33.3214C56.464 33.3183 56.5565 33.3102 56.6484 33.2974C56.732 33.3017 56.815 33.2807 56.8867 33.2374C56.8974 33.2234 56.9052 33.2074 56.9095 33.1903C56.9137 33.1733 56.9144 33.1555 56.9114 33.1381C56.9085 33.1208 56.902 33.1042 56.8923 33.0895C56.8826 33.0748 56.87 33.0622 56.8553 33.0526C56.8143 33.0428 56.7726 33.036 56.7306 33.0323L56.5901 33.0148L56.0156 32.9547L54.8295 32.8439C54.8197 32.8419 54.8109 32.8365 54.8047 32.8286C54.7986 32.8206 54.7955 32.8108 54.7961 32.8007C54.7966 32.7907 54.8008 32.7813 54.8078 32.7741C54.8148 32.7669 54.8241 32.7625 54.8341 32.7617H56.9587C56.9874 32.7617 57.0206 32.7265 57.0409 32.6841C57.0656 32.6453 57.0748 32.5987 57.067 32.5535C57.0591 32.5082 57.0347 32.4675 56.9985 32.4393C56.9249 32.4154 56.849 32.399 56.7721 32.3903L56.5292 32.3552L56.0424 32.297L55.0817 32.1972C55.0706 32.1961 55.0604 32.1906 55.0533 32.1819C55.0462 32.1733 55.0428 32.1622 55.0438 32.1511C55.0455 32.1413 55.0503 32.1324 55.0575 32.1256C55.0646 32.1188 55.0738 32.1144 55.0836 32.1132L56.3223 32.055L56.9245 32.0199C56.9675 32.0201 57.0102 32.0136 57.0511 32.0005C57.0648 31.9898 57.0751 31.9754 57.081 31.9591C57.0869 31.9428 57.088 31.9251 57.0843 31.9081C57.0779 31.8687 57.0584 31.8326 57.0289 31.8056C56.9939 31.7814 56.9538 31.7656 56.9116 31.7594C56.5375 31.6818 56.1532 31.6458 55.7865 31.6014C55.4198 31.5571 55.0568 31.5257 54.7058 31.4943L53.9723 31.3095H53.9963L52.3216 32.079L49.568 33.0711L48.8179 33.3362L48.6221 33.4046C48.6 33.4132 48.5771 33.4197 48.5537 33.424C48.5745 33.4128 48.5961 33.4032 48.6184 33.3953L48.8114 33.3214L49.5569 33.0443L52.2911 32.0347L53.9621 31.2578C53.9656 31.2563 53.9694 31.2556 53.9732 31.2556C53.977 31.2556 53.9808 31.2563 53.9843 31.2578L54.7178 31.4426C55.0688 31.473 55.43 31.5072 55.8004 31.5451C56.1819 31.5781 56.5614 31.6308 56.9375 31.703C56.9919 31.7121 57.0433 31.7343 57.0871 31.7677C57.1329 31.8084 57.1615 31.8648 57.1675 31.9257C57.1734 31.9578 57.17 31.9909 57.1577 32.0212C57.1455 32.0515 57.1248 32.0776 57.0982 32.0966C57.048 32.1166 56.9943 32.1267 56.9402 32.1261L56.3371 32.1621L55.0983 32.2222V32.1381L56.0609 32.2379L56.5477 32.2961L56.7943 32.3312C56.8818 32.3404 56.9678 32.3605 57.0502 32.3912C57.0799 32.409 57.1051 32.4332 57.124 32.4622C57.1429 32.4912 57.1549 32.5241 57.1592 32.5584C57.1657 32.6219 57.1542 32.6859 57.1259 32.7432C57.1124 32.773 57.0936 32.8002 57.0705 32.8235C57.0582 32.8376 57.0431 32.8489 57.0262 32.8568C57.0081 32.8658 56.9881 32.8702 56.968 32.8697H54.8341V32.7857L56.0202 32.8974L56.5948 32.9593L56.737 32.9769C56.7908 32.9798 56.8438 32.9898 56.895 33.0064C56.9194 33.0225 56.9402 33.0434 56.9561 33.0679C56.972 33.0923 56.9827 33.1199 56.9874 33.1487C56.9928 33.1769 56.9914 33.2059 56.9832 33.2334C56.975 33.2609 56.9602 33.2861 56.9402 33.3066C56.8994 33.3435 56.848 33.3668 56.7934 33.3732C56.7472 33.3732 56.701 33.3861 56.6548 33.3889C56.5624 33.3981 56.4701 33.4046 56.3777 33.411L55.8392 33.4424L54.8092 33.4831V33.4073L56.5467 33.7233C56.5513 33.7221 56.5561 33.7221 56.5606 33.7233C56.594 33.7543 56.6226 33.7901 56.6456 33.8295C56.6623 33.8524 56.6713 33.8801 56.6713 33.9085C56.6713 33.9369 56.6623 33.9645 56.6456 33.9874C56.5741 34.0415 56.4855 34.0677 56.3962 34.0613L55.9223 34.09L55.066 34.1408L53.6952 34.2211L52.826 34.2683L52.5987 34.2775C52.5743 34.2781 52.5499 34.2769 52.5257 34.2738Z" fill="#EB996E"/>
<path d="M47.3432 35.2058C47.3336 35.0954 47.3433 34.9841 47.3718 34.877C47.4241 34.6139 47.526 34.3631 47.672 34.138C47.8227 33.9158 48.0161 33.7258 48.241 33.5791C48.3301 33.5126 48.4301 33.4623 48.5366 33.4304C48.2332 33.6364 47.9663 33.8914 47.7468 34.1851C47.6051 34.4023 47.4985 34.6404 47.4309 34.8908C47.4112 34.9979 47.3822 35.103 47.3441 35.2049L47.3432 35.2058Z" fill="#EB996E"/>
<path d="M57.0005 31.1728C57.019 31.2086 57.0264 31.2492 57.0215 31.2892C57.0167 31.3292 56.9999 31.3669 56.9733 31.3972C56.9467 31.4275 56.9116 31.4492 56.8726 31.4592C56.8335 31.4693 56.7924 31.4674 56.7545 31.4537C56.7165 31.44 56.6836 31.4152 56.66 31.3825C56.6364 31.3498 56.6232 31.3107 56.6221 31.2704C56.6211 31.2301 56.6322 31.1904 56.654 31.1566C56.6759 31.1227 56.7074 31.0961 56.7446 31.0805C56.7908 31.059 56.8436 31.0566 56.8916 31.0739C56.9395 31.0912 56.9786 31.1268 57.0005 31.1728Z" fill="#FAFAFA"/>
<path d="M57.4449 32.6859C57.4623 32.6071 57.4861 32.5299 57.516 32.455L57.7387 31.837L58.0767 30.9252C58.11 30.8384 58.1432 30.7516 58.1765 30.6611C58.2098 30.5705 58.2689 30.4671 58.2412 30.4098C58.2301 30.3858 58.1941 30.3738 58.1488 30.3766H55.9577C55.924 30.3705 55.8893 30.3742 55.8577 30.3873C55.8261 30.4004 55.7989 30.4223 55.7794 30.4505C55.7489 30.5077 55.7221 30.5844 55.6954 30.6444C55.5928 30.8911 55.5106 31.0943 55.4413 31.2513C55.4684 31.266 55.4888 31.2904 55.4985 31.3196C55.5082 31.3488 55.5065 31.3806 55.4935 31.4085C55.4806 31.4364 55.4576 31.4584 55.429 31.4699C55.4005 31.4814 55.3687 31.4817 55.34 31.4706C55.3113 31.4595 55.2879 31.4379 55.2746 31.4101C55.2613 31.3824 55.2591 31.3506 55.2683 31.3213C55.2776 31.292 55.2976 31.2673 55.3245 31.2522C55.3513 31.2371 55.3828 31.2329 55.4127 31.2402L55.6436 30.6241C55.6681 30.5538 55.6962 30.4847 55.7277 30.4172C55.7522 30.3795 55.7868 30.3495 55.8275 30.3304C55.8691 30.3139 55.9139 30.3069 55.9586 30.31H58.1451C58.1774 30.3041 58.2109 30.3083 58.2407 30.3222C58.2705 30.3361 58.2952 30.359 58.3114 30.3876C58.3216 30.4154 58.326 30.445 58.3244 30.4745C58.3228 30.504 58.3153 30.5329 58.3021 30.5595L58.2504 30.6952L58.1479 30.9576L57.7922 31.8656C57.6925 32.1141 57.6075 32.3192 57.5456 32.4753C57.5186 32.5484 57.4849 32.6189 57.4449 32.6859Z" fill="#455A64"/>
<path d="M50.8433 15.3576C50.6616 15.2201 50.5346 15.0224 50.4852 14.7998C50.4358 14.5773 50.4671 14.3445 50.5736 14.1429C50.69 13.9451 50.8507 13.7769 51.043 13.6516C51.2353 13.5263 51.454 13.4472 51.682 13.4206C52.0078 13.372 52.3404 13.401 52.6528 13.5054C52.9652 13.6097 53.2485 13.7864 53.4796 14.021C53.7272 14.2769 53.9286 14.6103 54.2694 14.7267C54.5776 14.7749 54.8899 14.7913 55.2015 14.7757C55.4081 14.814 55.6037 14.8977 55.7741 15.0207C55.9446 15.1437 56.0856 15.3029 56.1871 15.487C56.3862 15.8585 56.5057 16.2675 56.5381 16.6878C56.5339 17.075 56.6529 17.4535 56.878 17.7686C57.1431 18.0457 57.5459 18.0983 57.8674 18.2914C58.1622 18.486 58.3693 18.7881 58.4446 19.1332C58.5198 19.4783 58.4572 19.8392 58.2701 20.1389C58.1426 20.3236 57.9542 20.4945 57.9449 20.7199C57.9685 20.9242 58.0313 21.1221 58.1297 21.3028C58.1619 21.4293 58.1667 21.5612 58.1437 21.6897C58.1207 21.8182 58.0704 21.9403 57.9963 22.0477C57.9222 22.1552 57.8259 22.2456 57.714 22.3127C57.602 22.3799 57.477 22.4223 57.3473 22.4371C57.0804 22.4528 56.7931 22.3447 56.5575 22.4676C56.322 22.5904 56.2324 22.8731 56.0836 23.0902C55.9282 23.3009 55.705 23.4516 55.4515 23.5172C55.198 23.5828 54.9297 23.5592 54.6916 23.4504C54.5154 23.3202 54.3086 23.2375 54.0911 23.2103C53.8731 23.2241 53.7023 23.4107 53.4889 23.4523C53.3462 23.4593 53.2042 23.4272 53.0784 23.3595C52.9526 23.2917 52.8476 23.191 52.7748 23.068C52.6337 22.8201 52.4674 22.5874 52.2788 22.3734C51.9705 22.1615 51.6223 22.0147 51.2553 21.942C50.8637 21.8072 50.5057 21.5899 50.2054 21.3048C49.9051 21.0196 49.6695 20.6733 49.5147 20.2893C49.3598 19.9052 49.2893 19.4924 49.3078 19.0787C49.3264 18.665 49.4336 18.2601 49.6221 17.8914" fill="#263238"/>
<path d="M54.9062 20.38C54.9937 20.2875 55.102 20.2172 55.2221 20.1749H55.1972L55.2656 20.1638C55.3061 20.1525 55.3484 20.1493 55.3901 20.1546C55.4318 20.1598 55.4721 20.1733 55.5085 20.1943C55.645 20.2435 55.7579 20.3425 55.8244 20.4714C55.8769 20.5847 55.8972 20.7102 55.883 20.8342C55.8689 20.9582 55.8208 21.0759 55.744 21.1744C55.6815 21.2627 55.5952 21.3315 55.4951 21.3729C55.3951 21.4142 55.2854 21.4264 55.1787 21.4081C55.0836 21.3788 54.9976 21.3255 54.929 21.2533C54.8604 21.1812 54.8115 21.0926 54.7871 20.9961C54.753 20.8917 54.746 20.7804 54.7669 20.6726C54.7877 20.5648 54.8357 20.4641 54.9062 20.38Z" fill="#455A64"/>
<path d="M49.8381 24.4656L49.4289 16.9732C49.4204 16.8134 49.4729 16.6564 49.5758 16.5338C49.6787 16.4112 49.8243 16.3322 49.9831 16.3128L53.3326 15.365C54.4096 15.22 55.1671 16.5308 55.2659 17.6134C55.4039 18.8008 55.4305 19.9986 55.3453 21.191C55.3293 21.6641 55.1647 22.1201 54.8749 22.4943C54.585 22.8686 54.1847 23.142 53.7307 23.2758L53.751 24.3104L53.642 27.1333L49.8381 24.4656Z" fill="#FFBE9D"/>
<path d="M53.7277 23.274C52.8772 23.3107 52.0332 23.1112 51.2891 22.6976C51.5422 23.0934 51.9107 23.4021 52.3448 23.5818C52.779 23.7615 53.2578 23.8037 53.7166 23.7026L53.7277 23.274Z" fill="#EB996E"/>
<path d="M56.4815 17.23C56.4073 16.954 56.2399 16.7121 56.0076 16.5455C55.8698 16.4751 55.7359 16.397 55.6067 16.3118C55.3443 16.1021 55.2908 15.7336 55.1236 15.4398C55.0175 15.2507 54.8679 15.0895 54.6872 14.9695C54.5065 14.8495 54.2999 14.7742 54.0844 14.7498C53.7254 14.7701 53.3654 14.7642 53.0073 14.7323C52.7496 14.6676 52.5242 14.5004 52.2637 14.4551C52.0044 14.4462 51.7467 14.4988 51.5117 14.6086C51.2766 14.7185 51.0709 14.8824 50.9114 15.087C50.9114 15.4565 51.2005 15.6948 51.4804 15.9294C51.6213 16.0457 51.7858 16.13 51.9625 16.1766C52.1392 16.2232 52.3239 16.2308 52.5039 16.1991C52.781 16.1483 53.0868 16.0079 53.3269 16.1566C53.5671 16.3054 53.5911 16.6933 53.8146 16.8882C54.1306 17.1654 54.646 16.9058 55.0543 17.0268C55.3702 17.1192 55.5642 17.4203 55.7748 17.6734C55.8614 17.8118 55.9855 17.9229 56.1326 17.9937C56.2798 18.0645 56.4439 18.0921 56.6062 18.0734C56.5968 17.7891 56.5537 17.5069 56.4778 17.2328L56.4815 17.23Z" fill="#263238"/>
<path d="M52.6904 15.6015C52.4521 15.5331 51.9653 15.3789 51.8378 15.1738C51.7096 14.9522 51.5254 14.7682 51.3036 14.6405C51.0817 14.5127 50.8301 14.4456 50.5741 14.4459C50.3159 14.4662 50.0711 14.5694 49.8763 14.7402C49.6815 14.911 49.5472 15.1402 49.4934 15.3937C49.1835 15.4035 48.8819 15.4967 48.6205 15.6635C48.3591 15.8303 48.1475 16.0645 48.008 16.3414C47.9724 16.4129 47.9416 16.4866 47.9156 16.5622C47.8206 16.7291 47.7631 16.9148 47.7471 17.1062C47.7311 17.2977 47.7571 17.4903 47.8233 17.6706C47.9073 17.8859 48.0459 18.1261 47.935 18.3274C47.8242 18.5288 47.5388 18.539 47.3171 18.6147C47.1246 18.6858 46.9635 18.8225 46.8621 19.0008C46.7607 19.1791 46.7255 19.3875 46.7628 19.5892C46.8147 19.7263 46.8379 19.8724 46.8312 20.0188C46.7774 20.161 46.6895 20.2879 46.5753 20.3883C46.4526 20.5335 46.3701 20.7083 46.3362 20.8954C46.3023 21.0825 46.3182 21.2752 46.3821 21.4542C46.4461 21.6332 46.556 21.7923 46.7008 21.9155C46.8456 22.0387 47.0202 22.1218 47.2071 22.1563C47.3796 22.1629 47.5494 22.2015 47.7078 22.2699C47.875 22.3743 47.9498 22.5766 48.0681 22.7318C48.1856 22.8811 48.3456 22.9912 48.527 23.0476C48.7084 23.1041 48.9027 23.1041 49.0842 23.0477C49.1566 23.0232 49.2254 22.9887 49.2883 22.9452C49.3572 23.0362 49.4481 23.1083 49.5525 23.1545C49.6569 23.2007 49.7713 23.2196 49.885 23.2093L49.8167 19.2373C49.8388 19.2852 49.8722 19.327 49.9141 19.3592C49.9559 19.3913 50.0049 19.4129 50.0568 19.422C50.6887 19.5671 50.7884 18.2517 50.6462 17.8942C50.8875 17.6981 51.1026 17.4717 51.2863 17.2208C51.4917 16.8214 51.5928 16.3765 51.5801 15.9276C51.9668 15.8864 52.3429 15.776 52.6904 15.6015Z" fill="#263238"/>
<path d="M50.0763 19.4904C50.0569 19.1033 49.583 19.0165 49.2449 19.2133C49.129 19.2935 49.0385 19.4051 48.984 19.5351C48.9295 19.665 48.9133 19.8079 48.9373 19.9467C48.9319 20.0846 48.9613 20.2216 49.0229 20.3451C49.0844 20.4686 49.1761 20.5745 49.2894 20.6532C49.4027 20.732 49.5341 20.7808 49.6713 20.7954C49.8085 20.8099 49.9471 20.7897 50.0744 20.7365C50.0763 20.7023 50.0994 19.9439 50.0763 19.4904Z" fill="#FFBE9D"/>
<path d="M49.7226 20.3402C49.7073 20.3517 49.6909 20.3616 49.6736 20.3698C49.6286 20.3913 49.577 20.3946 49.5295 20.379C49.457 20.3368 49.3969 20.2761 49.3555 20.2031C49.3141 20.13 49.2929 20.0473 49.294 19.9634C49.2863 19.8689 49.3008 19.774 49.3364 19.6862C49.3444 19.6505 49.3612 19.6174 49.3852 19.5898C49.4093 19.5622 49.4398 19.5411 49.4741 19.5283C49.4955 19.5208 49.5189 19.5215 49.5399 19.5302C49.5608 19.5389 49.5779 19.555 49.5877 19.5754C49.6053 19.6059 49.5988 19.6271 49.6034 19.629C49.608 19.6308 49.6274 19.6096 49.6163 19.5643C49.609 19.5375 49.5927 19.5141 49.5702 19.4978C49.5548 19.4869 49.5374 19.4792 49.519 19.475C49.5006 19.4709 49.4816 19.4705 49.463 19.4738C49.4184 19.4847 49.3773 19.5068 49.3435 19.538C49.3097 19.5692 49.2844 19.6084 49.2699 19.6521C49.2282 19.749 49.2098 19.8543 49.2164 19.9597C49.2156 20.0574 49.2435 20.1532 49.2965 20.2352C49.3495 20.3173 49.4254 20.3821 49.5147 20.4215C49.5445 20.429 49.5756 20.4296 49.6057 20.4234C49.6358 20.4171 49.664 20.4042 49.6884 20.3855C49.7226 20.3661 49.7318 20.3402 49.7226 20.3402Z" fill="#EB996E"/>
<path d="M51.148 15.3946C51.0618 15.4389 50.9867 15.502 50.9282 15.5793C50.8039 15.8121 50.7751 16.0841 50.8478 16.3377V16.3645L50.821 16.3728C50.6632 16.4148 50.5173 16.4929 50.3948 16.601C50.2724 16.709 50.1767 16.844 50.1153 16.9954C50.0805 17.0803 50.0611 17.1707 50.058 17.2624C50.0601 17.3596 50.0712 17.4564 50.0913 17.5515C50.1139 17.6555 50.1281 17.7611 50.1338 17.8674C50.1416 17.9821 50.1111 18.0962 50.0469 18.1916C49.9038 18.373 49.716 18.514 49.5019 18.6009C49.3151 18.6832 49.1431 18.7959 48.993 18.9343C48.7437 19.1787 48.5973 19.5092 48.5838 19.858C48.5758 20.0924 48.6252 20.3252 48.7279 20.5361C48.8008 20.6848 48.8618 20.7568 48.8562 20.7624C48.8387 20.7475 48.8232 20.7305 48.8101 20.7116C48.7688 20.6625 48.7323 20.6096 48.7011 20.5536C48.5537 20.2882 48.4976 19.9818 48.5413 19.6814C48.585 19.381 48.7262 19.1033 48.9431 18.8909C49.0972 18.745 49.2749 18.6263 49.4687 18.5399C49.6697 18.4574 49.8465 18.3252 49.9823 18.1556C50.1042 17.9977 50.0488 17.7713 50.0174 17.5755C49.9968 17.4752 49.9857 17.3731 49.9841 17.2707C49.9886 17.1706 50.0098 17.0719 50.0469 16.9788C50.1136 16.818 50.2171 16.6752 50.3492 16.5619C50.4813 16.4486 50.6382 16.368 50.8072 16.3266L50.7869 16.3617C50.7514 16.2294 50.743 16.0913 50.762 15.9556C50.7811 15.8199 50.8272 15.6894 50.8977 15.5719C50.9427 15.5119 51.0017 15.4637 51.0695 15.4315C51.1259 15.3992 51.1471 15.3909 51.148 15.3946Z" fill="#455A64"/>
<path d="M49.3207 20.7504C49.4083 20.658 49.5166 20.5877 49.6366 20.5453H49.6126C49.6351 20.5399 49.6579 20.5362 49.6809 20.5342C49.7214 20.5227 49.7637 20.5194 49.8054 20.5245C49.8471 20.5296 49.8874 20.5429 49.9239 20.5638C50.0603 20.613 50.1732 20.712 50.2398 20.8409C50.2923 20.9541 50.3126 21.0797 50.2984 21.2037C50.2843 21.3277 50.2361 21.4454 50.1594 21.5439C50.0968 21.6322 50.0106 21.701 49.9105 21.7423C49.8105 21.7837 49.7008 21.7959 49.5941 21.7776C49.4987 21.7481 49.4126 21.6945 49.344 21.622C49.2754 21.5496 49.2266 21.4606 49.2025 21.3637C49.1688 21.2598 49.1619 21.1491 49.1826 21.0418C49.2033 20.9346 49.2508 20.8343 49.3207 20.7504Z" fill="#455A64"/>
<path d="M58.7169 66.8972C58.6929 66.8972 57.7987 60.9197 56.7189 53.5419C55.639 46.164 54.7791 40.1755 54.804 40.1727C54.8289 40.17 55.7203 46.1483 56.8011 53.5289C57.8819 60.9095 58.7382 66.8935 58.7169 66.8972Z" fill="#455A64"/>
<path d="M52.1012 38.0842C52.1038 38.1315 52.0985 38.179 52.0855 38.2246C52.0598 38.3509 52.0227 38.4745 51.9747 38.5941C51.8184 38.9919 51.5656 39.3445 51.239 39.6203C50.9125 39.896 50.5225 40.0862 50.1041 40.1737C49.9781 40.1994 49.8502 40.2151 49.7217 40.2208C49.6748 40.2253 49.6274 40.2225 49.5813 40.2124C49.5813 40.1986 49.7818 40.1949 50.0912 40.1201C50.4947 40.0194 50.8696 39.8271 51.1868 39.5581C51.504 39.2892 51.7549 38.9508 51.9202 38.5691C52.0504 38.2782 52.0865 38.0805 52.1012 38.0842Z" fill="#455A64"/>
<path d="M54.1694 38.2976C54.0959 38.3225 54.0316 38.3688 53.9846 38.4306C53.962 38.4634 53.9466 38.5005 53.9393 38.5397C53.9319 38.5788 53.9329 38.6191 53.9421 38.6578C53.9594 38.7014 53.9881 38.7395 54.0253 38.7681C54.0625 38.7966 54.1068 38.8145 54.1534 38.8198C54.2 38.8251 54.2471 38.8177 54.2898 38.7982C54.3325 38.7788 54.3691 38.7482 54.3957 38.7095C54.4132 38.6738 54.423 38.6348 54.4246 38.595C54.4262 38.5553 54.4195 38.5156 54.4049 38.4786C54.3711 38.4066 54.3159 38.3466 54.247 38.3068C54.2704 38.3078 54.2937 38.3115 54.3163 38.3179C54.3747 38.348 54.4217 38.3963 54.4502 38.4555C54.4685 38.4953 54.4785 38.5384 54.4794 38.5821C54.4803 38.6259 54.4721 38.6694 54.4554 38.7099C54.4387 38.7503 54.4139 38.7869 54.3824 38.8173C54.3509 38.8478 54.3134 38.8713 54.2724 38.8866C54.2314 38.9018 54.1876 38.9084 54.1439 38.906C54.1002 38.9035 54.0575 38.8921 54.0184 38.8723C53.9793 38.8526 53.9447 38.825 53.9168 38.7912C53.8889 38.7575 53.8683 38.7184 53.8562 38.6763C53.8463 38.6277 53.8475 38.5775 53.8599 38.5295C53.8722 38.4815 53.8953 38.437 53.9274 38.3992C53.9671 38.3483 54.0227 38.3122 54.0853 38.2966C54.1435 38.2846 54.1694 38.292 54.1694 38.2976Z" fill="#455A64"/>
<path d="M61.0262 52.5544C61.0262 52.5784 60.7103 52.6717 60.3186 52.8315C59.9269 52.9913 59.6313 53.1474 59.6184 53.1271C59.8178 52.9659 60.0438 52.8409 60.2863 52.7576C60.5193 52.6477 60.7696 52.5789 61.0262 52.5544Z" fill="#455A64"/>
<path d="M48.8652 29.9516C48.805 29.946 48.7463 29.9301 48.6915 29.9045C48.539 29.84 48.3965 29.7538 48.2685 29.6487C48.1105 29.5193 47.9285 29.3438 47.7299 29.1572C47.5279 28.9473 47.2857 28.7802 47.0177 28.6658C46.7428 28.5726 46.4447 28.5726 46.1697 28.6658C45.9444 28.7387 45.7314 28.8452 45.5379 28.9817C45.2017 29.2173 45.0086 29.3872 44.9994 29.3771C44.9901 29.3669 45.04 29.3263 45.1259 29.2478C45.2461 29.1357 45.3722 29.0303 45.5037 28.9318C45.6996 28.7829 45.9178 28.666 46.1504 28.5854C46.4414 28.4839 46.7581 28.4839 47.0491 28.5854C47.3288 28.7028 47.5806 28.8778 47.7881 29.099C47.9839 29.2902 48.1576 29.4685 48.3091 29.5997C48.4753 29.7439 48.6621 29.8626 48.8633 29.9516H48.8652Z" fill="white"/>
<path d="M56.6006 28.8524C56.6006 28.8524 56.5157 28.7702 56.3494 28.6427C56.1123 28.4649 55.8446 28.3322 55.5596 28.2511C55.1364 28.1297 54.6871 28.1342 54.2664 28.264C53.7647 28.458 53.2875 28.7104 52.8448 29.0159C52.604 29.1648 52.3494 29.2901 52.0845 29.39C51.8359 29.4794 51.5786 29.5429 51.3169 29.5794C50.8758 29.6373 50.4297 29.6456 49.9867 29.6043C49.608 29.5729 49.3059 29.5286 49.0953 29.4972L48.8552 29.4574C48.8272 29.4538 48.7996 29.4473 48.7729 29.4381C48.8011 29.4342 48.8297 29.4342 48.8579 29.4381L49.1 29.4621C49.3096 29.4842 49.6136 29.5193 49.9895 29.5424C50.4285 29.5748 50.8697 29.5612 51.3058 29.5018C51.5616 29.4634 51.8129 29.3994 52.0559 29.3106C52.3161 29.2112 52.5662 29.0875 52.8032 28.9411C53.2518 28.6317 53.7367 28.3786 54.247 28.1873C54.6081 28.0804 54.9899 28.0633 55.359 28.1377C55.7282 28.2121 56.0736 28.3756 56.3651 28.6141C56.4281 28.6662 56.4873 28.7227 56.5425 28.7831C56.5646 28.8038 56.5841 28.8271 56.6006 28.8524Z" fill="white"/>
<path d="M58.2283 28.8007C58.2304 28.8923 58.2064 28.9827 58.159 29.0612C58.0593 29.2612 57.8972 29.4233 57.6972 29.5231C57.4965 29.6207 57.2693 29.6496 57.0506 29.6053C56.9586 29.595 56.8715 29.5588 56.7993 29.5009C56.7993 29.4879 56.9 29.5295 57.058 29.548C57.2642 29.5749 57.4738 29.5404 57.6606 29.4489C57.8474 29.3574 58.0031 29.2129 58.1082 29.0335C58.1904 28.8968 58.2163 28.797 58.2283 28.8007Z" fill="white"/>
<path d="M44.8481 32.164C44.9428 32.1432 45.0387 32.1284 45.1353 32.1197L45.9251 32.0273C46.5902 31.9562 47.5047 31.8693 48.5236 31.7668L48.8774 31.7335L48.8395 31.776C48.8155 30.8375 48.7989 30.0015 48.7905 29.4067V28.6991C48.7866 28.6128 48.7897 28.5263 48.7998 28.4404C48.8133 28.5257 48.8207 28.6118 48.8219 28.6982C48.8303 28.8783 48.8413 29.1166 48.8533 29.4076C48.8774 30.0062 48.9042 30.8421 48.9291 31.777V31.8148H48.8894L48.5356 31.8481C47.5195 31.946 46.6004 32.0328 45.9334 32.0855L45.1437 32.1474C45.045 32.1601 44.9456 32.1647 44.8462 32.1612L44.8481 32.164Z" fill="#263238"/>
<path d="M10.9323 65.288L7.509 67.2103L4.36831 67.9493C4.31474 67.962 4.26435 67.9856 4.22025 68.0186C4.17616 68.0515 4.13929 68.0932 4.11194 68.141C4.08458 68.1888 4.06731 68.2417 4.0612 68.2964C4.05509 68.3511 4.06027 68.4065 4.07641 68.4592C4.09543 68.5206 4.12881 68.5766 4.17379 68.6225C4.21877 68.6685 4.27406 68.703 4.33506 68.7233C5.60348 69.1574 6.89962 69.5058 8.21473 69.7662C8.51771 69.6286 12.002 67.9751 12.002 67.9751L10.9323 65.288Z" fill="#46D0D9"/>
<g opacity="0.6">
<path opacity="0.6" d="M4.07369 68.4619L8.49651 69.6415L8.35149 69.7191C8.22379 69.7838 8.07824 69.8043 7.93765 69.7773C7.5617 69.6951 6.52989 69.4439 4.33511 68.7344C4.27146 68.7139 4.21394 68.6779 4.16779 68.6295C4.12165 68.5811 4.08835 68.5219 4.07092 68.4573L4.07369 68.4619Z" fill="white"/>
</g>
<g opacity="0.6">
<path opacity="0.6" d="M9.23953 68.3354C9.18489 68.3083 9.12207 68.3028 9.06354 68.3199C9.00502 68.337 8.95507 68.3755 8.92361 68.4278C8.89378 68.4813 8.88616 68.5444 8.9024 68.6035C8.91864 68.6626 8.95744 68.7129 9.01045 68.7437C9.06772 68.7706 9.13289 68.7754 9.19353 68.7574C9.25418 68.7393 9.30605 68.6996 9.33929 68.6458C9.36389 68.5872 9.36462 68.5214 9.34132 68.4624C9.31801 68.4033 9.27253 68.3558 9.21459 68.3298" fill="white"/>
</g>
<path d="M7.11659 68.291C7.1282 68.1302 7.1282 67.9687 7.11659 67.8079C7.08038 67.6465 7.03189 67.4881 6.97156 67.334C7.09411 67.4634 7.16931 67.6304 7.18494 67.8079C7.22219 67.9719 7.19786 68.1438 7.11659 68.291Z" fill="#263238"/>
<path d="M7.9313 68.0924C7.90636 68.0924 7.88419 67.8615 7.76041 67.6075C7.63663 67.3535 7.47129 67.189 7.48884 67.1696C7.63964 67.2688 7.76053 67.4072 7.83849 67.57C7.91646 67.7328 7.94855 67.9137 7.9313 68.0934V68.0924Z" fill="#263238"/>
<path d="M8.63589 67.7636C8.60698 67.5871 8.55383 67.4156 8.47793 67.2537C8.37733 67.1046 8.25603 66.9705 8.11768 66.8556C8.11768 66.8463 8.18603 66.8556 8.27563 66.9156C8.38993 66.991 8.48487 67.0923 8.55275 67.2112C8.62227 67.329 8.6625 67.4617 8.67007 67.5982C8.66545 67.7017 8.64697 67.7645 8.63589 67.7636Z" fill="#263238"/>
<path d="M8.64726 67.0227C8.68601 66.9917 8.72932 66.9667 8.77566 66.9488C8.90185 66.8964 9.03715 66.8695 9.17379 66.8694C9.27445 66.8612 9.37503 66.8861 9.46014 66.9405C9.48661 66.9607 9.50605 66.9887 9.51567 67.0205C9.52529 67.0524 9.52461 67.0865 9.51372 67.1179C9.4891 67.1781 9.44348 67.2273 9.38532 67.2565C9.26462 67.3104 9.12889 67.3207 9.00145 67.2854C8.87402 67.2502 8.76282 67.1717 8.68698 67.0634C8.61426 66.9549 8.57544 66.8273 8.57544 66.6967C8.57544 66.5661 8.61426 66.4384 8.68698 66.3299C8.70474 66.3031 8.728 66.2803 8.75524 66.2631C8.78247 66.2459 8.81304 66.2347 8.84494 66.2302C8.87935 66.2284 8.91341 66.2379 8.94193 66.2572C8.97045 66.2765 8.99186 66.3047 9.0029 66.3373C9.0282 66.4327 9.0282 66.533 9.0029 66.6283C8.97751 66.762 8.92873 66.8902 8.8588 67.007C8.80799 67.0892 8.77196 67.1271 8.76642 67.1244C8.84907 66.9655 8.9076 66.7952 8.94008 66.6191C8.96136 66.5357 8.96136 66.4484 8.94008 66.3651C8.9345 66.3478 8.92348 66.3328 8.90866 66.3223C8.89384 66.3118 8.87602 66.3064 8.85787 66.3068C8.83651 66.3109 8.81622 66.3193 8.79826 66.3315C8.7803 66.3438 8.76506 66.3596 8.75349 66.378C8.69372 66.4725 8.662 66.5821 8.662 66.6939C8.662 66.8057 8.69372 66.9153 8.75349 67.0098C8.81788 67.1034 8.91256 67.172 9.02159 67.2039C9.13061 67.2359 9.24732 67.2293 9.35207 67.1853C9.39308 67.1668 9.42592 67.134 9.44444 67.093C9.45042 67.0755 9.45107 67.0567 9.44629 67.039C9.44152 67.0212 9.43155 67.0053 9.41765 66.9932C9.3457 66.9487 9.26202 66.9268 9.17748 66.9304C8.99633 66.9292 8.81644 66.9604 8.64634 67.0227H8.64726Z" fill="#263238"/>
<path d="M12.7872 66.16L15.0845 68.1774C15.0845 68.1774 13.8052 71.1888 14.1932 71.6026L18.2622 67.2897L14.8139 64.0003L12.7872 66.16Z" fill="#46D0D9"/>
<path d="M16.1551 66.6671C16.2069 66.6376 16.2678 66.6282 16.3261 66.6408C16.3844 66.6534 16.436 66.6871 16.471 66.7355C16.5036 66.7861 16.515 66.8475 16.5029 66.9066C16.4909 66.9656 16.4562 67.0176 16.4063 67.0514C16.3517 67.083 16.2871 67.0931 16.2254 67.0796C16.1637 67.0661 16.1093 67.03 16.0729 66.9784C16.0464 66.9226 16.0423 66.8588 16.0614 66.8001C16.0804 66.7414 16.1212 66.6921 16.1754 66.6625" fill="#E0E0E0"/>
<g opacity="0.6">
<path opacity="0.6" d="M18.2631 67.2897L17.9029 66.9738L14.135 71.223C14.135 71.223 14.0426 71.4946 14.1932 71.6008L18.2631 67.2897Z" fill="white"/>
</g>
<path d="M14.9951 68.2264C15.0172 68.2458 15.1262 68.1488 15.2925 68.1091C15.4588 68.0694 15.5973 68.098 15.6084 68.0694C15.6195 68.0407 15.4662 67.9585 15.2676 68.0112C15.069 68.0638 14.9729 68.2052 14.9951 68.2264Z" fill="#263238"/>
<path d="M14.7555 68.8554C14.7712 68.8795 14.8941 68.8222 15.0511 68.8351C15.2082 68.848 15.3208 68.9155 15.3402 68.8933C15.3596 68.8712 15.2479 68.7446 15.0576 68.7353C14.8673 68.7261 14.7371 68.8379 14.7555 68.8554Z" fill="#263238"/>
<path d="M15.0559 69.6277C15.0781 69.612 15.0005 69.4836 14.8333 69.4291C14.6661 69.3746 14.5284 69.4291 14.5377 69.4558C14.5469 69.4826 14.6661 69.478 14.8019 69.5251C14.9376 69.5722 15.0402 69.6424 15.0559 69.6277Z" fill="#263238"/>
<path d="M14.524 67.7082C14.5527 67.7174 14.6164 67.5927 14.7337 67.4819C14.851 67.371 14.9785 67.3128 14.972 67.2842C14.9656 67.2556 14.8048 67.275 14.6644 67.4071C14.524 67.5391 14.4972 67.7036 14.524 67.7082Z" fill="#263238"/>
<path d="M14.0693 67.2925C14.1526 67.237 14.2218 67.163 14.2716 67.0763C14.3289 66.9848 14.3751 66.8868 14.4092 66.7844C14.4308 66.7242 14.4477 66.6624 14.46 66.5997C14.4699 66.5633 14.4736 66.5255 14.4711 66.4879C14.4695 66.4599 14.4585 66.4334 14.4399 66.4124C14.4213 66.3915 14.3962 66.3774 14.3686 66.3724C14.3439 66.3689 14.3188 66.3712 14.2952 66.3792C14.2716 66.3873 14.2502 66.4008 14.2328 66.4186C14.2078 66.4469 14.1861 66.4778 14.1682 66.511C14.1365 66.5681 14.1096 66.6277 14.0878 66.6893C14.053 66.7911 14.0337 66.8976 14.0305 67.0052C14.0186 67.1059 14.038 67.2078 14.0859 67.2971C14.0971 67.2018 14.1024 67.1058 14.1016 67.0098C14.1133 66.9086 14.1379 66.8093 14.1746 66.7142C14.1973 66.6597 14.2239 66.607 14.2541 66.5563C14.2855 66.499 14.3224 66.4639 14.3538 66.4639C14.3852 66.4639 14.3677 66.4639 14.3732 66.4907C14.3775 66.5186 14.3775 66.5469 14.3732 66.5747C14.3628 66.6341 14.3486 66.6927 14.3307 66.7502C14.3007 66.8486 14.2614 66.9439 14.2134 67.0348C14.1275 67.1964 14.0564 67.2814 14.0693 67.2925Z" fill="#263238"/>
<path d="M14.1239 67.2943C14.1349 67.2943 14.0989 67.1761 13.9659 67.0403C13.8892 66.9615 13.7999 66.8959 13.7017 66.8463C13.6424 66.8178 13.5806 66.7949 13.517 66.778C13.4776 66.7625 13.4349 66.7576 13.3931 66.7638C13.3513 66.7699 13.3118 66.7869 13.2786 66.8131C13.2606 66.8324 13.2487 66.8567 13.2442 66.8828C13.2398 66.9089 13.2431 66.9357 13.2537 66.9599C13.2684 66.9934 13.288 67.0246 13.3119 67.0523C13.3526 67.1056 13.4016 67.152 13.4569 67.1899C13.5504 67.2556 13.6592 67.2963 13.7728 67.3082C13.8227 67.3198 13.8744 67.3213 13.9249 67.3126C13.9753 67.3039 14.0235 67.2851 14.0666 67.2574C13.9739 67.2557 13.8814 67.2492 13.7895 67.238C13.692 67.217 13.6003 67.175 13.5207 67.1151C13.4749 67.0806 13.4344 67.0395 13.4006 66.9932C13.3608 66.9424 13.3405 66.8907 13.3608 66.8777C13.3825 66.8659 13.4065 66.8591 13.431 66.8577C13.4556 66.8562 13.4802 66.8602 13.5031 66.8694C13.5605 66.8832 13.6165 66.9024 13.6703 66.9267C13.7621 66.967 13.8476 67.0201 13.9243 67.0846C14.049 67.2056 14.11 67.3017 14.1239 67.2943Z" fill="#263238"/>
<path d="M12.7871 59.8953L10.2155 57.3523L15.4161 47.8009C15.8946 47.2546 16.5007 46.8348 17.1804 46.5788L18.796 45.9645L22.8465 45.6292L25.3406 46.3515C26.0611 46.6342 26.9692 47.1543 26.8795 47.9219L25.9882 54.4157L25.5494 62.5935L14.6494 59.9082L17.0677 56.7768L16.1957 53.0532L12.7871 59.8953Z" fill="#455A64"/>
<path d="M16.788 58.5808L22.4098 56.3324C22.6391 56.2041 22.8277 56.0138 22.954 55.7833C23.0802 55.5528 23.1391 55.2914 23.1238 55.0291L23.5857 49.0248C23.5857 49.0248 23.5321 46.4707 25.1274 46.346L26.0345 46.7026C27.2067 47.3252 27.4977 49.0322 27.3379 50.3504C27.1116 52.2237 27.022 54.8766 26.7633 56.4987C26.6839 57.1358 26.4298 57.7385 26.0293 58.2403C25.6288 58.742 25.0973 59.1233 24.4937 59.342L17.4152 60.8587L16.788 58.5808Z" fill="#455A64"/>
<path d="M16.9995 58.7794H16.2412C15.5782 58.5213 14.8899 58.334 14.1877 58.2206C13.5883 58.4881 13.0174 58.8152 12.4834 59.1969C12.458 59.2135 12.4386 59.2378 12.428 59.2662C12.4059 59.3266 12.408 59.3931 12.4338 59.452C12.4597 59.5108 12.5072 59.5575 12.5666 59.5821L12.5906 59.5913L12.5795 59.6264C12.5663 59.6717 12.5604 59.7188 12.5619 59.7659C12.5627 59.8031 12.5758 59.8391 12.5993 59.868C12.6228 59.8969 12.6552 59.9171 12.6915 59.9255C12.7277 59.9339 12.7658 59.9299 12.7995 59.9142C12.8333 59.8985 12.8609 59.872 12.8778 59.8389L12.8335 59.9165C12.8161 59.9485 12.8078 59.9845 12.8095 60.0209V60.0902C12.8107 60.1288 12.8241 60.166 12.8476 60.1967C12.8711 60.2274 12.9037 60.2499 12.9407 60.2611C12.9752 60.2724 13.0124 60.2736 13.0476 60.2644C13.0828 60.2553 13.1146 60.2361 13.1393 60.2093C13.2861 60.0514 13.6011 59.7225 13.8182 59.6883C14.0508 59.6606 14.2851 59.6486 14.5193 59.6523C14.5678 59.6533 14.6148 59.6689 14.6542 59.6971C14.6936 59.7253 14.7235 59.7647 14.7401 59.8103C14.285 59.9952 13.8409 60.2062 13.4099 60.4421C13.3607 60.4659 13.3182 60.5015 13.286 60.5456C13.2538 60.5897 13.2329 60.6411 13.2252 60.6952C13.2141 60.795 13.263 60.8975 13.457 60.8532C13.8574 60.7337 14.2486 60.5852 14.6274 60.4089C14.8386 60.3478 15.0653 60.3717 15.2592 60.4754C15.613 60.7248 15.7737 60.8162 16.0777 60.7174C16.2622 60.6554 16.4392 60.5727 16.6051 60.4707L17.2037 60.4125C17.2037 60.4125 17.7736 58.9955 16.9995 58.7794Z" fill="#916B5C"/>
<path d="M14.7399 59.0676C14.7399 59.0759 14.6179 59.0362 14.4239 59.0233C14.1631 59.0075 13.9021 59.0518 13.6609 59.1526C13.4217 59.2567 13.2099 59.4148 13.042 59.6145C12.9127 59.7724 12.8573 59.8796 12.8508 59.8768C12.8608 59.8491 12.8735 59.8225 12.8887 59.7974C12.9277 59.7278 12.9725 59.6617 13.0226 59.5997C13.1883 59.3911 13.4034 59.2272 13.6484 59.1226C13.8934 59.0181 14.1606 58.9763 14.4258 59.0011C14.5052 59.008 14.584 59.0213 14.6613 59.0408C14.6884 59.0468 14.7148 59.0558 14.7399 59.0676Z" fill="#6D5046"/>
<path d="M14.5698 58.6519C14.4606 58.62 14.3481 58.6007 14.2345 58.5946C13.9594 58.5929 13.6894 58.6692 13.4558 58.8145C13.2229 58.9632 13.0105 59.1418 12.8239 59.3456L12.6531 59.5304C12.6333 59.5543 12.611 59.576 12.5865 59.595C12.6041 59.5695 12.6232 59.5452 12.6438 59.522C12.6817 59.4759 12.7362 59.4112 12.8018 59.3327C12.9846 59.1219 13.1975 58.9392 13.4336 58.7905C13.67 58.6425 13.9446 58.5673 14.2234 58.5743C14.3083 58.578 14.3922 58.5936 14.4728 58.6205C14.5014 58.6288 14.5218 58.6399 14.5356 58.6445L14.5698 58.6519Z" fill="#6D5046"/>
<path d="M24.0315 49.9411C24.0212 49.9864 24.0147 50.0324 24.0121 50.0788L23.9743 50.4751C23.9438 50.8261 23.9013 51.3221 23.8514 51.9299C23.8015 52.5377 23.7424 53.2786 23.6777 54.0905C23.662 54.2928 23.6445 54.5016 23.6288 54.7224C23.6178 54.9393 23.5925 55.1554 23.553 55.369C23.5141 55.5813 23.4128 55.7771 23.2621 55.9315C23.1032 56.0803 22.9205 56.2014 22.7217 56.2899C21.107 57.0372 19.6189 57.6552 18.539 58.0875L17.2514 58.5836L16.9022 58.7212C16.8608 58.7358 16.8206 58.7537 16.7821 58.7748C16.8248 58.767 16.8666 58.7549 16.9068 58.7387L17.2606 58.6159C17.5673 58.5069 18.0097 58.3443 18.5538 58.142C19.641 57.7236 21.1301 57.1148 22.7513 56.3648C22.9577 56.2722 23.1472 56.1457 23.312 55.9906C23.475 55.8248 23.585 55.6142 23.6279 55.3856C23.6661 55.1693 23.6908 54.9509 23.7018 54.7316C23.7175 54.5201 23.7332 54.3113 23.748 54.1081C23.808 53.2961 23.8597 52.5627 23.9059 51.9456C23.9521 51.3286 23.9798 50.8371 24.0038 50.488C24.0131 50.33 24.0214 50.1896 24.0278 50.0917C24.0324 50.0417 24.0336 49.9914 24.0315 49.9411Z" fill="#263238"/>
<path d="M24.9418 57.4068C24.9248 57.2887 24.8856 57.1749 24.8263 57.0714C24.6982 56.8157 24.5205 56.588 24.3036 56.4017C24.0866 56.2154 23.8348 56.0741 23.5627 55.9861C23.4517 55.9445 23.3338 55.9241 23.2153 55.926C23.2153 55.9399 23.3447 55.9667 23.5442 56.0433C23.8026 56.1435 24.0423 56.2861 24.2536 56.4655C24.4637 56.6449 24.642 56.8585 24.7811 57.0973C24.8279 57.2038 24.8816 57.3072 24.9418 57.4068Z" fill="#263238"/>
<g opacity="0.3">
<path opacity="0.3" d="M18.3086 58.0524C18.9783 57.6737 19.6323 57.3827 20.3325 57.065C21.0518 56.78 21.6874 56.3176 22.1799 55.7209C23.0436 54.557 22.9448 52.8777 23.8288 51.7258C23.7721 52.4974 23.7149 53.2703 23.657 54.0444C23.6034 54.7519 23.7124 55.4531 23.2561 55.9399C22.7727 56.3537 22.2055 56.6581 21.5934 56.8322C20.5274 57.1832 19.382 57.706 18.3141 58.058" fill="black"/>
</g>
<path d="M5.80212 57.7421C5.39792 57.9032 5.0512 58.1816 4.80657 58.5415C4.56194 58.9014 4.4306 59.3262 4.42946 59.7613C4.41837 62.696 10.358 65.9319 10.358 65.9319L18.2642 60.6934L18.7584 60.4929C18.7584 60.4929 8.08928 56.483 5.80212 57.7421Z" fill="#263238"/>
<path d="M14.2597 63.3389C14.1872 63.2976 14.118 63.2506 14.0528 63.1985C13.9235 63.1061 13.7369 62.9648 13.5124 62.7911C13.0607 62.4401 12.4446 61.9441 11.7749 61.3695C11.1052 60.795 10.5297 60.261 10.1121 59.8731C9.90338 59.6754 9.74265 59.5128 9.62534 59.3992C9.56413 59.3423 9.5076 59.2805 9.4563 59.2144C9.52481 59.261 9.58882 59.3139 9.64751 59.3724L10.1565 59.8343C10.5796 60.2186 11.1726 60.7442 11.8312 61.3123C12.4898 61.8804 13.0949 62.3819 13.5456 62.7422C13.7572 62.9177 13.9345 63.0581 14.0703 63.1708C14.1366 63.2218 14.1984 63.2783 14.2551 63.3398L14.2597 63.3389Z" fill="#455A64"/>
<path d="M8.03284 58.8395C8.54989 58.785 9.06744 58.9378 9.47201 59.2644C9.45908 59.2847 9.16995 59.1064 8.77182 58.9873C8.3737 58.8681 8.03284 58.8635 8.03284 58.8395Z" fill="#455A64"/>
<path d="M8.72201 58.3757C8.91317 58.44 9.07905 58.5633 9.19589 58.7277C9.33113 58.8752 9.41731 59.0611 9.44253 59.2597C9.41851 59.268 9.33168 59.0214 9.12661 58.7775C8.92154 58.5337 8.70169 58.396 8.72201 58.3757Z" fill="#455A64"/>
<path d="M6.36649 53.5732L8.61577 59.6311C8.67844 59.8003 8.79206 59.9459 8.94096 60.0478C9.08986 60.1497 9.26671 60.2029 9.44713 60.2001L21.8251 60.0421V59.0944L17.2314 59.2616L15.2805 53.2139C15.2484 53.1137 15.1851 53.0264 15.0998 52.9648C15.0146 52.9031 14.9118 52.8703 14.8066 52.8712L6.82557 52.898C6.74498 52.8977 6.66555 52.9172 6.5942 52.9546C6.52284 52.9921 6.46173 53.0464 6.41618 53.1129C6.37064 53.1794 6.34205 53.256 6.3329 53.3361C6.32376 53.4162 6.33433 53.4973 6.36371 53.5723L6.36649 53.5732Z" fill="#E0E0E0"/>
<path d="M6.36645 53.5723V53.5529C6.36645 53.54 6.35536 53.5215 6.35074 53.4957C6.33345 53.4209 6.33345 53.3432 6.35074 53.2684C6.38349 53.1469 6.46149 53.0425 6.56874 52.9765C6.63638 52.9343 6.71359 52.9098 6.79321 52.9054H14.7364C14.8513 52.8933 14.9671 52.9189 15.0661 52.9784C15.1649 53.0399 15.2375 53.1356 15.2703 53.2472C15.8596 55.0762 16.5155 57.1093 17.2147 59.2847V59.2976H17.2304L21.8371 59.1129L21.8168 59.0935V60.0412L21.8371 60.0218L14.0519 60.1262L10.6683 60.1724L9.8877 60.1835H9.50898C9.38665 60.1903 9.26418 60.1727 9.14872 60.1317C9.0377 60.0915 8.93627 60.0286 8.85087 59.947C8.76548 59.8654 8.69799 59.7669 8.65268 59.6579L8.40974 59.0057L6.92438 55.0235L6.51332 53.9446C6.42094 53.698 6.36922 53.5705 6.36922 53.5705C6.36922 53.5705 6.4154 53.7016 6.505 53.9483L6.90313 55.03L8.37556 59.0159L8.61757 59.6625C8.66407 59.776 8.73353 59.8786 8.8216 59.964C8.90967 60.0494 9.01443 60.1156 9.12932 60.1585C9.24764 60.2011 9.3732 60.22 9.49881 60.214H9.87754L10.6581 60.2047L14.0417 60.1622L21.8269 60.0615H21.8463V59.0833H21.826L17.2323 59.2523L17.2526 59.2653C16.5496 57.0917 15.8929 55.0586 15.3035 53.2306C15.267 53.1116 15.189 53.0096 15.0837 52.9433C14.979 52.8814 14.8574 52.8543 14.7364 52.8657H12.7337L10.3985 52.8851L7.0694 52.8943H6.79228C6.68969 52.9029 6.59226 52.943 6.51337 53.0092C6.43448 53.0753 6.37799 53.1643 6.35166 53.2638C6.33314 53.3397 6.33314 53.4189 6.35166 53.4947C6.35434 53.521 6.35929 53.547 6.36645 53.5723Z" fill="#263238"/>
<path d="M11.8553 55.8641C11.7594 55.8153 11.6515 55.7954 11.5445 55.8069C11.4376 55.8184 11.3363 55.8607 11.253 55.9288C11.1824 55.9955 11.1335 56.0819 11.1126 56.1768C11.0917 56.2716 11.0997 56.3706 11.1357 56.4608C11.1741 56.5503 11.2367 56.6273 11.3165 56.6832C11.3963 56.739 11.4902 56.7714 11.5874 56.7768C11.69 56.7826 11.7916 56.7549 11.8771 56.6979C11.9626 56.641 12.0272 56.5577 12.0613 56.4608C12.0948 56.352 12.0925 56.2353 12.0547 56.1279C12.017 56.0205 11.9458 55.928 11.8516 55.8641" fill="white"/>
<path d="M9.02649 66.2588C9.02649 66.2588 20.1824 59.1138 20.6757 58.8302C21.4435 58.2884 22.3912 58.0647 23.3203 58.2058C23.9414 58.4206 24.5015 58.7824 24.9528 59.2602C25.404 59.738 25.7332 60.3178 25.9123 60.9502C26.1969 62.0278 26.3559 63.1347 26.3862 64.2488C26.4681 64.8292 26.4289 65.4202 26.2708 65.9847C26.1128 66.5491 25.8394 67.0746 25.468 67.528C25.1052 67.981 24.623 68.3237 24.0759 68.5174C23.9586 68.5534 23.8385 68.5857 23.7138 68.6097C22.6644 68.8611 21.5641 68.797 20.551 68.4255C19.5379 68.0539 18.657 67.3914 18.019 66.5212L17.7585 66.1249C17.7585 66.1249 10.4527 68.8102 10.3336 68.7714L9.02649 66.2588Z" fill="#263238"/>
<path d="M22.8441 64.2442L22.7822 64.271L22.5974 64.3439L21.8899 64.6211L19.2582 65.6113C18.1414 66.0288 16.802 66.5239 15.2991 67.0708C13.7962 67.6176 12.1316 68.2098 10.3543 68.8176L10.3211 68.8287L10.3054 68.7982C10.0283 68.2661 9.73173 67.7017 9.43337 67.1354C9.27541 66.8445 9.12854 66.5554 8.98814 66.2856L8.97058 66.2524L9.00199 66.233L17.5216 60.8236L20.0803 59.2071L20.7749 58.7729L20.9597 58.6621C21.0003 58.6371 21.0225 58.626 21.0225 58.626C21.0225 58.626 21.0031 58.6418 20.9643 58.6685L20.786 58.7858L20.096 59.2357L17.5511 60.8707L9.04725 66.3004L9.06111 66.2487C9.20336 66.5175 9.35301 66.8029 9.50635 67.0967L10.3783 68.7649L10.3294 68.7446C12.1066 68.1442 13.7731 67.5483 15.2769 67.007L19.2406 65.5633L21.8806 64.5952L22.5947 64.3365L22.7794 64.2719C22.8004 64.2612 22.822 64.252 22.8441 64.2442Z" fill="#455A64"/>
<path d="M16.8172 38.7677C16.4451 40.3758 16.2209 42.0146 16.1475 43.6635V44.3369C17.0605 45.0566 18.141 45.5333 19.2882 45.7225L20.3763 42.7749L16.8172 38.7677Z" fill="#263238"/>
<path d="M24.3558 40.2743C23.9863 38.8933 23.8126 37.2731 22.6256 36.4085C21.764 35.8096 20.7103 35.5528 19.6697 35.688C19.1029 35.7675 18.5598 35.9678 18.0772 36.2755C17.5099 36.7412 17.1028 37.3731 16.9133 38.0823C16.3369 39.4411 16.4745 41.2516 16.9133 41.7412L22.6007 44.5124C23.699 43.8944 24.3909 43.6404 24.5221 42.143C24.5747 41.5152 24.5184 40.883 24.3558 40.2743Z" fill="#263238"/>
<path d="M22.5361 37.5188L18.9899 36.5951C17.8491 36.4667 17.0815 37.8671 17.0011 39.0106C16.8829 40.2663 16.8829 41.5303 17.0011 42.7859C17.0284 43.2847 17.2123 43.7621 17.5265 44.1503C17.8408 44.5385 18.2695 44.8178 18.7516 44.9484C18.7516 44.9484 18.7516 44.977 18.7627 45.5442L18.7543 46.4679C18.7443 46.8405 18.8663 47.2047 19.0989 47.496C19.6411 48.1519 20.5898 48.2119 21.6927 47.7611C21.9957 47.6599 22.2623 47.4719 22.4594 47.2205C22.6564 46.9691 22.7753 46.6653 22.8012 46.3469L23.1485 38.2079C23.1537 38.0366 23.0931 37.8698 22.9792 37.7417C22.8654 37.6136 22.7068 37.5338 22.5361 37.5188Z" fill="#916B5C"/>
<path d="M18.7415 44.9475C19.6393 44.9674 20.5251 44.7378 21.3002 44.2842C21.0442 44.713 20.6622 45.0524 20.2063 45.2562C19.7504 45.46 19.2428 45.5183 18.7525 45.4232L18.7415 44.9475Z" fill="#6D5046"/>
<path d="M19.0253 36.3873C19.0217 36.4012 19.019 36.4154 19.017 36.4296L19.0253 36.3873Z" fill="#263238"/>
<path d="M21.7891 45.6153C21.8269 45.1146 21.6089 44.6186 21.6514 44.1179C21.7785 43.6012 21.9443 43.0948 22.1475 42.603C22.2228 41.7457 22.1286 40.8819 21.8703 40.0609C21.3809 39.9981 20.9314 39.7582 20.6067 39.3866C20.2332 38.9319 19.9337 38.4213 19.719 37.8735C19.751 38.4087 19.9493 38.9205 20.2861 39.3376C20.1795 39.3577 20.0696 39.3524 19.9653 39.3222C19.861 39.2921 19.7652 39.2379 19.6857 39.164C19.5263 39.0158 19.4004 38.8354 19.3162 38.6347C19.0943 38.1587 18.963 37.6456 18.9292 37.1216C18.882 37.8726 18.9895 38.6253 19.2451 39.333C19.1067 39.3119 18.9654 39.3217 18.8313 39.3616C18.7642 39.3812 18.6935 39.385 18.6248 39.3727C18.556 39.3603 18.491 39.3322 18.435 39.2905C18.3727 39.2206 18.3325 39.1338 18.3195 39.0411C18.1661 38.4066 18.1233 37.7504 18.193 37.1013C18.023 37.4504 17.8881 37.8155 17.7902 38.1913C17.692 38.5688 17.7019 38.9664 17.8189 39.3386C17.7876 39.3696 17.7452 39.3871 17.7011 39.3871C17.657 39.3871 17.6146 39.3696 17.5833 39.3386C17.5208 39.274 17.4815 39.1905 17.4715 39.1012C17.4291 38.7792 17.4397 38.4525 17.5029 38.134C17.3509 38.4911 17.2421 38.8651 17.1787 39.248C17.1135 39.6344 16.9132 39.985 16.6134 40.2373C16.5431 39.7518 16.5431 39.2587 16.6134 38.7732C16.6877 38.3653 16.819 37.9698 17.0032 37.5982C17.1758 37.1846 17.4267 36.8082 17.7422 36.4898C18.289 35.9799 18.532 36.1831 18.895 36.3586L18.9375 36.3762C18.9367 36.3672 18.9367 36.3583 18.9375 36.3494L18.9514 36.2718C19.8856 36.0304 20.8676 36.0444 21.7946 36.3124C22.5702 36.5862 23.2355 37.105 23.6901 37.7904L23.7123 37.8255C24.5556 39.2379 25.205 41.2692 24.709 44.5881L21.7891 45.6153Z" fill="#263238"/>
<path d="M16.5198 49.47C16.1763 50.3597 15.9554 51.292 15.8631 52.2412C15.8197 52.7168 15.8727 53.1963 16.0191 53.6509C16.1654 54.1055 16.4021 54.5258 16.7148 54.8868" fill="#455A64"/>
<path d="M16.7147 54.8886C16.698 54.8784 16.6825 54.8664 16.6685 54.8526C16.6286 54.8139 16.5907 54.7732 16.5549 54.7307C16.42 54.5745 16.3044 54.4026 16.2103 54.2189C15.9129 53.6036 15.7817 52.9211 15.8298 52.2394C15.8821 51.5638 16.0202 50.8977 16.2408 50.2571C16.3212 50.0104 16.3905 49.8127 16.4413 49.6788C16.4638 49.6067 16.4929 49.5368 16.5281 49.47C16.5154 49.544 16.4969 49.6169 16.4727 49.688C16.4256 49.846 16.3665 50.039 16.2953 50.2737C16.0897 50.9151 15.9583 51.5781 15.9037 52.2495C15.859 52.9186 15.9822 53.5883 16.2621 54.1977C16.3893 54.4427 16.5409 54.6742 16.7147 54.8886Z" fill="#263238"/>
<path d="M27.3628 49.9411C27.3655 49.9759 27.3655 50.0108 27.3628 50.0455C27.3628 50.1213 27.3545 50.221 27.3499 50.342C27.3369 50.5998 27.3138 50.9739 27.2787 51.432C27.2104 52.3558 27.0829 53.6213 26.9628 55.0226C26.9164 55.6856 26.8107 56.3432 26.6469 56.9874C26.5813 57.2712 26.4837 57.5467 26.3559 57.8086C26.2324 58.0326 26.0723 58.2343 25.882 58.4053C25.6047 58.6484 25.2765 58.8264 24.9214 58.9263C24.8258 58.9538 24.7286 58.9754 24.6304 58.9909C24.5959 58.9972 24.561 59.0009 24.526 59.002C24.526 58.9928 24.6664 58.9734 24.9112 58.8949C25.2562 58.7862 25.5736 58.604 25.8414 58.3609C26.0244 58.1929 26.1777 57.9952 26.295 57.7762C26.417 57.5176 26.51 57.2462 26.5721 56.967C26.7313 56.3261 26.8364 55.6729 26.8861 55.0143C27.0044 53.6111 27.142 52.3447 27.2242 51.4256C27.2649 50.9739 27.2981 50.6053 27.3221 50.3383C27.3332 50.2164 27.3425 50.1185 27.3489 50.0418C27.3492 50.0074 27.3529 49.973 27.36 49.9393L27.3628 49.9411Z" fill="#263238"/>
<path d="M4.9074 23.9L5.1254 24.154C6.03407 25.2095 7.21408 25.9965 8.53777 26.4298C9.86145 26.863 11.2784 26.926 12.6353 26.612C12.9887 26.527 13.3351 26.4155 13.6718 26.2786C14.8894 25.7662 15.9617 24.961 16.7932 23.9345C17.6247 22.908 18.1898 21.6919 18.4382 20.3944C18.7153 18.8619 18.5768 17.1817 19.386 15.8607C20.4464 14.1435 22.6809 13.7011 24.6651 13.4138C26.6492 13.1265 28.8847 12.6748 29.9368 10.9576C30.5422 9.8238 30.6856 8.49975 30.3368 7.26266C29.8904 5.64419 29.0322 4.16902 27.8459 2.98106C26.6595 1.79309 25.1855 0.932882 23.5677 0.484332C20.321 -0.356948 16.8869 -0.0970376 13.8039 1.22332C9.37096 2.87006 5.75798 6.18533 3.73704 10.4606C2.76423 12.6133 2.36095 14.9799 2.5659 17.3332C2.77084 19.6866 3.57713 21.9479 4.9074 23.9Z" fill="#F5F5F5"/>
<path d="M46.4408 12.5067C48.9432 12.5067 50.9717 10.4781 50.9717 7.97577C50.9717 5.47342 48.9432 3.44487 46.4408 3.44487C43.9385 3.44487 41.9099 5.47342 41.9099 7.97577C41.9099 10.4781 43.9385 12.5067 46.4408 12.5067Z" fill="#F5F5F5"/>
</svg>
