<svg width="97" height="69" viewBox="0 0 97 69" fill="none" xmlns="http://www.w3.org/2000/svg">
<path d="M88.5436 68.587C92.7183 61.9281 97.0239 57.2492 96.5704 47.8085C96.1851 39.719 87.0531 37.3822 84.628 33.9403C81.6608 29.7278 85.1414 21.7417 79.8772 14.551C74.1115 6.67539 64.8745 6.84956 57.2773 10.827C51.7291 13.7315 46.0317 14.7315 40.4559 13.0097C31.0299 10.0996 18.1131 9.28572 16.8291 20.8447C15.9359 28.8807 11.564 31.3742 4.63043 36.7675C-4.72276 44.0421 2.39514 58.429 6.00017 68.5888H88.5436" fill="#F5F5F5"/>
<path d="M58.541 61.7088L38.0962 61.7217C36.5478 61.7224 35.0625 61.1082 33.967 60.014C32.8714 58.9198 32.2553 57.4352 32.2541 55.8868L32.2227 5.85602C32.2221 5.08922 32.3725 4.32979 32.6654 3.62114C32.9583 2.91249 33.388 2.26855 33.9298 1.72595C34.4716 1.18336 35.115 0.752775 35.8233 0.458859C36.5315 0.164943 37.2907 0.0134239 38.0575 0.0129399L58.5023 0C59.9257 0.00160947 61.2999 0.520504 62.3691 1.46007C62.9924 2.00535 63.4914 2.67817 63.8323 3.43289C64.1733 4.18761 64.3482 5.00672 64.3454 5.83487L64.3768 55.8666C64.3773 56.6333 64.2267 57.3926 63.9337 58.1011C63.6408 58.8097 63.2111 59.4536 62.6693 59.9961C62.1275 60.5386 61.4841 60.9691 60.7759 61.263C60.0678 61.5568 59.3087 61.7083 58.542 61.7088" fill="#0058A3"/>
<path d="M58.7512 60.223L37.8842 60.2358C37.3473 60.2383 36.8151 60.1351 36.318 59.932C35.8209 59.7288 35.3687 59.4299 34.9872 59.052C34.6057 58.6741 34.3024 58.2246 34.0946 57.7295C33.8868 57.2344 33.7785 56.7032 33.7759 56.1662L33.7437 5.45974C33.7456 4.92277 33.8533 4.3914 34.0606 3.89604C34.2678 3.40069 34.5707 2.95102 34.9517 2.57269C35.3328 2.19436 35.7847 1.89479 36.2815 1.69109C36.7783 1.48739 37.3104 1.38354 37.8474 1.38548L58.7153 1.37254C59.2523 1.37 59.7845 1.47332 60.2816 1.67646C60.7787 1.8796 61.2308 2.17859 61.6123 2.55649C61.9938 2.93438 62.2971 3.38381 62.505 3.87894C62.7128 4.37407 62.8211 4.90522 62.8236 5.44219L62.8559 56.1478C62.852 57.2321 62.4175 58.2705 61.6481 59.0345C60.8787 59.7985 59.8374 60.2257 58.7531 60.2221" fill="#46D0D9"/>
<path d="M32.3008 16.3753C32.0593 16.3753 31.8277 16.2793 31.6569 16.1085C31.4861 15.9377 31.3901 15.706 31.3901 15.4645V10.7415C31.3901 10.4999 31.4861 10.2682 31.6569 10.0974C31.8277 9.9266 32.0593 9.83072 32.3008 9.83072C32.5424 9.83072 32.774 9.9266 32.9448 10.0974C33.1156 10.2682 33.2116 10.4999 33.2116 10.7415V15.4645C33.2116 15.706 33.1156 15.9377 32.9448 16.1085C32.774 16.2793 32.5424 16.3753 32.3008 16.3753Z" fill="#0058A3"/>
<path d="M21.9464 22.3354C21.9464 22.3354 17.6446 26.5691 17.4482 28.1656C17.2519 29.7621 19.3987 32.2592 19.3987 32.2592L21.9464 22.3354Z" fill="#46D0D9"/>
<path d="M23.4995 66.3075C23.4995 66.3075 23.6396 68.5584 24.0747 68.5907C24.1328 68.5907 26.2871 68.5907 26.2871 68.5907L29.033 68.575C29.0126 68.3662 28.9189 68.1712 28.7689 68.0245C28.6188 67.8778 28.4218 67.7888 28.2125 67.7731C27.6711 67.6907 27.1545 67.4899 26.6996 67.1849C26.2447 66.88 25.8628 66.4784 25.5809 66.0088C25.0693 64.8935 23.5042 66.3028 23.5042 66.3028" fill="black"/>
<path d="M17.3857 66.3075C17.3857 66.3075 17.525 68.5584 17.9609 68.5907C18.019 68.5907 20.1731 68.5907 20.1731 68.5907L22.9191 68.575C22.8986 68.3662 22.8051 68.1712 22.6551 68.0245C22.505 67.8778 22.308 67.7888 22.0988 67.7731C21.5574 67.6906 21.0407 67.4898 20.5858 67.1849C20.1309 66.8799 19.749 66.4783 19.4671 66.0088C18.9556 64.8935 17.3914 66.3028 17.3914 66.3028" fill="black"/>
<path d="M26.5406 42.1184C25.7196 46.4435 24.5845 50.7028 23.144 54.8627C20.4654 63.0149 20.1021 66.5444 20.1021 66.5444L17.229 66.4642C17.229 66.4642 17.2041 57.5552 18.4393 53.4561C19.6745 49.357 18.7055 38.6783 18.7055 38.6783L26.5406 42.1193" fill="black"/>
<path d="M26.5406 42.1184C25.7196 46.4435 24.5845 50.7028 23.144 54.8627C20.4654 63.0149 20.1021 66.5444 20.1021 66.5444L17.229 66.4642C17.229 66.4642 17.2041 57.5552 18.4393 53.4561C19.6745 49.357 18.7055 38.6783 18.7055 38.6783L26.5406 42.1193" stroke="black" stroke-width="0.122595"/>
<path d="M27.9379 38.9291C27.9301 44.0871 27.5642 49.2384 26.8429 54.3457C25.6446 62.8417 26.0521 66.4484 26.0521 66.4484L23.1844 66.5407C23.1844 66.5407 21.4709 58.041 21.9613 53.788C22.4517 49.5349 19.6152 39.1946 19.6152 39.1946L27.9388 38.9255" fill="#212121"/>
<path d="M22.3872 22.7354L23.7393 23.7374L25.6944 23.3254C25.6668 23.1475 25.5377 22.4036 25.4178 21.739C25.4114 21.6994 25.405 21.6597 25.3976 21.621C25.2971 21.0514 25.2133 20.5629 25.2133 20.5629L23.3873 19.653L22.707 19.313C22.707 19.325 22.7604 19.9453 22.7678 20.0356C22.8559 20.9525 22.7262 21.8773 22.389 22.7345" fill="#FFB27D"/>
<path d="M25.5587 22.2312C24.5982 21.9195 23.614 21.6867 22.6156 21.5353C22.3317 21.6274 22.1631 22.1806 22.1631 22.1806L26.4418 23.1484C26.2476 22.7606 25.9395 22.4416 25.5587 22.234" fill="#46D0D9"/>
<path d="M18.5133 39.7835C18.9567 41.8059 26.3373 42.0465 28.2389 40.2103C28.4555 40.0011 28.4665 39.0277 28.3845 37.7141C28.2241 35.1489 27.7116 31.2895 27.6923 29.3188C27.6728 28.3743 27.5678 27.4336 27.3781 26.5082C27.1523 25.3648 26.8391 24.2404 26.4415 23.1448C26.4415 23.1448 22.8364 21.9796 22.1626 22.1768C18.9124 23.1318 18.0699 37.7602 18.5133 39.7826" fill="#46D0D9"/>
<path d="M28.3848 37.7133C28.2244 35.148 27.7119 31.2894 27.6926 29.3178C27.6726 28.3734 27.5671 27.4327 27.3773 26.5074L25.2083 26.1248C25.2083 26.1248 23.0892 34.7839 28.3848 37.7133Z" fill="#46D0D9"/>
<path d="M27.2108 34.1378C27.1704 34.2407 27.1643 34.3539 27.1937 34.4604C27.2231 34.5669 27.2865 34.6611 27.374 34.7286C27.5213 34.826 27.6397 34.9611 27.7172 35.1198C27.7946 35.2785 27.8284 35.455 27.8146 35.6311C27.7436 35.9122 27.0624 36.3684 26.8264 36.2965C26.5905 36.2246 26.1092 35.8522 26.1608 35.7048C26.2124 35.5573 25.8383 34.4042 26.4135 33.9617C26.4678 33.8974 26.5385 33.8492 26.6183 33.8223C26.6981 33.7954 26.7839 33.7908 26.8661 33.8091C26.9482 33.8275 27.0238 33.868 27.0846 33.9263C27.1453 33.9845 27.189 34.0583 27.2108 34.1396" fill="#FFB27D"/>
<path d="M24.79 22.6959C26.3741 23.0992 27.737 24.1076 28.586 25.5045C30.271 27.9877 31.3797 29.8368 31.0691 30.729C30.7584 31.6213 27.9297 34.7277 27.4412 34.7277C27.1176 34.7327 26.8036 34.6176 26.5599 34.4046C26.3163 34.1917 26.1603 33.8959 26.122 33.5746C26.122 33.5746 28.114 30.589 27.7223 30.1419C27.5545 29.9502 25.1358 27.9868 24.7911 28.8745C24.2196 30.3419 24.7911 22.6986 24.7911 22.6986" fill="#46D0D9"/>
<path d="M22.9039 20.0623C23.3049 20.8292 24.7981 21.4929 25.4212 21.7363C25.4147 21.6966 25.4074 21.6569 25.4009 21.6191C25.3005 21.0504 25.2164 20.561 25.2164 20.561L23.3913 19.6511C22.9885 19.6447 22.7462 19.7433 22.9084 20.0632" fill="#FCA56B"/>
<path d="M26.0988 20.4568C26.0988 20.4568 22.8054 21.4846 22.1971 19.4236C21.5887 17.3625 20.7545 16.1052 22.8312 15.3677C24.908 14.6303 25.5514 15.2903 25.922 15.9282C26.2925 16.5661 26.9404 20.1398 26.0997 20.4605" fill="#FFB27D"/>
<path d="M25.4096 15.8047C25.4096 15.8047 25.2189 18.2787 24.7212 18.1672C24.2234 18.0556 23.7717 17.9717 23.8509 18.7202C23.9302 19.4687 24.6261 20.3351 23.095 20.454C21.564 20.5729 19.3278 16.485 19.7435 15.7171C20.9418 13.5049 27.1425 13.1085 25.4096 15.8093" fill="black"/>
<path d="M59.3447 13.1113H36.989C35.9709 13.1113 35.1455 13.9367 35.1455 14.9548V15.8314C35.1455 16.8496 35.9709 17.675 36.989 17.675H59.3447C60.3629 17.675 61.1882 16.8496 61.1882 15.8314V14.9548C61.1882 13.9367 60.3629 13.1113 59.3447 13.1113Z" fill="white"/>
<path d="M59.3447 21.1657H36.989C35.9709 21.1657 35.1455 21.9911 35.1455 23.0092V23.8858C35.1455 24.904 35.9709 25.7294 36.989 25.7294H59.3447C60.3629 25.7294 61.1882 24.904 61.1882 23.8858V23.0092C61.1882 21.9911 60.3629 21.1657 59.3447 21.1657Z" fill="white"/>
<path d="M59.3447 29.2201H36.989C35.9709 29.2201 35.1455 30.0455 35.1455 31.0636V31.9402C35.1455 32.9584 35.9709 33.7838 36.989 33.7838H59.3447C60.3629 33.7838 61.1882 32.9584 61.1882 31.9402V31.0636C61.1882 30.0455 60.3629 29.2201 59.3447 29.2201Z" fill="white"/>
<path d="M59.3447 37.2745H36.989C35.9709 37.2745 35.1455 38.0999 35.1455 39.1181V39.9947C35.1455 41.0128 35.9709 41.8382 36.989 41.8382H59.3447C60.3629 41.8382 61.1882 41.0128 61.1882 39.9947V39.1181C61.1882 38.0999 60.3629 37.2745 59.3447 37.2745Z" fill="white"/>
<path d="M59.3447 45.3289H36.989C35.9709 45.3289 35.1455 46.1543 35.1455 47.1725V48.0491C35.1455 49.0672 35.9709 49.8926 36.989 49.8926H59.3447C60.3629 49.8926 61.1882 49.0672 61.1882 48.0491V47.1725C61.1882 46.1543 60.3629 45.3289 59.3447 45.3289Z" fill="white"/>
<path d="M59.3447 53.3834H36.989C35.9709 53.3834 35.1455 54.2087 35.1455 55.2269V56.1035C35.1455 57.1217 35.9709 57.947 36.989 57.947H59.3447C60.3629 57.947 61.1882 57.1217 61.1882 56.1035V55.2269C61.1882 54.2087 60.3629 53.3834 59.3447 53.3834Z" fill="white"/>
<path d="M54.7589 6.66812H48.5849C47.695 6.66812 46.9736 7.3893 46.9736 8.27891C46.9736 9.16853 47.695 9.8897 48.5849 9.8897H54.7589C55.6488 9.8897 56.3701 9.16853 56.3701 8.27891C56.3701 7.3893 55.6488 6.66812 54.7589 6.66812Z" fill="white"/>
<path d="M54.7589 7.12901H48.5849C47.9496 7.12901 47.4346 7.64384 47.4346 8.27892C47.4346 8.914 47.9496 9.42883 48.5849 9.42883H54.7589C55.3943 9.42883 55.9093 8.914 55.9093 8.27892C55.9093 7.64384 55.3943 7.12901 54.7589 7.12901Z" stroke="white" stroke-width="0.921769"/>
<path d="M43.483 6.66812H37.309C36.4191 6.66812 35.6978 7.3893 35.6978 8.27891C35.6978 9.16853 36.4191 9.8897 37.309 9.8897H43.483C44.3729 9.8897 45.0943 9.16853 45.0943 8.27891C45.0943 7.3893 44.3729 6.66812 43.483 6.66812Z" fill="white"/>
<path d="M43.4831 7.12901H37.3091C36.6737 7.12901 36.1587 7.64384 36.1587 8.27892C36.1587 8.914 36.6737 9.42883 37.3091 9.42883H43.4831C44.1184 9.42883 44.6334 8.914 44.6334 8.27892C44.6334 7.64384 44.1184 7.12901 43.4831 7.12901Z" stroke="white" stroke-width="0.921769"/>
<path d="M57.5869 6.93082H60.6509L59.4194 8.56972V10.0234L59.0074 9.66018V8.56972L57.5869 6.93082Z" fill="white" stroke="white" stroke-width="0.921769" stroke-linejoin="round"/>
<path d="M36.757 5.05687C37.35 5.05687 37.8308 4.57609 37.8308 3.98301C37.8308 3.38993 37.35 2.90915 36.757 2.90915C36.1639 2.90915 35.6831 3.38993 35.6831 3.98301C35.6831 4.57609 36.1639 5.05687 36.757 5.05687Z" fill="#0058A3"/>
<path d="M71.7805 40.0942C71.8496 40.0325 72.0202 40.0546 72.0202 40.0546H82.9266C82.9266 40.0546 83.1109 40.0398 83.1828 40.1136C83.2547 40.1873 83.2086 40.3505 83.2086 40.3505L81.5116 47.402L69.7314 47.4131L71.693 40.2896C71.703 40.2175 71.7333 40.1497 71.7805 40.0942Z" fill="#46D0D9"/>
<path d="M76.4098 44.3519C76.7804 44.3519 77.0809 44.0514 77.0809 43.6808C77.0809 43.3102 76.7804 43.0098 76.4098 43.0098C76.0392 43.0098 75.7388 43.3102 75.7388 43.6808C75.7388 44.0514 76.0392 44.3519 76.4098 44.3519Z" fill="#0058A3"/>
<path d="M54.3412 13.9169H36.6221C36.3996 13.9169 36.2192 14.0972 36.2192 14.3197C36.2192 14.5422 36.3996 14.7225 36.6221 14.7225H54.3412C54.5637 14.7225 54.744 14.5422 54.744 14.3197C54.744 14.0972 54.5637 13.9169 54.3412 13.9169Z" fill="#9FD3FF"/>
<path d="M53.8051 22.2396H36.0859C35.8635 22.2396 35.6831 22.4199 35.6831 22.6424C35.6831 22.8648 35.8635 23.0452 36.0859 23.0452H53.8051C54.0275 23.0452 54.2079 22.8648 54.2079 22.6424C54.2079 22.4199 54.0275 22.2396 53.8051 22.2396Z" fill="#9FD3FF"/>
<path d="M53.8051 30.294H36.0859C35.8635 30.294 35.6831 30.4743 35.6831 30.6968C35.6831 30.9193 35.8635 31.0996 36.0859 31.0996H53.8051C54.0275 31.0996 54.2079 30.9193 54.2079 30.6968C54.2079 30.4743 54.0275 30.294 53.8051 30.294Z" fill="#9FD3FF"/>
<path d="M53.8051 38.3484H36.0859C35.8635 38.3484 35.6831 38.5287 35.6831 38.7512C35.6831 38.9737 35.8635 39.154 36.0859 39.154H53.8051C54.0275 39.154 54.2079 38.9737 54.2079 38.7512C54.2079 38.5287 54.0275 38.3484 53.8051 38.3484Z" fill="#9FD3FF"/>
<path d="M53.8051 46.4028H36.0859C35.8635 46.4028 35.6831 46.5831 35.6831 46.8056C35.6831 47.0281 35.8635 47.2084 36.0859 47.2084H53.8051C54.0275 47.2084 54.2079 47.0281 54.2079 46.8056C54.2079 46.5831 54.0275 46.4028 53.8051 46.4028Z" fill="#9FD3FF"/>
<path d="M53.8051 54.4572H36.0859C35.8635 54.4572 35.6831 54.6376 35.6831 54.86C35.6831 55.0825 35.8635 55.2628 36.0859 55.2628H53.8051C54.0275 55.2628 54.2079 55.0825 54.2079 54.86C54.2079 54.6376 54.0275 54.4572 53.8051 54.4572Z" fill="#9FD3FF"/>
<path d="M47.898 15.5272H36.6221C36.3996 15.5272 36.2192 15.7076 36.2192 15.93C36.2192 16.1525 36.3996 16.3329 36.6221 16.3329H47.898C48.1205 16.3329 48.3009 16.1525 48.3009 15.93C48.3009 15.7076 48.1205 15.5272 47.898 15.5272Z" fill="#9FD3FF"/>
<path d="M47.3619 23.8508H36.0859C35.8635 23.8508 35.6831 24.0311 35.6831 24.2536C35.6831 24.4761 35.8635 24.6564 36.0859 24.6564H47.3619C47.5844 24.6564 47.7647 24.4761 47.7647 24.2536C47.7647 24.0311 47.5844 23.8508 47.3619 23.8508Z" fill="#9FD3FF"/>
<path d="M47.3619 31.9052H36.0859C35.8635 31.9052 35.6831 32.0856 35.6831 32.308C35.6831 32.5305 35.8635 32.7109 36.0859 32.7109H47.3619C47.5844 32.7109 47.7647 32.5305 47.7647 32.308C47.7647 32.0856 47.5844 31.9052 47.3619 31.9052Z" fill="#9FD3FF"/>
<path d="M47.3619 39.9587H36.0859C35.8635 39.9587 35.6831 40.1391 35.6831 40.3615C35.6831 40.584 35.8635 40.7643 36.0859 40.7643H47.3619C47.5844 40.7643 47.7647 40.584 47.7647 40.3615C47.7647 40.1391 47.5844 39.9587 47.3619 39.9587Z" fill="#9FD3FF"/>
<path d="M47.3619 48.0131H36.0859C35.8635 48.0131 35.6831 48.1935 35.6831 48.4159C35.6831 48.6384 35.8635 48.8187 36.0859 48.8187H47.3619C47.5844 48.8187 47.7647 48.6384 47.7647 48.4159C47.7647 48.1935 47.5844 48.0131 47.3619 48.0131Z" fill="#9FD3FF"/>
<path d="M47.3619 56.0675H36.0859C35.8635 56.0675 35.6831 56.2479 35.6831 56.4703C35.6831 56.6928 35.8635 56.8732 36.0859 56.8732H47.3619C47.5844 56.8732 47.7647 56.6928 47.7647 56.4703C47.7647 56.2479 47.5844 56.0675 47.3619 56.0675Z" fill="#9FD3FF"/>
<path d="M84.7358 46.4996H40.973C40.4542 46.4996 40.0337 46.9201 40.0337 47.4389V47.4398C40.0337 47.9585 40.4542 48.3791 40.973 48.3791H84.7358C85.2545 48.3791 85.6751 47.9585 85.6751 47.4398V47.4389C85.6751 46.9201 85.2545 46.4996 84.7358 46.4996Z" fill="#0058A3"/>
<path d="M79.6446 48.1837H77.4683L80.4373 68.5944H81.2991L79.6446 48.1837Z" fill="#0058A3"/>
<path d="M46.0498 48.1837H48.2252L45.2608 68.5944H44.3989L46.0498 48.1837Z" fill="#0058A3"/>
</svg>
