<svg width="70" height="72" viewBox="0 0 70 72" fill="none" xmlns="http://www.w3.org/2000/svg">
<path d="M69.6445 67.7063C69.6445 67.7285 54.1064 67.747 34.9464 67.747C15.7864 67.747 0.244629 67.7313 0.244629 67.7063C0.244629 67.6814 15.7781 67.6648 34.9464 67.6648C54.1147 67.6648 69.6445 67.6842 69.6445 67.7063Z" fill="#263238"/>
<path d="M22.2191 23.4357L22.7281 24.1747C22.7438 24.1974 22.7647 24.216 22.7892 24.2289C22.8136 24.2418 22.8408 24.2485 22.8685 24.2486H23.7654C23.7976 24.2486 23.8291 24.2576 23.8563 24.2746C23.8836 24.2916 23.9056 24.3159 23.9197 24.3448C23.9339 24.3736 23.9396 24.4059 23.9364 24.4379C23.9331 24.4699 23.9209 24.5003 23.9012 24.5257L23.3544 25.237C23.337 25.2589 23.3255 25.2849 23.3208 25.3125C23.3161 25.3401 23.3185 25.3684 23.3276 25.3949L23.6047 26.2475C23.6146 26.278 23.6158 26.3107 23.6082 26.3419C23.6005 26.373 23.5843 26.4014 23.5613 26.4238C23.5383 26.4462 23.5095 26.4618 23.4782 26.4686C23.4468 26.4755 23.4142 26.4735 23.3839 26.4627L22.5387 26.1625C22.5126 26.1531 22.4845 26.1502 22.457 26.154C22.4295 26.1579 22.4033 26.1684 22.3807 26.1847L21.6538 26.7103C21.6278 26.7305 21.5966 26.7428 21.5639 26.7458C21.5311 26.7488 21.4982 26.7423 21.469 26.7271C21.4398 26.712 21.4156 26.6887 21.3992 26.6602C21.3829 26.6317 21.375 26.599 21.3766 26.5662L21.4016 25.6702C21.4024 25.6422 21.3963 25.6144 21.3839 25.5893C21.3715 25.5642 21.3532 25.5425 21.3305 25.5261L20.6053 24.9968C20.5796 24.9778 20.5597 24.952 20.5479 24.9223C20.536 24.8926 20.5327 24.8602 20.5383 24.8287C20.5438 24.7972 20.5581 24.7679 20.5794 24.7441C20.6007 24.7202 20.6282 24.7028 20.6589 24.6938L21.5152 24.4462C21.5421 24.4387 21.5667 24.4247 21.5869 24.4053C21.607 24.386 21.6221 24.362 21.6307 24.3354L21.9078 23.4828C21.9168 23.4513 21.9346 23.4231 21.959 23.4014C21.9835 23.3797 22.0137 23.3654 22.046 23.3603C22.0783 23.3551 22.1114 23.3593 22.1414 23.3724C22.1714 23.3854 22.1971 23.4067 22.2154 23.4338L22.2191 23.4357Z" fill="#46D0D9"/>
<path d="M61.9081 41.4946L62.5399 41.8234C62.5595 41.8336 62.5812 41.8388 62.6032 41.8388C62.6252 41.8388 62.647 41.8336 62.6665 41.8234L63.2983 41.4872C63.321 41.4756 63.3463 41.4706 63.3717 41.4725C63.397 41.4745 63.4213 41.4834 63.4418 41.4983C63.4624 41.5133 63.4784 41.5336 63.4881 41.557C63.4979 41.5805 63.5009 41.6062 63.4969 41.6313L63.3796 42.3361C63.376 42.3582 63.3779 42.3808 63.3849 42.4021C63.392 42.4233 63.4041 42.4425 63.4203 42.458L63.9348 42.9541C63.9534 42.9718 63.9666 42.9944 63.973 43.0193C63.9794 43.0442 63.9788 43.0703 63.9711 43.0948C63.9634 43.1193 63.949 43.1412 63.9295 43.1579C63.91 43.1747 63.8863 43.1857 63.8609 43.1896L63.1533 43.2959C63.1313 43.2991 63.1105 43.3077 63.0926 43.3209C63.0747 43.3341 63.0604 43.3515 63.0508 43.3716L62.7348 44.0182C62.7238 44.0413 62.7064 44.0607 62.6848 44.0743C62.6631 44.088 62.6381 44.0952 62.6125 44.0952C62.5869 44.0952 62.5618 44.088 62.5402 44.0743C62.5185 44.0607 62.5012 44.0413 62.4901 44.0182L62.1741 43.3781C62.164 43.3583 62.1492 43.3412 62.131 43.3284C62.1128 43.3155 62.0918 43.3072 62.0698 43.3042L61.3622 43.2044C61.3369 43.2012 61.313 43.1908 61.2933 43.1746C61.2735 43.1584 61.2588 43.137 61.2507 43.1128C61.2426 43.0886 61.2415 43.0626 61.2475 43.0378C61.2535 43.013 61.2663 42.9904 61.2846 42.9725L61.7945 42.47C61.8101 42.4542 61.8216 42.4349 61.8282 42.4136C61.8348 42.3924 61.8362 42.37 61.8324 42.3481L61.7077 41.6433C61.7029 41.618 61.7055 41.592 61.715 41.5681C61.7245 41.5442 61.7406 41.5235 61.7614 41.5084C61.7822 41.4933 61.8068 41.4845 61.8325 41.4828C61.8581 41.4812 61.8837 41.4869 61.9063 41.4992L61.9081 41.4946Z" fill="#46D0D9"/>
<path d="M26.4597 20.4114L26.5937 20.8206C26.5984 20.8328 26.6059 20.8439 26.6155 20.8528C26.6251 20.8618 26.6366 20.8684 26.6491 20.8723L27.0611 20.9943C27.0757 20.9987 27.0889 21.007 27.099 21.0185C27.1091 21.0299 27.1159 21.044 27.1184 21.059C27.121 21.0741 27.1194 21.0896 27.1137 21.1038C27.1079 21.1179 27.0984 21.1302 27.086 21.1393L26.7396 21.3924C26.7287 21.4003 26.7198 21.4107 26.7137 21.4228C26.7076 21.4348 26.7045 21.4481 26.7045 21.4617L26.7175 21.8912C26.7184 21.9066 26.7148 21.9219 26.7073 21.9354C26.6997 21.9488 26.6884 21.9598 26.6748 21.967C26.6612 21.9742 26.6457 21.9773 26.6304 21.976C26.615 21.9747 26.6004 21.969 26.5881 21.9595L26.239 21.7083C26.228 21.7008 26.2155 21.6959 26.2024 21.694C26.1893 21.692 26.1759 21.6931 26.1632 21.6972L25.7586 21.8422C25.7442 21.8475 25.7285 21.8485 25.7135 21.8453C25.6985 21.8421 25.6846 21.8348 25.6736 21.8241C25.6625 21.8134 25.6546 21.7998 25.6509 21.7849C25.6472 21.77 25.6477 21.7543 25.6524 21.7397L25.7836 21.3305C25.7874 21.3177 25.7882 21.3042 25.7859 21.2911C25.7837 21.278 25.7785 21.2655 25.7706 21.2547L25.5083 20.9148C25.4988 20.9027 25.4928 20.8881 25.4912 20.8728C25.4895 20.8574 25.4923 20.8419 25.499 20.8281C25.5057 20.8142 25.5163 20.8025 25.5293 20.7943C25.5424 20.7861 25.5575 20.7818 25.573 20.7818H26.0025C26.0156 20.782 26.0286 20.7789 26.0402 20.7727C26.0519 20.7666 26.0617 20.7576 26.069 20.7467L26.3119 20.3911C26.3206 20.3786 26.3325 20.3688 26.3463 20.3627C26.3601 20.3566 26.3754 20.3544 26.3904 20.3564C26.4054 20.3584 26.4195 20.3646 26.4313 20.3741C26.443 20.3836 26.4519 20.3962 26.457 20.4105L26.4597 20.4114Z" fill="#46D0D9"/>
<path d="M38.2745 18.0392L43.6672 28.9679C43.8348 29.3067 44.082 29.5998 44.3877 29.8222C44.6933 30.0445 45.0484 30.1894 45.4223 30.2445L57.4816 31.9996C57.9129 32.0623 58.3181 32.2444 58.6513 32.5254C58.9844 32.8063 59.2323 33.175 59.3669 33.5895C59.5015 34.0041 59.5173 34.448 59.4127 34.8711C59.308 35.2942 59.0871 35.6796 58.7748 35.9836L50.0483 44.4884C49.7775 44.7528 49.5749 45.0789 49.4579 45.4388C49.341 45.7988 49.3131 46.1817 49.3768 46.5548L52.862 59.3097C52.9544 60.965 50.355 62.0919 48.0503 61.0269L37.2639 55.357C36.9292 55.1804 36.5565 55.0881 36.1781 55.0881C35.7996 55.0881 35.4269 55.1804 35.0922 55.357L24.3095 61.0259C23.9239 61.2284 23.4894 61.319 23.0551 61.2874C22.6207 61.2559 22.2039 61.1036 21.8515 60.8476C21.4992 60.5917 21.2255 60.2423 21.0612 59.839C20.897 59.4356 20.8489 58.9944 20.9222 58.5651L22.9757 46.5566C23.0407 46.1827 23.0136 45.7986 22.897 45.4374C22.7803 45.0763 22.5774 44.749 22.306 44.4838L13.5841 35.9799C13.2718 35.6759 13.0509 35.2905 12.9462 34.8674C12.8416 34.4443 12.8574 34.0004 12.992 33.5858C13.1266 33.1713 13.3745 32.8027 13.7077 32.5217C14.0408 32.2407 14.446 32.0586 14.8773 31.9959L26.9366 30.2408C27.3107 30.1861 27.6659 30.0413 27.9716 29.819C28.2773 29.5966 28.5245 29.3032 28.6917 28.9642L33.9348 18.3413C34.5869 17.0194 35.3804 16.4938 37.8837 16.4938C38.7142 16.5021 37.8468 17.1719 38.2745 18.0392Z" fill="#46D0D9"/>
<path opacity="0.3" d="M38.2745 18.0392L43.6672 28.9679C43.8348 29.3067 44.082 29.5998 44.3877 29.8222C44.6933 30.0445 45.0484 30.1894 45.4223 30.2445L57.4816 31.9996C57.9129 32.0623 58.3181 32.2444 58.6513 32.5254C58.9844 32.8063 59.2323 33.175 59.3669 33.5895C59.5015 34.0041 59.5173 34.448 59.4127 34.8711C59.308 35.2942 59.0871 35.6796 58.7748 35.9836L50.0483 44.4884C49.7775 44.7528 49.5749 45.0789 49.4579 45.4388C49.341 45.7988 49.3131 46.1817 49.3768 46.5548L52.862 59.3097C52.9544 60.965 50.355 62.0919 48.0503 61.0269L37.2639 55.357C36.9292 55.1804 36.5565 55.0881 36.1781 55.0881C35.7996 55.0881 35.4269 55.1804 35.0922 55.357L24.3095 61.0259C23.9239 61.2284 23.4894 61.319 23.0551 61.2874C22.6207 61.2559 22.2039 61.1036 21.8515 60.8476C21.4992 60.5917 21.2255 60.2423 21.0612 59.839C20.897 59.4356 20.8489 58.9944 20.9222 58.5651L22.9757 46.5566C23.0407 46.1827 23.0136 45.7986 22.897 45.4374C22.7803 45.0763 22.5774 44.749 22.306 44.4838L13.5841 35.9799C13.2718 35.6759 13.0509 35.2905 12.9462 34.8674C12.8416 34.4443 12.8574 34.0004 12.992 33.5858C13.1266 33.1713 13.3745 32.8027 13.7077 32.5217C14.0408 32.2407 14.446 32.0586 14.8773 31.9959L26.9366 30.2408C27.3107 30.1861 27.6659 30.0413 27.9716 29.819C28.2773 29.5966 28.5245 29.3032 28.6917 28.9642L33.9348 18.3413C34.5869 17.0194 35.3804 16.4938 37.8837 16.4938C38.7142 16.5021 37.8468 17.1719 38.2745 18.0392Z" fill="black"/>
<path d="M23.6924 44.2972C23.4371 44.3659 23.1757 44.4089 22.9119 44.4256C22.6509 44.4685 22.3863 44.4843 22.1221 44.4727C22.3772 44.4032 22.6387 44.3599 22.9026 44.3434C23.1635 44.3003 23.4283 44.2848 23.6924 44.2972Z" fill="#46D0D9"/>
<path d="M23.9372 45.3179C23.8028 45.3755 23.6586 45.4069 23.5123 45.4103C23.3693 45.4384 23.2221 45.4384 23.0791 45.4103C23.2139 45.3539 23.3579 45.3226 23.504 45.3179C23.6472 45.2912 23.7941 45.2912 23.9372 45.3179Z" fill="#46D0D9"/>
<path d="M22.9386 43.4178C22.372 43.5361 21.7955 43.601 21.2168 43.6118C21.497 43.5376 21.7838 43.4915 22.0731 43.4741C22.3592 43.4283 22.649 43.4091 22.9386 43.4169V43.4178Z" fill="#46D0D9"/>
<path d="M22.089 42.5753C21.8089 42.6495 21.522 42.6957 21.2327 42.713C20.9466 42.7589 20.6569 42.778 20.3672 42.7702C20.6473 42.696 20.9342 42.6499 21.2235 42.6326C21.5096 42.5868 21.7994 42.5676 22.089 42.5753Z" fill="#46D0D9"/>
<path d="M21.2472 41.7339C20.9671 41.8081 20.6802 41.8542 20.3909 41.8715C20.1048 41.9173 19.8151 41.9365 19.5254 41.9288C20.092 41.8105 20.6685 41.7456 21.2472 41.7348V41.7339Z" fill="#46D0D9"/>
<path d="M20.3981 40.8914C20.1179 40.9655 19.8311 41.0119 19.5418 41.0299C19.2556 41.0748 18.9659 41.0933 18.6763 41.0854C19.2429 40.9671 19.8194 40.9022 20.3981 40.8914Z" fill="#46D0D9"/>
<path d="M19.5573 40.0499C19.2771 40.124 18.9903 40.1704 18.701 40.1885C18.4148 40.2333 18.125 40.2518 17.8354 40.2439C18.4021 40.1256 18.9785 40.0607 19.5573 40.0499Z" fill="#46D0D9"/>
<path d="M18.7077 39.2083C18.4271 39.2807 18.1405 39.3268 17.8514 39.346C17.5653 39.3918 17.2755 39.4103 16.9858 39.4014C17.2664 39.329 17.5531 39.2829 17.8421 39.2638C18.1281 39.2171 18.418 39.1985 18.7077 39.2083Z" fill="#46D0D9"/>
<path d="M17.8669 38.3705C17.5863 38.4429 17.2996 38.4889 17.0106 38.5082C16.7244 38.554 16.4346 38.5725 16.145 38.5636C16.4256 38.4912 16.7122 38.4451 17.0013 38.426C17.2873 38.3793 17.5772 38.3607 17.8669 38.3705Z" fill="#46D0D9"/>
<path d="M17.0177 37.5244C16.7372 37.5968 16.4505 37.6428 16.1614 37.662C15.8754 37.7088 15.5855 37.7273 15.2959 37.7175C15.5764 37.6451 15.8631 37.599 16.1522 37.5798C16.4382 37.5331 16.7281 37.5146 17.0177 37.5244Z" fill="#46D0D9"/>
<path d="M14.54 33.8646C14.0087 33.9432 13.4706 33.9661 12.9346 33.9329C13.4661 33.8565 14.0039 33.8336 14.54 33.8646Z" fill="#46D0D9"/>
<path d="M14.7976 32.9676C14.5477 33.0033 14.2945 33.0107 14.0429 32.9898C13.7909 32.9964 13.5388 32.9763 13.291 32.9298C13.541 32.8942 13.7941 32.8867 14.0457 32.9076C14.2978 32.901 14.5498 32.9211 14.7976 32.9676Z" fill="#46D0D9"/>
<path d="M15.6198 32.1206C15.2226 32.1847 14.8184 32.1928 14.4189 32.1446C14.6146 32.1008 14.8154 32.0834 15.0157 32.0929C15.2162 32.0759 15.4181 32.0855 15.6161 32.1215L15.6198 32.1206Z" fill="#46D0D9"/>
<path d="M16.1759 36.6829C15.8954 36.7552 15.6087 36.8013 15.3196 36.8205C15.0336 36.8672 14.7437 36.8858 14.4541 36.876C14.7346 36.8036 15.0213 36.7575 15.3104 36.7383C15.5964 36.6916 15.8863 36.673 16.1759 36.6829Z" fill="#46D0D9"/>
<path d="M15.4297 35.7758C15.1488 35.8496 14.8614 35.896 14.5716 35.9144C14.2854 35.9592 13.9957 35.9778 13.7061 35.9698C14.2733 35.8514 14.8504 35.7864 15.4297 35.7758Z" fill="#46D0D9"/>
<path d="M14.7247 34.8742C14.4455 34.9466 14.16 34.9927 13.8721 35.0119C13.5876 35.0577 13.2993 35.0762 13.0112 35.0673C13.2902 34.995 13.5753 34.9489 13.8629 34.9296C14.1479 34.8848 14.4364 34.8663 14.7247 34.8742Z" fill="#46D0D9"/>
<path d="M49.0048 59.9147C48.7857 60.0611 48.5523 60.1849 48.3083 60.2842C48.0753 60.4084 47.8301 60.508 47.5767 60.5816C48.0262 60.3105 48.5026 60.0867 48.9983 59.9138L49.0048 59.9147Z" fill="#46D0D9"/>
<path d="M49.5605 60.8033C49.4518 60.8985 49.3266 60.973 49.191 61.0232C49.0655 61.0965 48.9273 61.1457 48.7837 61.1682C49.0173 60.9986 49.2808 60.8748 49.5605 60.8033Z" fill="#46D0D9"/>
<path d="M48.0044 59.3235C47.7617 59.482 47.5047 59.6174 47.2368 59.7281C46.9805 59.8636 46.7116 59.974 46.4341 60.0579C46.933 59.7625 47.4588 59.5151 48.0044 59.3189V59.3235Z" fill="#46D0D9"/>
<path d="M46.9356 58.7961C46.4371 59.0922 45.9112 59.3397 45.3652 59.5351C45.6077 59.3757 45.8647 59.2396 46.1328 59.1286C46.3896 58.9939 46.6583 58.8835 46.9356 58.7988V58.7961Z" fill="#46D0D9"/>
<path d="M45.8638 58.2695C45.6215 58.4287 45.3644 58.5641 45.0962 58.6741C44.8397 58.8098 44.5709 58.9208 44.2935 59.0057C44.5358 58.846 44.7928 58.7099 45.0611 58.5993C45.3179 58.4649 45.5867 58.3545 45.8638 58.2695Z" fill="#46D0D9"/>
<path d="M44.7944 57.7421C44.2959 58.0382 43.7701 58.2857 43.2241 58.4811C43.7235 58.1866 44.2492 57.9392 44.7944 57.7421Z" fill="#46D0D9"/>
<path d="M43.7236 57.2165C43.4811 57.3756 43.2241 57.5113 42.956 57.622C42.6993 57.7567 42.4306 57.8671 42.1533 57.9518C42.3958 57.7924 42.6528 57.6563 42.9209 57.5454C43.1777 57.411 43.4464 57.3009 43.7236 57.2165Z" fill="#46D0D9"/>
<path d="M42.6524 56.69C42.1538 56.9861 41.628 57.2336 41.082 57.4289C41.325 57.2709 41.5819 57.1355 41.8496 57.0244C42.1059 56.8876 42.3747 56.7756 42.6524 56.69Z" fill="#46D0D9"/>
<path d="M41.5796 56.1625C41.0811 56.4586 40.5552 56.7061 40.0093 56.9015C40.2516 56.7423 40.5087 56.6069 40.7769 56.4969C41.0333 56.3603 41.3021 56.2483 41.5796 56.1625Z" fill="#46D0D9"/>
<path d="M40.5118 55.636C40.2694 55.7951 40.0124 55.9306 39.7441 56.0406C39.4876 56.1762 39.2189 56.2873 38.9414 56.3722C39.44 56.077 39.9659 55.8305 40.5118 55.636Z" fill="#46D0D9"/>
<path d="M39.4424 55.1104C38.9435 55.4057 38.4177 55.6531 37.8721 55.8494C38.1148 55.6909 38.3718 55.5555 38.6397 55.4448C38.8958 55.3077 39.1647 55.1957 39.4424 55.1104Z" fill="#46D0D9"/>
<path d="M38.439 54.4924C38.1965 54.6515 37.9395 54.7873 37.6714 54.8979C37.4147 55.0326 37.1459 55.143 36.8687 55.2277C37.3673 54.9328 37.8932 54.6866 38.439 54.4924Z" fill="#46D0D9"/>
<path d="M37.1245 54.0361C37.0147 54.1324 36.8878 54.2073 36.7504 54.2569C36.6236 54.3306 36.4842 54.3804 36.3394 54.4037C36.4497 54.3071 36.5772 54.2322 36.7153 54.183C36.8416 54.1093 36.9803 54.0595 37.1245 54.0361Z" fill="#46D0D9"/>
<path d="M39.9743 17.8083L45.3708 28.7351C45.5377 29.0744 45.7847 29.368 46.0905 29.5904C46.3963 29.8128 46.7516 29.9574 47.1258 30.0117L59.1852 31.7668C59.6163 31.8292 60.0213 32.0111 60.3545 32.2918C60.6876 32.5725 60.9355 32.9409 61.07 33.3552C61.2046 33.7696 61.2205 34.2133 61.116 34.6362C61.0114 35.0591 60.7905 35.4442 60.4784 35.7481L51.7519 44.2547C51.4809 44.5189 51.2781 44.8451 51.1611 45.205C51.0442 45.565 51.0164 45.948 51.0803 46.3211L53.1338 58.3296C53.2074 58.7585 53.1595 59.1995 52.9956 59.6027C52.8318 60.0059 52.5584 60.3552 52.2064 60.6112C51.8545 60.8671 51.4379 61.0196 51.0039 61.0512C50.5698 61.0829 50.1356 60.9926 49.7502 60.7904L38.9638 55.1206C38.6291 54.944 38.2564 54.8517 37.8779 54.8517C37.4995 54.8517 37.1268 54.944 36.7921 55.1206L26.0057 60.7904C25.6206 60.9927 25.1866 61.0833 24.7528 61.052C24.319 61.0207 23.9025 60.8688 23.5504 60.6133C23.1983 60.3579 22.9247 60.0091 22.7603 59.6064C22.5959 59.2037 22.5474 58.7631 22.6202 58.3342L24.6737 46.3257C24.7376 45.9527 24.7098 45.5696 24.5929 45.2097C24.4759 44.8497 24.2731 44.5236 24.0021 44.2593L15.2756 35.7527C14.9635 35.4489 14.7426 35.0637 14.638 34.6408C14.5335 34.2179 14.5494 33.7742 14.684 33.3598C14.8185 32.9455 15.0664 32.5772 15.3995 32.2964C15.7327 32.0157 16.1377 31.8339 16.5689 31.7714L28.6282 30.0163C29.0024 29.962 29.3577 29.8174 29.6635 29.595C29.9693 29.3726 30.2163 29.079 30.3832 28.7398L35.7787 17.8083C35.9707 17.4161 36.2687 17.0856 36.639 16.8542C37.0093 16.6229 37.4371 16.5 37.8737 16.4995C38.3104 16.499 38.7384 16.621 39.1092 16.8515C39.48 17.082 39.7788 17.4119 39.9716 17.8037L39.9743 17.8083Z" fill="#46D0D9"/>
<path d="M29.8471 29.3909C29.7023 29.1703 29.5807 28.9354 29.4841 28.6898C29.3626 28.4543 29.2663 28.2066 29.1968 27.9508C29.3415 28.1715 29.4632 28.4064 29.5598 28.6519C29.6813 28.8875 29.7776 29.1352 29.8471 29.3909Z" fill="#46D0D9"/>
<path d="M28.9512 29.9397C28.8568 29.8288 28.7838 29.7013 28.736 29.5637C28.6633 29.4374 28.615 29.2986 28.5938 29.1545C28.6899 29.2643 28.7633 29.3921 28.8099 29.5305C28.882 29.6569 28.9299 29.7957 28.9512 29.9397Z" fill="#46D0D9"/>
<path d="M30.4505 28.397C30.2948 28.1526 30.1624 27.894 30.0552 27.6248C29.9233 27.3668 29.8174 27.0964 29.7393 26.8174C30.0282 27.319 30.2665 27.8482 30.4505 28.397Z" fill="#46D0D9"/>
<path d="M30.9954 27.3366C30.839 27.0924 30.7063 26.8338 30.5991 26.5643C30.469 26.3062 30.3633 26.0366 30.2832 25.7589C30.5729 26.2596 30.8115 26.7881 30.9954 27.3366Z" fill="#46D0D9"/>
<path d="M31.5291 26.2743C31.2402 25.7727 31.0019 25.2435 30.8179 24.6947C31.1068 25.1963 31.3451 25.7254 31.5291 26.2743Z" fill="#46D0D9"/>
<path d="M32.0696 25.2111C31.9143 24.9662 31.7817 24.7078 31.6733 24.4388C31.5434 24.18 31.4376 23.9098 31.3574 23.6315C31.5139 23.8757 31.6466 24.1343 31.7537 24.4037C31.884 24.6624 31.9898 24.9327 32.0696 25.2111Z" fill="#46D0D9"/>
<path d="M32.6101 24.146C32.453 23.9023 32.3203 23.6436 32.2139 23.3738C32.0841 23.1155 31.9783 22.8459 31.8979 22.5683C32.0541 22.8125 32.1865 23.0711 32.2933 23.3405C32.424 23.5985 32.5301 23.8681 32.6101 24.146Z" fill="#46D0D9"/>
<path d="M33.1488 23.0828C32.993 22.8384 32.8606 22.5798 32.7534 22.3106C32.6223 22.0523 32.5165 21.7819 32.4375 21.5032C32.7265 22.0048 32.9647 22.534 33.1488 23.0828Z" fill="#46D0D9"/>
<path d="M33.6888 22.0177C33.3991 21.517 33.1605 20.9885 32.9766 20.44C33.2662 20.9407 33.5048 21.4693 33.6888 22.0177Z" fill="#46D0D9"/>
<path d="M34.2278 20.9554C33.9443 20.4519 33.7083 19.9231 33.5229 19.3759C33.6787 19.6203 33.8111 19.8788 33.9183 20.1481C34.0472 20.4066 34.1508 20.677 34.2278 20.9554Z" fill="#46D0D9"/>
<path d="M34.7679 19.8904C34.4793 19.3892 34.2411 18.8607 34.0566 18.3127C34.2138 18.5564 34.3465 18.8151 34.4529 19.0849C34.5827 19.343 34.6881 19.6127 34.7679 19.8904Z" fill="#46D0D9"/>
<path d="M35.3968 18.8964C35.1079 18.3948 34.8696 17.8657 34.6855 17.3169C34.8413 17.5613 34.9737 17.8198 35.0809 18.0891C35.212 18.3474 35.3178 18.6178 35.3968 18.8964Z" fill="#46D0D9"/>
<path d="M35.8701 17.5876C35.7739 17.4767 35.6999 17.3485 35.6521 17.2097C35.5804 17.0822 35.5328 16.9426 35.5117 16.7978C35.6085 16.9113 35.684 17.0415 35.7343 17.182C35.8033 17.3081 35.8493 17.4454 35.8701 17.5876Z" fill="#46D0D9"/>
<path d="M36.3284 18.5214C36.3488 18.5325 35.1156 20.9989 33.5739 24.0296C32.0322 27.0604 30.7667 29.5037 30.7463 29.5037C30.726 29.5037 31.9592 27.0281 33.5009 23.9955C35.0426 20.9628 36.3081 18.5122 36.3284 18.5214Z" fill="white"/>
<path d="M28.152 31.1036C28.152 31.1036 28.1058 31.1128 28.019 31.1258L27.6338 31.1765L26.2196 31.3437L21.5547 31.8731L18.9895 32.1502C18.5942 32.1927 18.2182 32.2305 17.8727 32.2952C17.552 32.3503 17.2396 32.4466 16.9435 32.5816C16.5111 32.7771 16.1558 33.1104 15.9329 33.5293C15.859 33.6861 15.8059 33.852 15.775 34.0226C15.7729 34.011 15.7729 33.9991 15.775 33.9875C15.7742 33.9536 15.7779 33.9197 15.786 33.8868C15.8093 33.7591 15.8487 33.635 15.9034 33.5173C16.1205 33.0835 16.4788 32.7365 16.9195 32.5335C17.2207 32.392 17.5394 32.291 17.8672 32.2333C18.2164 32.164 18.5942 32.1225 18.9886 32.0753L21.5584 31.7908L26.2316 31.2902L27.6532 31.1479L28.0384 31.1128C28.0759 31.1065 28.1139 31.1035 28.152 31.1036Z" fill="white"/>
<path d="M48.5843 59.5323C48.5732 59.5517 47.0343 58.7009 45.1471 57.6368C43.2599 56.5726 41.7395 55.6923 41.7505 55.672C41.7616 55.6517 43.3006 56.5033 45.1878 57.5675C47.0749 58.6316 48.5954 59.5175 48.5843 59.5323Z" fill="white"/>
<path d="M39.5675 54.4629C39.3126 54.354 39.0482 54.2689 38.7777 54.2088C38.1151 54.0923 37.4342 54.1357 36.7917 54.3354C36.1472 54.5437 35.5276 54.8225 34.9442 55.1667L34.4085 55.4697C34.3452 55.5104 34.278 55.5447 34.208 55.5722C34.2655 55.5231 34.3274 55.4792 34.3928 55.4411C34.5147 55.3616 34.6911 55.2498 34.9137 55.1168C35.4919 54.7574 36.1125 54.471 36.7612 54.2642C37.4149 54.0595 38.1098 54.023 38.7814 54.158C38.9831 54.2032 39.1792 54.2704 39.3661 54.3585C39.4176 54.3813 39.4673 54.4078 39.5148 54.4379C39.5329 54.4452 39.5504 54.4535 39.5675 54.4629Z" fill="white"/>
<path d="M60.6046 26.8821L62.3292 26.3482C63.2897 26.9819 64.4525 27.2335 65.5891 27.0534C66.7257 26.8733 67.7539 26.2745 68.4714 25.3748C69.1889 24.4752 69.544 23.3396 69.4667 22.1914C69.3895 21.0432 68.8856 19.9655 68.054 19.17C67.2225 18.3745 66.1234 17.9188 64.973 17.8926C63.8225 17.8663 62.7038 18.2713 61.8368 19.028C60.9698 19.7847 60.4172 20.8384 60.2876 21.9818C60.1581 23.1253 60.4609 24.2758 61.1366 25.2073L60.6046 26.8821Z" fill="white"/>
<path d="M60.6044 26.8775C60.6044 26.8775 60.6127 26.8424 60.634 26.7712L60.7263 26.4553L61.1115 25.1917C61.113 25.1868 61.1164 25.1827 61.1209 25.1803C61.1254 25.1778 61.1306 25.1773 61.1355 25.1787L61.1087 25.2037C60.64 24.567 60.3441 23.8197 60.2497 23.0348C60.1241 21.9682 60.3718 20.891 60.9508 19.9864C61.2874 19.4654 61.7238 19.0162 62.2348 18.6646C62.7856 18.2864 63.4117 18.0321 64.0702 17.9191C64.7694 17.8048 65.4854 17.849 66.1652 18.0485C66.8749 18.2591 67.524 18.6362 68.0584 19.1484C68.5928 19.6607 68.9971 20.2932 69.2376 20.9933C69.464 21.6609 69.5369 22.3711 69.4509 23.0708C69.3698 23.7315 69.1443 24.3663 68.7905 24.9302C68.163 25.9423 67.1711 26.675 66.0193 26.9772C65.533 27.1016 65.03 27.1474 64.5293 27.113C63.7392 27.0563 62.9773 26.7956 62.3179 26.3565H62.3336L61.0404 26.75L60.7115 26.8479L60.6044 26.8793L62.3244 26.3205C62.3267 26.3189 62.3294 26.318 62.3322 26.318C62.335 26.318 62.3378 26.3189 62.3401 26.3205C62.997 26.7477 63.7521 27.0001 64.5339 27.0539C65.0278 27.0834 65.5233 27.036 66.0027 26.9135C66.5387 26.77 67.0449 26.5319 67.4973 26.2105C67.9918 25.8568 68.4113 25.4084 68.7314 24.8914C69.078 24.3364 69.2987 23.712 69.378 23.0625C69.4865 22.1739 69.3325 21.2729 68.935 20.4709C68.5374 19.6688 67.9136 19.0007 67.1407 18.5491C66.8277 18.3724 66.4959 18.2314 66.1514 18.1288C65.4852 17.9326 64.7837 17.8878 64.0979 17.9976C63.332 18.1286 62.6119 18.4523 62.0055 18.9383C61.3991 19.4242 60.9263 20.0565 60.6317 20.7756C60.3371 21.4947 60.2303 22.2769 60.3213 23.0486C60.4124 23.8204 60.6983 24.5563 61.1521 25.187C61.1542 25.191 61.155 25.1955 61.1542 25.1999C61.1535 25.2043 61.1513 25.2083 61.1481 25.2114C61.1448 25.2144 61.1407 25.2163 61.1362 25.2168C61.1318 25.2172 61.1273 25.2162 61.1235 25.2138L61.154 25.2055C60.8067 26.2567 60.6441 26.7528 60.6044 26.8775Z" fill="#263238"/>
<path d="M65.7782 23.7913L65.8189 21.9272C65.4908 21.8128 65.2183 21.5785 65.0559 21.2713C64.8884 21.0122 64.7604 20.7295 64.6762 20.4326C64.6641 20.3844 64.6353 20.342 64.5948 20.3131C64.5544 20.2842 64.505 20.2705 64.4554 20.2746C64.3939 20.2771 64.3343 20.297 64.2836 20.332C64.2329 20.367 64.1932 20.4156 64.1691 20.4723C64.1086 20.7969 64.1237 21.131 64.2134 21.4487C64.2134 21.4487 64.2864 21.5891 64.0915 21.5845L63.4005 21.5743C63.3107 21.5722 63.223 21.602 63.153 21.6584C63.1164 21.6866 63.0874 21.7235 63.0687 21.7658C63.0499 21.8081 63.0421 21.8543 63.0458 21.9004C63.0615 22.1646 63.2038 22.2856 63.1955 22.341C63.1518 22.4404 63.1418 22.5513 63.1669 22.6569C63.2186 22.8149 63.2537 22.8057 63.2518 22.8814C63.2493 23.0133 63.2673 23.1449 63.3054 23.2712C63.3279 23.3354 63.3621 23.3949 63.4061 23.4467C63.3914 23.5801 63.4049 23.7152 63.4458 23.843C63.5123 23.9899 63.8015 24.0721 63.8975 24.0739C63.9936 24.0758 64.6873 23.9539 64.8868 23.916C65.0864 23.8781 65.5898 23.6989 65.7782 23.7913Z" fill="#46D0D9"/>
<path d="M66.1302 21.8953L66.0874 23.8107L66.7994 23.8266L66.8422 21.9112L66.1302 21.8953Z" fill="#46D0D9"/>
<path d="M13.4767 42.0617H0.0493164V49.1625H9.92214C10.214 49.6114 10.832 50.633 10.832 50.633L11.5433 49.1625H13.4767V42.0617Z" fill="#FAFAFA"/>
<path d="M13.4763 42.0618V43.9619C13.4763 45.1941 13.4855 46.9714 13.492 49.1625V49.193H11.5291L11.5586 49.1736C11.336 49.6354 11.0968 50.1324 10.8492 50.6441L10.8206 50.7023L10.7873 50.6469L9.87745 49.1791L9.90793 49.1948H0V42.0156H0.0378715L9.71672 42.0313L12.4879 42.0442H12.4796L9.7084 42.0571L0.0406429 42.0728L0.0785162 42.035V49.1357L0.0378715 49.095H9.93657L9.94765 49.1126C10.2636 49.6243 10.5795 50.1222 10.8557 50.585H10.7938C11.0413 50.0733 11.2815 49.5754 11.506 49.1144L11.5152 49.095H13.4689L13.4375 49.1264C13.4375 46.9437 13.4504 45.1775 13.4551 43.9434V42.1523C13.456 42.0664 13.4763 42.0618 13.4763 42.0618Z" fill="#263238"/>
<path d="M3.18148 45.5572C3.29359 45.5086 3.38921 45.4285 3.45675 45.3267C3.5243 45.2249 3.56088 45.1057 3.56206 44.9835C3.56857 44.9028 3.55843 44.8216 3.53226 44.745C3.5061 44.6683 3.46447 44.5979 3.40995 44.538C3.35544 44.4781 3.28921 44.4301 3.21536 44.3969C3.14151 44.3636 3.06162 44.3459 2.98065 44.3448C2.89968 44.3438 2.81935 44.3593 2.74464 44.3906C2.66994 44.4218 2.60245 44.4681 2.54636 44.5265C2.49027 44.5849 2.44678 44.6542 2.41859 44.7301C2.39039 44.8061 2.37809 44.8869 2.38245 44.9678C2.37925 45.0917 2.41258 45.2139 2.47828 45.319C2.54398 45.4241 2.63915 45.5076 2.75195 45.559C2.49542 45.6072 2.26521 45.7472 2.10425 45.9527C1.94329 46.1581 1.86258 46.4152 1.87717 46.6758L4.02392 46.7044C4.02392 46.7044 4.08027 45.6994 3.18148 45.5572Z" fill="#46D0D9"/>
<path d="M11.6028 44.554C11.6028 44.5669 10.2329 44.578 8.54432 44.578C6.85574 44.578 5.48584 44.5669 5.48584 44.554C5.48584 44.5411 6.85574 44.5291 8.54432 44.5291C10.2329 44.5291 11.6028 44.5401 11.6028 44.554Z" fill="#263238"/>
<path d="M11.6028 45.2856C11.6028 45.2994 10.2329 45.3105 8.54432 45.3105C6.85574 45.3105 5.48584 45.2994 5.48584 45.2856C5.48584 45.2717 6.85574 45.2616 8.54432 45.2616C10.2329 45.2616 11.6028 45.2727 11.6028 45.2856Z" fill="#263238"/>
<path d="M11.6028 46.0181C11.6028 46.031 10.2329 46.0421 8.54432 46.0421C6.85574 46.0421 5.48584 46.031 5.48584 46.0181C5.48584 46.0051 6.85574 45.9931 8.54432 45.9931C10.2329 45.9931 11.6028 46.0024 11.6028 46.0181Z" fill="#263238"/>
<path d="M9.14289 46.9437C9.14289 46.9575 8.32447 46.9686 7.31483 46.9686C6.30519 46.9686 5.48584 46.9575 5.48584 46.9437C5.48584 46.9298 6.30427 46.9187 7.31483 46.9187C8.32539 46.9187 9.14289 46.9298 9.14289 46.9437Z" fill="#263238"/>
<g opacity="0.3">
<path opacity="0.3" d="M51.7862 37.6861C51.6858 35.8758 51.1885 34.1098 50.3295 32.5132C49.366 30.9844 47.5259 29.8621 45.7718 30.2962C45.4559 32.1649 45.1095 34.1491 46.1745 35.7194C46.4603 36.0508 46.6874 36.4285 46.8461 36.8362C46.9119 37.3067 46.8631 37.7862 46.7038 38.2338C45.8651 41.6747 47.0198 45.2542 48.1633 48.6045C49.4113 52.2644 50.7064 56.0119 53.1589 59.0011C53.1235 58.2379 53.0278 57.4787 52.8725 56.7306C52.6942 55.6471 52.5095 54.631 52.2656 53.214C51.9885 51.59 51.3179 48.0549 51.0712 46.2241C51.012 45.7723 51.0832 45.313 51.2763 44.9004C51.4527 44.5724 51.6889 44.2804 51.9728 44.0395L52.2887 43.7374C52.0837 40.9681 52.1234 40.4341 51.7862 37.6861Z" fill="black"/>
</g>
<path d="M58.2726 64.0493L56.4547 66.7836C56.4547 66.7836 58.6144 69.5464 58.328 70.084L52.9141 66.7475L55.5725 62.3848L58.2726 64.0493Z" fill="#46D0D9"/>
<g opacity="0.3">
<path opacity="0.3" d="M58.2726 64.0493L56.4547 66.7836C56.4547 66.7836 58.6144 69.5464 58.328 70.084L52.9141 66.7475L55.5725 62.3848L58.2726 64.0493Z" fill="black"/>
</g>
<path d="M54.9251 65.5088C54.8623 65.4907 54.7949 65.4968 54.7363 65.5261C54.6778 65.5554 54.6324 65.6056 54.6092 65.6668C54.5912 65.7285 54.5975 65.7949 54.6269 65.8521C54.6563 65.9093 54.7065 65.9531 54.7672 65.9744C54.8327 65.9906 54.9018 65.9824 54.9617 65.9513C55.0215 65.9202 55.068 65.8683 55.0923 65.8053C55.1051 65.7394 55.0918 65.6712 55.0553 65.6149C55.0188 65.5585 54.9619 65.5185 54.8965 65.5033" fill="#E0E0E0"/>
<g opacity="0.6">
<path opacity="0.6" d="M52.9141 66.7401L53.2004 66.3106L58.2809 69.6702C58.2809 69.6702 58.4583 69.9233 58.3271 70.0767L52.9141 66.7401Z" fill="white"/>
</g>
<path d="M56.5583 66.802C56.5407 66.8288 56.4003 66.7595 56.2183 66.7642C56.0364 66.7688 55.9024 66.8371 55.8803 66.8113C55.8581 66.7854 55.9957 66.6533 56.2165 66.6533C56.4373 66.6533 56.5869 66.7845 56.5583 66.802Z" fill="#263238"/>
<path d="M56.9822 67.3868C56.9711 67.4154 56.8242 67.3868 56.6662 67.4468C56.5083 67.5068 56.4085 67.6047 56.3836 67.5872C56.3586 67.5696 56.4325 67.4098 56.6311 67.3442C56.8297 67.2787 56.9969 67.36 56.9822 67.3868Z" fill="#263238"/>
<path d="M56.8861 68.2661C56.8574 68.2569 56.9018 68.1082 57.0598 67.9992C57.2177 67.8902 57.3756 67.9142 57.3756 67.9438C57.3756 67.9733 57.2473 68.0019 57.1216 68.0888C56.996 68.1756 56.9129 68.2782 56.8861 68.2661Z" fill="#263238"/>
<path d="M56.9025 66.1305C56.8758 66.1481 56.7778 66.0381 56.6254 65.955C56.473 65.8719 56.3234 65.8478 56.3252 65.8174C56.3271 65.7869 56.4942 65.7601 56.6771 65.8599C56.86 65.9596 56.9293 66.1222 56.9025 66.1305Z" fill="#263238"/>
<path d="M57.2603 65.579C57.1577 65.546 57.065 65.4879 56.9906 65.41C56.9039 65.3321 56.827 65.244 56.7615 65.1476C56.722 65.0908 56.6865 65.0312 56.6553 64.9694C56.6358 64.9337 56.6215 64.8955 56.6128 64.8558C56.6071 64.8261 56.6114 64.7953 56.6251 64.7684C56.6389 64.7414 56.6612 64.7198 56.6886 64.707C56.7139 64.6961 56.7414 64.6914 56.7689 64.6933C56.7964 64.6952 56.823 64.7037 56.8465 64.7181C56.8812 64.7389 56.9124 64.7651 56.9389 64.7957C56.9886 64.8438 57.0335 64.8967 57.0728 64.9537C57.1385 65.0506 57.1886 65.1572 57.2216 65.2696C57.2606 65.3702 57.2689 65.4801 57.2456 65.5855C57.228 65.5855 57.2169 65.4672 57.1532 65.2917C57.1127 65.1901 57.0596 65.0939 56.9952 65.0054C56.957 64.954 56.9147 64.9058 56.8687 64.8613C56.8216 64.8105 56.7763 64.7809 56.7421 64.7966C56.7079 64.8123 56.7283 64.8077 56.7292 64.8317C56.7353 64.8612 56.7459 64.8896 56.7606 64.9158C56.7893 64.9758 56.8207 65.0331 56.853 65.0867C56.9118 65.1794 56.9789 65.2665 57.0534 65.3472C57.1726 65.4931 57.2705 65.5605 57.2603 65.579Z" fill="#263238"/>
<path d="M57.2031 65.5947C57.2034 65.4862 57.2355 65.3803 57.2955 65.2899C57.352 65.1854 57.4264 65.0916 57.5154 65.0128C57.5682 64.9666 57.6254 64.9258 57.6862 64.8908C57.7228 64.8636 57.7659 64.8466 57.8111 64.8414C57.8564 64.8362 57.9022 64.8431 57.944 64.8613C57.9669 64.8774 57.9852 64.8993 57.9969 64.9248C58.0086 64.9503 58.0133 64.9784 58.0105 65.0063C58.0048 65.0461 57.9936 65.085 57.9772 65.1218C57.9487 65.1882 57.9111 65.2504 57.8654 65.3065C57.7879 65.399 57.6885 65.4707 57.5763 65.5153C57.3833 65.591 57.2604 65.555 57.2604 65.5439C57.358 65.5171 57.454 65.4844 57.5477 65.446C57.6425 65.3972 57.7255 65.3282 57.7906 65.2437C57.8289 65.1958 57.86 65.1426 57.883 65.0857C57.9116 65.0238 57.9181 64.9638 57.8922 64.9564C57.8666 64.9504 57.84 64.9499 57.8142 64.955C57.7884 64.9601 57.764 64.9707 57.7426 64.986C57.6871 65.0169 57.6342 65.0524 57.5846 65.0922C57.5001 65.1605 57.4261 65.2408 57.3648 65.3305C57.2521 65.4839 57.2234 65.5993 57.2031 65.5947Z" fill="#263238"/>
<path d="M57.7718 64.6248L58.363 67.8477C58.363 67.8477 61.8381 68.3216 62.0062 68.9137L55.7978 70.2845L54.6699 65.2964L57.7718 64.6248Z" fill="#46D0D9"/>
<path d="M56.3837 68.0019C56.3281 68.0336 56.286 68.0846 56.2656 68.1452C56.2452 68.2059 56.2478 68.2719 56.2729 68.3308C56.3021 68.3877 56.352 68.4312 56.4123 68.4523C56.4727 68.4735 56.5388 68.4706 56.5971 68.4444C56.6561 68.4107 56.7006 68.3565 56.7222 68.2921C56.7438 68.2278 56.7411 68.1577 56.7144 68.0952C56.6772 68.0396 56.6202 68.0003 56.5549 67.9853C56.4897 67.9704 56.4211 67.981 56.3634 68.0149" fill="#E0E0E0"/>
<g opacity="0.6">
<path opacity="0.6" d="M55.795 70.2882L55.7026 69.781L61.6912 68.6559C61.6912 68.6559 61.9933 68.716 62.0071 68.9164L55.795 70.2882Z" fill="white"/>
</g>
<path d="M58.4555 67.7941C58.4555 67.8237 58.3132 67.8717 58.1858 68.0029C58.0583 68.134 58.0075 68.28 57.977 68.2726C57.9465 68.2652 57.9521 68.0814 58.11 67.9253C58.268 67.7692 58.4573 67.7655 58.4555 67.7941Z" fill="#263238"/>
<path d="M59.1716 67.9198C59.1855 67.9465 59.0654 68.0269 58.9915 68.1784C58.9176 68.3299 58.9176 68.4703 58.8853 68.4768C58.8529 68.4832 58.7984 68.3188 58.8945 68.1294C58.9906 67.9401 59.1605 67.8893 59.1716 67.9198Z" fill="#263238"/>
<path d="M59.709 68.6163C59.6841 68.6292 59.6083 68.4869 59.649 68.3003C59.6896 68.1137 59.818 68.0232 59.8337 68.0426C59.8494 68.062 59.7848 68.1719 59.7534 68.3197C59.722 68.4675 59.7469 68.607 59.709 68.6163Z" fill="#263238"/>
<path d="M58.2413 67.0745C58.233 67.105 58.0834 67.0939 57.9171 67.1429C57.7508 67.1918 57.6261 67.2759 57.6012 67.2537C57.5762 67.2316 57.6852 67.0958 57.8838 67.0385C58.0824 66.9812 58.2469 67.0468 58.2413 67.0745Z" fill="#263238"/>
<path d="M58.1094 66.4252C58.0125 66.477 57.9031 66.5007 57.7935 66.4935C57.6772 66.4985 57.5609 66.4889 57.4471 66.4649C57.379 66.4512 57.312 66.4327 57.2466 66.4095C57.2081 66.3972 57.1714 66.3798 57.1376 66.3577C57.1131 66.3405 57.0949 66.3158 57.0857 66.2873C57.0765 66.2588 57.0769 66.228 57.0868 66.1998C57.0973 66.175 57.1134 66.1531 57.134 66.1357C57.1545 66.1184 57.1789 66.1062 57.205 66.1C57.2444 66.091 57.2849 66.0879 57.3251 66.0908C57.3947 66.0921 57.464 66.1002 57.532 66.1148C57.6476 66.1387 57.7586 66.1808 57.8609 66.2395C58.0345 66.3402 58.1084 66.4436 58.0992 66.451C58.09 66.4584 57.9967 66.3845 57.8221 66.3069C57.7211 66.2631 57.6149 66.2321 57.5062 66.2146C57.4429 66.2044 57.379 66.1992 57.315 66.1988C57.2457 66.1988 57.1884 66.2081 57.1792 66.2413C57.1699 66.2746 57.1792 66.2589 57.193 66.2746C57.2183 66.2903 57.2452 66.303 57.2734 66.3125C57.3337 66.3354 57.3954 66.3546 57.4581 66.3698C57.5653 66.3966 57.6748 66.413 57.7851 66.4187C57.8932 66.4137 58.0016 66.4159 58.1094 66.4252Z" fill="#263238"/>
<path d="M58.0795 66.476C58.0684 66.4843 57.9871 66.3836 57.9308 66.1988C57.8998 66.0846 57.8886 65.9659 57.8975 65.8478C57.9027 65.7783 57.9154 65.7096 57.9354 65.6428C57.9425 65.5987 57.9607 65.5571 57.9883 65.522C58.016 65.4869 58.0521 65.4595 58.0933 65.4423C58.1211 65.4376 58.1496 65.4405 58.176 65.4506C58.2023 65.4606 58.2254 65.4776 58.243 65.4996C58.2669 65.5325 58.2862 65.5686 58.3002 65.6067C58.3259 65.674 58.3415 65.7446 58.3464 65.8164C58.3544 65.9361 58.3332 66.056 58.2845 66.1656C58.1996 66.3504 58.0804 66.4187 58.0758 66.4085C58.1319 66.3242 58.1781 66.2337 58.2134 66.1388C58.2473 66.0371 58.2586 65.9294 58.2467 65.8229C58.2401 65.7617 58.2252 65.7017 58.2023 65.6446C58.1774 65.5818 58.1404 65.5338 58.1173 65.5449C58.0752 65.5759 58.0452 65.6207 58.0324 65.6714C58.0127 65.7314 57.9993 65.7933 57.9926 65.8561C57.9799 65.9641 57.9827 66.0733 58.001 66.1804C58.037 66.3633 58.097 66.4677 58.0795 66.476Z" fill="#263238"/>
<path d="M56.5376 37.7637L64.0937 49.4202C64.8299 50.3922 65.1925 51.5962 65.1154 52.8131C65.0376 53.6186 64.7594 54.3919 64.3062 55.0624L58.1449 65.834L55.0689 62.6933L59.609 53.0994L55.2776 47.267L52.9775 37.7664L56.5376 37.7637Z" fill="#263238"/>
<path d="M58.7167 66.8963L54.9127 40.594L54.7012 37.9262L48.1908 37.5743C47.6597 39.2424 47.2792 40.9548 47.0537 42.6908C46.9668 44.4367 50.9268 53.7137 50.9268 53.7137L51.8506 58.3545L54.4906 67.7692L58.7167 66.8963Z" fill="#263238"/>
<path d="M47.6915 37.032C47.5741 36.8408 48.4683 36.0843 49.9029 34.9185L51.0779 33.9569C51.5726 33.525 52.1341 33.1762 52.7406 32.9242C53.4854 32.6467 54.2948 32.5918 55.0702 32.7662C55.4872 32.8588 55.8863 33.0189 56.2517 33.2401C56.6575 33.4808 57.0038 33.8098 57.265 34.2026C57.3424 34.319 57.408 34.4428 57.4608 34.5721C57.5369 34.7562 57.5734 34.9541 57.568 35.1532C57.5585 35.4104 57.468 35.658 57.3093 35.8607C57.2148 35.979 57.0977 36.0773 56.9648 36.1499C56.8908 36.1897 56.8123 36.2207 56.7311 36.2422C56.6557 36.2625 56.5782 36.2743 56.5002 36.2773C56.2655 36.2841 56.0339 36.2239 55.8323 36.1037C55.7502 36.0565 55.6715 36.0037 55.5967 35.9457C55.5589 35.9162 55.5718 35.9319 55.5829 35.9365C55.596 35.9413 55.6096 35.9445 55.6235 35.9457C55.4951 35.969 55.3685 36.0018 55.2448 36.0436C55.1408 36.0728 55.0354 36.0965 54.9289 36.1148C54.8217 36.1305 54.7127 36.1452 54.613 36.1499C54.251 36.1621 53.8888 36.1392 53.5313 36.0815C53.2624 36.037 52.9914 36.0062 52.7193 35.9891C52.5063 35.9791 52.293 36.0031 52.0875 36.0603C51.656 36.2077 51.2439 36.4065 50.8599 36.6524C50.4797 36.891 50.0776 37.0927 49.659 37.2546C49.3218 37.3841 48.9635 37.4495 48.6023 37.4477C48.3695 37.4507 48.1395 37.3964 47.9326 37.2898C47.7949 37.2094 47.7432 37.1318 47.7607 37.081C47.7986 36.9655 48.0905 36.9942 48.5219 36.838C48.7868 36.7416 49.0392 36.6139 49.2738 36.4575C49.6035 36.2343 49.9199 35.9921 50.2216 35.7323C50.6484 35.3612 51.1274 35.0546 51.6432 34.8225C51.9757 34.6893 52.3282 34.6129 52.6861 34.5962C53.0165 34.585 53.3472 34.5951 53.6763 34.6266C53.9467 34.6552 54.2191 34.6589 54.4901 34.6377C54.5462 34.6343 54.6018 34.626 54.6564 34.6128C54.7101 34.6028 54.7629 34.5886 54.8143 34.5703C55.0046 34.5018 55.2002 34.449 55.3991 34.4123C55.5669 34.3837 55.7384 34.3837 55.9062 34.4123C56.0038 34.4297 56.0993 34.4579 56.1907 34.4964C56.2644 34.5264 56.3357 34.5619 56.4041 34.6026C56.5131 34.6691 56.5842 34.7162 56.6064 34.7255V34.7412L56.5685 34.8215C56.5376 34.8844 56.5107 34.9492 56.4881 35.0155C56.4751 35.0538 56.4652 35.093 56.4586 35.1328C56.4571 35.147 56.4571 35.1612 56.4586 35.1753C56.4494 35.1393 56.4715 35.2224 56.4697 35.2132C56.4678 35.204 56.4697 35.2132 56.4697 35.2003C56.4561 35.1768 56.4379 35.1563 56.4161 35.1402C56.4006 35.1271 56.3831 35.1165 56.3644 35.1088H56.2914C56.2463 35.1074 56.2013 35.1121 56.1574 35.1227C56.119 35.1305 56.081 35.1407 56.0438 35.1532L56.0087 35.1643C55.9933 35.13 55.9747 35.0972 55.9533 35.0663C55.6537 34.6669 55.2219 34.3869 54.7349 34.2765C54.2443 34.149 53.7283 34.1573 53.2421 34.3006C52.7554 34.473 52.2954 34.7134 51.8759 35.0146C51.4196 35.3148 50.9735 35.5956 50.5661 35.8349C48.9099 36.8057 47.8023 37.2168 47.6915 37.032Z" fill="#F5F5F5"/>
<path d="M54.1748 24.3723C54.3088 24.3963 55.6057 24.9413 56.1941 25.1889C56.3799 25.2682 56.5315 25.4109 56.6218 25.5916L59.5131 31.4268L57.2776 32.9778C57.2776 32.9778 57.54 37.5355 56.9617 37.7655C56.7456 37.8505 48.9308 37.8366 48.9308 37.8366C48.9308 37.8366 48.0856 38.1368 47.7835 37.8366C47.713 37.7396 47.6638 37.6289 47.639 37.5116C47.6141 37.3943 47.6143 37.2731 47.6394 37.1558V27.6414L47.2173 25.0226C47.2173 25.0226 51.2512 23.856 54.1748 24.3723Z" fill="#455A64"/>
<path d="M48.7563 27.0475L48.8792 31.7788L44.848 32.164C44.848 32.1391 44.4139 26.0314 47.2174 25.0217L48.7563 27.0475Z" fill="#455A64"/>
<path d="M57.11 32.164C57.086 32.006 57.0592 31.8324 57.0176 31.5432C56.9557 31.1165 56.8772 30.5622 56.7885 29.9507C56.6998 29.3392 56.6306 28.7868 56.5641 28.3582C56.5388 28.1685 56.5166 28.0075 56.4975 27.8751C56.4855 27.8165 56.4809 27.7566 56.4837 27.6968C56.5068 27.7518 56.5226 27.8096 56.5308 27.8686C56.5548 27.9823 56.5881 28.1458 56.6232 28.3425C56.6962 28.749 56.7811 29.3106 56.8726 29.9332C56.964 30.5558 57.0305 31.1193 57.0767 31.5303C57.1007 31.7345 57.1146 31.8998 57.1229 32.0153V32.1705C57.1229 32.1705 57.1229 32.1843 57.1091 32.1705C57.1091 32.1705 57.1081 32.164 57.11 32.164Z" fill="#263238"/>
<g opacity="0.3">
<path opacity="0.3" d="M56.8526 34.865C56.755 34.6015 56.6043 34.3609 56.41 34.158C56.2157 33.9551 55.9818 33.7942 55.7228 33.6854C55.2032 33.4709 54.643 33.3728 54.0814 33.3981C53.0993 33.3933 52.1348 33.6589 51.2936 34.1657C50.0567 34.9555 49.229 36.3346 47.8684 36.8768L47.7012 37.1152C48.7606 37.1683 49.813 36.9167 50.7338 36.3901C51.2964 35.9925 51.8959 35.6498 52.524 35.3666C53.1117 35.2046 53.7224 35.1422 54.3308 35.1818C54.9066 35.1305 55.4849 35.2497 55.9935 35.5245C56.1199 35.6391 56.274 35.7187 56.4406 35.7555C56.5367 35.7544 56.6301 35.7234 56.7077 35.6668C56.7854 35.6102 56.8434 35.5307 56.8738 35.4395C56.9313 35.251 56.9238 35.0487 56.8526 34.865Z" fill="black"/>
</g>
<path d="M55.1039 31.583L55.587 30.3618C55.6099 30.3009 55.651 30.2485 55.7047 30.2118C55.7584 30.1751 55.8222 30.1559 55.8873 30.1568H58.1809C58.2188 30.1565 58.2561 30.1654 58.2897 30.1829C58.3233 30.2003 58.3521 30.2258 58.3737 30.2569C58.3952 30.2881 58.4087 30.3241 58.4131 30.3617C58.4175 30.3993 58.4126 30.4374 58.3989 30.4727L56.9265 34.4632C56.9182 34.4863 56.903 34.5062 56.883 34.5204C56.863 34.5346 56.8392 34.5424 56.8147 34.5426H54.0989C54.0802 34.5422 54.0618 34.5373 54.0452 34.5284C54.0287 34.5195 54.0145 34.5069 54.0037 34.4916C53.9929 34.4762 53.9859 34.4585 53.9832 34.44C53.9805 34.4214 53.9822 34.4025 53.9881 34.3847L55.1039 31.583Z" fill="#263238"/>
<path d="M57.9832 34.1177L58.2548 32.6323L58.0303 31.4629L57.6719 32.4356V32.8291C57.5389 32.794 56.3085 31.752 55.9787 31.9765C55.5417 32.4237 55.1482 32.9114 54.8037 33.4332C55.3514 33.9831 55.927 34.5045 56.5283 34.9952C56.5283 34.9952 56.6078 35.9134 56.6207 36.3873C56.6299 36.7901 56.7057 36.9415 57.2285 37.1189C57.7513 37.2962 58.4146 36.3799 58.4146 35.5689C58.3448 35.0662 58.1994 34.5769 57.9832 34.1177Z" fill="#FFBE9D"/>
<path d="M48.405 31.8721L48.5343 33.4332L52.292 32.0605L53.9649 31.2864L54.6965 31.4712C55.4777 31.503 56.2547 31.6026 57.0187 31.7686C57.0391 31.9072 57.1434 32.0402 57.0187 32.0624C56.894 32.0846 55.0743 32.1668 55.0743 32.1668C55.7501 32.1877 56.4218 32.2787 57.0788 32.4383C57.1213 32.5852 57.0594 32.8143 56.9559 32.8143H54.8231C55.504 32.8436 56.1826 32.9136 56.8552 33.024C56.8756 33.108 57.0224 33.2531 56.8349 33.3159C56.6474 33.3787 54.8027 33.4406 54.8027 33.4406L56.5402 33.7565C56.5402 33.7565 56.6031 34.0281 56.458 34.0281C56.313 34.0281 52.5248 34.2793 52.5248 34.2793C50.8301 35.3942 49.0704 36.4069 47.2549 37.3119C46.418 37.517 45.6846 36.5489 45.5821 35.8654C45.4241 34.8336 45.2837 32.1483 45.2837 32.1483L48.405 31.8721Z" fill="#FFBE9D"/>
<path d="M52.5257 34.2738L52.6033 34.2646L52.8297 34.2452L53.697 34.1823L55.0679 34.09L55.9223 34.0318L56.3962 34.0004C56.4697 34.0049 56.5427 33.9861 56.6049 33.9468C56.641 33.9089 56.5846 33.8267 56.5292 33.7777L56.5449 33.7861L54.8074 33.4701C54.7989 33.4688 54.7912 33.4645 54.7857 33.4579C54.7801 33.4514 54.7771 33.4431 54.7771 33.4346C54.7771 33.426 54.7801 33.4177 54.7857 33.4112C54.7912 33.4047 54.7989 33.4004 54.8074 33.399L55.8355 33.3528L56.3712 33.3214C56.464 33.3183 56.5565 33.3102 56.6484 33.2974C56.732 33.3017 56.815 33.2807 56.8867 33.2374C56.8974 33.2234 56.9052 33.2074 56.9095 33.1903C56.9137 33.1733 56.9144 33.1555 56.9114 33.1381C56.9085 33.1208 56.902 33.1042 56.8923 33.0895C56.8826 33.0748 56.87 33.0622 56.8553 33.0526C56.8143 33.0428 56.7726 33.036 56.7306 33.0323L56.5901 33.0148L56.0156 32.9547L54.8295 32.8439C54.8197 32.8419 54.8109 32.8365 54.8047 32.8286C54.7986 32.8206 54.7955 32.8108 54.7961 32.8007C54.7966 32.7907 54.8008 32.7813 54.8078 32.7741C54.8148 32.7669 54.8241 32.7625 54.8341 32.7617H56.9587C56.9874 32.7617 57.0206 32.7265 57.0409 32.6841C57.0656 32.6453 57.0748 32.5987 57.067 32.5535C57.0591 32.5082 57.0347 32.4675 56.9985 32.4393C56.9249 32.4154 56.849 32.399 56.7721 32.3903L56.5292 32.3552L56.0424 32.297L55.0817 32.1972C55.0706 32.1961 55.0604 32.1906 55.0533 32.1819C55.0462 32.1733 55.0428 32.1622 55.0438 32.1511C55.0455 32.1413 55.0503 32.1324 55.0575 32.1256C55.0646 32.1188 55.0738 32.1144 55.0836 32.1132L56.3223 32.055L56.9245 32.0199C56.9675 32.0201 57.0102 32.0136 57.0511 32.0005C57.0648 31.9898 57.0751 31.9754 57.081 31.9591C57.0869 31.9428 57.088 31.9251 57.0843 31.9081C57.0779 31.8687 57.0584 31.8326 57.0289 31.8056C56.9939 31.7814 56.9538 31.7656 56.9116 31.7594C56.5375 31.6818 56.1532 31.6458 55.7865 31.6014C55.4198 31.5571 55.0568 31.5257 54.7058 31.4943L53.9723 31.3095H53.9963L52.3216 32.079L49.568 33.0711L48.8179 33.3362L48.6221 33.4046C48.6 33.4132 48.5771 33.4197 48.5537 33.424C48.5745 33.4128 48.5961 33.4032 48.6184 33.3953L48.8114 33.3214L49.5569 33.0443L52.2911 32.0347L53.9621 31.2578C53.9656 31.2563 53.9694 31.2556 53.9732 31.2556C53.977 31.2556 53.9808 31.2563 53.9843 31.2578L54.7178 31.4426C55.0688 31.473 55.43 31.5072 55.8004 31.5451C56.1819 31.5781 56.5614 31.6308 56.9375 31.703C56.9919 31.7121 57.0433 31.7343 57.0871 31.7677C57.1329 31.8084 57.1615 31.8648 57.1675 31.9257C57.1734 31.9578 57.17 31.9909 57.1577 32.0212C57.1455 32.0515 57.1248 32.0776 57.0982 32.0966C57.048 32.1166 56.9943 32.1267 56.9402 32.1261L56.3371 32.1621L55.0983 32.2222V32.1381L56.0609 32.2379L56.5477 32.2961L56.7943 32.3312C56.8818 32.3404 56.9678 32.3605 57.0502 32.3912C57.0799 32.409 57.1051 32.4332 57.124 32.4622C57.1429 32.4912 57.1549 32.5241 57.1592 32.5584C57.1657 32.6219 57.1542 32.6859 57.1259 32.7432C57.1124 32.773 57.0936 32.8002 57.0705 32.8235C57.0582 32.8376 57.0431 32.8489 57.0262 32.8568C57.0081 32.8658 56.9881 32.8702 56.968 32.8697H54.8341V32.7857L56.0202 32.8974L56.5948 32.9593L56.737 32.9769C56.7908 32.9798 56.8438 32.9898 56.895 33.0064C56.9194 33.0225 56.9402 33.0434 56.9561 33.0679C56.972 33.0923 56.9827 33.1199 56.9874 33.1487C56.9928 33.1769 56.9914 33.2059 56.9832 33.2334C56.975 33.2609 56.9602 33.2861 56.9402 33.3066C56.8994 33.3435 56.848 33.3668 56.7934 33.3732C56.7472 33.3732 56.701 33.3861 56.6548 33.3889C56.5624 33.3981 56.4701 33.4046 56.3777 33.411L55.8392 33.4424L54.8092 33.4831V33.4073L56.5467 33.7233C56.5513 33.7221 56.5561 33.7221 56.5606 33.7233C56.594 33.7543 56.6226 33.7901 56.6456 33.8295C56.6623 33.8524 56.6713 33.8801 56.6713 33.9085C56.6713 33.9369 56.6623 33.9645 56.6456 33.9874C56.5741 34.0415 56.4855 34.0677 56.3962 34.0613L55.9223 34.09L55.066 34.1408L53.6952 34.2211L52.826 34.2683L52.5987 34.2775C52.5743 34.2781 52.5499 34.2769 52.5257 34.2738Z" fill="#EB996E"/>
<path d="M47.3434 35.2058C47.3339 35.0954 47.3436 34.9841 47.372 34.877C47.4244 34.6139 47.5262 34.3631 47.6722 34.138C47.8229 33.9158 48.0164 33.7258 48.2413 33.5791C48.3303 33.5126 48.4304 33.4623 48.5368 33.4304C48.2335 33.6364 47.9666 33.8914 47.7471 34.1851C47.6053 34.4023 47.4987 34.6404 47.4312 34.8908C47.4115 34.9979 47.3824 35.103 47.3443 35.2049L47.3434 35.2058Z" fill="#EB996E"/>
<path d="M57.0005 31.1728C57.019 31.2086 57.0264 31.2492 57.0215 31.2892C57.0167 31.3293 56.9999 31.3669 56.9733 31.3972C56.9467 31.4276 56.9116 31.4492 56.8726 31.4592C56.8335 31.4693 56.7924 31.4674 56.7545 31.4537C56.7165 31.44 56.6836 31.4152 56.66 31.3825C56.6364 31.3498 56.6232 31.3108 56.6221 31.2705C56.6211 31.2301 56.6322 31.1905 56.654 31.1566C56.6759 31.1227 56.7074 31.0961 56.7446 31.0805C56.7908 31.059 56.8436 31.0566 56.8916 31.0739C56.9395 31.0912 56.9786 31.1268 57.0005 31.1728Z" fill="#FAFAFA"/>
<path d="M57.4449 32.6859C57.4623 32.6071 57.4861 32.5299 57.516 32.455L57.7387 31.837L58.0767 30.9253C58.11 30.8384 58.1432 30.7516 58.1765 30.6611C58.2098 30.5706 58.2689 30.4671 58.2412 30.4098C58.2301 30.3858 58.1941 30.3738 58.1488 30.3766H55.9577C55.924 30.3705 55.8893 30.3742 55.8577 30.3873C55.8261 30.4004 55.7989 30.4224 55.7794 30.4505C55.7489 30.5078 55.7221 30.5844 55.6954 30.6445C55.5928 30.8911 55.5106 31.0943 55.4413 31.2514C55.4684 31.266 55.4888 31.2904 55.4985 31.3196C55.5082 31.3488 55.5065 31.3806 55.4935 31.4085C55.4806 31.4365 55.4576 31.4584 55.429 31.4699C55.4005 31.4815 55.3687 31.4817 55.34 31.4706C55.3113 31.4595 55.2879 31.4379 55.2746 31.4102C55.2613 31.3824 55.2591 31.3507 55.2683 31.3213C55.2776 31.292 55.2976 31.2673 55.3245 31.2522C55.3513 31.2372 55.3828 31.2329 55.4127 31.2403L55.6436 30.6242C55.6681 30.5538 55.6962 30.4847 55.7277 30.4172C55.7522 30.3796 55.7868 30.3495 55.8275 30.3304C55.8691 30.3139 55.9139 30.307 55.9586 30.3101H58.1451C58.1774 30.3041 58.2109 30.3083 58.2407 30.3223C58.2705 30.3362 58.2952 30.359 58.3114 30.3877C58.3216 30.4154 58.326 30.445 58.3244 30.4745C58.3228 30.5041 58.3153 30.533 58.3021 30.5595L58.2504 30.6953L58.1479 30.9576L57.7922 31.8656C57.6925 32.1141 57.6075 32.3192 57.5456 32.4753C57.5186 32.5485 57.4849 32.619 57.4449 32.6859Z" fill="#455A64"/>
<path d="M50.8431 15.3577C50.6613 15.2201 50.5344 15.0224 50.485 14.7999C50.4356 14.5773 50.4669 14.3445 50.5733 14.1429C50.6898 13.9451 50.8504 13.7769 51.0428 13.6516C51.2351 13.5263 51.4538 13.4472 51.6818 13.4206C52.0075 13.372 52.3402 13.401 52.6526 13.5054C52.9649 13.6097 53.2483 13.7864 53.4794 14.021C53.727 14.2769 53.9283 14.6104 54.2692 14.7267C54.5774 14.7749 54.8897 14.7913 55.2012 14.7757C55.4079 14.814 55.6035 14.8977 55.7739 15.0207C55.9443 15.1437 56.0854 15.3029 56.1869 15.487C56.3859 15.8586 56.5055 16.2675 56.5379 16.6878C56.5336 17.075 56.6527 17.4535 56.8778 17.7686C57.1429 18.0457 57.5457 18.0984 57.8671 18.2914C58.1619 18.486 58.3691 18.7881 58.4443 19.1332C58.5195 19.4784 58.457 19.8392 58.2699 20.1389C58.1424 20.3236 57.9539 20.4945 57.9447 20.7199C57.9683 20.9243 58.031 21.1222 58.1295 21.3028C58.1617 21.4293 58.1664 21.5612 58.1434 21.6897C58.1204 21.8182 58.0702 21.9403 57.9961 22.0478C57.9219 22.1552 57.8257 22.2456 57.7137 22.3127C57.6018 22.3799 57.4768 22.4223 57.3471 22.4371C57.0801 22.4528 56.7928 22.3447 56.5573 22.4676C56.3217 22.5905 56.2321 22.8731 56.0834 23.0902C55.9279 23.3009 55.7047 23.4517 55.4513 23.5173C55.1978 23.5829 54.9295 23.5593 54.6913 23.4504C54.5151 23.3202 54.3083 23.2375 54.0909 23.2103C53.8729 23.2241 53.702 23.4107 53.4886 23.4523C53.3459 23.4593 53.204 23.4272 53.0782 23.3595C52.9523 23.2918 52.8474 23.191 52.7746 23.068C52.6334 22.8201 52.4672 22.5874 52.2786 22.3734C51.9703 22.1615 51.622 22.0147 51.2551 21.942C50.8635 21.8072 50.5055 21.5899 50.2052 21.3048C49.9049 21.0197 49.6693 20.6733 49.5144 20.2893C49.3596 19.9052 49.289 19.4924 49.3076 19.0787C49.3261 18.665 49.4333 18.2601 49.6219 17.8914" fill="#263238"/>
<path d="M54.9065 20.38C54.994 20.2875 55.1023 20.2172 55.2224 20.1749H55.1975L55.2658 20.1638C55.3063 20.1525 55.3486 20.1494 55.3904 20.1546C55.4321 20.1598 55.4723 20.1733 55.5087 20.1943C55.6452 20.2435 55.7581 20.3425 55.8247 20.4714C55.8772 20.5847 55.8975 20.7102 55.8833 20.8342C55.8691 20.9582 55.821 21.0759 55.7443 21.1744C55.6817 21.2627 55.5954 21.3316 55.4954 21.3729C55.3954 21.4143 55.2856 21.4265 55.179 21.4081C55.0838 21.3788 54.9978 21.3255 54.9292 21.2534C54.8606 21.1812 54.8118 21.0926 54.7873 20.9961C54.7532 20.8917 54.7463 20.7804 54.7671 20.6726C54.788 20.5648 54.8359 20.4641 54.9065 20.38Z" fill="#455A64"/>
<path d="M49.8378 24.4656L49.4286 16.9732C49.4202 16.8134 49.4727 16.6564 49.5756 16.5338C49.6784 16.4112 49.824 16.3322 49.9829 16.3128L53.3323 15.365C54.4094 15.22 55.1668 16.5308 55.2657 17.6134C55.4037 18.8008 55.4303 19.9986 55.3451 21.191C55.3291 21.6641 55.1645 22.1201 54.8746 22.4943C54.5848 22.8686 54.1845 23.142 53.7304 23.2758L53.7508 24.3104L53.6418 27.1333L49.8378 24.4656Z" fill="#FFBE9D"/>
<path d="M53.7277 23.274C52.8772 23.3107 52.0332 23.1112 51.2891 22.6976C51.5422 23.0935 51.9107 23.4021 52.3448 23.5818C52.779 23.7615 53.2578 23.8037 53.7166 23.7026L53.7277 23.274Z" fill="#EB996E"/>
<path d="M56.4817 17.23C56.4076 16.954 56.2401 16.7121 56.0078 16.5456C55.87 16.4751 55.7362 16.3971 55.6069 16.3119C55.3446 16.1022 55.291 15.7336 55.1238 15.4399C55.0177 15.2507 54.8681 15.0895 54.6874 14.9695C54.5068 14.8495 54.3001 14.7742 54.0846 14.7498C53.7257 14.7701 53.3657 14.7642 53.0075 14.7323C52.7498 14.6676 52.5244 14.5004 52.264 14.4552C52.0047 14.4463 51.7469 14.4989 51.5119 14.6087C51.2768 14.7185 51.0712 14.8824 50.9116 15.087C50.9116 15.4565 51.2007 15.6948 51.4806 15.9294C51.6216 16.0457 51.7861 16.1301 51.9628 16.1766C52.1395 16.2232 52.3242 16.2309 52.5041 16.1992C52.7813 16.1484 53.087 16.008 53.3272 16.1567C53.5673 16.3054 53.5913 16.6934 53.8149 16.8883C54.1308 17.1654 54.6462 16.9058 55.0545 17.0268C55.3705 17.1192 55.5644 17.4203 55.775 17.6734C55.8616 17.8119 55.9857 17.9229 56.1329 17.9937C56.28 18.0645 56.4442 18.0922 56.6064 18.0734C56.597 17.7891 56.554 17.5069 56.478 17.2328L56.4817 17.23Z" fill="#263238"/>
<path d="M52.6904 15.6015C52.4521 15.5332 51.9653 15.3789 51.8378 15.1738C51.7096 14.9522 51.5254 14.7683 51.3036 14.6405C51.0817 14.5127 50.8301 14.4456 50.5741 14.4459C50.3159 14.4662 50.0711 14.5694 49.8763 14.7402C49.6815 14.911 49.5472 15.1403 49.4934 15.3937C49.1835 15.4035 48.8819 15.4968 48.6205 15.6635C48.3591 15.8303 48.1475 16.0645 48.008 16.3414C47.9724 16.4129 47.9416 16.4867 47.9156 16.5622C47.8206 16.7291 47.7631 16.9148 47.7471 17.1062C47.7311 17.2977 47.7571 17.4903 47.8233 17.6707C47.9073 17.8859 48.0459 18.1261 47.935 18.3274C47.8242 18.5288 47.5388 18.539 47.3171 18.6147C47.1246 18.6858 46.9635 18.8225 46.8621 19.0008C46.7607 19.1791 46.7255 19.3875 46.7628 19.5893C46.8147 19.7263 46.8379 19.8724 46.8312 20.0188C46.7774 20.161 46.6895 20.2879 46.5753 20.3883C46.4526 20.5335 46.3701 20.7084 46.3362 20.8954C46.3023 21.0825 46.3182 21.2752 46.3821 21.4542C46.4461 21.6332 46.556 21.7923 46.7008 21.9155C46.8456 22.0388 47.0202 22.1218 47.2071 22.1563C47.3796 22.163 47.5494 22.2015 47.7078 22.2699C47.875 22.3743 47.9498 22.5766 48.0681 22.7318C48.1856 22.8811 48.3456 22.9913 48.527 23.0477C48.7084 23.1041 48.9027 23.1041 49.0842 23.0477C49.1566 23.0232 49.2254 22.9887 49.2883 22.9452C49.3572 23.0362 49.4481 23.1083 49.5525 23.1545C49.6569 23.2007 49.7713 23.2196 49.885 23.2094L49.8167 19.2373C49.8388 19.2852 49.8722 19.327 49.9141 19.3592C49.9559 19.3914 50.0049 19.4129 50.0568 19.4221C50.6887 19.5671 50.7884 18.2517 50.6462 17.8942C50.8875 17.6981 51.1026 17.4717 51.2863 17.2208C51.4917 16.8214 51.5928 16.3765 51.5801 15.9276C51.9668 15.8865 52.3429 15.776 52.6904 15.6015Z" fill="#263238"/>
<path d="M50.076 19.4904C50.0566 19.1034 49.5828 19.0165 49.2447 19.2133C49.1288 19.2935 49.0383 19.4052 48.9838 19.5351C48.9293 19.6651 48.9131 19.8079 48.9371 19.9467C48.9317 20.0846 48.9611 20.2216 49.0226 20.3451C49.0842 20.4686 49.1759 20.5746 49.2892 20.6533C49.4025 20.732 49.5338 20.7809 49.671 20.7954C49.8082 20.81 49.9469 20.7897 50.0742 20.7365C50.076 20.7024 50.0991 19.944 50.076 19.4904Z" fill="#FFBE9D"/>
<path d="M49.7224 20.3403C49.7071 20.3517 49.6906 20.3616 49.6734 20.3698C49.6283 20.3913 49.5767 20.3946 49.5293 20.3791C49.4567 20.3368 49.3967 20.2761 49.3553 20.2031C49.3139 20.13 49.2926 20.0473 49.2937 19.9634C49.2861 19.869 49.3006 19.7741 49.3362 19.6863C49.3442 19.6506 49.361 19.6174 49.385 19.5898C49.409 19.5623 49.4396 19.5411 49.4739 19.5283C49.4953 19.5208 49.5187 19.5215 49.5397 19.5302C49.5606 19.5389 49.5776 19.555 49.5875 19.5754C49.605 19.6059 49.5985 19.6271 49.6032 19.629C49.6078 19.6308 49.6272 19.6096 49.6161 19.5643C49.6087 19.5376 49.5924 19.5141 49.5699 19.4978C49.5545 19.4869 49.5372 19.4792 49.5188 19.4751C49.5004 19.4709 49.4813 19.4705 49.4628 19.4738C49.4181 19.4848 49.377 19.5069 49.3433 19.538C49.3095 19.5692 49.2842 19.6085 49.2697 19.6521C49.2279 19.749 49.2096 19.8544 49.2161 19.9597C49.2154 20.0574 49.2432 20.1532 49.2962 20.2352C49.3492 20.3173 49.4251 20.3821 49.5145 20.4216C49.5443 20.429 49.5754 20.4296 49.6054 20.4234C49.6355 20.4172 49.6638 20.4042 49.6882 20.3855C49.7223 20.3661 49.7316 20.3403 49.7224 20.3403Z" fill="#EB996E"/>
<path d="M51.148 15.3946C51.0618 15.4389 50.9867 15.502 50.9282 15.5793C50.8039 15.8121 50.7751 16.0841 50.8478 16.3377V16.3645L50.821 16.3728C50.6632 16.4148 50.5173 16.4929 50.3948 16.601C50.2724 16.709 50.1767 16.844 50.1153 16.9954C50.0805 17.0803 50.0611 17.1707 50.058 17.2624C50.0601 17.3596 50.0712 17.4564 50.0913 17.5515C50.1139 17.6555 50.1281 17.7611 50.1338 17.8674C50.1416 17.9821 50.1111 18.0962 50.0469 18.1916C49.9038 18.373 49.716 18.514 49.5019 18.6009C49.3151 18.6832 49.1431 18.7959 48.993 18.9343C48.7437 19.1787 48.5973 19.5092 48.5838 19.858C48.5758 20.0924 48.6252 20.3252 48.7279 20.5361C48.8008 20.6848 48.8618 20.7568 48.8562 20.7624C48.8387 20.7475 48.8232 20.7305 48.8101 20.7116C48.7688 20.6625 48.7323 20.6096 48.7011 20.5536C48.5537 20.2882 48.4976 19.9818 48.5413 19.6814C48.585 19.381 48.7262 19.1033 48.9431 18.8909C49.0972 18.745 49.2749 18.6263 49.4687 18.5399C49.6697 18.4574 49.8465 18.3252 49.9823 18.1556C50.1042 17.9977 50.0488 17.7713 50.0174 17.5755C49.9968 17.4752 49.9857 17.3731 49.9841 17.2707C49.9886 17.1706 50.0098 17.0719 50.0469 16.9788C50.1136 16.818 50.2171 16.6752 50.3492 16.5619C50.4813 16.4486 50.6382 16.368 50.8072 16.3266L50.7869 16.3617C50.7514 16.2294 50.743 16.0913 50.762 15.9556C50.7811 15.8199 50.8272 15.6894 50.8977 15.5719C50.9427 15.5119 51.0017 15.4637 51.0695 15.4315C51.1259 15.3992 51.1471 15.3909 51.148 15.3946Z" fill="#455A64"/>
<path d="M49.3207 20.7504C49.4083 20.658 49.5166 20.5877 49.6366 20.5453H49.6126C49.6351 20.54 49.6579 20.5363 49.6809 20.5342C49.7214 20.5228 49.7637 20.5195 49.8054 20.5245C49.8471 20.5296 49.8874 20.543 49.9239 20.5638C50.0603 20.613 50.1732 20.712 50.2398 20.8409C50.2923 20.9542 50.3126 21.0797 50.2984 21.2037C50.2843 21.3277 50.2361 21.4454 50.1594 21.5439C50.0968 21.6322 50.0106 21.701 49.9105 21.7424C49.8105 21.7837 49.7008 21.7959 49.5941 21.7776C49.4987 21.7481 49.4126 21.6946 49.344 21.6221C49.2754 21.5496 49.2266 21.4606 49.2025 21.3637C49.1688 21.2598 49.1619 21.1491 49.1826 21.0418C49.2033 20.9346 49.2508 20.8343 49.3207 20.7504Z" fill="#455A64"/>
<path d="M58.7167 66.8972C58.6926 66.8972 57.7985 60.9197 56.7186 53.5419C55.6388 46.1641 54.7788 40.1755 54.8038 40.1728C54.8287 40.17 55.7201 46.1484 56.8008 53.529C57.8816 60.9096 58.7379 66.8935 58.7167 66.8972Z" fill="#455A64"/>
<path d="M52.1015 38.0842C52.104 38.1315 52.0987 38.179 52.0858 38.2246C52.0601 38.3509 52.023 38.4745 51.9749 38.5941C51.8186 38.9919 51.5658 39.3445 51.2393 39.6203C50.9127 39.896 50.5227 40.0862 50.1044 40.1737C49.9783 40.1994 49.8505 40.2151 49.722 40.2208C49.675 40.2253 49.6276 40.2225 49.5815 40.2124C49.5815 40.1986 49.782 40.1949 50.0914 40.1201C50.4949 40.0194 50.8698 39.8271 51.187 39.5581C51.5042 39.2892 51.7552 38.9508 51.9204 38.5691C52.0507 38.2782 52.0867 38.0805 52.1015 38.0842Z" fill="#455A64"/>
<path d="M54.1694 38.2976C54.0959 38.3225 54.0316 38.3689 53.9846 38.4306C53.962 38.4634 53.9466 38.5006 53.9393 38.5397C53.9319 38.5788 53.9329 38.6191 53.9421 38.6578C53.9594 38.7014 53.9881 38.7396 54.0253 38.7681C54.0625 38.7966 54.1068 38.8145 54.1534 38.8198C54.2 38.8251 54.2471 38.8177 54.2898 38.7982C54.3325 38.7788 54.3691 38.7482 54.3957 38.7096C54.4132 38.6738 54.423 38.6348 54.4246 38.5951C54.4262 38.5553 54.4195 38.5157 54.4049 38.4786C54.3711 38.4066 54.3159 38.3466 54.247 38.3068C54.2704 38.3078 54.2937 38.3116 54.3163 38.3179C54.3747 38.348 54.4217 38.3963 54.4502 38.4555C54.4685 38.4953 54.4785 38.5384 54.4794 38.5822C54.4803 38.6259 54.4721 38.6694 54.4554 38.7099C54.4387 38.7503 54.4139 38.787 54.3824 38.8174C54.3509 38.8478 54.3134 38.8713 54.2724 38.8866C54.2314 38.9018 54.1876 38.9084 54.1439 38.906C54.1002 38.9035 54.0575 38.8921 54.0184 38.8723C53.9793 38.8526 53.9447 38.825 53.9168 38.7913C53.8889 38.7575 53.8683 38.7184 53.8562 38.6763C53.8463 38.6277 53.8475 38.5776 53.8599 38.5296C53.8722 38.4815 53.8953 38.437 53.9274 38.3992C53.9671 38.3483 54.0227 38.3122 54.0853 38.2966C54.1435 38.2846 54.1694 38.292 54.1694 38.2976Z" fill="#455A64"/>
<path d="M61.0259 52.5544C61.0259 52.5784 60.71 52.6717 60.3183 52.8315C59.9267 52.9913 59.6311 53.1474 59.6182 53.1271C59.8175 52.966 60.0436 52.8409 60.286 52.7576C60.5191 52.6477 60.7694 52.5789 61.0259 52.5544Z" fill="#455A64"/>
<path d="M48.8649 29.9517C48.8048 29.9461 48.746 29.9301 48.6913 29.9046C48.5387 29.84 48.3963 29.7538 48.2682 29.6487C48.1103 29.5194 47.9283 29.3439 47.7297 29.1573C47.5277 28.9473 47.2855 28.7802 47.0175 28.6658C46.7425 28.5727 46.4445 28.5727 46.1695 28.6658C45.9442 28.7387 45.7311 28.8452 45.5377 28.9818C45.2014 29.2173 45.0084 29.3873 44.9991 29.3771C44.9899 29.3669 45.0398 29.3263 45.1257 29.2478C45.2459 29.1358 45.372 29.0303 45.5035 28.9319C45.6993 28.7829 45.9176 28.666 46.1501 28.5855C46.4411 28.484 46.7579 28.484 47.0489 28.5855C47.3286 28.7029 47.5804 28.8779 47.7879 29.0991C47.9837 29.2903 48.1574 29.4686 48.3088 29.5997C48.4751 29.744 48.6619 29.8626 48.8631 29.9517H48.8649Z" fill="white"/>
<path d="M56.6006 28.8524C56.6006 28.8524 56.5157 28.7702 56.3494 28.6427C56.1123 28.4649 55.8446 28.3322 55.5596 28.2511C55.1364 28.1297 54.6871 28.1342 54.2664 28.264C53.7647 28.458 53.2875 28.7104 52.8448 29.0159C52.604 29.1648 52.3494 29.2901 52.0845 29.39C51.8359 29.4794 51.5786 29.5429 51.3169 29.5794C50.8758 29.6373 50.4297 29.6457 49.9867 29.6043C49.608 29.5729 49.3059 29.5286 49.0953 29.4972L48.8552 29.4575C48.8272 29.4538 48.7996 29.4473 48.7729 29.4381C48.8011 29.4342 48.8297 29.4342 48.8579 29.4381L49.1 29.4621C49.3096 29.4843 49.6136 29.5194 49.9895 29.5425C50.4285 29.5748 50.8697 29.5612 51.3058 29.5018C51.5616 29.4634 51.8129 29.3994 52.0559 29.3106C52.3161 29.2112 52.5662 29.0875 52.8032 28.9411C53.2518 28.6317 53.7367 28.3786 54.247 28.1873C54.6081 28.0804 54.9899 28.0633 55.359 28.1377C55.7282 28.2121 56.0736 28.3756 56.3651 28.6141C56.4281 28.6662 56.4873 28.7227 56.5425 28.7831C56.5646 28.8038 56.5841 28.8271 56.6006 28.8524Z" fill="white"/>
<path d="M58.2283 28.8007C58.2304 28.8924 58.2064 28.9827 58.159 29.0612C58.0593 29.2612 57.8972 29.4233 57.6972 29.5231C57.4965 29.6208 57.2693 29.6496 57.0506 29.6053C56.9586 29.595 56.8715 29.5588 56.7993 29.5009C56.7993 29.488 56.9 29.5295 57.058 29.548C57.2642 29.5749 57.4738 29.5405 57.6606 29.449C57.8474 29.3575 58.0031 29.213 58.1082 29.0335C58.1904 28.8968 58.2163 28.797 58.2283 28.8007Z" fill="white"/>
<path d="M44.8481 32.164C44.9428 32.1432 45.0387 32.1284 45.1353 32.1197L45.9251 32.0273C46.5902 31.9562 47.5047 31.8693 48.5236 31.7668L48.8774 31.7335L48.8395 31.776C48.8155 30.8375 48.7989 30.0016 48.7905 29.4067V28.6991C48.7866 28.6128 48.7897 28.5263 48.7998 28.4405C48.8133 28.5257 48.8207 28.6118 48.8219 28.6982C48.8303 28.8783 48.8413 29.1166 48.8533 29.4076C48.8774 30.0062 48.9042 30.8422 48.9291 31.777V31.8148H48.8894L48.5356 31.8481C47.5195 31.946 46.6004 32.0328 45.9334 32.0855L45.1437 32.1474C45.045 32.1601 44.9456 32.1647 44.8462 32.1612L44.8481 32.164Z" fill="#263238"/>
<path d="M10.9322 65.288L7.50887 67.2103L4.36819 67.9493C4.31462 67.962 4.26423 67.9856 4.22013 68.0186C4.17604 68.0515 4.13917 68.0932 4.11182 68.141C4.08446 68.1888 4.06719 68.2417 4.06108 68.2964C4.05497 68.3511 4.06015 68.4065 4.07629 68.4592C4.09531 68.5206 4.12869 68.5766 4.17367 68.6225C4.21865 68.6685 4.27393 68.703 4.33494 68.7233C5.60336 69.1574 6.8995 69.5058 8.2146 69.7662C8.51759 69.6286 12.0019 67.9751 12.0019 67.9751L10.9322 65.288Z" fill="#46D0D9"/>
<g opacity="0.6">
<path opacity="0.6" d="M4.07357 68.4619L8.49639 69.6415L8.35137 69.7191C8.22367 69.7838 8.07812 69.8043 7.93753 69.7773C7.56157 69.6951 6.52977 69.4439 4.33499 68.7344C4.27133 68.7139 4.21381 68.6779 4.16767 68.6295C4.12153 68.5811 4.08823 68.5219 4.0708 68.4573L4.07357 68.4619Z" fill="white"/>
</g>
<g opacity="0.6">
<path opacity="0.6" d="M9.23953 68.3354C9.18489 68.3083 9.12207 68.3028 9.06354 68.3199C9.00502 68.337 8.95507 68.3755 8.92361 68.4278C8.89378 68.4813 8.88616 68.5444 8.9024 68.6035C8.91864 68.6626 8.95744 68.7129 9.01045 68.7437C9.06772 68.7706 9.13289 68.7754 9.19353 68.7574C9.25418 68.7393 9.30605 68.6996 9.33929 68.6458C9.36389 68.5872 9.36462 68.5214 9.34132 68.4624C9.31801 68.4033 9.27253 68.3558 9.21459 68.3298" fill="white"/>
</g>
<path d="M7.11622 68.291C7.12783 68.1302 7.12783 67.9687 7.11622 67.8079C7.08001 67.6465 7.03152 67.4881 6.97119 67.334C7.09374 67.4634 7.16894 67.6304 7.18458 67.8079C7.22182 67.9719 7.1975 68.1438 7.11622 68.291Z" fill="#263238"/>
<path d="M7.93106 68.0924C7.90612 68.0924 7.88395 67.8615 7.76017 67.6075C7.63639 67.3535 7.47104 67.189 7.48859 67.1696C7.63939 67.2688 7.76028 67.4072 7.83825 67.57C7.91622 67.7328 7.9483 67.9137 7.93106 68.0934V68.0924Z" fill="#263238"/>
<path d="M8.63589 67.7636C8.60698 67.5871 8.55383 67.4156 8.47793 67.2537C8.37733 67.1046 8.25603 66.9705 8.11768 66.8556C8.11768 66.8463 8.18603 66.8556 8.27563 66.9156C8.38993 66.991 8.48487 67.0923 8.55275 67.2112C8.62227 67.329 8.6625 67.4617 8.67007 67.5982C8.66545 67.7017 8.64697 67.7645 8.63589 67.7636Z" fill="#263238"/>
<path d="M8.64702 67.0227C8.68577 66.9917 8.72908 66.9667 8.77541 66.9488C8.90161 66.8964 9.0369 66.8695 9.17354 66.8694C9.2742 66.8612 9.37479 66.8861 9.4599 66.9405C9.48637 66.9607 9.5058 66.9887 9.51542 67.0205C9.52504 67.0524 9.52436 67.0865 9.51348 67.1179C9.48885 67.1781 9.44323 67.2273 9.38508 67.2565C9.26438 67.3104 9.12865 67.3207 9.00121 67.2854C8.87377 67.2502 8.76258 67.1717 8.68674 67.0634C8.61402 66.9549 8.5752 66.8273 8.5752 66.6967C8.5752 66.5661 8.61402 66.4384 8.68674 66.3299C8.70449 66.3031 8.72776 66.2803 8.75499 66.2631C8.78222 66.2459 8.8128 66.2347 8.84469 66.2302C8.8791 66.2284 8.91317 66.2379 8.94169 66.2572C8.9702 66.2765 8.99162 66.3047 9.00265 66.3373C9.02796 66.4327 9.02796 66.533 9.00265 66.6283C8.97727 66.762 8.92849 66.8902 8.85855 67.007C8.80775 67.0892 8.77172 67.1271 8.76618 67.1244C8.84882 66.9655 8.90735 66.7952 8.93984 66.6191C8.96111 66.5357 8.96111 66.4484 8.93984 66.3651C8.93426 66.3478 8.92323 66.3328 8.90842 66.3223C8.8936 66.3118 8.87577 66.3064 8.85762 66.3068C8.83627 66.3109 8.81598 66.3193 8.79802 66.3315C8.78006 66.3438 8.76481 66.3596 8.75324 66.378C8.69348 66.4725 8.66176 66.5821 8.66176 66.6939C8.66176 66.8057 8.69348 66.9153 8.75324 67.0098C8.81764 67.1034 8.91232 67.172 9.02134 67.2039C9.13037 67.2359 9.24708 67.2293 9.35182 67.1853C9.39284 67.1668 9.42568 67.134 9.44419 67.093C9.45018 67.0755 9.45082 67.0567 9.44605 67.039C9.44128 67.0212 9.4313 67.0053 9.41741 66.9932C9.34546 66.9487 9.26178 66.9268 9.17724 66.9304C8.99609 66.9292 8.81619 66.9604 8.64609 67.0227H8.64702Z" fill="#263238"/>
<path d="M12.7871 66.16L15.0844 68.1774C15.0844 68.1774 13.8051 71.1888 14.193 71.6026L18.2621 67.2897L14.8138 64.0003L12.7871 66.16Z" fill="#46D0D9"/>
<path d="M16.1548 66.6671C16.2066 66.6376 16.2676 66.6282 16.3259 66.6408C16.3842 66.6534 16.4358 66.6871 16.4707 66.7355C16.5033 66.7861 16.5148 66.8475 16.5027 66.9066C16.4906 66.9656 16.4559 67.0176 16.4061 67.0514C16.3514 67.083 16.2869 67.0931 16.2252 67.0796C16.1635 67.0661 16.1091 67.03 16.0726 66.9784C16.0462 66.9226 16.0421 66.8588 16.0611 66.8001C16.0802 66.7414 16.121 66.6921 16.1751 66.6625" fill="#E0E0E0"/>
<g opacity="0.6">
<path opacity="0.6" d="M18.2631 67.2897L17.9029 66.9738L14.135 71.223C14.135 71.223 14.0426 71.4946 14.1932 71.6008L18.2631 67.2897Z" fill="white"/>
</g>
<path d="M14.9948 68.2264C15.017 68.2458 15.126 68.1488 15.2923 68.1091C15.4585 68.0694 15.5971 68.098 15.6082 68.0694C15.6193 68.0407 15.4659 67.9585 15.2673 68.0112C15.0687 68.0638 14.9727 68.2052 14.9948 68.2264Z" fill="#263238"/>
<path d="M14.7552 68.8554C14.7709 68.8795 14.8937 68.8222 15.0508 68.8351C15.2078 68.848 15.3205 68.9155 15.3399 68.8933C15.3593 68.8712 15.2475 68.7446 15.0572 68.7353C14.8669 68.7261 14.7367 68.8379 14.7552 68.8554Z" fill="#263238"/>
<path d="M15.0558 69.6277C15.0779 69.612 15.0003 69.4836 14.8331 69.4291C14.6659 69.3746 14.5283 69.4291 14.5375 69.4558C14.5468 69.4826 14.6659 69.478 14.8017 69.5251C14.9375 69.5722 15.0401 69.6424 15.0558 69.6277Z" fill="#263238"/>
<path d="M14.5239 67.7082C14.5525 67.7174 14.6163 67.5927 14.7336 67.4819C14.8509 67.371 14.9784 67.3128 14.9719 67.2842C14.9655 67.2556 14.8047 67.275 14.6643 67.4071C14.5239 67.5391 14.4971 67.7036 14.5239 67.7082Z" fill="#263238"/>
<path d="M14.0691 67.2925C14.1523 67.237 14.2216 67.163 14.2714 67.0763C14.3286 66.9848 14.3748 66.8868 14.409 66.7844C14.4305 66.7242 14.4475 66.6624 14.4598 66.5997C14.4697 66.5633 14.4734 66.5255 14.4709 66.4879C14.4693 66.4599 14.4583 66.4334 14.4396 66.4124C14.421 66.3915 14.3959 66.3774 14.3684 66.3724C14.3437 66.3689 14.3185 66.3712 14.2949 66.3792C14.2713 66.3873 14.25 66.4008 14.2326 66.4186C14.2075 66.4469 14.1859 66.4778 14.1679 66.511C14.1362 66.5681 14.1093 66.6277 14.0875 66.6893C14.0528 66.7911 14.0335 66.8976 14.0303 67.0052C14.0184 67.1059 14.0377 67.2078 14.0857 67.2971C14.0969 67.2018 14.1021 67.1058 14.1014 67.0098C14.1131 66.9086 14.1376 66.8093 14.1744 66.7142C14.1971 66.6597 14.2236 66.607 14.2538 66.5563C14.2852 66.499 14.3222 66.4639 14.3536 66.4639C14.385 66.4639 14.3674 66.4639 14.373 66.4907C14.3773 66.5186 14.3773 66.5469 14.373 66.5747C14.3626 66.6341 14.3484 66.6927 14.3305 66.7502C14.3005 66.8486 14.2612 66.9439 14.2132 67.0348C14.1273 67.1964 14.0561 67.2814 14.0691 67.2925Z" fill="#263238"/>
<path d="M14.1237 67.2943C14.1348 67.2943 14.0988 67.1761 13.9658 67.0403C13.8891 66.9615 13.7998 66.8959 13.7016 66.8463C13.6423 66.8178 13.5804 66.7949 13.5168 66.778C13.4775 66.7625 13.4348 66.7576 13.393 66.7638C13.3512 66.7699 13.3117 66.7869 13.2785 66.8131C13.2605 66.8324 13.2485 66.8567 13.2441 66.8828C13.2397 66.9089 13.243 66.9357 13.2536 66.9599C13.2683 66.9934 13.2879 67.0246 13.3118 67.0523C13.3525 67.1056 13.4015 67.152 13.4568 67.1899C13.5503 67.2556 13.6591 67.2963 13.7727 67.3082C13.8226 67.3198 13.8743 67.3213 13.9247 67.3126C13.9752 67.3039 14.0234 67.2851 14.0665 67.2574C13.9738 67.2557 13.8813 67.2492 13.7893 67.238C13.6919 67.217 13.6002 67.175 13.5205 67.1151C13.4747 67.0806 13.4343 67.0395 13.4004 66.9932C13.3607 66.9424 13.3404 66.8907 13.3607 66.8777C13.3824 66.8659 13.4063 66.8591 13.4309 66.8577C13.4555 66.8562 13.4801 66.8602 13.503 66.8694C13.5604 66.8832 13.6164 66.9024 13.6702 66.9267C13.762 66.967 13.8475 67.0201 13.9242 67.0846C14.0489 67.2056 14.1099 67.3017 14.1237 67.2943Z" fill="#263238"/>
<path d="M12.787 59.8953L10.2153 57.3523L15.4159 47.8009C15.8945 47.2546 16.5006 46.8348 17.1803 46.5788L18.7959 45.9645L22.8464 45.6292L25.3405 46.3515C26.061 46.6342 26.969 47.1543 26.8794 47.9219L25.988 54.4157L25.5493 62.5935L14.6492 59.9082L17.0676 56.7768L16.1956 53.0532L12.787 59.8953Z" fill="#455A64"/>
<path d="M16.7881 58.5808L22.4099 56.3324C22.6392 56.2041 22.8278 56.0138 22.9541 55.7833C23.0804 55.5528 23.1392 55.2914 23.124 55.029L23.5858 49.0248C23.5858 49.0248 23.5322 46.4707 25.1275 46.346L26.0346 46.7026C27.2068 47.3251 27.4978 49.0322 27.338 50.3503C27.1117 52.2237 27.0221 54.8766 26.7634 56.4987C26.684 57.1358 26.43 57.7385 26.0294 58.2402C25.6289 58.742 25.0975 59.1233 24.4938 59.3419L17.4153 60.8587L16.7881 58.5808Z" fill="#455A64"/>
<path d="M16.9993 58.7794H16.2409C15.578 58.5213 14.8897 58.334 14.1875 58.2206C13.5881 58.4881 13.0171 58.8152 12.4832 59.1969C12.4578 59.2135 12.4384 59.2378 12.4277 59.2662C12.4057 59.3266 12.4078 59.3931 12.4336 59.452C12.4594 59.5108 12.507 59.5575 12.5663 59.5821L12.5903 59.5913L12.5792 59.6264C12.5661 59.6717 12.5601 59.7188 12.5617 59.7659C12.5624 59.8031 12.5756 59.8391 12.599 59.868C12.6225 59.8969 12.655 59.9171 12.6912 59.9255C12.7275 59.9339 12.7655 59.9299 12.7993 59.9142C12.833 59.8985 12.8606 59.872 12.8776 59.8389L12.8333 59.9165C12.8159 59.9485 12.8076 59.9845 12.8092 60.0209V60.0902C12.8105 60.1288 12.8238 60.166 12.8473 60.1967C12.8709 60.2274 12.9034 60.2499 12.9404 60.2611C12.975 60.2724 13.0121 60.2736 13.0473 60.2644C13.0826 60.2553 13.1144 60.2361 13.139 60.2093C13.2859 60.0514 13.6009 59.7225 13.818 59.6883C14.0506 59.6606 14.2848 59.6486 14.5191 59.6523C14.5675 59.6533 14.6145 59.6689 14.6539 59.6971C14.6933 59.7253 14.7233 59.7647 14.7398 59.8103C14.2847 59.9952 13.8406 60.2062 13.4097 60.4421C13.3605 60.4659 13.3179 60.5015 13.2857 60.5456C13.2535 60.5897 13.2326 60.6411 13.2249 60.6952C13.2138 60.795 13.2628 60.8975 13.4568 60.8532C13.8572 60.7337 14.2483 60.5852 14.6272 60.4089C14.8384 60.3478 15.0651 60.3717 15.259 60.4754C15.6128 60.7248 15.7735 60.8162 16.0774 60.7174C16.262 60.6554 16.439 60.5727 16.6049 60.4707L17.2034 60.4125C17.2034 60.4125 17.7734 58.9955 16.9993 58.7794Z" fill="#916B5C"/>
<path d="M14.7396 59.0676C14.7396 59.0759 14.6177 59.0362 14.4237 59.0233C14.1628 59.0075 13.9018 59.0518 13.6607 59.1526C13.4215 59.2567 13.2097 59.4148 13.0418 59.6145C12.9125 59.7724 12.8571 59.8796 12.8506 59.8768C12.8605 59.8491 12.8732 59.8225 12.8885 59.7974C12.9275 59.7278 12.9723 59.6617 13.0224 59.5997C13.1881 59.3911 13.4031 59.2272 13.6481 59.1226C13.8931 59.0181 14.1603 58.9763 14.4255 59.0011C14.505 59.008 14.5838 59.0213 14.6611 59.0408C14.6882 59.0468 14.7145 59.0558 14.7396 59.0676Z" fill="#6D5046"/>
<path d="M14.5697 58.6519C14.4605 58.62 14.348 58.6007 14.2344 58.5946C13.9592 58.5929 13.6893 58.6692 13.4557 58.8145C13.2228 58.9632 13.0104 59.1418 12.8238 59.3456L12.6529 59.5304C12.6332 59.5543 12.6109 59.576 12.5864 59.595C12.604 59.5695 12.6231 59.5452 12.6437 59.522C12.6816 59.4759 12.7361 59.4112 12.8016 59.3327C12.9845 59.1219 13.1974 58.9392 13.4335 58.7905C13.6699 58.6425 13.9445 58.5673 14.2233 58.5743C14.3081 58.578 14.3921 58.5936 14.4727 58.6205C14.5013 58.6288 14.5216 58.6399 14.5355 58.6445L14.5697 58.6519Z" fill="#6D5046"/>
<path d="M24.0312 49.9412C24.0208 49.9864 24.0143 50.0324 24.0118 50.0788L23.9739 50.4751C23.9434 50.8261 23.9009 51.3221 23.851 51.9299C23.8012 52.5378 23.742 53.2786 23.6774 54.0906C23.6617 54.2929 23.6441 54.5016 23.6284 54.7224C23.6175 54.9394 23.5922 55.1554 23.5527 55.369C23.5138 55.5813 23.4125 55.7771 23.2617 55.9315C23.1028 56.0803 22.9202 56.2014 22.7213 56.2899C21.1067 57.0372 19.6185 57.6552 18.5387 58.0875L17.251 58.5836L16.9018 58.7212C16.8604 58.7358 16.8202 58.7537 16.7817 58.7748C16.8244 58.767 16.8662 58.755 16.9064 58.7388L17.2602 58.6159C17.5669 58.5069 18.0094 58.3443 18.5535 58.142C19.6407 57.7236 21.1297 57.1149 22.7509 56.3648C22.9573 56.2722 23.1468 56.1457 23.3116 55.9907C23.4747 55.8248 23.5846 55.6142 23.6275 55.3856C23.6657 55.1694 23.6904 54.951 23.7014 54.7316C23.7171 54.5201 23.7328 54.3113 23.7476 54.1081C23.8076 53.2961 23.8594 52.5627 23.9056 51.9456C23.9517 51.3286 23.9795 50.8372 24.0035 50.488C24.0127 50.33 24.021 50.1896 24.0275 50.0917C24.032 50.0417 24.0332 49.9914 24.0312 49.9412Z" fill="#263238"/>
<path d="M24.9418 57.4068C24.9248 57.2887 24.8856 57.1749 24.8263 57.0714C24.6982 56.8157 24.5205 56.588 24.3036 56.4017C24.0866 56.2154 23.8348 56.0741 23.5627 55.9861C23.4517 55.9445 23.3338 55.9241 23.2153 55.926C23.2153 55.9399 23.3447 55.9667 23.5442 56.0433C23.8026 56.1435 24.0423 56.2861 24.2536 56.4655C24.4637 56.6449 24.642 56.8585 24.7811 57.0973C24.8279 57.2038 24.8816 57.3072 24.9418 57.4068Z" fill="#263238"/>
<g opacity="0.3">
<path opacity="0.3" d="M18.3086 58.0524C18.9783 57.6737 19.6323 57.3827 20.3325 57.065C21.0518 56.78 21.6874 56.3176 22.1799 55.7209C23.0436 54.557 22.9448 52.8777 23.8288 51.7258C23.7721 52.4974 23.7149 53.2703 23.657 54.0444C23.6034 54.7519 23.7124 55.4531 23.2561 55.9399C22.7727 56.3537 22.2055 56.6581 21.5934 56.8322C20.5274 57.1832 19.382 57.706 18.3141 58.058" fill="black"/>
</g>
<path d="M5.80188 57.7421C5.39768 57.9032 5.05095 58.1816 4.80632 58.5415C4.56169 58.9014 4.43036 59.3262 4.42921 59.7613C4.41813 62.696 10.3577 65.9319 10.3577 65.9319L18.2639 60.6934L18.7581 60.4929C18.7581 60.4929 8.08903 56.483 5.80188 57.7421Z" fill="#263238"/>
<path d="M14.2594 63.3389C14.1869 63.2976 14.1178 63.2506 14.0525 63.1985C13.9232 63.1061 13.7366 62.9648 13.5122 62.7911C13.0604 62.4401 12.4443 61.9441 11.7746 61.3695C11.1049 60.795 10.5294 60.261 10.1119 59.8731C9.90314 59.6754 9.74241 59.5128 9.6251 59.3992C9.56389 59.3423 9.50736 59.2805 9.45605 59.2144C9.52456 59.261 9.58858 59.3139 9.64727 59.3724L10.1562 59.8343C10.5793 60.2186 11.1723 60.7442 11.831 61.3123C12.4896 61.8804 13.0946 62.3819 13.5454 62.7422C13.7569 62.9177 13.9343 63.0581 14.0701 63.1708C14.1364 63.2218 14.1982 63.2783 14.2548 63.3398L14.2594 63.3389Z" fill="#455A64"/>
<path d="M8.03271 58.8395C8.54977 58.785 9.06732 58.9378 9.47189 59.2644C9.45895 59.2847 9.16983 59.1064 8.7717 58.9873C8.37357 58.8681 8.03271 58.8635 8.03271 58.8395Z" fill="#455A64"/>
<path d="M8.72201 58.3757C8.91317 58.44 9.07905 58.5633 9.19589 58.7277C9.33113 58.8752 9.41731 59.0611 9.44253 59.2597C9.41851 59.268 9.33168 59.0214 9.12661 58.7775C8.92154 58.5337 8.70169 58.396 8.72201 58.3757Z" fill="#455A64"/>
<path d="M6.36636 53.5732L8.61564 59.6311C8.67832 59.8003 8.79194 59.9459 8.94084 60.0478C9.08974 60.1497 9.26659 60.2029 9.447 60.2001L21.825 60.0421V59.0944L17.2313 59.2616L15.2804 53.2139C15.2482 53.1137 15.1849 53.0264 15.0997 52.9648C15.0144 52.9031 14.9117 52.8703 14.8065 52.8712L6.82545 52.898C6.74486 52.8977 6.66543 52.9172 6.59408 52.9546C6.52272 52.9921 6.4616 53.0464 6.41606 53.1129C6.37052 53.1794 6.34193 53.256 6.33278 53.3361C6.32364 53.4162 6.33421 53.4973 6.36359 53.5723L6.36636 53.5732Z" fill="#E0E0E0"/>
<path d="M6.36657 53.5723V53.5529C6.36657 53.54 6.35548 53.5215 6.35086 53.4957C6.33357 53.4209 6.33357 53.3432 6.35086 53.2684C6.38362 53.1469 6.46161 53.0425 6.56886 52.9765C6.63651 52.9343 6.71372 52.9098 6.79333 52.9054H14.7365C14.8514 52.8933 14.9672 52.9189 15.0663 52.9784C15.165 53.0399 15.2377 53.1356 15.2704 53.2472C15.8597 55.0762 16.5156 57.1093 17.2149 59.2847V59.2976H17.2306L21.8372 59.1129L21.8169 59.0935V60.0412L21.8372 60.0218L14.052 60.1262L10.6684 60.1724L9.88782 60.1835H9.5091C9.38677 60.1903 9.2643 60.1727 9.14884 60.1317C9.03782 60.0915 8.93639 60.0286 8.851 59.947C8.7656 59.8654 8.69811 59.7669 8.6528 59.6579L8.40986 59.0057L6.9245 55.0235L6.51344 53.9446C6.42107 53.698 6.36934 53.5705 6.36934 53.5705C6.36934 53.5705 6.41552 53.7016 6.50512 53.9483L6.90325 55.03L8.37568 59.0159L8.6177 59.6625C8.66419 59.776 8.73365 59.8786 8.82172 59.964C8.90979 60.0494 9.01455 60.1156 9.12944 60.1585C9.24776 60.2011 9.37333 60.22 9.49894 60.214H9.87766L10.6582 60.2047L14.0418 60.1622L21.827 60.0615H21.8464V59.0833H21.8261L17.2324 59.2523L17.2527 59.2653C16.5498 57.0917 15.893 55.0586 15.3037 53.2306C15.2671 53.1116 15.1891 53.0096 15.0838 52.9433C14.9791 52.8814 14.8575 52.8543 14.7365 52.8657H12.7338L10.3986 52.8851L7.06952 52.8943H6.79241C6.68981 52.9029 6.59238 52.943 6.51349 53.0092C6.43461 53.0753 6.37812 53.1643 6.35178 53.2638C6.33326 53.3397 6.33326 53.4189 6.35178 53.4947C6.35446 53.521 6.35941 53.547 6.36657 53.5723Z" fill="#263238"/>
<path d="M11.8552 55.8641C11.7593 55.8153 11.6514 55.7954 11.5444 55.8069C11.4375 55.8184 11.3362 55.8607 11.2529 55.9288C11.1823 55.9955 11.1334 56.0819 11.1124 56.1768C11.0915 56.2716 11.0996 56.3706 11.1356 56.4608C11.174 56.5503 11.2366 56.6273 11.3164 56.6832C11.3962 56.739 11.49 56.7714 11.5873 56.7768C11.6898 56.7826 11.7915 56.7549 11.877 56.6979C11.9624 56.641 12.0271 56.5577 12.0612 56.4608C12.0946 56.352 12.0924 56.2353 12.0546 56.1279C12.0169 56.0205 11.9457 55.928 11.8515 55.8641" fill="white"/>
<path d="M9.02637 66.2588C9.02637 66.2588 20.1823 59.1138 20.6755 58.8302C21.4434 58.2884 22.3911 58.0647 23.3202 58.2058C23.9413 58.4206 24.5014 58.7824 24.9526 59.2602C25.4039 59.738 25.7331 60.3178 25.9122 60.9502C26.1967 62.0278 26.3558 63.1347 26.386 64.2488C26.468 64.8292 26.4287 65.4202 26.2707 65.9847C26.1127 66.5491 25.8393 67.0746 25.4678 67.528C25.1051 67.981 24.6229 68.3237 24.0758 68.5174C23.9585 68.5534 23.8384 68.5857 23.7137 68.6097C22.6643 68.8611 21.564 68.797 20.5509 68.4255C19.5377 68.0539 18.6569 67.3914 18.0189 66.5212L17.7584 66.1249C17.7584 66.1249 10.4526 68.8102 10.3334 68.7714L9.02637 66.2588Z" fill="#263238"/>
<path d="M22.8437 64.2442L22.7818 64.271L22.5971 64.3439L21.8895 64.6211L19.2578 65.6113C18.141 66.0288 16.8016 66.5239 15.2987 67.0708C13.7958 67.6176 12.1312 68.2098 10.354 68.8176L10.3207 68.8287L10.305 68.7982C10.0279 68.2661 9.73137 67.7017 9.433 67.1354C9.27505 66.8445 9.12818 66.5554 8.98777 66.2856L8.97021 66.2524L9.00163 66.233L17.5212 60.8236L20.0799 59.2071L20.7746 58.7729L20.9593 58.6621C21 58.6371 21.0221 58.626 21.0221 58.626C21.0221 58.626 21.0027 58.6418 20.9639 58.6685L20.7856 58.7858L20.0956 59.2357L17.5507 60.8707L9.04688 66.3004L9.06074 66.2487C9.20299 66.5175 9.35264 66.8029 9.50598 67.0967L10.378 68.7649L10.329 68.7446C12.1063 68.1442 13.7727 67.5483 15.2765 67.007L19.2403 65.5633L21.8803 64.5952L22.5943 64.3365L22.7791 64.2719C22.8 64.2612 22.8216 64.252 22.8437 64.2442Z" fill="#455A64"/>
<path d="M16.8172 38.7677C16.4451 40.3758 16.2209 42.0146 16.1475 43.6635V44.3369C17.0605 45.0566 18.141 45.5333 19.2882 45.7225L20.3763 42.7749L16.8172 38.7677Z" fill="#263238"/>
<path d="M24.3557 40.2743C23.9862 38.8934 23.8125 37.2731 22.6255 36.4085C21.7639 35.8096 20.7102 35.5528 19.6696 35.688C19.1028 35.7675 18.5597 35.9678 18.0771 36.2755C17.5097 36.7413 17.1027 37.3732 16.9132 38.0823C16.3368 39.4411 16.4744 41.2516 16.9132 41.7412L22.6006 44.5124C23.6989 43.8944 24.3908 43.6404 24.522 42.143C24.5745 41.5152 24.5183 40.883 24.3557 40.2743Z" fill="#263238"/>
<path d="M22.5357 37.5188L18.9895 36.5951C17.8487 36.4667 17.0811 37.867 17.0007 39.0106C16.8826 40.2663 16.8826 41.5303 17.0007 42.7859C17.028 43.2846 17.2119 43.7621 17.5262 44.1503C17.8404 44.5385 18.2691 44.8178 18.7512 44.9484C18.7512 44.9484 18.7512 44.977 18.7623 45.5442L18.754 46.4679C18.7439 46.8405 18.866 47.2047 19.0985 47.496C19.6408 48.1518 20.5894 48.2119 21.6924 47.7611C21.9954 47.6599 22.2619 47.4719 22.459 47.2205C22.6561 46.9691 22.7749 46.6653 22.8008 46.3469L23.1482 38.2079C23.1533 38.0366 23.0927 37.8698 22.9789 37.7417C22.865 37.6135 22.7065 37.5338 22.5357 37.5188Z" fill="#916B5C"/>
<path d="M18.7412 44.9475C19.6391 44.9674 20.5248 44.7378 21.2999 44.2842C21.0439 44.713 20.662 45.0524 20.2061 45.2562C19.7502 45.46 19.2425 45.5183 18.7523 45.4232L18.7412 44.9475Z" fill="#6D5046"/>
<path d="M19.0254 36.3872C19.0219 36.4012 19.0191 36.4153 19.0171 36.4296L19.0254 36.3872Z" fill="#263238"/>
<path d="M21.7889 45.6153C21.8268 45.1146 21.6088 44.6186 21.6513 44.1179C21.7784 43.6012 21.9442 43.0948 22.1473 42.603C22.2227 41.7457 22.1285 40.8819 21.8702 40.0609C21.3808 39.9981 20.9312 39.7582 20.6066 39.3866C20.2331 38.9319 19.9336 38.4213 19.7189 37.8735C19.7509 38.4087 19.9492 38.9205 20.286 39.3376C20.1793 39.3577 20.0694 39.3524 19.9652 39.3222C19.8609 39.2921 19.7651 39.2379 19.6856 39.164C19.5262 39.0158 19.4002 38.8354 19.3161 38.6347C19.0942 38.1587 18.9629 37.6456 18.9291 37.1216C18.8819 37.8726 18.9894 38.6253 19.245 39.333C19.1066 39.3119 18.9653 39.3217 18.8312 39.3616C18.7641 39.3812 18.6934 39.385 18.6246 39.3727C18.5559 39.3603 18.4909 39.3322 18.4349 39.2905C18.3726 39.2206 18.3324 39.1338 18.3194 39.0411C18.166 38.4066 18.1232 37.7504 18.1929 37.1013C18.0229 37.4504 17.8879 37.8155 17.7901 38.1913C17.6919 38.5688 17.7018 38.9664 17.8187 39.3386C17.7874 39.3696 17.7451 39.3871 17.701 39.3871C17.6568 39.3871 17.6145 39.3696 17.5832 39.3386C17.5207 39.274 17.4814 39.1905 17.4714 39.1012C17.429 38.7792 17.4396 38.4525 17.5028 38.134C17.3508 38.4911 17.242 38.8651 17.1786 39.248C17.1134 39.6344 16.913 39.985 16.6133 40.2373C16.543 39.7518 16.543 39.2587 16.6133 38.7732C16.6876 38.3653 16.8188 37.9698 17.0031 37.5982C17.1756 37.1846 17.4266 36.8082 17.7421 36.4898C18.2889 35.9799 18.5319 36.1831 18.8949 36.3586L18.9374 36.3762C18.9365 36.3672 18.9365 36.3583 18.9374 36.3494L18.9512 36.2718C19.8855 36.0304 20.8675 36.0444 21.7945 36.3124C22.57 36.5862 23.2354 37.105 23.69 37.7904L23.7121 37.8255C24.5555 39.2379 25.2049 41.2692 24.7089 44.5881L21.7889 45.6153Z" fill="#263238"/>
<path d="M16.5196 49.47C16.1761 50.3597 15.9551 51.292 15.8628 52.2412C15.8194 52.7168 15.8725 53.1963 16.0189 53.6509C16.1652 54.1055 16.4018 54.5258 16.7145 54.8868" fill="#455A64"/>
<path d="M16.7145 54.8886C16.6977 54.8784 16.6822 54.8664 16.6683 54.8526C16.6283 54.8139 16.5904 54.7732 16.5547 54.7307C16.4198 54.5745 16.3041 54.4026 16.2101 54.2189C15.9126 53.6036 15.7814 52.9211 15.8295 52.2394C15.8818 51.5638 16.02 50.8977 16.2406 50.2571C16.321 50.0104 16.3902 49.8127 16.441 49.6788C16.4636 49.6067 16.4927 49.5368 16.5279 49.47C16.5152 49.544 16.4966 49.6169 16.4725 49.688C16.4253 49.846 16.3662 50.039 16.2951 50.2737C16.0894 50.9151 15.958 51.5781 15.9034 52.2495C15.8588 52.9186 15.982 53.5883 16.2618 54.1977C16.3891 54.4427 16.5407 54.6742 16.7145 54.8886Z" fill="#263238"/>
<path d="M27.3627 49.9412C27.3654 49.9759 27.3654 50.0108 27.3627 50.0455C27.3627 50.1213 27.3543 50.221 27.3497 50.3421C27.3368 50.5998 27.3137 50.9739 27.2786 51.432C27.2102 52.3558 27.0828 53.6213 26.9627 55.0226C26.9163 55.6857 26.8105 56.3432 26.6468 56.9874C26.5812 57.2712 26.4836 57.5467 26.3558 57.8086C26.2323 58.0326 26.0721 58.2343 25.8819 58.4053C25.6046 58.6485 25.2763 58.8265 24.9212 58.9263C24.8257 58.9538 24.7285 58.9754 24.6303 58.9909C24.5958 58.9972 24.5609 59.0009 24.5259 59.002C24.5259 58.9928 24.6663 58.9734 24.9111 58.8949C25.2561 58.7862 25.5734 58.604 25.8413 58.361C26.0242 58.1929 26.1776 57.9952 26.2948 57.7762C26.4169 57.5176 26.5098 57.2462 26.572 56.967C26.7312 56.3261 26.8363 55.6729 26.886 55.0143C27.0043 53.6111 27.1419 52.3447 27.2241 51.4256C27.2647 50.9739 27.298 50.6053 27.322 50.3384C27.3331 50.2164 27.3423 50.1185 27.3488 50.0419C27.3491 50.0074 27.3528 49.973 27.3599 49.9393L27.3627 49.9412Z" fill="#263238"/>
<path d="M4.90716 23.9L5.12516 24.154C6.03383 25.2095 7.21384 25.9965 8.53752 26.4298C9.86121 26.863 11.2782 26.926 12.6351 26.612C12.9884 26.527 13.3349 26.4155 13.6715 26.2786C14.8892 25.7662 15.9614 24.961 16.793 23.9345C17.6245 22.908 18.1896 21.6919 18.438 20.3944C18.7151 18.8619 18.5765 17.1817 19.3857 15.8607C20.4461 14.1435 22.6807 13.7011 24.6648 13.4138C26.649 13.1265 28.8844 12.6748 29.9366 10.9576C30.542 9.8238 30.6853 8.49975 30.3365 7.26266C29.8902 5.64419 29.032 4.16902 27.8456 2.98106C26.6593 1.79309 25.1853 0.932882 23.5674 0.484332C20.3208 -0.356948 16.8867 -0.0970376 13.8036 1.22332C9.37071 2.87006 5.75773 6.18533 3.73679 10.4606C2.76399 12.6133 2.36071 14.9799 2.56565 17.3332C2.7706 19.6866 3.57688 21.9479 4.90716 23.9Z" fill="#F5F5F5"/>
<path d="M46.4406 12.5067C48.9429 12.5067 50.9715 10.4781 50.9715 7.97578C50.9715 5.47344 48.9429 3.44489 46.4406 3.44489C43.9382 3.44489 41.9097 5.47344 41.9097 7.97578C41.9097 10.4781 43.9382 12.5067 46.4406 12.5067Z" fill="#F5F5F5"/>
</svg>
