<svg width="9" height="11" viewBox="0 0 9 11" fill="none" xmlns="http://www.w3.org/2000/svg">
<path d="M4.16585 5.57786C4.56792 5.57844 4.95341 5.41713 5.23842 5.12991C5.52334 4.84277 5.6848 4.4531 5.68837 4.04599L5.68836 4.04408C5.68631 3.64052 5.52981 3.25321 5.25139 2.96456C4.97289 2.67584 4.59428 2.5086 4.19586 2.49919L4.19586 2.49918L4.19386 2.49916C3.7907 2.49547 3.40304 2.65468 3.11569 2.9411C2.82843 3.22744 2.6648 3.61752 2.65987 4.02574L2.65985 4.02574L2.65986 4.02782C2.66107 4.43155 2.81669 4.81939 3.09444 5.10893C3.37226 5.39855 3.75049 5.56703 4.14905 5.57781L4.14904 5.57786H4.15278H4.16585ZM4.16585 5.57786L4.16605 5.43993V5.57786H4.16585ZM4.29216 10.1379H4.32176L4.34876 10.1258L4.38872 10.1078C4.38885 10.1077 4.38897 10.1077 4.3891 10.1076C4.56013 10.0319 4.70327 9.90405 4.79905 9.74232C5.60379 8.5855 6.40884 7.42868 7.21421 6.27185C7.77348 5.49783 8.01965 4.53528 7.90254 3.58246C7.85484 3.10668 7.71529 2.64509 7.4918 2.22419C7.26813 1.80295 6.96477 1.43073 6.59907 1.12905C5.41279 0.138121 4.03247 -0.0592988 2.62547 0.56155L2.62547 0.561548L2.62476 0.561866C1.90454 0.884545 1.30439 1.43213 0.910907 2.12482C0.517669 2.81707 0.351098 3.61853 0.435033 4.41325C0.489356 5.04452 0.705322 5.65045 1.06161 6.17056L1.06209 6.17125C1.59817 6.9437 2.13552 7.71614 2.67413 8.48858C2.67416 8.48862 2.67419 8.48866 2.67421 8.4887L3.56351 9.76702C3.65716 9.91619 3.79216 10.0344 3.95196 10.1064L3.95194 10.1065L3.95571 10.108L4.00217 10.1274L4.02759 10.1379H4.05511H4.29216ZM4.17309 9.25167C3.88916 8.84212 3.60465 8.43316 3.31956 8.02479L3.31943 8.02461C2.77858 7.25258 2.24153 6.48056 1.70826 5.70853C1.43201 5.30284 1.26457 4.83046 1.22276 4.33821L1.22279 4.33821L1.22246 4.33516C1.15506 3.70747 1.28578 3.07437 1.59543 2.52774C1.90499 1.98128 2.37713 1.54986 2.94302 1.29553C3.51624 1.04273 4.06396 0.957407 4.5853 1.03199C5.10683 1.10659 5.61154 1.34259 6.09637 1.74752L6.09666 1.74776C6.38214 1.98487 6.61892 2.27724 6.79328 2.60812C6.96764 2.93901 7.0761 3.30185 7.11234 3.67575L7.11229 3.67576L7.11273 3.67937C7.20606 4.43431 7.01121 5.19666 6.56888 5.8091L6.56887 5.80908L6.5675 5.81105C5.76905 6.95792 4.97092 8.10479 4.17309 9.25167ZM4.1753 3.29928L4.18242 3.2993L4.18951 3.29857L4.19003 3.29852C4.37616 3.30502 4.55336 3.38405 4.68476 3.52024C4.81797 3.6583 4.89355 3.84424 4.89478 4.03877C4.89382 4.13684 4.87391 4.2337 4.83623 4.32381L4.96349 4.37702L4.83623 4.32381C4.79844 4.4142 4.74355 4.49594 4.67483 4.5644C4.60612 4.63286 4.52494 4.68668 4.43603 4.72291C4.34743 4.75901 4.25281 4.77697 4.15753 4.77583C3.96852 4.77032 3.78849 4.6901 3.65579 4.55133C3.52292 4.4124 3.44804 4.22573 3.44775 4.03082C3.44865 3.93414 3.46831 3.83864 3.50554 3.74986C3.54286 3.66088 3.59705 3.58047 3.66486 3.51321L3.66565 3.51242C3.80169 3.37529 3.98495 3.29896 4.1753 3.29928Z" fill="white" stroke="white" stroke-width="0.275862"/>
</svg>
