<svg width="16" height="16" viewBox="0 0 16 16" fill="none" xmlns="http://www.w3.org/2000/svg">
<path d="M10.9833 3.60531L12.3953 5.01664L10.9833 3.60531ZM11.8913 2.36198L8.07332 6.17998C7.87604 6.37698 7.7415 6.62797 7.68665 6.90131L7.33398 8.66664L9.09932 8.31331C9.37265 8.25864 9.62332 8.12464 9.82065 7.92731L13.6387 4.10931C13.7534 3.99458 13.8444 3.85837 13.9065 3.70847C13.9686 3.55856 14.0005 3.3979 14.0005 3.23564C14.0005 3.07339 13.9686 2.91272 13.9065 2.76282C13.8444 2.61291 13.7534 2.47671 13.6387 2.36198C13.5239 2.24724 13.3877 2.15623 13.2378 2.09414C13.0879 2.03205 12.9272 2.00009 12.765 2.00009C12.6027 2.00009 12.4421 2.03205 12.2922 2.09414C12.1423 2.15623 12.006 2.24724 11.8913 2.36198V2.36198Z" stroke="#46D0D9" stroke-linecap="round" stroke-linejoin="round"/>
<path d="M12.667 9.99996V12C12.667 12.3536 12.5265 12.6927 12.2765 12.9428C12.0264 13.1928 11.6873 13.3333 11.3337 13.3333H4.00033C3.6467 13.3333 3.30756 13.1928 3.05752 12.9428C2.80747 12.6927 2.66699 12.3536 2.66699 12V4.66663C2.66699 4.31301 2.80747 3.97387 3.05752 3.72382C3.30756 3.47377 3.6467 3.3333 4.00033 3.3333H6.00033" stroke="#46D0D9" stroke-linecap="round" stroke-linejoin="round"/>
</svg>
