<svg width="20" height="20" viewBox="0 0 20 20" fill="none" xmlns="http://www.w3.org/2000/svg">
<path d="M9.61112 1.11108C7.92998 1.11108 6.28659 1.6096 4.88877 2.54359C3.49095 3.47758 2.40149 4.8051 1.75814 6.35827C1.1148 7.91145 0.946469 9.62051 1.27444 11.2693C1.60242 12.9182 2.41196 14.4327 3.60071 15.6215C4.78946 16.8102 6.30401 17.6198 7.95285 17.9478C9.60169 18.2757 11.3108 18.1074 12.8639 17.4641C14.4171 16.8207 15.7446 15.7312 16.6786 14.3334C17.6126 12.9356 18.1111 11.2922 18.1111 9.61108C18.1111 7.35674 17.2156 5.19473 15.6215 3.60068C14.0275 2.00662 11.8655 1.11108 9.61112 1.11108ZM9.61112 17.0486C8.14012 17.0486 6.70215 16.6124 5.47906 15.7951C4.25597 14.9779 3.30269 13.8163 2.73976 12.4573C2.17684 11.0983 2.02955 9.60283 2.31653 8.1601C2.60351 6.71736 3.31186 5.39213 4.35201 4.35198C5.39216 3.31182 6.7174 2.60347 8.16013 2.31649C9.60287 2.02952 11.0983 2.1768 12.4573 2.73973C13.8163 3.30266 14.9779 4.25594 15.7952 5.47903C16.6124 6.70212 17.0486 8.14008 17.0486 9.61108C17.0486 11.5836 16.265 13.4754 14.8702 14.8702C13.4754 16.265 11.5837 17.0486 9.61112 17.0486Z" fill="#A4A4A4"/>
<path d="M9.35556 5.00056C8.75353 4.99061 8.1567 5.11338 7.60748 5.36014C7.05826 5.60691 6.57013 5.97161 6.17778 6.42834C6.12327 6.47885 6.07945 6.53979 6.04891 6.60754C6.01838 6.6753 6.00174 6.74849 6 6.82278C5.99996 6.89133 6.01372 6.95918 6.04044 7.0223C6.06716 7.08543 6.1063 7.14253 6.15554 7.19021C6.20479 7.2379 6.26311 7.27519 6.32706 7.29988C6.39101 7.32456 6.45927 7.33613 6.52778 7.33389C6.67454 7.33026 6.81488 7.27293 6.92222 7.17278C7.21915 6.82483 7.58793 6.54533 8.0032 6.35352C8.41846 6.16171 8.87035 6.06214 9.32778 6.06167C10.6389 6.06167 11.4556 6.90612 11.4556 7.95612V7.98389C11.4556 9.21167 10.4778 9.895 8.93333 10.0117C8.8708 10.0141 8.80947 10.0297 8.75338 10.0574C8.69729 10.0852 8.64769 10.1245 8.60783 10.1727C8.56797 10.221 8.53875 10.2771 8.52208 10.3374C8.50542 10.3977 8.50168 10.4609 8.51111 10.5228C8.51111 10.5228 8.51111 11.8117 8.51111 12.0506C8.52493 12.1881 8.58951 12.3155 8.69223 12.408C8.79496 12.5004 8.92846 12.5513 9.06667 12.5506H9.12778C9.26529 12.5367 9.39271 12.4722 9.48517 12.3694C9.57762 12.2667 9.62847 12.1332 9.62778 11.995V10.8506C11.2944 10.6172 12.6444 9.73945 12.6444 7.91723V7.88945C12.6278 6.22278 11.3278 5.00056 9.35556 5.00056Z" fill="#A4A4A4"/>
<path d="M9.07222 15.295C9.45575 15.295 9.76667 14.9841 9.76667 14.6006C9.76667 14.217 9.45575 13.9061 9.07222 13.9061C8.68869 13.9061 8.37778 14.217 8.37778 14.6006C8.37778 14.9841 8.68869 15.295 9.07222 15.295Z" fill="#A4A4A4"/>
</svg>
