<svg width="34" height="34" viewBox="0 0 34 34" fill="none" xmlns="http://www.w3.org/2000/svg">
<circle cx="17" cy="17" r="16" fill="white"/>
<path d="M26.6364 17L27.8522 14.8987C27.9983 14.6458 28.038 14.3453 27.9627 14.0632C27.8873 13.7811 27.703 13.5405 27.4502 13.3943L25.3468 12.1784V9.75548C25.3468 9.46339 25.2307 9.18327 25.0242 8.97673C24.8177 8.77019 24.5375 8.65416 24.2455 8.65416H21.8237L20.609 6.55173C20.4623 6.29944 20.2222 6.11506 19.9405 6.03852C19.8008 6.00065 19.655 5.99088 19.5116 6.00979C19.3681 6.02869 19.2298 6.07589 19.1047 6.14865L17.0012 7.36451L14.8977 6.14755C14.6448 6.00151 14.3442 5.96193 14.0621 6.03753C13.78 6.11312 13.5394 6.29769 13.3934 6.55063L12.1776 8.65416H9.75582C9.46374 8.65416 9.18363 8.77019 8.97709 8.97673C8.77056 9.18327 8.65453 9.46339 8.65453 9.75548V12.1773L6.55107 13.3932C6.42556 13.4653 6.31555 13.5616 6.22737 13.6765C6.13918 13.7913 6.07455 13.9225 6.0372 14.0624C5.99985 14.2023 5.99051 14.3482 6.00971 14.4917C6.02891 14.6352 6.07629 14.7735 6.1491 14.8987L7.36493 17L6.1491 19.1013C6.00372 19.3544 5.96428 19.6546 6.03937 19.9367C6.11446 20.2187 6.298 20.4596 6.54997 20.6068L8.65343 21.8227V24.2445C8.65343 24.5366 8.76946 24.8167 8.97599 25.0232C9.18252 25.2298 9.46264 25.3458 9.75472 25.3458H12.1776L13.3934 27.4493C13.4909 27.616 13.6301 27.7544 13.7973 27.851C13.9645 27.9475 14.154 27.9989 14.3471 28C14.5387 28 14.7292 27.9493 14.8988 27.8513L17.0001 26.6355L19.1036 27.8513C19.3564 27.9972 19.6568 28.0367 19.9388 27.9614C20.2209 27.886 20.4615 27.7019 20.6079 27.4493L21.8226 25.3458H24.2444C24.5364 25.3458 24.8166 25.2298 25.0231 25.0232C25.2296 24.8167 25.3457 24.5366 25.3457 24.2445V21.8227L27.4491 20.6068C27.5744 20.5344 27.6842 20.438 27.7722 20.3231C27.8602 20.2083 27.9248 20.0772 27.9621 19.9374C27.9994 19.7976 28.0088 19.6517 27.9898 19.5083C27.9707 19.3648 27.9236 19.2265 27.8511 19.1013L26.6364 17ZM14.2469 11.4824C14.6851 11.4825 15.1054 11.6567 15.4152 11.9668C15.725 12.2768 15.899 12.6972 15.8988 13.1354C15.8987 13.5737 15.7244 13.994 15.4144 14.3038C15.1044 14.6136 14.684 14.7876 14.2458 14.7874C13.8075 14.7873 13.3872 14.613 13.0775 14.303C12.7677 13.993 12.5937 13.5726 12.5938 13.1343C12.594 12.6961 12.7682 12.2758 13.0782 11.966C13.3882 11.6562 13.8086 11.4822 14.2469 11.4824ZM14.5773 22.0551L12.8152 20.7346L19.4229 11.924L21.185 13.2445L14.5773 22.0551ZM19.7533 22.4956C19.5363 22.4955 19.3214 22.4527 19.121 22.3696C18.9205 22.2865 18.7384 22.1647 18.585 22.0112C18.4316 21.8577 18.3099 21.6755 18.227 21.4749C18.144 21.2744 18.1013 21.0595 18.1014 20.8425C18.1015 20.6255 18.1443 20.4106 18.2274 20.2101C18.3105 20.0097 18.4323 19.8275 18.5858 19.6741C18.7393 19.5207 18.9215 19.3991 19.122 19.3161C19.3225 19.2331 19.5374 19.1904 19.7544 19.1905C20.1927 19.1907 20.6129 19.3649 20.9227 19.6749C21.2325 19.9849 21.4065 20.4053 21.4063 20.8436C21.4062 21.2819 21.232 21.7022 20.922 22.012C20.612 22.3218 20.1916 22.4957 19.7533 22.4956Z" fill="#77ACA2"/>
</svg>
