<svg width="10" height="12" viewBox="0 0 10 12" fill="none" xmlns="http://www.w3.org/2000/svg">
<g clip-path="url(#clip0_328_93)">
<path d="M5.375 1.11667C2.95898 1.11667 1 3.3042 1 6.00209C1 8.69997 2.95898 10.8875 5.375 10.8875C7.79102 10.8875 9.75 8.69997 9.75 6.00209C9.75 3.3042 7.79102 1.11667 5.375 1.11667ZM5.375 8.83737C5.15918 8.83737 4.98438 8.64217 4.98438 8.40117C4.98438 8.16017 5.15918 7.96498 5.375 7.96498C5.59082 7.96498 5.76562 8.16017 5.76562 8.40117C5.76562 8.64217 5.59082 8.83737 5.375 8.83737ZM5.98926 6.44374C5.90082 6.48187 5.82472 6.54888 5.77089 6.63603C5.71707 6.72318 5.688 6.82641 5.6875 6.93228V7.17982C5.6875 7.2278 5.65234 7.26706 5.60938 7.26706H5.14062C5.09766 7.26706 5.0625 7.2278 5.0625 7.17982V6.94536C5.0625 6.69346 5.12793 6.44483 5.25684 6.23763C5.38281 6.0348 5.55859 5.87995 5.76562 5.79162C6.09766 5.64877 6.3125 5.33797 6.3125 4.99883C6.3125 4.51792 5.8916 4.12643 5.375 4.12643C4.8584 4.12643 4.4375 4.51792 4.4375 4.99883V5.08171C4.4375 5.12969 4.40234 5.16895 4.35938 5.16895H3.89062C3.84766 5.16895 3.8125 5.12969 3.8125 5.08171V4.99883C3.8125 4.57027 3.98047 4.17005 4.28516 3.87235C4.57812 3.58555 4.96484 3.42852 5.375 3.42852C5.78516 3.42852 6.17188 3.58664 6.46484 3.87235C6.76953 4.17005 6.9375 4.57027 6.9375 4.99883C6.9375 5.62914 6.56543 6.19619 5.98926 6.44374Z" fill="#8D8D8D"/>
</g>
<defs>
<clipPath id="clip0_328_93">
<rect width="10" height="11.1667" fill="white"/>
</clipPath>
</defs>
</svg>
