<svg width="20" height="20" viewBox="0 0 20 20" fill="none" xmlns="http://www.w3.org/2000/svg">
<path d="M10.0555 6.11108C7.88888 6.11108 6.16666 7.83331 6.16666 9.99997C6.16666 12.1666 7.88888 13.8889 10.0555 13.8889C12.2222 13.8889 13.9444 12.1666 13.9444 9.99997C13.9444 7.83331 12.2222 6.11108 10.0555 6.11108ZM10.0555 12.7778C8.49999 12.7778 7.27777 11.5555 7.27777 9.99997C7.27777 8.44442 8.49999 7.2222 10.0555 7.2222C11.6111 7.2222 12.8333 8.44442 12.8333 9.99997C12.8333 11.5555 11.6111 12.7778 10.0555 12.7778Z" fill="#A4A4A4"/>
<path d="M18.2222 8.16664L16.6667 7.66664L16.3333 6.83331L17.1111 5.38886C17.2778 5.05553 17.2222 4.61108 16.9444 4.33331L15.6111 2.99997C15.3333 2.7222 14.8889 2.66664 14.5556 2.83331L13.1111 3.61108L12.2778 3.27775L11.7778 1.7222C11.6667 1.38886 11.3333 1.11108 10.9444 1.11108H9.05556C8.66667 1.11108 8.33334 1.38886 8.27778 1.77775L7.77778 3.33331C7.44445 3.38886 7.16667 3.49997 6.88889 3.66664L5.44445 2.88886C5.11111 2.7222 4.66667 2.77775 4.38889 3.05553L3.05556 4.38886C2.77778 4.66664 2.72223 5.11108 2.88889 5.44442L3.61111 6.83331C3.5 7.11108 3.38889 7.44442 3.27778 7.7222L1.72223 8.2222C1.38889 8.33331 1.11111 8.66664 1.11111 9.05553V10.9444C1.11111 11.3333 1.38889 11.6666 1.77778 11.7778L3.33334 12.2778L3.66667 13.1111L2.88889 14.5555C2.72223 14.8889 2.77778 15.3333 3.05556 15.6111L4.38889 16.9444C4.66667 17.2222 5.11111 17.2778 5.44445 17.1111L6.88889 16.3333L7.72223 16.6666L8.22223 18.2778C8.33334 18.6111 8.66667 18.8889 9.05556 18.8889H10.9444C11.3333 18.8889 11.6667 18.6111 11.7778 18.2778L12.2778 16.6666L13.1111 16.3333L14.5556 17.1111C14.8889 17.2778 15.3333 17.2222 15.6111 16.9444L16.9444 15.6111C17.2222 15.3333 17.2778 14.8889 17.1111 14.5555L16.3333 13.1111L16.6667 12.2778L18.2778 11.7778C18.6111 11.6666 18.8889 11.3333 18.8889 10.9444V9.05553C18.8889 8.66664 18.6111 8.27775 18.2222 8.16664ZM17.7778 10.7778L15.7778 11.3889L15.7222 11.6666L15.2222 12.8333L15.0556 13.1111L16.0556 14.9444L14.9444 16.0555L13.1111 15.0555L12.8333 15.2222C12.4444 15.4444 12.0556 15.6111 11.6667 15.7222L11.3889 15.7778L10.7778 17.7778H9.22223L8.61111 15.7778L8.33334 15.7222L7.16667 15.2222L6.88889 15.0555L5.05556 16.0555L3.94445 14.9444L4.94445 13.1111L4.77778 12.8333C4.55556 12.4444 4.38889 12.0555 4.27778 11.6666L4.22223 11.3889L2.22223 10.7778V9.2222L4.11111 8.66664L4.22223 8.38886C4.33334 7.94442 4.5 7.55553 4.72223 7.16664L4.88889 6.88886L3.94445 5.05553L5.05556 3.94442L6.83334 4.94442L7.11111 4.77775C7.5 4.55553 7.88889 4.38886 8.33334 4.27775L8.61111 4.16664L9.22223 2.2222H10.7778L11.3889 4.16664L11.6667 4.27775C12.0556 4.38886 12.4444 4.55553 12.8333 4.77775L13.1111 4.94442L14.9444 3.94442L16.0556 5.05553L15.0556 6.88886L15.2222 7.16664C15.4444 7.55553 15.6111 7.94442 15.7222 8.33331L15.7778 8.61108L17.7778 9.2222V10.7778Z" fill="#A4A4A4"/>
</svg>
