<svg width="20" height="20" viewBox="0 0 20 20" fill="none" xmlns="http://www.w3.org/2000/svg">
<path d="M14.375 12.5C13.9072 12.5024 13.4458 12.6097 13.025 12.8142C12.6042 13.0186 12.2347 13.3149 11.9437 13.6813L7.37499 10.825C7.5415 10.2876 7.5415 9.7124 7.37499 9.17501L11.9437 6.31876C12.4075 6.89295 13.0594 7.28449 13.7842 7.42401C14.509 7.56353 15.2597 7.44203 15.9034 7.08102C16.5472 6.72002 17.0424 6.14281 17.3013 5.45166C17.5602 4.76051 17.5662 4.00002 17.3181 3.3049C17.07 2.60979 16.5839 2.02492 15.9458 1.6539C15.3078 1.28288 14.5591 1.14966 13.8322 1.27784C13.1054 1.40602 12.4473 1.78732 11.9747 2.35421C11.5021 2.92109 11.2454 3.63696 11.25 4.37501C11.2529 4.65449 11.295 4.93219 11.375 5.20001L6.80624 8.05626C6.4029 7.54849 5.85158 7.17879 5.22871 6.99838C4.60585 6.81797 3.94228 6.8358 3.33 7.04939C2.71772 7.26298 2.18705 7.66176 1.81155 8.19045C1.43605 8.71913 1.23431 9.35154 1.23431 10C1.23431 10.6485 1.43605 11.2809 1.81155 11.8096C2.18705 12.3383 2.71772 12.737 3.33 12.9506C3.94228 13.1642 4.60585 13.182 5.22871 13.0016C5.85158 12.8212 6.4029 12.4515 6.80624 11.9438L11.375 14.8C11.295 15.0678 11.2529 15.3455 11.25 15.625C11.25 16.2431 11.4333 16.8473 11.7766 17.3612C12.12 17.8751 12.6081 18.2756 13.1791 18.5121C13.7501 18.7487 14.3785 18.8105 14.9846 18.69C15.5908 18.5694 16.1477 18.2718 16.5847 17.8347C17.0217 17.3977 17.3194 16.8409 17.4399 16.2347C17.5605 15.6285 17.4986 15.0001 17.2621 14.4291C17.0256 13.8581 16.6251 13.37 16.1111 13.0267C15.5972 12.6833 14.9931 12.5 14.375 12.5ZM14.375 2.50001C14.7458 2.50001 15.1083 2.60997 15.4167 2.816C15.725 3.02203 15.9654 3.31486 16.1073 3.65747C16.2492 4.00009 16.2863 4.37709 16.214 4.7408C16.1416 5.10451 15.963 5.43861 15.7008 5.70083C15.4386 5.96305 15.1045 6.14163 14.7408 6.21398C14.3771 6.28633 14.0001 6.24919 13.6575 6.10728C13.3148 5.96537 13.022 5.72504 12.816 5.4167C12.61 5.10836 12.5 4.74585 12.5 4.37501C12.5 3.87772 12.6975 3.40081 13.0492 3.04918C13.4008 2.69755 13.8777 2.50001 14.375 2.50001ZM4.37499 11.875C4.00415 11.875 3.64164 11.765 3.3333 11.559C3.02496 11.353 2.78463 11.0601 2.64272 10.7175C2.5008 10.3749 2.46367 9.99793 2.53602 9.63421C2.60837 9.2705 2.78694 8.9364 3.04917 8.67418C3.31139 8.41196 3.64548 8.23338 4.0092 8.16103C4.37291 8.08869 4.74991 8.12582 5.09252 8.26773C5.43514 8.40965 5.72797 8.64997 5.934 8.95831C6.14003 9.26665 6.24999 9.62917 6.24999 10C6.24999 10.4973 6.05245 10.9742 5.70082 11.3258C5.34919 11.6775 4.87227 11.875 4.37499 11.875ZM14.375 17.5C14.0042 17.5 13.6416 17.39 13.3333 17.184C13.025 16.978 12.7846 16.6852 12.6427 16.3425C12.5008 15.9999 12.4637 15.6229 12.536 15.2592C12.6084 14.8955 12.7869 14.5614 13.0492 14.2992C13.3114 14.037 13.6455 13.8584 14.0092 13.786C14.3729 13.7137 14.7499 13.7508 15.0925 13.8927C15.4351 14.0346 15.728 14.275 15.934 14.5833C16.14 14.8917 16.25 15.2542 16.25 15.625C16.25 16.1223 16.0524 16.5992 15.7008 16.9508C15.3492 17.3025 14.8723 17.5 14.375 17.5Z" fill="#A4A4A4"/>
</svg>
