<svg width="12" height="12" viewBox="0 0 12 12" fill="none" xmlns="http://www.w3.org/2000/svg">
<path d="M9.06338 11.3333C8.91607 11.3332 8.77215 11.2891 8.65005 11.2067L6.16338 9.54C6.15114 9.53154 6.1366 9.52701 6.12172 9.52701C6.10683 9.52701 6.0923 9.53154 6.08005 9.54L3.59338 11.2067C3.46852 11.29 3.32124 11.3335 3.17111 11.3312C3.02098 11.3289 2.8751 11.2809 2.75285 11.1938C2.6306 11.1066 2.53775 10.9843 2.48665 10.8431C2.43554 10.7019 2.42859 10.5486 2.46672 10.4033L3.28338 7.52333C3.28725 7.50885 3.28678 7.49356 3.28204 7.47934C3.2773 7.46512 3.2685 7.4526 3.25672 7.44333L0.903385 5.59333C0.779497 5.50104 0.6876 5.37229 0.640579 5.22514C0.593558 5.07798 0.593771 4.9198 0.641188 4.77277C0.688604 4.62574 0.780847 4.49724 0.904982 4.40528C1.02912 4.31332 1.17892 4.26252 1.33338 4.26L4.33338 4.14667C4.34813 4.14565 4.36228 4.14039 4.3741 4.13151C4.38593 4.12264 4.39494 4.11054 4.40005 4.09667L5.43338 1.28667C5.48547 1.14421 5.58007 1.0212 5.70438 0.934297C5.82869 0.84739 5.97671 0.800781 6.12838 0.800781C6.28006 0.800781 6.42808 0.84739 6.55239 0.934297C6.6767 1.0212 6.7713 1.14421 6.82338 1.28667L7.85672 4.09667C7.86183 4.11054 7.87084 4.12264 7.88266 4.13151C7.89449 4.14039 7.90863 4.14565 7.92338 4.14667L10.9234 4.26C11.0778 4.26252 11.2277 4.31332 11.3518 4.40528C11.4759 4.49724 11.5682 4.62574 11.6156 4.77277C11.663 4.9198 11.6632 5.07798 11.6162 5.22514C11.5692 5.37229 11.4773 5.50104 11.3534 5.59333L9.00005 7.44333C8.98791 7.4523 8.97884 7.4648 8.97407 7.47912C8.9693 7.49343 8.96906 7.50888 8.97338 7.52333L9.79005 10.4033C9.81872 10.5138 9.82156 10.6294 9.79836 10.7411C9.77516 10.8529 9.72655 10.9578 9.65628 11.0477C9.58601 11.1376 9.49598 11.2102 9.39316 11.2597C9.29035 11.3092 9.17751 11.3344 9.06338 11.3333ZM6.12338 8.86C6.27099 8.86452 6.41384 8.91329 6.53338 9L9.02005 10.6667C9.03265 10.6762 9.04802 10.6815 9.06384 10.6816C9.07967 10.6817 9.09512 10.6767 9.10787 10.6674C9.12062 10.658 9.13 10.6447 9.13459 10.6296C9.13919 10.6144 9.13877 10.5982 9.13338 10.5833L8.31672 7.70333C8.27653 7.56206 8.2795 7.41199 8.32523 7.27241C8.37097 7.13282 8.45738 7.0101 8.57338 6.92L10.9267 5.07C10.9396 5.06098 10.9492 5.04809 10.9541 5.03321C10.9591 5.01832 10.9592 5.00224 10.9543 4.98732C10.9495 4.9724 10.94 4.95943 10.9272 4.95031C10.9144 4.9412 10.8991 4.93641 10.8834 4.93667L7.88338 4.82333C7.73649 4.81761 7.59463 4.76826 7.47589 4.68158C7.35716 4.59491 7.26693 4.47483 7.21672 4.33667L6.18338 1.52667C6.17873 1.51175 6.16942 1.4987 6.15683 1.48944C6.14424 1.48018 6.12901 1.47519 6.11338 1.47519C6.09775 1.47519 6.08253 1.48018 6.06994 1.48944C6.05735 1.4987 6.04804 1.51175 6.04338 1.52667L5.02005 4.33333C4.96984 4.4715 4.87961 4.59157 4.76087 4.67825C4.64214 4.76493 4.50028 4.81427 4.35338 4.82L1.35338 4.93333C1.3377 4.93308 1.32235 4.93786 1.30958 4.94698C1.29681 4.9561 1.28731 4.96907 1.28246 4.98399C1.27761 4.99891 1.27767 5.01499 1.28264 5.02987C1.28761 5.04475 1.29721 5.05765 1.31005 5.06667L3.66672 6.92C3.78236 7.01039 3.86852 7.13313 3.91422 7.27262C3.95992 7.4121 3.96311 7.56203 3.92338 7.70333L3.11005 10.5833C3.1052 10.5978 3.10517 10.6134 3.10999 10.6278C3.1148 10.6422 3.12418 10.6547 3.13672 10.6633C3.14879 10.6737 3.16416 10.6793 3.18005 10.6793C3.19594 10.6793 3.21131 10.6737 3.22338 10.6633L5.71005 8.99667C5.83158 8.91605 5.97422 8.87315 6.12005 8.87333L6.12338 8.86Z" fill="#46D0D9"/>
</svg>
