<svg width="5" height="5" viewBox="0 0 5 5" fill="none" xmlns="http://www.w3.org/2000/svg">
<path d="M2.35913 3.54507L4.20581 1.6979C4.21411 1.6896 4.21801 1.67837 4.21704 1.66714L4.09252 0.19546C4.08911 0.157374 4.05932 0.127588 4.02123 0.12417L2.54956 0.000146977C2.53832 -0.000829586 2.52661 0.00307664 2.51879 0.0113774L0.672114 1.85806C0.664845 1.8654 0.660767 1.87531 0.660767 1.88565C0.660767 1.89598 0.664845 1.90589 0.672114 1.91323L2.30395 3.54507C2.31909 3.56069 2.34399 3.56069 2.35913 3.54507ZM2.95825 0.940577C3.04956 0.849268 3.19799 0.849268 3.28979 0.940577C3.3811 1.03189 3.3811 1.18032 3.28979 1.27212C3.19848 1.36343 3.05004 1.36343 2.95825 1.27212C2.86694 1.18081 2.86694 1.03237 2.95825 0.940577ZM4.34399 2.32192L4.15063 2.12905C4.14329 2.12178 4.13337 2.11771 4.12304 2.11771C4.11271 2.11771 4.1028 2.12178 4.09545 2.12905L2.32788 3.89321L1.16772 2.73599C1.16038 2.72872 1.15046 2.72464 1.14013 2.72464C1.1298 2.72464 1.11989 2.72872 1.11254 2.73599L0.919185 2.92886C0.911915 2.9362 0.907837 2.94611 0.907837 2.95645C0.907837 2.96678 0.911915 2.97669 0.919185 2.98403L2.10668 4.16958L2.30004 4.36245C2.31518 4.37759 2.34008 4.37759 2.35522 4.36245L4.34399 2.3771C4.35913 2.36196 4.35913 2.33706 4.34399 2.32192Z" fill="#8D8D8D"/>
</svg>
