<svg width="38" height="38" viewBox="0 0 38 38" fill="none" xmlns="http://www.w3.org/2000/svg">
<path d="M19.2337 17.0332C19.2059 16.9977 19.1704 16.969 19.1299 16.9493C19.0894 16.9296 19.045 16.9193 18.9999 16.9193C18.9548 16.9193 18.9104 16.9296 18.8699 16.9493C18.8294 16.969 18.7939 16.9977 18.7661 17.0332L14.6099 22.2916C14.5756 22.3354 14.5543 22.3879 14.5485 22.4431C14.5427 22.4984 14.5525 22.5542 14.5769 22.6041C14.6013 22.6541 14.6392 22.6961 14.6864 22.7255C14.7336 22.7549 14.7881 22.7704 14.8436 22.7703H17.586V31.7656C17.586 31.9289 17.7196 32.0625 17.8829 32.0625H20.1095C20.2727 32.0625 20.4063 31.9289 20.4063 31.7656V22.774H23.1561C23.4048 22.774 23.5421 22.4883 23.3899 22.2953L19.2337 17.0332Z" fill="black"/>
<path d="M30.1105 13.608C28.4109 9.1252 24.0803 5.9375 19.0074 5.9375C13.9346 5.9375 9.60391 9.12148 7.9043 13.6043C4.72402 14.4393 2.375 17.3375 2.375 20.7812C2.375 24.8818 5.69629 28.2031 9.79316 28.2031H11.2812C11.4445 28.2031 11.5781 28.0695 11.5781 27.9062V25.6797C11.5781 25.5164 11.4445 25.3828 11.2812 25.3828H9.79316C8.54258 25.3828 7.36621 24.8855 6.49043 23.9838C5.61836 23.0857 5.15449 21.876 5.19531 20.6217C5.22871 19.642 5.5627 18.7217 6.16758 17.9461C6.7873 17.1557 7.65566 16.5805 8.62051 16.3244L10.027 15.957L10.5428 14.5988C10.8619 13.7527 11.3072 12.9623 11.8676 12.2461C12.4208 11.5362 13.0761 10.9122 13.8121 10.3943C15.3373 9.32188 17.1334 8.7541 19.0074 8.7541C20.8814 8.7541 22.6775 9.32188 24.2027 10.3943C24.9412 10.9139 25.5943 11.5373 26.1473 12.2461C26.7076 12.9623 27.1529 13.7564 27.4721 14.5988L27.9842 15.9533L29.3869 16.3244C31.3982 16.8662 32.8047 18.6957 32.8047 20.7812C32.8047 22.0096 32.326 23.1674 31.4576 24.0357C31.0318 24.4641 30.5252 24.8037 29.9672 25.0349C29.4092 25.2662 28.8108 25.3844 28.2068 25.3828H26.7188C26.5555 25.3828 26.4219 25.5164 26.4219 25.6797V27.9062C26.4219 28.0695 26.5555 28.2031 26.7188 28.2031H28.2068C32.3037 28.2031 35.625 24.8818 35.625 20.7812C35.625 17.3412 33.2834 14.4467 30.1105 13.608Z" fill="black"/>
</svg>
